<?xml version="1.0" encoding="UTF-8" standalone="no"?>
<!-- Created with Inkscape (http://www.inkscape.org/) -->

<svg
   xmlns:dc="http://purl.org/dc/elements/1.1/"
   xmlns:cc="http://creativecommons.org/ns#"
   xmlns:rdf="http://www.w3.org/1999/02/22-rdf-syntax-ns#"
   xmlns:svg="http://www.w3.org/2000/svg"
   xmlns="http://www.w3.org/2000/svg"
   xmlns:sodipodi="http://sodipodi.sourceforge.net/DTD/sodipodi-0.dtd"
   xmlns:inkscape="http://www.inkscape.org/namespaces/inkscape"
   width="8.3023796cm"
   height="8.3023796cm"
   viewBox="0 0 83.023794 83.023797"
   version="1.1"
   id="svg4651"
   inkscape:version="0.92.5 (2060ec1f9f, 2020-04-08)"
   sodipodi:docname="explode.svg">
  <defs
     id="defs4645" />
  <sodipodi:namedview
     id="base"
     pagecolor="#ffffff"
     bordercolor="#666666"
     borderopacity="1.0"
     inkscape:pageopacity="0.0"
     inkscape:pageshadow="2"
     inkscape:zoom="1.4"
     inkscape:cx="219.85854"
     inkscape:cy="46.373758"
     inkscape:document-units="mm"
     inkscape:current-layer="layer1"
     showgrid="false"
     inkscape:window-width="1920"
     inkscape:window-height="1044"
     inkscape:window-x="0"
     inkscape:window-y="36"
     inkscape:window-maximized="1"
     units="cm" />
  <metadata
     id="metadata4648">
    <rdf:RDF>
      <cc:Work
         rdf:about="">
        <dc:format>image/svg+xml</dc:format>
        <dc:type
           rdf:resource="http://purl.org/dc/dcmitype/StillImage" />
        <dc:title></dc:title>
      </cc:Work>
    </rdf:RDF>
  </metadata>
  <g
     inkscape:label="Layer 1"
     inkscape:groupmode="layer"
     id="layer1"
     transform="translate(-34.839278,-102.53644)">
    <g
       id="g5246"
       transform="translate(-2.3187129e-5,-14.612232)">
      <path
         style="stroke-width:0.26458332"
         inkscape:connector-curvature="0"
         id="path4627"
         d="m 117.85573,156.30166 c -0.16666,-0.0612 -0.57166,-0.20944 -0.8995,-0.32872 l -0.5963,-0.21693 0.57674,-0.376 0.57669,-0.37597 -0.68861,-0.27834 c -0.38033,-0.1528 -3.53308,-1.26537 -7.00907,-2.47224 -3.4771,-1.20685 -6.32098,-2.26489 -6.32098,-2.35146 0,-0.0866 1.32011,-2.77992 2.93338,-5.98477 1.61325,-3.20487 2.88457,-5.82718 2.82486,-5.82718 -0.0598,0 -0.56071,0.22712 -1.11313,0.50546 -0.55261,0.27834 -1.00463,0.45844 -1.00463,0.39701 0,-0.06 0.32457,-0.74907 0.72099,-1.53144 0.39643,-0.78237 0.69194,-1.45023 0.65731,-1.48439 -0.0336,-0.0341 -2.95355,1.37591 -6.48883,3.13261 -6.213765,3.08761 -6.432681,3.17902 -6.595109,2.74516 -0.09229,-0.24691 -0.702072,-2.05335 -1.35427,-4.01532 -0.253021,-0.76086 -0.458549,-1.36374 -0.630449,-1.84306 l 2.38e-4,-8e-5 -0.0056,-0.0147 c -0.114547,-0.31914 -0.214321,-0.5836 -0.301343,-0.79677 l -1.294897,-3.42363 -0.880877,0.82391 c -0.0013,-0.001 -0.0024,-0.002 -0.0036,-0.004 l -0.478605,0.45482 -7.94e-4,5.3e-4 v 0 l -4.517097,4.29265 -4.996365,4.74814 -1.51429,-3.49422 c -0.471302,-1.08792 -0.839311,-1.89233 -1.116171,-2.43838 l -1.613006,-3.41669 -0.331153,0.36745 c -0.07099,0.0635 -0.289798,0.30708 -0.618252,0.68596 l -0.0038,0.004 -5.3e-5,2.1e-4 c -0.683022,0.78798 -1.83388,2.15339 -3.113511,3.69948 -2.002076,2.41893 -3.710808,4.37881 -3.797088,4.35841 -0.0862,-0.0219 -0.857541,-1.50831 -1.714553,-3.30394 -0.436096,-0.91318 -0.861175,-1.73873 -1.193995,-2.33169 l 2.38e-4,1.3e-4 c -0.04784,-0.0847 -1.856449,-3.30544 -1.856449,-3.30544 l -0.829204,0.95356 c -0.226589,0.24355 -0.511228,0.57285 -0.873389,1.00436 l -0.0052,0.006 5.3e-5,1.1e-4 c -0.601173,0.71657 -1.413708,1.71058 -2.531943,3.06046 l -3.445166,4.15856 -4.213278,-4.84889 -4.213251,-4.84891 -0.05368,5.8942 -0.05368,5.89421 -2.170959,-0.12409 c -1.191472,-0.0683 -4.125437,-0.1809 -6.516741,-0.25046 l -4.348083,-0.12615 4.904078,4.89614 4.904132,4.89617 -4.846479,3.31538 c -2.665465,1.82351 -4.84931,3.36516 -4.853199,3.42654 -0.0039,0.0614 0.680826,0.22651 1.521513,0.36703 1.23907,0.20672 1.486323,0.30626 1.303972,0.52462 -0.285908,0.34248 -0.34073,0.32665 3.941895,1.10236 1.890713,0.34248 3.558725,0.66789 3.706495,0.71554 0.246169,0.0887 -1.466188,3.58415 -4.160705,8.50008 -0.383037,0.6993 -0.640636,1.32615 -0.572241,1.39446 0.06821,0.0677 0.714322,-0.0171 1.434809,-0.1882 0.72099,-0.17404 1.31064,-0.27627 1.31064,-0.2286 0,0.0456 -0.138827,0.34997 -0.308583,0.67599 -0.235956,0.45363 -0.247862,0.59187 -0.05035,0.58878 0.141525,-0.002 2.624084,-0.53131 5.516086,-1.17669 2.889726,-0.64476 6.852391,-1.76209 6.852391,-1.76209 -4.030875,9.02057 -6.376909,14.83754 -6.376909,14.83754 0,0 5.867877,-2.72206 18.817511,-10.32841 0.935329,-0.64185 1.773476,-1.16647 1.862243,-1.16647 0.0889,0 0.533295,1.17541 0.987822,2.61276 0.454396,1.43669 0.899187,2.61274 0.988404,2.61274 0.08917,0 0.326946,-0.18071 0.528214,-0.4018 0.496517,-0.54565 0.652383,-0.50734 0.808329,0.19862 0.073,0.33081 0.215794,0.65286 0.317262,0.7143 0.101229,0.062 2.574237,-1.94011 5.495343,-4.44918 2.921688,-2.50971 5.456237,-4.68591 5.632979,-4.836 0.283633,-0.24149 0.682519,0.17862 3.387645,3.56708 l 3.065992,3.84064 -2.64e-4,-0.002 c 0,0 1.987417,1.88764 0.303133,0.33975 l 0.808831,1.05738 c 0.798195,1.04302 0.810075,1.0499 0.87548,0.49049 l 0.06628,-0.5669 0.58293,0.67683 0.58285,0.67744 0.0084,-5.07479 c 0.0045,-2.79095 0.07646,-5.07124 0.159887,-5.06663 0.08387,0.005 3.56489,1.39173 7.736206,3.08281 4.17134,1.69112 7.61212,3.05557 7.64675,3.02832 0.0341,-0.026 -1.40401,-2.90068 -3.19683,-6.38805 l -3.25953,-6.34098 7.44537,-3.71239 c 4.32732,-2.15985 7.31407,-3.75603 7.13764,-3.82431 z m -9.49878,2.46724 c -3.89215,1.92262 -7.07615,3.55833 -7.07615,3.63413 0,0.0764 1.37885,2.83655 3.06372,6.13426 1.68486,3.29769 2.93621,5.94731 2.78066,5.88587 -0.48106,-0.18693 -8.60774,-3.46882 -11.791735,-4.76229 -1.656319,-0.67265 -3.044164,-1.22309 -3.083904,-1.22309 -0.03956,0 -0.07199,2.1843 -0.07199,4.85368 v 4.8537 L 88.0823,173.00481 c -2.252636,-2.827 -4.160626,-5.12517 -4.240106,-5.10477 -0.07834,0.0198 -2.660994,2.20636 -5.739316,4.85931 -3.081073,2.65314 -5.720238,4.89408 -5.867876,4.98068 -0.204708,0.12012 -0.520224,-0.6337 -1.326859,-3.16526 -0.582295,-1.82748 -1.134957,-3.32291 -1.228407,-3.32291 -0.09506,0 -2.921688,1.83912 -6.281844,4.08631 l 0.0065,-5.3e-4 c -4.066778,2.20345 -8.164195,4.37422 -12.099448,6.84916 -0.268552,0.21151 4.462198,-10.80389 5.990987,-13.7052 -0.03082,-0.0252 -2.493196,0.49257 -5.483649,1.16313 -6.634824,1.48852 -9.783551,2.16869 -9.783551,2.12101 0,-0.0204 1.171364,-2.26759 2.602786,-4.99359 2.097863,-3.99492 2.539188,-4.97443 2.275028,-5.05021 -0.180075,-0.0518 -2.42099,-0.47424 -4.979008,-0.9381 -2.558627,-0.46469 -4.716886,-0.90125 -4.796684,-0.97015 -0.0794,-0.0689 1.504156,-1.25455 3.520202,-2.63462 2.015463,-1.38006 4.027222,-2.76701 4.470056,-3.08282 l 0.804915,-0.57377 -4.527629,-4.52162 -4.52763,-4.52163 4.246854,0.12555 c 2.333678,0.0687 4.949984,0.17925 5.811917,0.24754 l 1.567418,0.12221 v -4.62386 c 0,-2.54322 0.0554,-4.89886 0.123058,-5.23507 0.119723,-0.59481 0.22434,-0.49527 3.869848,3.69345 2.060787,2.36728 3.814207,4.30469 3.896625,4.30469 0.08226,0 1.54559,-1.6959 3.251703,-3.7684 1.706112,-2.07251 3.343751,-4.01262 3.639264,-4.31073 l 0.537448,-0.54231 1.274286,2.65231 c 0.700882,1.45918 1.715744,3.58021 2.255388,4.714 l 0.981154,2.06084 3.866436,-4.62385 c 2.126747,-2.54323 3.926126,-4.62384 3.998992,-4.62384 0.07273,0 0.988959,1.9961 2.035572,4.43564 1.046612,2.44017 1.971251,4.48146 2.054622,4.52913 0.08337,0.0512 2.348812,-2.01255 5.033909,-4.58636 2.685018,-2.57382 5.096166,-4.84204 5.357707,-5.04063 l 0.475641,-0.36163 1.636713,5.02771 1.636765,5.02836 1.540008,-0.74761 c 0.846931,-0.41137 3.595766,-1.75607 6.108485,-2.98789 2.5127,-1.23184 4.59693,-2.21638 4.63106,-2.18223 0.0341,0.032 -1.30445,2.77326 -2.97479,6.09135 l -3.03686,6.03326 2.26666,0.79547 c 1.24743,0.4372 4.56453,1.59909 7.37261,2.5807 2.80813,0.9816 5.10482,1.83102 5.10381,1.88555 3e-5,0.0552 -3.18452,1.67402 -7.07612,3.59643 z" />
      <path
         transform="matrix(0.26458333,0,0,0.26458333,34.839278,131.7609)"
         inkscape:connector-curvature="0"
         id="path5242"
         d="m 63.150981,189.10253 c 0,-1.20264 16.688992,-39.55434 20.393757,-46.86534 1.596085,-3.14972 1.647128,-3.49802 0.511135,-3.48763 -0.694121,0.006 -13.476321,2.69604 -28.404892,5.97711 -14.928572,3.28105 -27.235574,5.8885 -27.348893,5.79432 -0.11332,-0.0942 3.82418,-8.03498 8.75,-17.64622 4.925819,-9.61125 8.956035,-18.00348 8.956035,-18.64941 0,-1.36547 1.119498,-1.07753 -18.571428,-4.77661 -8.446429,-1.58672 -15.973123,-3.07724 -16.725988,-3.31226 -1.6911047,-0.52793 -2.1149053,-0.18011 13.511702,-11.089225 6.285714,-4.388129 12.984451,-9.098014 14.88608,-10.466414 L 42.565998,82.092858 25.894203,65.336625 9.2224091,48.580394 26.008123,49.034996 c 9.232143,0.25003 18.794643,0.651312 21.25,0.891735 l 4.464286,0.437134 V 36.801567 c 0,-14.196432 0.589768,-24.492124 1.402982,-24.492124 0.26349,0 5.816415,6.026786 12.339833,13.392858 13.867798,15.659152 15.417242,17.321428 16.145692,17.321428 0.299743,0 5.831379,-6.293166 12.292522,-13.984815 6.461152,-7.691648 12.565752,-14.951882 13.565802,-16.133852 l 1.81826,-2.149038 8.37119,17.383853 c 4.60416,9.561119 8.66106,17.383852 9.01533,17.383852 0.35428,0 6.93441,-7.451613 14.62252,-16.559141 7.6881,-9.107527 14.25978,-16.733059 14.60372,-16.945624 0.34394,-0.212566 3.93187,7.15869 7.97318,16.380569 4.04132,9.22188 7.60299,16.767053 7.91483,16.767053 0.68075,0 4.72608,-3.69104 24.85543,-22.678571 8.43375,-7.955357 15.51771,-14.4641388 15.74212,-14.4639591 0.22441,1.796e-4 3.11604,8.3573221 6.42584,18.5714281 3.3098,10.214107 6.24691,18.571102 6.52691,18.571102 0.27999,0 10.42912,-4.817455 22.5536,-10.705455 12.12449,-5.888002 22.14137,-10.418892 22.25974,-10.068645 0.11836,0.350245 -4.64483,10.352717 -10.58489,22.227715 -5.94005,11.874998 -10.5369,21.8472 -10.21521,22.160451 0.32169,0.313252 10.75564,4.129939 23.18657,8.481529 12.43094,4.351591 24.6227,8.671741 27.09282,9.600334 l 4.49114,1.688357 -26.55711,13.336878 c -14.60641,7.33528 -26.55711,13.64732 -26.55711,14.02675 0,0.37943 4.83999,10.36567 10.75552,22.19166 5.91553,11.82598 10.60398,21.65331 10.41876,21.83853 -0.18521,0.18521 -12.40261,-4.51052 -27.14978,-10.43496 -14.74717,-5.92444 -27.14439,-10.77171 -27.54936,-10.77171 -0.48079,0 -0.80255,6.18291 -0.92716,17.81618 l -0.19083,17.81619 -5.64381,-7.19593 c -13.33992,-17.00857 -24.89433,-30.64675 -25.79108,-30.44232 -0.53119,0.12108 -10.44981,8.33623 -22.04136,18.25588 -11.59155,9.91964 -21.39078,18.03571 -21.77608,18.03571 -0.3853,0 -2.34575,-4.93629 -4.35657,-10.96954 -2.01083,-6.03325 -4.04643,-11.48807 -4.52358,-12.12181 -0.76492,-1.01597 -2.21925,-0.25473 -12.2961,6.43616 -6.28571,4.17363 -16.73214,10.47141 -23.214281,13.99508 -11.147693,6.05982 -28.454311,15.91677 -31.964286,18.20517 -0.883928,0.5763 -1.607142,0.81648 -1.607142,0.53374 z"
         style="fill:#ffffff;fill-opacity:1;stroke:#000000;stroke-width:2.69966269;stroke-linecap:butt;stroke-linejoin:round;stroke-miterlimit:4;stroke-dasharray:none;stroke-opacity:1;paint-order:normal" />
    </g>
  </g>
</svg>
