<?xml version="1.0" encoding="UTF-8" standalone="no"?>
<svg
   xmlns:dc="http://purl.org/dc/elements/1.1/"
   xmlns:cc="http://creativecommons.org/ns#"
   xmlns:rdf="http://www.w3.org/1999/02/22-rdf-syntax-ns#"
   xmlns:svg="http://www.w3.org/2000/svg"
   xmlns="http://www.w3.org/2000/svg"
   xmlns:sodipodi="http://sodipodi.sourceforge.net/DTD/sodipodi-0.dtd"
   xmlns:inkscape="http://www.inkscape.org/namespaces/inkscape"
   width="207.96249mm"
   height="207.85811mm"
   viewBox="0 0 207.96249 207.85811"
   version="1.1"
   id="svg17736"
   inkscape:version="1.0 (4035a4fb49, 2020-05-01)"
   sodipodi:docname="ring-2.svg">
  <defs
     id="defs17730" />
  <sodipodi:namedview
     id="base"
     pagecolor="#ffffff"
     bordercolor="#666666"
     borderopacity="1.0"
     inkscape:pageopacity="0.0"
     inkscape:pageshadow="2"
     inkscape:zoom="0.7"
     inkscape:cx="-154.71325"
     inkscape:cy="297.3385"
     inkscape:document-units="mm"
     inkscape:current-layer="layer1"
     inkscape:document-rotation="0"
     showgrid="false"
     inkscape:snap-global="false"
     inkscape:window-width="1920"
     inkscape:window-height="1044"
     inkscape:window-x="0"
     inkscape:window-y="36"
     inkscape:window-maximized="1" />
  <metadata
     id="metadata17733">
    <rdf:RDF>
      <cc:Work
         rdf:about="">
        <dc:format>image/svg+xml</dc:format>
        <dc:type
           rdf:resource="http://purl.org/dc/dcmitype/StillImage" />
        <dc:title />
      </cc:Work>
    </rdf:RDF>
  </metadata>
  <g
     inkscape:label="Layer 1"
     inkscape:groupmode="layer"
     id="layer1"
     transform="translate(-124.52468,-88.013233)">
    <path
       id="path14633"
       d="m 224.57246,88.146505 c -0.9525,0.176388 -0.9525,-0.105834 -0.24694,3.598333 0.91722,4.797777 0.74083,4.621389 3.81,4.621389 1.65805,0 2.71638,-0.176389 2.96333,-0.458612 0.45861,-0.599722 1.65805,-7.231944 1.34055,-7.549444 -0.28222,-0.282222 -6.70277,-0.493889 -7.86694,-0.211666 z"
       style="stroke-width:0.0352777;fill:#ffab91;fill-opacity:1" />
    <path
       id="path14635"
       d="m 216.59968,88.640393 c -1.34055,0.141112 -2.50472,0.352778 -2.64583,0.458612 -0.24695,0.282222 1.62278,6.914444 2.11667,7.514166 0.45861,0.564444 2.29305,0.599722 4.33916,0.07056 1.69334,-0.423334 1.65806,-0.282223 2.15195,-5.891389 l 0.24694,-2.54 -1.905,0.03528 c -1.05833,0.03528 -2.99861,0.176389 -4.30389,0.352777 z"
       style="stroke-width:0.0352777;fill:#ffab91;fill-opacity:1" />
    <path
       id="path14637"
       d="m 233.88579,88.499282 c -0.10583,0.176389 0,1.905 0.21167,3.915834 0.28222,2.892777 0.45861,3.704166 0.98778,3.986388 0.88194,0.458611 4.62138,0.776111 5.11527,0.423334 0.42334,-0.282223 2.68111,-7.549445 2.43417,-7.796389 -0.49389,-0.493889 -8.50194,-0.9525 -8.74889,-0.529167 z"
       style="stroke-width:0.0352777;fill:#ffab91;fill-opacity:1" />
    <path
       id="path14639"
       d="m 244.04579,89.451782 c -0.38805,1.27 -0.52917,3.704167 -0.3175,5.715 l 0.24695,2.257778 1.76388,0.529166 c 3.10445,0.917223 3.56306,0.776112 4.55084,-1.340555 1.12889,-2.363611 2.18722,-5.538611 1.905,-5.785555 -0.10584,-0.105834 -1.94028,-0.564445 -4.09223,-0.987778 -2.78694,-0.564445 -3.98638,-0.670278 -4.05694,-0.388056 z"
       style="stroke-width:0.0352777;fill:#ffab91;fill-opacity:1" />
    <path
       id="path14641"
       d="m 210.17913,89.522338 c -4.55084,0.987778 -5.89139,1.340555 -6.0325,1.622778 -0.10584,0.141111 0.45861,1.834444 1.19944,3.704166 l 1.37583,3.457222 2.08139,-0.03528 c 1.16417,-0.03528 2.54,-0.246944 3.06917,-0.458611 l 0.98778,-0.388055 -0.10584,-3.951111 c -0.10583,-3.986389 -0.10583,-3.986389 -0.98777,-4.056944 -0.49389,0 -1.19945,0.03528 -1.5875,0.105833 z"
       style="stroke-width:0.0352777;fill:#ffab91;fill-opacity:1" />
    <path
       id="path14643"
       d="m 198.60802,92.34456 c -2.11667,0.635 -3.95112,1.234722 -4.05695,1.375833 -0.14111,0.141111 0.56445,1.763889 1.51695,3.633611 l 1.79916,3.421946 1.55222,-0.0706 c 0.88195,-0.0353 2.18723,-0.35278 2.92806,-0.67028 1.16417,-0.529165 1.30528,-0.740832 1.30528,-1.869721 0,-1.728611 -0.635,-5.997222 -0.98778,-6.526389 -0.17639,-0.352777 -1.16417,-0.176388 -4.05694,0.705556 z"
       style="stroke-width:0.0352777;fill:#ffab91;fill-opacity:1" />
    <path
       id="path14645"
       d="m 253.53551,91.815393 c -0.10583,0.211667 -0.3175,2.010834 -0.38805,3.986389 l -0.21167,3.633611 1.44639,0.564445 c 0.81139,0.317502 2.08138,0.670282 2.78694,0.811392 l 1.34056,0.21166 1.72861,-3.316108 c 0.9525,-1.834444 1.65805,-3.563055 1.55222,-3.845278 -0.10583,-0.3175 -1.55222,-0.9525 -3.35139,-1.481666 -3.45722,-1.023056 -4.51555,-1.164167 -4.90361,-0.564445 z"
       style="stroke-width:0.0352777;fill:#ffab91;fill-opacity:1" />
    <path
       id="path14647"
       d="m 223.30246,92.944282 c -0.45861,1.164167 -0.28222,2.716389 0.28222,2.716389 0.56445,0 0.59972,-0.529167 0.21167,-2.293055 -0.17639,-0.881945 -0.28222,-0.9525 -0.49389,-0.423334 z"
       style="stroke-width:0.0352777;fill:#ffab91;fill-opacity:1" />
    <path
       id="path14649"
       d="m 232.47468,94.143727 c -0.24694,1.411111 0.21167,2.257777 0.84667,1.622777 0.38805,-0.388055 0.0706,-2.928055 -0.38806,-2.928055 -0.14111,0 -0.35278,0.599722 -0.45861,1.305278 z"
       style="stroke-width:0.0352777;fill:#ffab91;fill-opacity:1" />
    <path
       id="path14651"
       d="m 213.7069,94.355393 c -0.35277,0.881945 0.10584,2.363611 0.70556,2.363611 0.42333,0 0.49389,-0.246944 0.3175,-0.987777 -0.14111,-0.529167 -0.35278,-1.199445 -0.52917,-1.481667 -0.24694,-0.458611 -0.3175,-0.423333 -0.49389,0.105833 z"
       style="stroke-width:0.0352777;fill:#ffab91;fill-opacity:1" />
    <path
       id="path14653"
       d="m 189.64746,95.413727 c -1.5875,0.670277 -3.28083,1.446388 -3.77472,1.763888 l -0.91722,0.599723 1.79916,2.751662 c 2.71639,4.19806 2.64584,4.1275 4.93889,3.24556 3.4925,-1.27 3.38667,-1.05833 2.43417,-5.609167 -0.45861,-2.151944 -0.98778,-3.915833 -1.19945,-3.915833 -0.21166,0 -1.69333,0.529167 -3.28083,1.164167 z"
       style="stroke-width:0.0352777;fill:#ffab91;fill-opacity:1" />
    <path
       id="path14655"
       d="m 241.9644,94.814004 c -0.35278,0.9525 -0.24694,1.975556 0.24695,1.834445 0.49389,-0.176389 0.81139,-2.398889 0.3175,-2.398889 -0.21167,0 -0.45861,0.246944 -0.56445,0.564444 z"
       style="stroke-width:0.0352777;fill:#ffab91;fill-opacity:1" />
    <path
       id="path14657"
       d="m 262.77829,96.048727 c -0.3175,1.023055 -0.67028,2.786944 -0.77611,3.986393 l -0.21167,2.15194 1.62278,0.81139 c 0.88194,0.45861 2.11666,0.88194 2.75166,0.98778 1.12889,0.17639 1.23473,0.10583 3.21028,-2.99861 1.09361,-1.728616 2.01083,-3.316116 2.01083,-3.527782 0,-0.3175 -6.94972,-3.210278 -7.72583,-3.210278 -0.21167,0 -0.59972,0.811389 -0.88194,1.799167 z"
       style="stroke-width:0.0352777;fill:#ffab91;fill-opacity:1" />
    <path
       id="path14659"
       d="m 204.35829,96.860115 c 0,1.234723 0.42334,1.834445 1.02306,1.446389 0.38805,-0.211666 -0.17639,-2.151944 -0.70556,-2.504722 -0.17639,-0.105833 -0.3175,0.388056 -0.3175,1.058333 z"
       style="stroke-width:0.0352777;fill:#ffab91;fill-opacity:1" />
    <path
       id="path14661"
       d="m 251.13662,96.78956 c -0.3175,1.27 -0.24694,1.693333 0.3175,1.693333 0.35278,0 0.52917,-0.388055 0.52917,-1.234722 0,-1.375833 -0.49389,-1.658056 -0.84667,-0.458611 z"
       style="stroke-width:0.0352777;fill:#ffab91;fill-opacity:1" />
    <path
       id="path14663"
       d="m 221.6444,97.989004 c -0.67027,0.07056 -2.75166,0.3175 -4.58611,0.529167 -1.83444,0.176389 -5.32694,0.776111 -7.69055,1.234722 -27.26972,5.538607 -51.25861,23.600827 -64.09972,48.224727 -6.52639,12.48833 -9.77195,24.23583 -10.795,38.80555 -1.30528,19.19111 4.445,40.42833 15.48694,57.04417 12.34722,18.52083 30.30361,31.85583 51.61139,38.31166 10.30111,3.10445 22.93055,4.51556 33.12583,3.70417 23.77722,-1.905 43.815,-11.04195 60.18388,-27.37556 14.9225,-14.9225 23.91834,-33.05527 27.02278,-54.68055 0.70556,-4.7625 0.59972,-19.79083 -0.17639,-24.765 -3.13972,-20.955 -12.17083,-39.12305 -26.74055,-53.69278 -14.42861,-14.39333 -32.45556,-23.42444 -52.95194,-26.528887 -4.48028,-0.670278 -17.25083,-1.199444 -20.39056,-0.811389 z m 4.30389,6.526386 c 1.83445,0.28223 3.21028,0.28223 5.22111,0 2.43417,-0.38805 3.06917,-0.35277 5.50334,0.3175 1.5875,0.42334 3.84527,0.70556 5.43277,0.70556 2.11667,0 3.31611,0.21167 5.60917,1.05833 1.62278,0.59972 3.91583,1.16417 5.08,1.27 1.55222,0.17639 3.10444,0.67028 5.36222,1.76389 1.76389,0.84667 4.19805,1.79917 5.46805,2.11667 1.48167,0.35278 2.92806,1.02305 4.05695,1.905 2.01083,1.48166 3.95111,2.50472 5.92666,3.175 0.74084,0.21166 2.39889,1.37583 3.70417,2.54 1.30528,1.16416 3.4925,2.71638 4.90361,3.49249 1.79917,0.98778 2.92806,1.94028 3.98639,3.31611 0.81139,1.05834 2.57528,2.75167 3.91583,3.73945 1.69334,1.23472 2.92806,2.54 3.98639,4.16278 0.84667,1.27 2.43417,3.21028 3.52778,4.26861 1.34056,1.27 2.43417,2.78695 3.21028,4.445 0.67028,1.41112 1.97555,3.45723 2.8575,4.55084 1.09361,1.34055 2.04611,3.06916 2.78694,5.11527 0.635,1.69334 1.72861,3.91584 2.43417,4.97417 0.88194,1.34056 1.41111,2.71639 1.79917,4.72722 0.3175,1.55223 1.09361,4.02167 1.76388,5.46806 0.88195,1.94028 1.23473,3.35139 1.37584,5.29167 0.10583,1.44638 0.56444,3.95111 1.05833,5.50333 0.70556,2.36361 0.81139,3.38666 0.67028,5.64444 -0.10583,1.69334 0,3.81 0.3175,5.43278 0.42333,2.18722 0.42333,2.99861 0.0353,4.7625 -0.24695,1.16417 -0.38806,3.70417 -0.35278,5.64444 0.0353,2.78695 -0.10583,3.98639 -0.70556,5.82084 -0.42333,1.27 -0.84666,3.56305 -0.98777,5.11528 -0.17639,2.11666 -0.52917,3.4925 -1.41112,5.50333 -0.67027,1.48166 -1.44638,3.88055 -1.72861,5.32694 -0.38805,1.94028 -0.88194,3.24556 -1.94027,4.83306 -0.77612,1.19944 -1.79917,3.42194 -2.32834,4.97416 -0.635,1.94028 -1.44639,3.38667 -2.71639,4.97417 -0.9525,1.23472 -2.32833,3.35139 -2.96333,4.69195 -0.81139,1.65805 -1.94028,3.175 -3.35139,4.55083 -1.16417,1.16417 -2.82222,3.13972 -3.66889,4.445 -1.02305,1.62278 -2.04611,2.71639 -3.28083,3.52778 -0.98778,0.635 -2.8575,2.32833 -4.1275,3.73944 -1.51695,1.72861 -3.06917,2.99861 -4.37444,3.70417 -1.12889,0.59972 -3.10445,2.01083 -4.33917,3.13972 -1.51695,1.34055 -3.13972,2.36361 -4.69195,2.99861 -1.34055,0.52917 -3.52777,1.72861 -4.90361,2.68111 -1.79916,1.23472 -3.31611,1.94028 -5.29166,2.46945 -1.55223,0.38805 -3.77473,1.27 -4.97417,1.94027 -1.5875,0.88195 -2.92805,1.34056 -4.97416,1.62278 -1.51695,0.21167 -3.73945,0.77611 -4.90361,1.27 -1.62278,0.67028 -3.06917,0.9525 -6.17361,1.12889 -2.2225,0.17639 -4.445,0.45861 -4.93889,0.635 -1.12889,0.45861 -15.41639,0.49389 -16.58056,0 -0.49389,-0.17639 -2.71639,-0.45861 -4.93889,-0.59972 -3.10444,-0.21167 -4.55083,-0.49389 -6.20888,-1.19945 -1.19945,-0.49389 -3.38667,-1.02305 -4.90362,-1.23472 -2.08138,-0.24694 -3.38666,-0.67028 -5.46805,-1.76389 -1.48167,-0.77611 -3.81,-1.69333 -5.11528,-2.01083 -1.41111,-0.35278 -3.03389,-1.09361 -4.02167,-1.79917 -1.76388,-1.27 -6.27944,-3.63361 -6.985,-3.63361 -0.24694,0 -1.48166,-0.91722 -2.75166,-2.08139 -1.27,-1.12889 -3.31611,-2.61055 -4.48028,-3.24555 -2.15194,-1.19945 -2.78694,-1.72861 -5.99722,-5.18584 -0.91722,-0.9525 -2.32834,-2.2225 -3.175,-2.78694 -0.84667,-0.56445 -2.2225,-2.08139 -3.13972,-3.42194 -0.91723,-1.30528 -2.61056,-3.38667 -3.77473,-4.55084 -1.30527,-1.34055 -2.61055,-3.175 -3.35138,-4.69194 -0.67028,-1.34056 -1.97556,-3.38667 -2.89278,-4.48028 -1.02306,-1.27 -1.94028,-2.89278 -2.43417,-4.40972 -0.81139,-2.32834 -1.48166,-3.70417 -3.21028,-6.56167 -0.45861,-0.77611 -1.02305,-2.43417 -1.23472,-3.70417 -0.21167,-1.30527 -0.91722,-3.52777 -1.5875,-4.97416 -0.84666,-1.94028 -1.27,-3.56306 -1.55222,-6.0325 -0.21167,-1.83445 -0.70556,-4.30389 -1.12889,-5.46806 -0.59972,-1.72861 -0.67028,-2.54 -0.49389,-4.79777 0.14111,-1.94028 0.0706,-3.56306 -0.35278,-5.53862 -0.52916,-2.57527 -0.52916,-3.06916 0,-5.75027 0.38806,-1.97556 0.49389,-3.77473 0.35278,-5.57389 -0.17639,-2.15195 -0.10583,-3.03389 0.49389,-4.7625 0.42333,-1.12889 0.91722,-3.59833 1.12889,-5.46806 0.21167,-1.83444 0.70556,-4.05694 1.09361,-4.93889 1.12889,-2.54 1.69333,-4.23333 2.18722,-6.70277 0.35278,-1.55223 0.98778,-3.10445 1.905,-4.55084 0.81139,-1.19944 1.83445,-3.42194 2.32834,-4.90361 0.635,-1.86972 1.41111,-3.31611 2.54,-4.65666 0.88194,-1.05834 2.29305,-3.28084 3.13972,-4.93889 1.09361,-2.08139 2.08139,-3.42195 3.21028,-4.37445 0.88194,-0.74083 2.32833,-2.46944 3.21027,-3.77472 0.84667,-1.34056 2.15195,-2.85751 2.8575,-3.38667 0.70556,-0.56445 2.75167,-2.43417 4.48028,-4.19806 1.86972,-1.905 3.91583,-3.59833 4.97417,-4.1275 0.9525,-0.49389 2.82222,-1.83444 4.09222,-2.99861 1.55222,-1.41111 3.03389,-2.36361 4.37444,-2.89277 2.32834,-0.84667 3.88056,-1.72861 5.89139,-3.28084 0.81139,-0.635 2.57528,-1.37583 4.40972,-1.905 1.69334,-0.49388 4.05695,-1.41111 5.29167,-2.08138 1.62278,-0.91723 2.99861,-1.34056 5.29167,-1.69334 1.69333,-0.24694 4.05694,-0.88194 5.25639,-1.41111 1.76389,-0.74083 2.78694,-0.91722 5.11527,-0.9525 1.62278,0 4.05695,-0.3175 5.3975,-0.67028 3.10445,-0.77611 2.92806,-0.77611 5.89139,-0.3175 z"
       style="stroke-width:0.0352777;fill:#ffab91;fill-opacity:1" />
    <path
       id="path15409"
       d="m 180.33413,99.823449 c -4.86834,2.681111 -4.55084,2.151941 -2.68111,4.515551 0.88194,1.16417 2.04611,2.61056 2.61055,3.24556 l 0.98778,1.16417 2.11667,-1.02306 c 3.21027,-1.51694 3.175,-1.48167 1.905,-5.82083 -0.635,-2.081391 -1.30528,-3.774725 -1.51695,-3.774725 -0.21167,0 -1.76389,0.776111 -3.42194,1.693334 z"
       style="stroke-width:0.0352777;fill:#ffab91;fill-opacity:1" />
    <path
       id="path15411"
       d="m 260.30884,99.400115 c -0.42333,0.952505 -0.49389,1.411115 -0.21166,1.693335 0.42333,0.42333 1.05833,-0.28222 1.05833,-1.270001 0,-0.3175 0.10583,-0.811389 0.21167,-1.128889 0.42333,-1.128889 -0.45862,-0.529167 -1.05834,0.705555 z"
       style="stroke-width:0.0352777;fill:#ffab91;fill-opacity:1" />
    <path
       id="path15413"
       d="m 272.33856,98.37706 c -0.3175,0.564444 -2.01083,6.38528 -2.01083,6.94972 0,0.635 2.08139,2.11667 3.84528,2.71639 1.09361,0.38806 1.23472,0.35278 2.04611,-0.59972 1.5875,-1.905 3.98639,-5.15056 3.98639,-5.43278 0,-0.35278 -6.56167,-3.880555 -7.23195,-3.880555 -0.24694,0 -0.56444,0.105834 -0.635,0.246945 z"
       style="stroke-width:0.0352777;fill:#ffab91;fill-opacity:1" />
    <path
       id="path15415"
       d="m 195.32718,99.96456 c 0.28222,1.37583 0.38806,1.48167 1.09361,1.19944 0.49389,-0.17638 0.49389,-0.28222 0,-1.269996 -0.74083,-1.411111 -1.37583,-1.375833 -1.09361,0.07056 z"
       style="stroke-width:0.0352777;fill:#ffab91;fill-opacity:1" />
    <path
       id="path15417"
       d="m 269.12829,102.89262 c -0.67028,0.98777 -0.70556,1.44638 -0.21167,1.76388 0.3175,0.17639 1.41111,-1.76388 1.41111,-2.46944 0,-0.49389 -0.67028,-0.0706 -1.19944,0.70556 z"
       style="stroke-width:0.0352777;fill:#ffab91;fill-opacity:1" />
    <path
       id="path15419"
       d="m 186.57829,103.31595 c 0.3175,1.34055 0.45861,1.51694 1.05834,1.51694 0.635,0 0.635,-0.52916 -0.0706,-1.5875 -0.77611,-1.16416 -1.27,-1.12889 -0.98778,0.0706 z"
       style="stroke-width:0.0352777;fill:#ffab91;fill-opacity:1" />
    <path
       id="path15421"
       d="m 171.26774,105.07984 c -1.97556,1.30528 -3.56306,2.46944 -3.52778,2.61055 0.0706,0.14111 1.34056,1.55223 2.8575,3.13973 l 2.75167,2.8575 1.72861,-0.9525 c 0.9525,-0.52917 2.04611,-1.30528 2.46944,-1.72862 l 0.74084,-0.77611 -1.27,-3.21027 c -1.94028,-4.83306 -1.51695,-4.69195 -5.75028,-1.94028 z"
       style="stroke-width:0.0352777;fill:#ffab91;fill-opacity:1" />
    <path
       id="path15423"
       d="m 281.15801,102.96317 c -0.49389,0.81139 -2.71639,6.52639 -2.71639,6.94972 0,0.52917 1.69333,1.905 3.4925,2.8575 l 1.23472,0.59973 2.78695,-2.8575 c 2.78694,-2.8575 2.82222,-2.8575 2.15194,-3.59834 -0.67028,-0.74083 -6.06778,-4.19805 -6.52639,-4.19805 -0.17639,0 -0.35278,0.10583 -0.42333,0.24694 z"
       style="stroke-width:0.0352777;fill:#ffab91;fill-opacity:1" />
    <path
       id="path15425"
       d="m 177.89996,106.73789 c 0,0.70556 0.88194,2.32834 1.27,2.32834 0.635,0 0.635,-0.52917 -0.0706,-1.5875 -0.49389,-0.74084 -1.19944,-1.19945 -1.19944,-0.74084 z"
       style="stroke-width:0.0352777;fill:#ffab91;fill-opacity:1" />
    <path
       id="path15427"
       d="m 277.45384,107.40817 c -0.88194,0.9525 -0.98778,1.65806 -0.28222,1.65806 0.45861,0 1.51694,-1.97556 1.19944,-2.29306 -0.0705,-0.10583 -0.49388,0.17639 -0.91722,0.635 z"
       style="stroke-width:0.0352777;fill:#ffab91;fill-opacity:1" />
    <path
       id="path15429"
       d="m 289.2719,108.81928 c -0.28223,0.42334 -1.16417,2.08139 -1.94028,3.63361 l -1.44639,2.8575 1.30528,1.23472 c 1.37583,1.30528 2.89278,2.39889 3.28083,2.39889 0.38806,0 6.13833,-4.97416 6.13833,-5.29166 0,-0.3175 -3.59833,-3.38667 -5.67972,-4.86834 l -1.12889,-0.77611 z"
       style="stroke-width:0.0352777;fill:#ffab91;fill-opacity:1" />
    <path
       id="path15431"
       d="m 165.16468,109.48956 c -0.84666,0.59972 -2.39889,1.83444 -3.42194,2.68111 l -1.86972,1.5875 1.34055,1.37583 c 1.5875,1.65806 4.445,3.81 5.04472,3.81 0.70556,0 3.35139,-2.01083 3.84528,-2.89277 0.38806,-0.77612 0.28222,-1.16417 -1.37583,-4.26861 -1.02306,-1.86973 -1.86972,-3.42195 -1.905,-3.42195 -0.0705,0 -0.81139,0.49389 -1.65806,1.12889 z"
       style="stroke-width:0.0352777;fill:#ffab91;fill-opacity:1" />
    <path
       id="path15433"
       d="m 170.13885,112.17067 c 0,0.77611 0.81139,2.18722 1.27,2.18722 0.88194,0 0.81139,-0.59972 -0.21167,-1.5875 -0.59972,-0.56444 -1.05833,-0.84666 -1.05833,-0.59972 z"
       style="stroke-width:0.0352777;fill:#ffab91;fill-opacity:1" />
    <path
       id="path15435"
       d="m 285.1444,112.77039 c -0.635,0.67028 -0.74084,0.98778 -0.42334,1.30528 0.3175,0.3175 0.52917,0.24695 0.91723,-0.28222 0.635,-0.81139 0.9525,-1.905 0.59972,-1.905 -0.14111,0 -0.635,0.38805 -1.09361,0.88194 z"
       style="stroke-width:0.0352777;fill:#ffab91;fill-opacity:1" />
    <path
       id="path15437"
       d="m 295.41023,117.49761 c -1.19944,1.76389 -2.15194,3.38667 -2.15194,3.63361 0,0.56445 2.01083,2.78695 3.24555,3.59834 0.88195,0.59972 0.9525,0.56444 4.1275,-1.62278 1.76389,-1.23472 3.21028,-2.32834 3.21028,-2.43417 0,-0.38805 -2.82222,-3.42194 -4.58611,-4.90361 l -1.72861,-1.44638 z"
       style="stroke-width:0.0352777;fill:#ffab91;fill-opacity:1" />
    <path
       id="path15439"
       d="m 155.78079,117.63873 c -3.03388,2.96333 -3.06916,3.03388 -2.43416,3.73944 0.91722,1.02305 5.36222,3.91583 5.99722,3.91583 0.635,0 3.24556,-2.2225 3.77472,-3.24556 0.38806,-0.70555 -0.67028,-2.71638 -3.06916,-5.89138 l -1.19945,-1.55222 z"
       style="stroke-width:0.0352777;fill:#ffab91;fill-opacity:1" />
    <path
       id="path15441"
       d="m 292.58801,118.45011 c -1.05834,0.88195 -1.16417,1.55223 -0.28222,1.55223 0.49388,0 1.83444,-2.04611 1.55222,-2.32834 -0.0706,-0.10583 -0.67028,0.24695 -1.27,0.77611 z"
       style="stroke-width:0.0352777;fill:#ffab91;fill-opacity:1" />
    <path
       id="path15443"
       d="m 162.73052,118.34428 c 0,0.74083 1.62277,2.15194 1.94027,1.65806 0.28223,-0.42334 -0.3175,-1.27 -1.30527,-1.79917 -0.45861,-0.24694 -0.635,-0.21167 -0.635,0.14111 z"
       style="stroke-width:0.0352777;fill:#ffab91;fill-opacity:1" />
    <path
       id="path15445"
       d="m 302.39523,124.12983 c -1.19944,1.51695 -2.36361,2.92806 -2.54,3.175 -0.35278,0.49389 1.37583,3.175 2.75167,4.26861 l 0.91722,0.70556 2.89278,-1.5875 c 4.69194,-2.57528 4.48027,-2.08139 2.08139,-5.08 -1.16417,-1.44639 -2.50473,-2.96333 -2.99862,-3.42194 l -0.88194,-0.81139 z"
       style="stroke-width:0.0352777;fill:#ffab91;fill-opacity:1" />
    <path
       id="path15447"
       d="m 149.60718,124.20039 c -2.78694,3.06917 -3.38666,4.05694 -2.82222,4.72722 0.21167,0.24695 1.72861,1.16417 3.35139,2.01083 2.92806,1.55223 2.96333,1.55223 3.91583,0.91723 0.52917,-0.3175 1.41111,-1.34056 1.97556,-2.2225 l 1.02305,-1.62278 -1.55222,-1.97556 c -0.84666,-1.09361 -2.01083,-2.50472 -2.57528,-3.175 l -0.98777,-1.19944 z"
       style="stroke-width:0.0352777;fill:#ffab91;fill-opacity:1" />
    <path
       id="path15449"
       d="m 299.39662,125.04706 c -0.59972,0.52916 -0.84667,0.98777 -0.70556,1.27 0.3175,0.49388 1.41111,-0.3175 2.01084,-1.44639 0.49389,-0.91723 -0.14111,-0.81139 -1.30528,0.17639 z"
       style="stroke-width:0.0352777;fill:#ffab91;fill-opacity:1" />
    <path
       id="path15451"
       d="m 156.02774,125.04706 c 0,0.70555 1.30528,1.76388 1.76389,1.48166 0.45861,-0.28222 -0.0706,-1.05833 -1.12889,-1.62278 -0.45861,-0.24694 -0.635,-0.21166 -0.635,0.14112 z"
       style="stroke-width:0.0352777;fill:#ffab91;fill-opacity:1" />
    <path
       id="path15453"
       d="m 308.28662,131.9615 -2.82222,2.82223 0.635,1.41111 c 0.35277,0.74083 1.16416,1.86972 1.76389,2.46944 l 1.12888,1.09362 3.35139,-1.44639 c 1.83445,-0.77611 3.45723,-1.5875 3.63361,-1.76389 0.3175,-0.28222 -4.19805,-7.37306 -4.69194,-7.37306 -0.14111,0 -1.48167,1.27 -2.99861,2.78694 z"
       style="stroke-width:0.0352777;fill:#ffab91;fill-opacity:1" />
    <path
       id="path15455"
       d="m 142.83385,132.94928 c -1.27,1.905 -2.32833,3.59834 -2.32833,3.81 0,0.17639 1.62278,1.02306 3.59833,1.86973 l 3.59833,1.48166 1.12889,-1.09361 c 0.59973,-0.59972 1.41111,-1.72861 1.76389,-2.46944 l 0.635,-1.41111 -2.82222,-2.82223 c -1.51694,-1.51695 -2.8575,-2.78695 -2.99861,-2.78695 -0.10584,0 -1.27,1.55223 -2.57528,3.42195 z"
       style="stroke-width:0.0352777;fill:#ffab91;fill-opacity:1" />
    <path
       id="path15457"
       d="m 305.25273,132.279 c -0.98778,0.81139 -0.67028,1.69333 0.35278,1.12889 0.38805,-0.21167 0.84666,-0.67028 1.05833,-1.05833 0.49389,-0.91723 -0.3175,-0.9525 -1.41111,-0.0706 z"
       style="stroke-width:0.0352777;fill:#ffab91;fill-opacity:1" />
    <path
       id="path15459"
       d="m 149.99524,132.63178 c 0.49389,0.9525 1.37583,1.5875 1.79917,1.30528 0.59972,-0.38806 0.38805,-0.84667 -0.70556,-1.41112 -1.34055,-0.67027 -1.51694,-0.67027 -1.09361,0.10584 z"
       style="stroke-width:0.0352777;fill:#ffab91;fill-opacity:1" />
    <path
       id="path15461"
       d="m 315.27162,138.62901 c -0.74083,0.56444 -2.15195,1.72861 -3.06917,2.57527 l -1.72861,1.55223 1.19945,2.29305 c 0.81138,1.5875 1.41111,2.32833 1.94027,2.39889 0.635,0.10583 7.05556,-1.79917 7.44361,-2.2225 0.28223,-0.28222 -3.73944,-7.58472 -4.19805,-7.58472 -0.10583,0 -0.84667,0.45861 -1.5875,0.98778 z"
       style="stroke-width:0.0352777;fill:#ffab91;fill-opacity:1" />
    <path
       id="path15463"
       d="m 138.17718,140.35762 c -0.70555,1.34055 -1.5875,2.89278 -1.97555,3.4925 -0.35278,0.59972 -0.635,1.27 -0.635,1.48166 0,0.35278 6.0325,2.54 7.09083,2.54 1.05834,0 3.13972,-3.03388 3.13972,-4.55083 0,-0.67028 -5.18583,-5.32694 -5.92666,-5.32694 -0.21167,0 -0.98778,1.05833 -1.69334,2.36361 z"
       style="stroke-width:0.0352777;fill:#ffab91;fill-opacity:1" />
    <path
       id="path15465"
       d="m 145.02107,140.85151 c 1.05834,0.9525 1.83445,1.09361 1.83445,0.3175 0,-0.38806 -1.86973,-1.41111 -2.54,-1.41111 -0.24695,0 0.0705,0.49388 0.70555,1.09361 z"
       style="stroke-width:0.0352777;fill:#ffab91;fill-opacity:1" />
    <path
       id="path15467"
       d="m 310.33273,140.25178 c -0.49389,0.38806 -0.56444,0.635 -0.28222,0.91723 0.28222,0.28222 0.67028,0.17639 1.41111,-0.49389 0.91722,-0.81139 0.9525,-0.88195 0.28222,-0.91722 -0.38805,0 -1.02305,0.21166 -1.41111,0.49388 z"
       style="stroke-width:0.0352777;fill:#ffab91;fill-opacity:1" />
    <path
       id="path15469"
       d="m 318.55245,148.22456 c -1.44639,0.9525 -2.82222,1.97556 -3.03389,2.25778 -0.52916,0.635 -0.0353,2.61055 1.02306,4.33917 0.84667,1.41111 1.41111,1.44638 5.64444,0.35277 2.61056,-0.67027 2.99861,-0.88194 2.89278,-1.48166 -0.21167,-1.16417 -3.175,-7.23195 -3.56306,-7.23195 -0.17638,0 -1.51694,0.77611 -2.96333,1.76389 z"
       style="stroke-width:0.0352777;fill:#ffab91;fill-opacity:1" />
    <path
       id="path15471"
       d="m 133.20302,150.30595 c -0.84667,1.905 -1.5875,3.73944 -1.72861,4.02167 -0.14111,0.42333 0.49389,0.67027 2.96333,1.27 4.19806,0.98777 4.79778,0.9525 5.67972,-0.28223 0.70556,-0.98777 1.72861,-4.1275 1.41111,-4.37444 -1.55222,-1.23472 -5.99722,-4.1275 -6.38527,-4.1275 -0.24695,0 -1.12889,1.55222 -1.94028,3.4925 z"
       style="stroke-width:0.0352777;fill:#ffab91;fill-opacity:1" />
    <path
       id="path15473"
       d="m 139.34135,148.25984 c 0.21167,0.28222 0.88195,0.77611 1.44639,1.09361 0.88194,0.52917 1.12889,0.56444 1.44639,0.14111 0.42333,-0.49389 -0.14111,-0.81139 -2.43417,-1.48167 -0.74083,-0.21166 -0.81139,-0.14111 -0.45861,0.24695 z"
       style="stroke-width:0.0352777;fill:#ffab91;fill-opacity:1" />
    <path
       id="path15475"
       d="m 314.95412,148.33039 c -1.09361,0.81139 -0.3175,1.41112 0.91722,0.70556 0.56445,-0.35278 1.02306,-0.74083 1.02306,-0.88194 0,-0.45862 -1.23473,-0.3175 -1.94028,0.17638 z"
       style="stroke-width:0.0352777;fill:#ffab91;fill-opacity:1" />
    <path
       id="path15477"
       d="m 322.36245,157.07928 c -1.76389,0.98778 -3.31611,1.905 -3.4925,2.08139 -0.45861,0.45861 0.38806,4.02167 1.16417,5.00945 0.635,0.77611 0.70555,0.77611 4.30389,0.35277 2.01083,-0.24694 3.77472,-0.56444 3.91583,-0.70555 0.3175,-0.3175 -2.01083,-8.04333 -2.46944,-8.32556 -0.14112,-0.0705 -1.69334,0.635 -3.42195,1.5875 z"
       style="stroke-width:0.0352777;fill:#ffab91;fill-opacity:1" />
    <path
       id="path15479"
       d="m 130.80413,156.30317 c -0.21167,0.35278 -2.32833,7.02028 -2.43417,7.58472 -0.0353,0.45862 3.98639,1.23473 6.35,1.27 h 1.83445 l 0.74083,-1.79916 c 0.42333,-0.98778 0.74083,-2.25778 0.67028,-2.8575 -0.10584,-0.98778 -0.42334,-1.27 -3.28084,-2.78695 -3.42194,-1.83444 -3.56305,-1.905 -3.88055,-1.41111 z"
       style="stroke-width:0.0352777;fill:#ffab91;fill-opacity:1" />
    <path
       id="path15481"
       d="m 319.4344,156.58539 c -0.77612,0.14112 -1.41111,0.98778 -1.02306,1.37584 0.24694,0.28222 2.36361,-0.88195 2.36361,-1.27 0,-0.21167 -0.10583,-0.3175 -0.24694,-0.3175 -0.17639,0.0353 -0.635,0.14111 -1.09361,0.21166 z"
       style="stroke-width:0.0352777;fill:#ffab91;fill-opacity:1" />
    <path
       id="path15483"
       d="m 135.91941,157.22039 c 0,0.0706 0.49389,0.42334 1.09361,0.74084 0.81139,0.42333 1.19944,0.45861 1.51694,0.14111 0.28222,-0.28222 0.24695,-0.45861 -0.14111,-0.70556 -0.52917,-0.35277 -2.46944,-0.49389 -2.46944,-0.17639 z"
       style="stroke-width:0.0352777;fill:#ffab91;fill-opacity:1" />
    <path
       id="path15485"
       d="m 325.18467,166.42789 c -1.55222,0.67028 -3.03389,1.34056 -3.31611,1.44639 -0.56444,0.24695 -0.38805,3.52778 0.28222,5.18584 l 0.38806,0.98777 3.88056,-0.14111 c 2.11666,-0.0705 3.98638,-0.24694 4.1275,-0.38805 0.10583,-0.14111 -0.14112,-2.04611 -0.635,-4.19806 -0.59973,-2.78694 -1.02306,-4.02166 -1.37584,-4.05694 -0.28222,-0.0706 -1.79916,0.45861 -3.35139,1.16416 z"
       style="stroke-width:0.0352777;fill:#ffab91;fill-opacity:1" />
    <path
       id="path15487"
       d="m 127.13524,168.61512 c -0.38806,1.69333 -0.81139,3.66889 -0.9525,4.37444 l -0.21167,1.34056 h 4.09223 4.1275 l 0.52916,-1.23473 c 0.28222,-0.70555 0.59972,-1.97555 0.74084,-2.82222 l 0.21166,-1.5875 -2.96333,-1.37583 c -1.62278,-0.74083 -3.38667,-1.44639 -3.91583,-1.5875 -0.91723,-0.21167 -0.9525,-0.17639 -1.65806,2.89278 z"
       style="stroke-width:0.0352777;fill:#ffab91;fill-opacity:1" />
    <path
       id="path15489"
       d="m 321.51578,166.00456 c -0.24694,0.3175 -0.28222,0.59972 -0.0705,0.70556 0.38805,0.24694 2.01083,-0.3175 2.32833,-0.81139 0.35278,-0.59972 -1.79916,-0.45861 -2.25778,0.10583 z"
       style="stroke-width:0.0352777;fill:#ffab91;fill-opacity:1" />
    <path
       id="path15491"
       d="m 132.9208,166.25151 c 0.35277,0.56444 1.86972,1.02305 2.50472,0.77611 0.52916,-0.21167 0.52916,-0.24695 -0.0706,-0.70556 -0.77611,-0.56444 -2.75167,-0.635 -2.43417,-0.0706 z"
       style="stroke-width:0.0352777;fill:#ffab91;fill-opacity:1" />
    <path
       id="path15493"
       d="m 323.59717,175.03567 c -0.98777,0.59972 0.0706,1.12889 1.37584,0.67028 0.84666,-0.3175 1.02305,-0.49389 0.67027,-0.70556 -0.59972,-0.38805 -1.37583,-0.38805 -2.04611,0.0353 z"
       style="stroke-width:0.0352777;fill:#ffab91;fill-opacity:1" />
    <path
       id="path15495"
       d="m 326.94856,175.88234 -3.52778,1.12889 v 2.71639 c 0.0353,1.48166 0.21167,2.89277 0.42334,3.10444 0.17639,0.17639 2.11666,0.45861 4.30389,0.56444 l 3.91583,0.21167 -0.0353,-1.02305 c -0.0353,-1.97556 -0.88194,-7.19667 -1.23472,-7.51417 -0.17639,-0.17639 -1.76389,0.14111 -3.84528,0.81139 z"
       style="stroke-width:0.0352777;fill:#ffab91;fill-opacity:1" />
    <path
       id="path15497"
       d="m 125.26552,179.33956 c -0.28222,2.18722 -0.45861,4.19806 -0.35278,4.445 0.14111,0.35278 0.77611,0.42333 2.8575,0.24694 5.29167,-0.42333 5.22111,-0.38805 5.64444,-2.11666 0.59973,-2.32833 0.49389,-3.98639 -0.21166,-4.37445 -0.98778,-0.49388 -6.17361,-2.15194 -6.84389,-2.15194 -0.45861,0 -0.67028,0.74083 -1.09361,3.95111 z"
       style="stroke-width:0.0352777;fill:#ffab91;fill-opacity:1" />
    <path
       id="path15499"
       d="m 131.50968,175.95289 c 0.81139,0.59973 1.97556,0.52917 2.2225,-0.14111 0.0705,-0.28222 -0.3175,-0.42333 -1.41111,-0.42333 -1.41111,0.0353 -1.48166,0.0706 -0.81139,0.56444 z"
       style="stroke-width:0.0352777;fill:#ffab91;fill-opacity:1" />
    <path
       id="path15501"
       d="m 324.30273,184.77234 c 0,0.45861 0.24694,0.52916 1.09361,0.35278 0.59972,-0.10584 1.34056,-0.21167 1.62278,-0.21167 0.28222,0 0.38805,-0.17639 0.28222,-0.35278 -0.10583,-0.21167 -0.84667,-0.35278 -1.62278,-0.35278 -1.02305,0 -1.37583,0.14111 -1.37583,0.56445 z"
       style="stroke-width:0.0352777;fill:#ffab91;fill-opacity:1" />
    <path
       id="path15503"
       d="m 129.99274,184.87817 c -0.35278,0.21167 -0.28222,0.35278 0.35278,0.49389 1.30528,0.38806 1.94028,0.28222 2.18722,-0.28222 0.14111,-0.38806 -0.0705,-0.52917 -0.9525,-0.52917 -0.635,0 -1.34056,0.14111 -1.5875,0.3175 z"
       style="stroke-width:0.0352777;fill:#ffab91;fill-opacity:1" />
    <path
       id="path15505"
       d="m 328.71245,185.3015 c -4.97417,1.09362 -4.7625,0.9525 -4.7625,3.98639 0,1.62278 0.14111,2.75167 0.42333,2.89278 0.70556,0.45861 4.62139,1.16417 6.38528,1.19945 h 1.65806 v -3.10445 c 0,-3.24555 -0.28222,-5.75028 -0.67028,-5.67972 -0.10583,0.0353 -1.48167,0.35278 -3.03389,0.70555 z"
       style="stroke-width:0.0352777;fill:#ffab91;fill-opacity:1" />
    <path
       id="path15507"
       d="m 124.87746,185.47789 c -0.14111,0.14111 -0.24694,2.15195 -0.24694,4.445 0,4.83306 -0.45861,4.445 4.48028,3.56306 l 3.28083,-0.56445 0.35278,-1.27 c 0.42333,-1.5875 0.45861,-2.92805 0.0353,-4.02166 -0.28223,-0.74084 -0.77611,-0.98778 -2.75167,-1.41111 -3.81,-0.88195 -4.86833,-1.02306 -5.15056,-0.74084 z"
       style="stroke-width:0.0352777;fill:#ffab91;fill-opacity:1" />
    <path
       id="path15509"
       d="m 324.65551,194.01512 c 0,0.635 0.14111,0.70555 1.34055,0.52916 0.70556,-0.10583 1.37584,-0.24694 1.44639,-0.3175 0.28222,-0.24694 -0.14111,-0.42333 -1.44639,-0.67028 -1.19944,-0.21166 -1.34055,-0.17638 -1.34055,0.45862 z"
       style="stroke-width:0.0352777;fill:#ffab91;fill-opacity:1" />
    <path
       id="path15511"
       d="m 129.63996,194.40317 c -0.35278,0.21167 -0.14111,0.35278 0.635,0.52917 1.69334,0.3175 2.11667,0.28222 2.11667,-0.3175 0,-0.59972 -1.94028,-0.74084 -2.75167,-0.21167 z"
       style="stroke-width:0.0352777;fill:#ffab91;fill-opacity:1" />
    <path
       id="path15513"
       d="m 327.65412,195.17928 c -3.175,0.45861 -3.63361,0.74084 -3.88056,2.50472 -0.14111,0.84667 -0.17639,2.08139 -0.10583,2.75167 l 0.10583,1.23472 3.35139,0.91723 c 1.83445,0.52916 3.63361,0.98777 3.95111,0.98777 0.77611,0.0353 0.88195,-0.52916 1.16417,-5.18583 l 0.24694,-3.59833 -1.37583,0.0353 c -0.74083,0.0353 -2.29306,0.17639 -3.45722,0.35278 z"
       style="stroke-width:0.0352777;fill:#ffab91;fill-opacity:1" />
    <path
       id="path15515"
       d="m 124.77163,199.23623 c 0.10583,2.25777 0.35278,4.30389 0.49389,4.55083 0.17639,0.35278 1.09361,0.21167 4.02166,-0.59972 3.52778,-0.98778 3.77473,-1.12889 3.98639,-2.04611 0.24695,-1.12889 -0.0706,-3.84528 -0.52916,-4.58611 -0.24695,-0.42334 -5.32695,-1.37584 -7.37306,-1.41112 h -0.84667 z"
       style="stroke-width:0.0352777;fill:#ffab91;fill-opacity:1" />
    <path
       id="path15517"
       d="m 323.94995,203.29317 c 0,0.52917 0.24695,0.67028 1.41111,0.67028 0.77611,0 1.41111,-0.14111 1.41111,-0.3175 0,-0.17639 -0.635,-0.45861 -1.41111,-0.67028 -1.27,-0.3175 -1.41111,-0.28222 -1.41111,0.3175 z"
       style="stroke-width:0.0352777;fill:#ffab91;fill-opacity:1" />
    <path
       id="path15519"
       d="m 130.73357,203.61067 c -1.23472,0.49389 -0.98777,0.70556 0.77611,0.70556 1.16417,0 1.5875,-0.14111 1.5875,-0.52917 0,-0.59972 -1.12888,-0.67028 -2.36361,-0.17639 z"
       style="stroke-width:0.0352777;fill:#ffab91;fill-opacity:1" />
    <path
       id="path15521"
       d="m 324.37328,204.91595 c -1.05833,0.21167 -1.83444,2.01083 -1.83444,4.23333 v 1.69334 l 3.45722,1.34055 c 3.4925,1.30528 4.30389,1.51695 4.30389,1.02306 0,-0.14111 0.3175,-1.97556 0.67028,-4.1275 0.52917,-2.92806 0.59972,-3.95111 0.28222,-4.1275 -0.45861,-0.28223 -5.46805,-0.3175 -6.87917,-0.0353 z"
       style="stroke-width:0.0352777;fill:#ffab91;fill-opacity:1" />
    <path
       id="path15523"
       d="m 126.07691,205.33928 c -0.35278,0.24695 -0.45861,0.84667 -0.28223,2.39889 0.28223,3.03389 0.9525,5.78556 1.48167,5.96195 0.24695,0.10583 1.97556,-0.38806 3.84528,-1.12889 l 3.38667,-1.30528 v -1.72861 c 0,-0.9525 -0.21167,-2.25778 -0.49389,-2.89278 -0.42334,-1.02306 -0.67028,-1.19944 -2.15195,-1.37583 -2.36361,-0.35278 -5.18583,-0.28223 -5.78555,0.0705 z"
       style="stroke-width:0.0352777;fill:#ffab91;fill-opacity:1" />
    <path
       id="path15525"
       d="m 322.36245,212.46539 c -0.35278,0.49389 -0.17639,0.59973 1.23472,0.67028 1.86973,0.10583 2.01084,0.0353 1.05834,-0.52917 -1.05834,-0.59972 -1.97556,-0.67027 -2.29306,-0.14111 z"
       style="stroke-width:0.0352777;fill:#ffab91;fill-opacity:1" />
    <path
       id="path15527"
       d="m 132.85024,212.85345 c -0.98778,0.45861 -1.05833,0.98778 -0.14111,0.98778 1.05833,0 1.79917,-0.38806 1.79917,-0.91723 0,-0.56444 -0.56445,-0.59972 -1.65806,-0.0705 z"
       style="stroke-width:0.0352777;fill:#ffab91;fill-opacity:1" />
    <path
       id="path15529"
       d="m 321.0219,215.49928 c -0.28223,0.74083 -0.635,1.97556 -0.74084,2.78695 l -0.24694,1.41111 3.63361,1.79916 c 2.01083,0.98778 3.73944,1.69334 3.88055,1.5875 0.21167,-0.21166 1.62278,-5.08 2.18723,-7.51416 0.17639,-0.88195 0.14111,-0.9525 -1.65806,-1.16417 -0.98778,-0.10583 -2.89278,-0.21167 -4.16278,-0.21167 h -2.36361 z"
       style="stroke-width:0.0352777;fill:#ffab91;fill-opacity:1" />
    <path
       id="path15531"
       d="m 128.96968,214.79373 c -1.30527,0.14111 -1.51694,0.24694 -1.51694,0.9525 0,1.02305 1.34056,6.10305 1.86972,7.16138 l 0.42334,0.81139 3.21027,-1.5875 c 1.76389,-0.84666 3.38667,-1.76389 3.59834,-2.01083 0.38805,-0.49389 0.0705,-2.68111 -0.67028,-4.62139 -0.38806,-0.91722 -0.49389,-0.9525 -2.92806,-0.88194 -1.37583,0.0353 -3.175,0.10583 -3.98639,0.17639 z"
       style="stroke-width:0.0352777;fill:#ffab91;fill-opacity:1" />
    <path
       id="path15533"
       d="m 319.96356,221.39067 c -0.28222,0.70556 0.0353,0.91722 1.48167,0.91722 1.05833,0 1.16417,-0.0705 0.74083,-0.49389 -0.84666,-0.77611 -2.01083,-1.02305 -2.2225,-0.42333 z"
       style="stroke-width:0.0352777;fill:#ffab91;fill-opacity:1" />
    <path
       id="path15535"
       d="m 134.68468,222.34317 -1.05833,0.74083 1.19945,-0.21166 c 0.635,-0.10584 1.37583,-0.21167 1.62277,-0.21167 0.24695,0 0.52917,-0.24694 0.67028,-0.52917 0.28222,-0.81139 -1.16417,-0.67027 -2.43417,0.21167 z"
       style="stroke-width:0.0352777;fill:#ffab91;fill-opacity:1" />
    <path
       id="path15537"
       d="m 318.12912,224.91845 c -1.37583,2.78694 -1.12889,3.59833 1.41111,5.22111 3.63361,2.29305 4.40972,2.64583 4.7625,2.04611 0.49389,-0.77611 2.36361,-6.06778 2.50472,-7.05556 0.14111,-0.84666 0,-0.91722 -2.8575,-1.48166 -4.72722,-0.9525 -4.72722,-0.9525 -5.82083,1.27 z"
       style="stroke-width:0.0352777;fill:#ffab91;fill-opacity:1" />
    <path
       id="path15539"
       d="m 133.66163,223.93067 c -1.55222,0.28222 -2.99861,0.635 -3.24556,0.77611 -0.38805,0.21167 -0.24694,0.84667 0.52917,3.06917 0.52917,1.55222 1.27,3.38666 1.65806,4.09222 l 0.67027,1.30528 3.175,-2.01084 c 3.70417,-2.32833 3.91584,-2.82222 2.50473,-5.85611 -0.98778,-2.18722 -0.84667,-2.15194 -5.29167,-1.37583 z"
       style="stroke-width:0.0352777;fill:#ffab91;fill-opacity:1" />
    <path
       id="path15541"
       d="m 316.54162,230.21011 c 0,0.42334 1.65805,1.27 2.50472,1.27 0.635,0 0.28222,-0.56444 -0.70555,-1.16416 -1.23473,-0.74084 -1.79917,-0.77611 -1.79917,-0.10584 z"
       style="stroke-width:0.0352777;fill:#ffab91;fill-opacity:1" />
    <path
       id="path15543"
       d="m 138.56524,230.98623 -1.05833,0.88194 1.23472,-0.17639 c 1.37583,-0.24694 1.94028,-0.67028 1.62278,-1.23472 -0.35278,-0.56445 -0.635,-0.49389 -1.79917,0.52917 z"
       style="stroke-width:0.0352777;fill:#ffab91;fill-opacity:1" />
    <path
       id="path15545"
       d="m 137.33052,232.9265 c -2.01084,0.59973 -3.73945,1.12889 -3.81,1.19945 -0.0706,0.0353 0.77611,1.86972 1.86972,4.02166 l 1.97556,3.95112 1.05833,-0.635 c 0.59972,-0.35278 2.08139,-1.48167 3.31611,-2.46945 l 2.25778,-1.86972 -0.52917,-1.48167 c -0.52917,-1.48166 -1.905,-3.81 -2.25778,-3.77472 -0.10583,0 -1.83444,0.49389 -3.88055,1.05833 z"
       style="stroke-width:0.0352777;fill:#ffab91;fill-opacity:1" />
    <path
       id="path15547"
       d="m 314.77773,232.85595 c -0.38806,0.56444 -0.9525,1.69333 -1.19944,2.43416 -0.49389,1.34056 -0.45862,1.44639 0.24694,2.11667 1.44639,1.30528 5.25639,3.95111 5.715,3.95111 0.45861,0 3.70417,-6.24416 3.70417,-7.12611 0,-0.635 -1.02306,-1.09361 -4.05695,-1.86972 -2.96333,-0.74083 -3.56305,-0.67028 -4.40972,0.49389 z"
       style="stroke-width:0.0352777;fill:#ffab91;fill-opacity:1" />
    <path
       id="path15549"
       d="m 142.7633,239.41761 -1.37584,1.19945 1.05834,-0.28222 c 1.79916,-0.52917 2.29305,-0.81139 2.29305,-1.27 0,-0.9525 -0.635,-0.84667 -1.97555,0.35277 z"
       style="stroke-width:0.0352777;fill:#ffab91;fill-opacity:1" />
    <path
       id="path15551"
       d="m 312.55523,238.42984 c -0.49389,0.45861 -0.21167,0.77611 1.02306,1.16416 1.55222,0.52917 1.905,0.24695 0.81138,-0.67027 -0.88194,-0.74084 -1.44638,-0.91723 -1.83444,-0.49389 z"
       style="stroke-width:0.0352777;fill:#ffab91;fill-opacity:1" />
    <path
       id="path15553"
       d="m 310.65023,240.72289 c -0.38806,0.45861 -1.09361,1.51695 -1.51694,2.39889 l -0.81139,1.55222 2.92805,2.78695 c 3.42195,3.24555 3.10445,3.35139 5.99722,-1.51695 2.08139,-3.45722 2.11667,-3.28083 -1.72861,-4.72722 -3.63361,-1.37583 -4.02166,-1.41111 -4.86833,-0.49389 z"
       style="stroke-width:0.0352777;fill:#ffab91;fill-opacity:1" />
    <path
       id="path15555"
       d="m 143.15135,241.00511 c -3.06917,1.09362 -5.18583,2.11667 -5.04472,2.39889 0.45861,1.16417 4.40972,7.12611 4.69194,7.12611 0.21167,0 1.62278,-1.16416 3.13972,-2.57527 3.17501,-2.89278 3.21028,-3.03389 1.23473,-5.99723 -1.19945,-1.83444 -1.48167,-1.905 -4.02167,-0.9525 z"
       style="stroke-width:0.0352777;fill:#ffab91;fill-opacity:1" />
    <path
       id="path15557"
       d="m 307.72217,246.579 c 0,0.38806 0.38806,0.84667 0.88195,1.05834 1.51694,0.70555 1.76389,0.45861 0.70555,-0.635 -1.16416,-1.23473 -1.5875,-1.34056 -1.5875,-0.42334 z"
       style="stroke-width:0.0352777;fill:#ffab91;fill-opacity:1" />
    <path
       id="path15559"
       d="m 148.05496,247.17873 c -1.19944,1.19944 -0.88194,1.44638 0.74084,0.635 1.12888,-0.59973 1.23472,-0.74084 0.74083,-1.12889 -0.45861,-0.38806 -0.70556,-0.28223 -1.48167,0.49389 z"
       style="stroke-width:0.0352777;fill:#ffab91;fill-opacity:1" />
    <path
       id="path15561"
       d="m 305.71134,248.34289 c -0.88194,0.70556 -2.57528,3.175 -2.57528,3.77472 0,0.56445 4.93889,6.24417 5.29167,6.10306 0.14111,-0.0706 1.44639,-1.5875 2.82222,-3.42195 2.96334,-3.81 3.03389,-3.42194 -1.05833,-5.50333 -3.13972,-1.5875 -3.56306,-1.65805 -4.48028,-0.9525 z"
       style="stroke-width:0.0352777;fill:#ffab91;fill-opacity:1" />
    <path
       id="path15563"
       d="m 146.96135,249.68345 c -1.79917,0.88194 -3.28083,1.76389 -3.28083,1.97555 0,0.42334 0.98777,1.86972 3.28083,4.79778 l 1.76389,2.2225 1.05833,-0.98778 c 0.56445,-0.52916 1.79917,-1.905 2.75167,-3.03389 1.69333,-2.01083 1.72861,-2.04611 1.19944,-3.06916 -0.70555,-1.41111 -2.61055,-3.52778 -3.13972,-3.52778 -0.21166,0 -1.86972,0.74083 -3.63361,1.62278 z"
       style="stroke-width:0.0352777;fill:#ffab91;fill-opacity:1" />
    <path
       id="path15565"
       d="m 301.9719,253.59928 c -0.45861,0.42333 -0.24695,0.74083 1.02305,1.51694 1.5875,0.98778 1.83445,0.74084 0.67028,-0.67027 -0.9525,-1.12889 -1.27,-1.27 -1.69333,-0.84667 z"
       style="stroke-width:0.0352777;fill:#ffab91;fill-opacity:1" />
    <path
       id="path15567"
       d="m 153.59357,254.79872 c -0.45861,0.59973 -0.74083,1.12889 -0.67028,1.19945 0.28223,0.28222 2.43417,-1.27 2.32834,-1.65806 -0.24695,-0.74083 -0.81139,-0.59972 -1.65806,0.45861 z"
       style="stroke-width:0.0352777;fill:#ffab91;fill-opacity:1" />
    <path
       id="path15569"
       d="m 299.50245,255.85706 c -0.70555,0.56444 -1.62278,1.51694 -2.01083,2.11666 l -0.77611,1.05834 1.19944,1.83444 c 0.635,0.98778 1.76389,2.50472 2.54,3.35139 l 1.37584,1.48167 2.8575,-3.03389 c 1.55222,-1.69333 2.89277,-3.175 2.96333,-3.31611 0.0705,-0.21167 -3.03389,-2.29306 -6.49111,-4.33917 -0.21167,-0.10583 -0.9525,0.24695 -1.65806,0.84667 z"
       style="stroke-width:0.0352777;fill:#ffab91;fill-opacity:1" />
    <path
       id="path15571"
       d="m 153.02913,257.16234 c -1.72861,1.12888 -3.175,2.2225 -3.175,2.43416 0,0.24695 1.23472,1.79917 2.78694,3.45722 3.21028,3.52778 2.8575,3.56306 5.89139,-0.77611 l 1.83445,-2.68111 -0.67028,-1.19944 c -0.56445,-1.09361 -2.82222,-3.31611 -3.31611,-3.24556 -0.10584,0 -1.5875,0.91722 -3.35139,2.01084 z"
       style="stroke-width:0.0352777;fill:#ffab91;fill-opacity:1" />
    <path
       id="path15573"
       d="m 160.29635,261.32511 c -0.70556,0.91723 -0.9525,1.55223 -0.56444,1.55223 0.49388,0 1.94027,-1.19945 1.94027,-1.62278 0,-0.88195 -0.67027,-0.84667 -1.37583,0.0706 z"
       style="stroke-width:0.0352777;fill:#ffab91;fill-opacity:1" />
    <path
       id="path15575"
       d="m 295.58662,260.72539 c -0.21167,0.35278 1.72861,2.15195 2.29305,2.15195 0.42334,0 0.10584,-0.59973 -0.84666,-1.69334 -0.77611,-0.84666 -1.16417,-0.9525 -1.44639,-0.45861 z"
       style="stroke-width:0.0352777;fill:#ffab91;fill-opacity:1" />
    <path
       id="path15577"
       d="m 292.55273,262.73622 c -2.82222,2.25778 -2.8575,2.39889 -0.74083,6.06778 1.02305,1.79917 1.97555,3.31611 2.15194,3.42195 0.42333,0.28222 6.70278,-5.18584 6.70278,-5.82084 0,-0.21166 -6.10306,-4.93889 -6.38528,-4.93889 -0.0706,0 -0.84667,0.56445 -1.72861,1.27 z"
       style="stroke-width:0.0352777;fill:#ffab91;fill-opacity:1" />
    <path
       id="path15579"
       d="m 159.48496,264.21789 c -1.69333,1.30528 -3.06917,2.46945 -3.06917,2.57528 -0.0353,0.24694 5.53862,5.18583 6.35,5.60917 0.45862,0.24694 0.9525,-0.38806 2.61056,-3.21028 l 2.04611,-3.52778 -1.37583,-1.44639 c -1.16417,-1.16417 -2.99861,-2.46944 -3.38667,-2.36361 -0.0706,0 -1.48167,1.09361 -3.175,2.36361 z"
       style="stroke-width:0.0352777;fill:#ffab91;fill-opacity:1" />
    <path
       id="path15581"
       d="m 288.91912,266.61678 c -0.49389,0.49389 -0.24695,1.12889 0.635,1.69333 0.70555,0.45861 0.88194,0.49389 0.88194,0.0706 0,-0.67028 -1.19944,-2.08139 -1.51694,-1.76389 z"
       style="stroke-width:0.0352777;fill:#ffab91;fill-opacity:1" />
    <path
       id="path15583"
       d="m 167.21079,267.78095 c -0.9525,1.62277 -0.70555,2.04611 0.49389,0.84666 0.59972,-0.59972 0.98778,-1.27 0.88195,-1.48166 -0.38806,-0.59973 -0.70556,-0.45861 -1.37584,0.635 z"
       style="stroke-width:0.0352777;fill:#ffab91;fill-opacity:1" />
    <path
       id="path15585"
       d="m 167.0344,270.49734 c -1.58749,1.48166 -2.89277,2.78694 -2.89277,2.96333 0,0.45861 6.10305,4.72722 6.80861,4.72722 0.49389,0.0353 1.05833,-0.84667 2.25778,-3.42194 1.51694,-3.35139 1.55222,-3.4925 0.9525,-4.16278 -0.67028,-0.74083 -3.63362,-2.78695 -4.02167,-2.78695 -0.14111,0 -1.51695,1.19945 -3.10445,2.68112 z"
       style="stroke-width:0.0352777;fill:#ffab91;fill-opacity:1" />
    <path
       id="path15587"
       d="m 284.93273,268.94511 c -2.57528,1.76389 -2.57528,1.86973 -0.84667,5.53861 0.84667,1.76389 1.69334,3.35139 1.905,3.52778 0.24695,0.21167 1.65806,-0.59972 3.81,-2.15194 l 3.42195,-2.50472 -0.77611,-0.98778 c -0.9525,-1.34056 -4.7625,-4.55084 -5.36223,-4.55084 -0.24694,0 -1.19944,0.52917 -2.15194,1.12889 z"
       style="stroke-width:0.0352777;fill:#ffab91;fill-opacity:1" />
    <path
       id="path15589"
       d="m 174.90135,273.10789 c -0.84667,1.65806 -0.49389,2.15195 0.59972,0.84667 0.84667,-0.9525 0.91722,-1.16417 0.49389,-1.55222 -0.42333,-0.3175 -0.635,-0.21167 -1.09361,0.70555 z"
       style="stroke-width:0.0352777;fill:#ffab91;fill-opacity:1" />
    <path
       id="path15591"
       d="m 281.08745,272.36706 c -0.24694,0.42333 1.44639,2.43416 1.76389,2.08139 0.28222,-0.28223 -0.77611,-2.39889 -1.23472,-2.39889 -0.17639,0 -0.38806,0.14111 -0.52917,0.3175 z"
       style="stroke-width:0.0352777;fill:#ffab91;fill-opacity:1" />
    <path
       id="path15593"
       d="m 175.74802,275.11872 c -1.05834,1.12889 -2.29306,2.54 -2.71639,3.175 l -0.81139,1.12889 0.81139,0.49389 c 0.45861,0.28222 2.18722,1.30528 3.88055,2.29306 l 3.03389,1.79916 1.34056,-3.73944 c 0.98777,-2.75167 1.23472,-3.88056 0.9525,-4.30389 -0.3175,-0.52917 -3.88056,-2.8575 -4.37445,-2.8575 -0.10583,0 -1.05833,0.91722 -2.11666,2.01083 z"
       style="stroke-width:0.0352777;fill:#ffab91;fill-opacity:1" />
    <path
       id="path15595"
       d="m 278.08884,273.49595 c -1.41111,0.56444 -3.175,2.08139 -3.175,2.71639 0,0.81138 1.97556,6.42055 2.43417,6.87916 0.3175,0.3175 2.92805,-0.91722 6.38528,-3.10444 l 1.44638,-0.91722 -1.16416,-1.48167 c -1.94028,-2.43417 -4.02167,-4.48028 -4.55083,-4.445 -0.28223,0 -0.88195,0.17639 -1.37584,0.35278 z"
       style="stroke-width:0.0352777;fill:#ffab91;fill-opacity:1" />
    <path
       id="path15597"
       d="m 182.83885,278.22317 c -0.24695,0.70555 -0.35278,1.37583 -0.24695,1.44639 0.24695,0.24694 1.69334,-1.69334 1.55223,-2.11667 -0.28223,-0.84667 -0.91723,-0.49389 -1.30528,0.67028 z"
       style="stroke-width:0.0352777;fill:#ffab91;fill-opacity:1" />
    <path
       id="path15599"
       d="m 273.14995,277.51761 c 0,0.56445 1.37584,2.11667 1.62278,1.83445 0.0706,-0.0706 -0.0353,-0.635 -0.24694,-1.23472 -0.38806,-1.16417 -1.37584,-1.55223 -1.37584,-0.59973 z"
       style="stroke-width:0.0352777;fill:#ffab91;fill-opacity:1" />
    <path
       id="path15601"
       d="m 183.8619,279.9165 c -1.69333,2.32834 -2.78694,3.98639 -2.78694,4.30389 0,0.45861 7.65528,3.91583 7.97278,3.59833 0.21166,-0.17639 1.905,-6.91444 1.905,-7.44361 0,-0.52916 -3.95111,-2.68111 -4.90361,-2.68111 -0.3175,0 -1.30528,1.02306 -2.18723,2.2225 z"
       style="stroke-width:0.0352777;fill:#ffab91;fill-opacity:1" />
    <path
       id="path15603"
       d="m 268.70495,278.54067 c -0.98777,0.45861 -1.94027,1.02305 -2.08139,1.27 -0.3175,0.49389 1.19945,7.05555 1.72862,7.65528 0.28222,0.3175 1.34055,-0.0353 4.19805,-1.37584 2.08139,-0.98777 3.77472,-1.905 3.77472,-2.04611 0,-0.42333 -2.46944,-3.95111 -3.63361,-5.22111 -1.30528,-1.34055 -1.65805,-1.37583 -3.98639,-0.28222 z"
       style="stroke-width:0.0352777;fill:#ffab91;fill-opacity:1" />
    <path
       id="path15605"
       d="m 191.72885,281.46872 c -0.17639,0.35278 -0.42333,1.09362 -0.56445,1.69334 l -0.21166,1.05833 0.88194,-0.98778 c 0.88195,-0.98777 1.19945,-2.36361 0.52917,-2.36361 -0.17639,0 -0.45861,0.28222 -0.635,0.59972 z"
       style="stroke-width:0.0352777;fill:#ffab91;fill-opacity:1" />
    <path
       id="path15607"
       d="m 264.68329,281.22178 c 0,0.59972 1.09361,2.54 1.30527,2.32833 0.38806,-0.38805 -0.28222,-2.68111 -0.77611,-2.68111 -0.28222,0 -0.52916,0.17639 -0.52916,0.35278 z"
       style="stroke-width:0.0352777;fill:#ffab91;fill-opacity:1" />
    <path
       id="path15609"
       d="m 193.63385,282.03317 c -1.48167,2.32833 -3.73945,6.35 -3.63361,6.45583 0.17639,0.21167 7.97278,2.96333 8.32555,2.96333 0.17639,0 0.49389,-1.48166 0.70556,-3.28083 0.24694,-1.76389 0.52917,-3.59833 0.635,-4.02166 0.14111,-0.59973 -0.10583,-0.91723 -1.23472,-1.48167 -0.77611,-0.38806 -2.08139,-0.88195 -2.89278,-1.05833 -1.27,-0.28223 -1.48167,-0.24695 -1.905,0.42333 z"
       style="stroke-width:0.0352777;fill:#ffab91;fill-opacity:1" />
    <path
       id="path15611"
       d="m 261.68468,281.46872 c -1.55223,0.38806 -4.05695,1.62278 -4.05695,2.01084 0.0353,0.9525 1.02306,6.91444 1.23472,7.26722 0.10584,0.17639 0.38806,0.35278 0.59973,0.35278 0.91722,0 7.69055,-2.64584 7.69055,-2.99861 0,-0.74084 -3.77472,-6.70278 -4.26861,-6.73806 -0.28222,-0.0353 -0.81139,0 -1.19944,0.10583 z"
       style="stroke-width:0.0352777;fill:#ffab91;fill-opacity:1" />
    <path
       id="path15613"
       d="m 200.30135,285.49039 c -0.3175,1.79917 -0.0353,2.11667 0.67028,0.70556 0.70555,-1.30528 0.70555,-2.15195 0.0705,-2.15195 -0.3175,0 -0.59972,0.56445 -0.74083,1.44639 z"
       style="stroke-width:0.0352777;fill:#ffab91;fill-opacity:1" />
    <path
       id="path15615"
       d="m 255.86385,284.64372 c 0.0353,0.70556 0.95249,2.08139 1.23471,1.79917 0.10584,-0.0706 0.0706,-0.67028 -0.0353,-1.27 -0.24695,-1.16417 -1.19944,-1.5875 -1.19944,-0.52917 z"
       style="stroke-width:0.0352777;fill:#ffab91;fill-opacity:1" />
    <path
       id="path15617"
       d="m 201.39496,287.25428 c -2.18722,4.7625 -2.15194,4.48028 -0.635,4.86833 3.35139,0.91722 7.26722,1.76389 7.40833,1.62278 0.0705,-0.0706 0.24695,-1.905 0.35278,-4.02167 l 0.17639,-3.91583 -1.55222,-0.70555 c -0.84667,-0.38806 -2.18722,-0.70556 -2.99861,-0.70556 h -1.44639 z"
       style="stroke-width:0.0352777;fill:#ffab91;fill-opacity:1" />
    <path
       id="path15619"
       d="m 250.14885,284.9965 -1.34056,0.52917 v 2.39889 c 0,1.30527 0.10583,3.10444 0.21167,4.02166 0.21166,1.34056 0.35277,1.62278 0.98777,1.62278 1.05834,0 7.3025,-1.65805 7.62,-2.01083 0.14111,-0.14111 -0.45861,-1.83445 -1.34055,-3.73945 l -1.5875,-3.42194 -1.62278,0.0353 c -0.88194,0 -2.2225,0.24694 -2.92805,0.56444 z"
       style="stroke-width:0.0352777;fill:#ffab91;fill-opacity:1" />
    <path
       id="path15621"
       d="m 209.43829,287.36011 c -0.3175,1.76389 0.21167,2.32834 0.81139,0.88195 0.49389,-1.19945 0.38806,-2.08139 -0.21166,-2.08139 -0.21167,0 -0.45862,0.52916 -0.59973,1.19944 z"
       style="stroke-width:0.0352777;fill:#ffab91;fill-opacity:1" />
    <path
       id="path15623"
       d="m 211.87246,286.584 c -0.635,0.81139 -2.57528,7.12611 -2.29306,7.40833 0.38806,0.38806 7.44362,1.44639 8.04334,1.19945 0.52916,-0.21167 0.67028,-4.16278 0.21166,-6.73806 -0.24694,-1.30527 -0.35277,-1.44639 -1.83444,-1.83444 -2.11667,-0.52917 -3.70417,-0.56445 -4.1275,-0.0353 z"
       style="stroke-width:0.0352777;fill:#ffab91;fill-opacity:1" />
    <path
       id="path15625"
       d="m 241.47051,286.51345 c -0.67027,0.14111 -1.37583,0.45861 -1.5875,0.67027 -0.49389,0.49389 -0.81139,8.14917 -0.38805,8.14917 0.52916,0 8.43139,-1.16417 8.5725,-1.27 0.24694,-0.21167 -2.15195,-6.87917 -2.68111,-7.37306 -0.52917,-0.56444 -2.01084,-0.635 -3.91584,-0.17638 z"
       style="stroke-width:0.0352777;fill:#ffab91;fill-opacity:1" />
    <path
       id="path15627"
       d="m 246.69162,286.584 c 0,0.88195 0.42334,2.04611 0.74084,2.04611 0.17639,0 0.3175,-0.56444 0.3175,-1.23472 0,-0.84667 -0.17639,-1.23472 -0.52917,-1.23472 -0.28222,0 -0.52917,0.21166 -0.52917,0.42333 z"
       style="stroke-width:0.0352777;fill:#ffab91;fill-opacity:1" />
    <path
       id="path15629"
       d="m 221.18579,287.46595 c -0.42333,0.67027 -2.04611,7.62 -1.83444,7.83166 0.14111,0.10584 2.11667,0.28222 4.445,0.35278 l 4.19805,0.10583 v -1.09361 c 0,-1.51694 -0.74083,-6.20889 -1.02305,-6.70278 -0.35278,-0.52916 -5.50333,-0.98777 -5.78556,-0.49388 z"
       style="stroke-width:0.0352777;fill:#ffab91;fill-opacity:1" />
    <path
       id="path15631"
       d="m 231.1694,287.5365 c -0.81139,0.21167 -0.91722,0.49389 -1.44639,4.09222 -0.3175,2.15195 -0.49389,3.98639 -0.42333,4.1275 0.14111,0.24695 5.46806,0.0706 7.72583,-0.28222 l 1.09361,-0.14111 -0.28222,-1.69333 c -0.45861,-2.36361 -1.37583,-5.46806 -1.79916,-5.99723 -0.38806,-0.45861 -3.35139,-0.52916 -4.86834,-0.10583 z"
       style="stroke-width:0.0352777;fill:#ffab91;fill-opacity:1" />
    <path
       id="path15633"
       d="m 219.03385,287.81872 c -0.10583,0.10584 -0.21167,0.77611 -0.21167,1.48167 0.0353,1.19944 0.0706,1.23472 0.52917,0.59972 0.28222,-0.38805 0.52917,-0.98778 0.52917,-1.30528 0,-0.70555 -0.49389,-1.12888 -0.84667,-0.77611 z"
       style="stroke-width:0.0352777;fill:#ffab91;fill-opacity:1" />
    <path
       id="path15635"
       d="m 237.5194,288.1715 c 0,1.09361 0.42334,2.2225 0.74084,2.01083 0.56444,-0.3175 0.38805,-2.61055 -0.21167,-2.61055 -0.28222,0 -0.52917,0.28222 -0.52917,0.59972 z"
       style="stroke-width:0.0352777;fill:#ffab91;fill-opacity:1" />
    <path
       id="path15637"
       d="m 228.41774,288.24206 c -0.24695,0.14111 -0.3175,0.70555 -0.17639,1.5875 0.21167,1.44639 0.59972,1.30527 0.98777,-0.38806 0.21167,-1.12889 -0.10583,-1.65805 -0.81138,-1.19944 z"
       style="stroke-width:0.0352777;fill:#ffab91;fill-opacity:1" />
  </g>
</svg>
