<?xml version="1.0" encoding="UTF-8" standalone="no"?>
<svg
   xmlns:dc="http://purl.org/dc/elements/1.1/"
   xmlns:cc="http://creativecommons.org/ns#"
   xmlns:rdf="http://www.w3.org/1999/02/22-rdf-syntax-ns#"
   xmlns:svg="http://www.w3.org/2000/svg"
   xmlns="http://www.w3.org/2000/svg"
   xmlns:sodipodi="http://sodipodi.sourceforge.net/DTD/sodipodi-0.dtd"
   xmlns:inkscape="http://www.inkscape.org/namespaces/inkscape"
   sodipodi:docname="ring-2.svg"
   inkscape:version="1.0 (4035a4fb49, 2020-05-01)"
   id="svg17736"
   version="1.1"
   viewBox="0 0 207.96249 207.85811"
   height="207.85811mm"
   width="207.96249mm">
  <defs
     id="defs17730" />
  <sodipodi:namedview
     inkscape:snap-bbox-midpoints="true"
     inkscape:snap-bbox-edge-midpoints="true"
     inkscape:bbox-nodes="true"
     inkscape:bbox-paths="true"
     inkscape:snap-bbox="true"
     inkscape:window-maximized="1"
     inkscape:window-y="36"
     inkscape:window-x="0"
     inkscape:window-height="1044"
     inkscape:window-width="1920"
     inkscape:snap-global="true"
     showgrid="false"
     inkscape:document-rotation="0"
     inkscape:current-layer="layer1"
     inkscape:document-units="mm"
     inkscape:cy="533.36639"
     inkscape:cx="634.02581"
     inkscape:zoom="0.71152941"
     inkscape:pageshadow="2"
     inkscape:pageopacity="0.0"
     borderopacity="1.0"
     bordercolor="#666666"
     pagecolor="#ffffff"
     id="base" />
  <metadata
     id="metadata17733">
    <rdf:RDF>
      <cc:Work
         rdf:about="">
        <dc:format>image/svg+xml</dc:format>
        <dc:type
           rdf:resource="http://purl.org/dc/dcmitype/StillImage" />
        <dc:title />
      </cc:Work>
    </rdf:RDF>
  </metadata>
  <g
     transform="translate(-124.52468,-88.013233)"
     id="layer1"
     inkscape:groupmode="layer"
     inkscape:label="Layer 1">
    <ellipse
       style="opacity:0.998;fill:#ef9a9a;fill-opacity:1;stroke-width:6.73727;stroke-linecap:round"
       id="path15702-5"
       cx="228.50594"
       cy="191.94223"
       rx="103.89868"
       ry="103.87149" />
    <path
       transform="matrix(0.26458333,0,0,0.26458333,124.52468,88.013233)"
       d="m 392.80273,0 a 392.68792,392.58516 0 0 0 -3.16601,0.01367188 c 8.17904,0.08345088 17.5755,0.63408645 18.23047,1.28906252 1.2,1.2 -3.33308,26.2684906 -5.06641,28.5351566 -0.93335,1.066669 -4.93452,1.732421 -11.20117,1.732421 -11.60001,0 -10.93373,0.666534 -14.40039,-17.466796 -2.66668,-14.00000163 -2.66641,-12.9329464 0.93359,-13.59960975 0.52261,-0.1266937 1.34253,-0.22602781 2.35352,-0.30273437 A 392.68792,392.58516 0 0 0 364.61719,1.03125 l 6.84961,-0.12695312 -0.9336,9.59960912 c -1.86667,21.199998 -1.73278,20.665623 -8.13281,22.265625 C 354.66706,34.769514 347.73333,34.637238 346,32.503906 344.13333,30.23724 337.06665,5.1701815 338,4.1035156 c 0.14513,-0.1088524 0.61815,-0.2496364 1.27148,-0.4042968 A 392.68792,392.58516 0 0 0 328.48047,5.34375 c 0.41867,-0.010542 0.88081,-0.041016 1.25195,-0.041016 3.33332,0.2666645 3.33439,0.2673173 3.73438,15.333985 l 0.40039,14.933593 -3.73438,1.466797 c -2.00001,0.800002 -7.19959,1.599081 -11.59961,1.732422 l -7.86718,0.134766 -5.19922,-13.066406 c -2.79999,-7.066666 -4.93323,-13.466667 -4.53321,-14 0.28367,-0.567338 1.92782,-1.224468 5.91993,-2.2636726 a 392.68792,392.58516 0 0 0 -14.87891,3.6523436 c 2.03597,-0.307014 3.05054,-0.141104 3.35937,0.476563 1.33335,2.000001 3.73243,18.134636 3.73243,24.667969 0,4.266667 -0.53358,5.066412 -4.9336,7.066406 -2.79998,1.2 -7.73305,2.399786 -11.0664,2.533203 l -5.86719,0.265625 -6.79883,-12.933594 c -3.59443,-7.055733 -6.25895,-13.178719 -5.73633,-13.728515 a 392.68792,392.58516 0 0 0 -5.93945,2.105469 c 0.89529,0.861588 2.73258,7.14044 4.3418,14.691406 3.6,17.200014 4.00078,16.399219 -9.19922,21.199218 -8.66665,3.333317 -8.4013,3.599106 -18.66797,-12.267578 l -6.79883,-10.398437 3.4668,-2.267578 c 0.0813,-0.05226 0.21637,-0.124935 0.31445,-0.183594 a 392.68792,392.58516 0 0 0 -8.24219,3.814453 c 0.86706,0.327291 3.32385,6.57842 5.66016,14.236328 4.8,16.399975 4.93408,16.266684 -7.19922,22 l -8,3.867188 -3.73437,-4.400391 c -2.13332,-2.4 -6.53192,-7.867565 -9.86524,-12.267578 -4.9242,-6.224907 -6.9782,-7.148656 -1.55859,-10.560547 a 392.68792,392.58516 0 0 0 -10.80469,6.359375 c 4.2462,-1.274587 5.30621,2.736573 9.96289,14.335938 l 4.79883,12.132812 -2.79883,2.933594 c -1.59999,1.600025 -5.73398,4.53319 -9.33398,6.533203 l -6.53321,3.599609 -10.40039,-10.800781 c -5.73331,-6 -10.53199,-11.331905 -10.79883,-11.865234 -0.0153,-0.06101 0.059,-0.17873 0.19727,-0.335938 a 392.68792,392.58516 0 0 0 -4.85742,3.556641 c 0.61986,-0.398293 1.10033,-0.6875 1.19336,-0.6875 0.13334,0 3.33253,5.866898 7.19922,12.933594 6.26664,11.733319 6.66785,13.199449 5.20117,16.132809 -1.86667,3.33332 -11.86847,10.9336 -14.53516,10.9336 -2.26666,0 -13.0664,-8.13371 -19.0664,-14.40039 l -4.75782,-4.884769 a 392.68792,392.58516 0 0 0 -3.79687,3.376949 l 4.15625,5.375 c 9.06663,12 13.06629,19.59898 11.59961,22.26563 -1.99998,3.86668 -11.86758,12.26758 -14.26758,12.26758 -2.4,0 -19.19936,-10.93414 -22.66602,-14.80078 -1.22489,-1.361 -1.77842,-2.10505 -0.51367,-3.98829 a 392.68792,392.58516 0 0 0 -4.77344,5.11133 l 3.6875,4.47656 c 2.13336,2.53335 6.53245,7.86668 9.73243,12 l 5.86718,7.4668 -3.86718,6.13281 c -2.13336,3.33332 -5.46679,7.2004 -7.4668,8.40039 -3.6,2.40001 -3.73215,2.3999 -14.798829,-3.46679 -6.133341,-3.19998 -11.867956,-6.66626 -12.667969,-7.59961 -0.903494,-1.07291 -1.00576,-2.36909 -0.03711,-4.37891 a 392.68792,392.58516 0 0 0 -5.119141,6.66992 c 0.64484,0.12564 5.634159,4.85288 11.291016,10.50977 l 10.666013,10.66602 -2.400388,5.33398 c -1.333342,2.79999 -4.399319,7.06537 -6.666015,9.33203 L 87.599609,196.9043 74,191.30469 c -7.466646,-3.20002 -13.599609,-6.40169 -13.599609,-7.06836 0,-0.10991 0.0897,-0.34541 0.232421,-0.6543 a 392.68792,392.58516 0 0 0 -3.988281,6.47852 C 57.256061,189.34593 57.74478,188.9043 58,188.9043 c 2.799987,0 22.400391,17.59947 22.400391,20.13281 0,5.73335 -7.867163,17.19922 -11.867188,17.19922 -3.815755,0 -24.725197,-7.51676 -26.644531,-9.36719 a 392.68792,392.58516 0 0 0 -3.837891,7.88477 c 0.9576,-1.56857 1.712187,-2.51758 2.082031,-2.51758 1.466646,0 18.268108,10.9349 24.134766,15.60156 1.2,0.93332 -2.667301,12.7999 -5.333984,16.5332 -3.333317,4.6667 -5.600114,4.79971 -21.466797,1.06641 -6.969756,-1.69268 -10.071882,-2.64124 -10.974609,-3.67969 a 392.68792,392.58516 0 0 0 -2.091797,5.57031 c 1.136475,-0.77164 3.414396,0.43463 14,6.10938 10.8,5.73335 12.000365,6.79986 12.40039,10.5332 0.266646,2.26666 -0.933215,7.06549 -2.533203,10.79883 l -2.800781,6.80078 h -6.933594 c -8.266835,-0.12336 -21.875249,-2.64149 -23.757812,-4.39062 a 392.68792,392.58516 0 0 0 -1.904297,7.08984 c 0.760397,-1.09096 1.649586,-0.93844 3.261718,-0.56641 1.999975,0.53333 8.66744,3.20002 14.800782,6 l 11.199218,5.20118 -0.798828,6 c -0.533367,3.20001 -1.734123,7.99937 -2.800781,10.66601 l -2,4.66602 H 20.933594 6.0058594 a 392.68792,392.58516 0 0 0 -1.0664063,6.55078 c 0.5789199,-1.88683 1.1846515,-2.55078 1.9941407,-2.55078 2.5333417,0 22.1338462,6.26813 25.8671872,8.13476 2.666646,1.46669 3.065524,7.73322 0.798828,16.53321 -1.599987,6.53333 -1.332018,6.40001 -21.332031,8 -7.5651978,0.64112 -10.0690451,0.41474 -10.7246092,-0.78907 a 392.68792,392.58516 0 0 0 -0.5078126,7.4375 c 0.093654,-0.62108 0.1924475,-1.07526 0.2988282,-1.18164 1.066696,-1.06665 5.0667968,-0.53452 19.4667966,2.79883 7.466684,1.59999 9.331742,2.53396 10.398438,5.33399 1.599912,4.13333 1.467175,9.19921 -0.132813,15.19921 l -1.333984,4.80079 -12.398438,2.13281 C 1.0006474,401.55337 0.28476649,403.04181 0.36132812,391.13086 a 392.68792,392.58516 0 0 0 -0.003906,1.45508 392.68792,392.58516 0 0 0 0.19335937,12.31836 H 3.1992188 c 7.7333292,0.13334 26.9338332,3.732 27.8671872,5.33203 1.73314,2.79999 2.933355,13.06731 2,17.33398 -0.799975,3.46666 -1.733064,4.00104 -15.066406,7.73438 -10.3357909,2.86414 -14.0397431,3.5162 -15.0273438,2.5039 a 392.68792,392.58516 0 0 0 1.59375,12.09961 c -0.2644634,-3.95183 0.1882801,-5.69194 1.3007813,-6.4707 2.2666583,-1.33315 12.9319055,-1.60092 21.8652345,-0.26758 5.600012,0.66667 6.53474,1.33449 8.134766,5.20117 1.066658,2.4 1.865234,7.3336 1.865234,10.9336 v 6.5332 l -12.798828,4.93164 c -7.066659,2.79999 -13.599849,4.66757 -14.533203,4.26758 -0.6181189,-0.20604 -1.2882616,-1.34666 -1.9492191,-3.15625 a 392.68792,392.58516 0 0 0 2.7402341,12.28125 c -0.07293,-0.55694 -0.125,-1.05231 -0.125,-1.39258 0,-2.66668 0.801071,-3.06628 5.734375,-3.59961 3.066671,-0.26668 9.866419,-0.5326 15.066407,-0.66601 9.200012,-0.26669 9.599722,-0.13268 11.066406,3.33398 2.799798,7.33334 3.999849,15.59817 2.533203,17.46484 -0.800013,0.93332 -6.932939,4.40159 -13.599609,7.60157 l -12.134766,6 -1.22461,-2.34766 a 392.68792,392.58516 0 0 0 3.390626,10.26758 c -0.658295,-2.61207 -0.515462,-3.70498 0.36914,-4.1875 0.933354,-0.53333 6.398967,-1.86694 12.265625,-2.9336 16.8,-2.93332 16.266658,-3.06548 20,5.20118 5.333329,11.46667 4.533216,13.33282 -9.466797,22.13281 l -12,7.59961 -2.083984,-4.05664 a 392.68792,392.58516 0 0 0 3.261719,7.54297 c 1.134394,-0.49115 7.162028,-2.33391 14.15625,-4.41993 7.733329,-2.13331 14.266028,-4 14.666015,-4 1.333342,-0.13334 6.533191,8.66761 8.533203,14.26758 l 2,5.59961 -8.533203,7.06641 c -4.666658,3.73334 -10.266545,8.00064 -12.533203,9.33398 l -3.429687,2.0586 a 392.68792,392.58516 0 0 0 2.576172,4.60156 c 1.639282,-1.5744 8.871938,-4.88518 18.720703,-8.39453 9.6,-3.6 10.665864,-3.33176 15.199218,3.60156 7.466646,11.20003 7.334023,11.73267 -4.666015,22.66602 -5.733317,5.33333 -11.067175,9.73242 -11.867188,9.73242 -0.04807,0 -0.132443,-0.0606 -0.234375,-0.14844 a 392.68792,392.58516 0 0 0 3.990235,5.72656 c -0.252685,-0.55478 -0.421875,-1.0204 -0.421875,-1.31054 0,-0.79998 5.600378,-4.13348 12.40039,-7.4668 6.666671,-3.33335 12.932447,-6.13281 13.732422,-6.13281 2.000017,0 9.200537,7.9987 11.867187,13.33203 2.00001,3.86664 1.86678,4.00157 -4.5332,11.60156 -3.6,4.26667 -8.267039,9.46487 -10.400393,11.46484 l -3.523438,3.29102 a 392.68792,392.58516 0 0 0 4.482422,5.25586 c -0.427337,-0.65062 -0.693359,-1.13715 -0.693359,-1.3457 0,-0.79998 5.466668,-4.93259 11.999998,-9.19922 6.66667,-4.13337 12.26795,-7.60157 12.66797,-7.60157 1.86667,-0.26664 10.39985,8.13425 12.5332,12.26758 l 2.53321,4.53321 -6.9336,10.13281 c -6.70377,9.58796 -9.03378,13.51671 -12.23632,12.46875 a 392.68792,392.58516 0 0 0 4.42968,4.32812 c 0.91629,-1.06032 5.65996,-5.03343 11.40625,-9.46289 6.39999,-4.8 11.73317,-8.93359 12,-8.93359 1.46669,-0.39999 8.40077,4.53358 12.80078,8.93359 l 5.19922,5.4668 -7.73242,13.33203 c -5.49482,9.35286 -7.60748,12.34916 -9.21289,12.31641 a 392.68792,392.58516 0 0 0 4.5918,3.67968 c 0.45841,-1.02927 5.18599,-5.74181 10.88672,-11.0625 6,-5.60001 11.20104,-10.13281 11.73437,-10.13281 1.46665,0 12.66588,7.73322 15.19922,10.53321 2.26666,2.53334 2.13371,3.0677 -3.59961,15.73437 -4.53335,9.7333 -6.66653,13.06506 -8.5332,12.93164 -0.39127,0 -1.25833,-0.37642 -2.39063,-0.97461 a 392.68792,392.58516 0 0 0 7.63086,5.03125 l 2.62695,-3.65625 c 1.59999,-2.4 6.2656,-7.73333 10.26563,-12 3.99999,-4.13333 7.60001,-7.59961 8,-7.59961 1.86667,0 15.3332,8.80077 16.5332,10.80078 1.06666,1.59999 0.1337,5.86562 -3.59961,16.26563 l -4.72265,13.17383 a 392.68792,392.58516 0 0 0 4.24023,2.20312 c -0.20582,-0.18646 -0.31836,-0.33672 -0.31836,-0.44336 0,-1.2 4.13517,-7.46755 10.53516,-16.26758 3.33335,-4.53331 7.06562,-8.39843 8.26562,-8.39843 3.6,0 18.53321,8.13283 18.53321,10.13281 0,2.00001 -6.39925,27.46614 -7.19922,28.13281 -0.17587,0.17587 -0.99869,0.0185 -2.1875,-0.33789 a 392.68792,392.58516 0 0 0 5.90039,2.4082 c 0.97329,-2.57194 8.50689,-15.90399 13.61914,-23.9375 1.59999,-2.53334 2.40117,-2.6663 7.20117,-1.59961 3.06667,0.66664 8.00027,2.53332 10.93359,4 4.26668,2.13332 5.19935,3.33487 4.66602,5.60157 -0.39999,1.59998 -1.46707,8.53255 -2.40039,15.19922 -0.65873,5.59912 -1.5836,10.33007 -2.26367,11.8457 a 392.68792,392.58516 0 0 0 4.91406,1.45117 c -0.82964,-1.57471 1.01538,-5.29339 6.2832,-16.76367 l 4.9336,-10.80078 h 5.46679 c 3.06667,0 8.13398,1.20128 11.33399,2.66797 l 5.86523,2.66601 -0.66601,14.80078 c -0.39925,7.98529 -1.0646,14.90254 -1.33203,15.19336 a 392.68792,392.58516 0 0 0 5.50781,1.06055 c -0.0723,-0.0419 -0.13728,-0.0826 -0.17578,-0.12109 -1.06666,-1.06666 6.26601,-24.93333 8.66601,-28 1.59999,-1.99994 7.5996,-1.8672 15.59961,0.13281 5.60001,1.46664 6.00028,2.00029 6.9336,6.93359 1.72064,9.66188 1.208,24.44033 -0.75586,25.43946 a 392.68792,392.58516 0 0 0 8.17968,0.77539 c -0.94675,-0.12579 -1.55329,-0.24554 -1.68945,-0.34766 -0.80001,-0.79997 5.33361,-27.06631 6.93359,-29.59961 1.0667,-1.86667 20.5319,-0.13474 21.86524,1.86523 1.06666,1.86668 3.86719,19.60067 3.86719,25.33399 v 4.12695 a 392.68792,392.58516 0 0 0 1.97851,0.006 392.68792,392.58516 0 0 0 2.95313,-0.0117 c -0.2603,-0.57003 0.40517,-7.47898 1.60156,-15.58789 2.00001,-13.59998 2.40013,-14.66678 5.4668,-15.46679 5.73335,-1.59999 16.9337,-1.33294 18.40039,0.40039 1.59998,2.00001 5.06745,13.73268 6.80078,22.66601 l 1.05273,6.32031 a 392.68792,392.58516 0 0 0 4.89258,-0.48437 c -1.08034,-3.87547 0.0673,-28.51653 1.78711,-30.23633 0.80001,-0.79997 3.4667,-1.99987 6,-2.5332 7.2,-1.73337 12.80077,-1.46535 14.80078,0.66797 1.84887,1.72563 9.71998,23.35182 10.16406,27.24804 a 392.68792,392.58516 0 0 0 6.49805,-1.30468 c -1.73076,-0.26887 -2.22805,-1.63425 -2.92969,-6.07813 -0.40002,-3.46666 -0.80078,-10.26591 -0.80078,-15.19922 v -9.0664 l 5.06836,-2 c 2.66665,-1.2 7.73309,-2.13282 11.06641,-2.13282 L 492,742.23633 l 6,12.93359 c 3.33332,7.2 5.59974,13.59949 5.06641,14.13281 -0.064,0.0711 -0.22139,0.16433 -0.40625,0.26172 A 392.68792,392.58516 0 0 0 509.53125,767.5 c -0.70574,-0.18304 -1.47317,-0.72094 -1.79883,-1.26367 -0.79997,-1.33334 -4.5326,-23.8668 -4.66601,-27.4668 0,-1.46668 9.46728,-6.13292 15.33398,-7.59961 1.46665,-0.39999 3.46655,-0.53381 4.5332,-0.40039 1.86667,0.13334 16.13282,22.66677 16.13282,25.4668 0,0.37051 -2.0686,1.43568 -4.99805,2.74414 a 392.68792,392.58516 0 0 0 12.22852,-4.94141 c -1.45867,0.33885 -2.29283,0.25383 -2.69727,-0.20117 -2.00001,-2.2667 -7.7332,-27.06692 -6.5332,-28.93359 0.53336,-0.93336 4.13388,-3.06746 7.86718,-4.80078 8.80003,-4.13333 10.13307,-4.00024 15.06641,1.0664 4.40001,4.8 13.73242,18.13439 13.73242,19.73438 0,0.0918 -0.24925,0.2967 -0.60351,0.54882 a 392.68792,392.58516 0 0 0 11.74218,-6.31054 c -4.03692,1.9202 -6.68937,2.74227 -7.27148,2.16015 -1.73333,-1.73332 -9.19922,-22.93141 -9.19922,-25.99804 0,-2.4 6.66667,-8.13426 12,-10.26758 1.86667,-0.66667 4.13252,-1.33399 5.19922,-1.33399 1.99997,-0.13334 9.86783,7.60077 17.20117,16.80079 l 4.16406,5.30078 a 392.68792,392.58516 0 0 0 8.55274,-5.7168 c -2.87745,1.69858 -4.73989,2.45286 -5.25,2.01563 -0.79998,-0.66668 -4.00116,-6.66732 -7.20117,-13.33399 -6.53333,-13.86663 -6.53217,-14.26497 3.20117,-20.93164 3.6,-2.26666 7.19949,-4.26758 8.13281,-4.26758 2.2667,0 16.66563,12.13254 20.26563,17.19922 l 2.5664,3.26758 a 392.68792,392.58516 0 0 0 9.08203,-7.43359 c -3.0847,2.38544 -5.44838,3.94326 -5.91406,3.63281 -0.66667,-0.40003 -4.26617,-6.13358 -8.13281,-12.9336 -8.00001,-13.86667 -7.86783,-14.39829 2.79883,-22.93164 3.33331,-2.66664 6.26636,-4.80078 6.5332,-4.80078 1.06666,0 24.13281,17.86604 24.13281,18.66602 0,0.40439 -0.7136,1.35717 -1.8418,2.60742 a 392.68792,392.58516 0 0 0 5.85547,-5.69141 l -4.8125,-5.18164 c -2.93333,-3.20001 -7.19961,-8.93462 -9.59961,-12.66797 l -4.5332,-6.93164 2.93164,-4 c 1.46665,-2.26665 4.93492,-5.86668 7.60156,-8 2.66669,-2.26665 5.46562,-3.60116 6.26563,-3.20117 11.9893,7.09571 22.82745,14.28852 24.33203,16.04688 a 392.68792,392.58516 0 0 0 3.91406,-4.66797 c -0.3824,0.40657 -0.67925,0.70385 -0.77929,0.7539 -1.33335,0.53333 -20,-20.93305 -20,-23.0664 0,-2.26666 6.40105,-11.59894 9.73437,-14.26563 3.46666,-2.66664 5.06498,-2.40039 16.93164,3.59961 9.66666,4.91667 13.1875,6.18751 11.73438,9.96485 a 392.68792,392.58516 0 0 0 6.86718,-10.01172 c -3.72258,4.08767 -6.13404,1.1443 -14.60156,-6.88672 l -11.0664,-10.5332 3.0664,-5.86719 c 1.59999,-3.33332 4.26769,-7.33308 5.73438,-9.06641 3.20001,-3.46666 4.66706,-3.3328 18.40039,1.86719 11.80834,4.44167 13.93307,4.83422 10.0957,11.83398 a 392.68792,392.58516 0 0 0 12.16992,-22.43164 c -3.1032,5.87704 -6.25118,11.13086 -7.0664,11.13086 -1.73333,0 -16.13294,-10.00025 -21.59961,-14.93359 -2.66669,-2.53334 -2.80027,-2.93332 -0.9336,-8 0.93332,-2.79999 3.06652,-7.0659 4.53321,-9.19922 3.20001,-4.40001 5.46602,-4.66717 16.66601,-1.86719 11.46667,2.93333 15.33399,4.66641 15.33399,7.06641 0,0.6416 -0.46069,2.04451 -1.20703,3.875 a 392.68792,392.58516 0 0 0 4.9746,-11.2832 c -1.4485,1.77243 -4.76633,0.14606 -17.76757,-8.0586 -9.6,-6.13334 -10.53398,-9.1991 -5.33399,-19.73242 4.13333,-8.4 4.13334,-8.40078 22,-4.80078 10.8,2.13332 11.33411,2.39963 10.80078,5.59961 -0.20469,1.43285 -1.37765,5.26879 -2.84375,9.60937 a 392.68792,392.58516 0 0 0 7.4336,-22.29492 c -0.86216,2.73735 -1.54618,4.71026 -1.78907,4.95313 -0.53332,0.40002 -7.06798,-2.26666 -14.66796,-6 l -13.73243,-6.80079 0.9336,-5.33203 c 0.40002,-3.06667 1.73213,-7.73321 2.79883,-10.5332 l 2,-4.93359 h 8.93359 c 4.8,0 12.00103,0.39884 15.73437,0.79882 5.06266,0.59562 6.42641,0.89869 6.51954,2.38868 a 392.68792,392.58516 0 0 0 1.34375,-6.09961 c -1.32223,0.48258 -5.44157,-0.8441 -15.73047,-4.68946 l -13.06641,-5.0664 v -6.39844 c 0,-8.4 2.93361,-15.19999 6.93359,-16 5.33337,-1.06658 24.26668,-0.93388 26,0.13281 0.81238,0.45133 0.93307,2.43703 0.31836,7.0625 a 392.68792,392.58516 0 0 0 1.94727,-15.58984 c -0.60261,2.8599 -1.43804,3.39419 -2.93359,3.32617 -1.2,0 -8.00024,-1.73245 -14.9336,-3.73242 l -12.66601,-3.4668 -0.40039,-4.66601 c -0.26669,-2.53334 -0.13294,-7.20038 0.40039,-10.40039 0.93335,-6.66664 2.66601,-7.73347 14.66601,-9.4668 4.39998,-0.66667 10.26837,-1.20057 13.06836,-1.33399 l 4.77734,-0.12109 a 392.68792,392.58516 0 0 0 0.11329,-5.3457 h -6.22461 c -6.66667,-0.13334 -21.46613,-2.79988 -24.13282,-4.53321 -1.06665,-0.53332 -1.60156,-4.80025 -1.60156,-10.93359 0,-11.46667 -0.80001,-10.93304 18,-15.06641 5.86666,-1.3333 11.06681,-2.53259 11.4668,-2.66601 0.90102,-0.16383 1.64922,3.36599 2.09375,8.94141 a 392.68792,392.58516 0 0 0 -0.95313,-14.4336 l 0.0606,1.75781 -14.80078,-0.79882 c -8.2667,-0.39999 -15.59895,-1.46615 -16.26563,-2.13282 -0.80001,-0.80001 -1.46814,-6.1344 -1.60156,-11.73437 v -10.26563 l 13.33399,-4.26757 c 7.86667,-2.53335 13.86653,-3.73308 14.5332,-3.06641 0.60118,0.54106 1.57839,4.90482 2.48633,10.1582 a 392.68792,392.58516 0 0 0 -14.87305,-65.7539 c 1.88403,6.57096 3.31397,12.53563 2.78711,13.0625 -0.53333,0.53333 -7.20079,1.7327 -14.80078,2.66601 -13.60003,1.60003 -13.86563,1.6013 -16.26563,-1.33203 -2.93333,-3.73334 -6.13372,-17.20026 -4.40039,-18.93359 0.66667,-0.66667 6.53255,-4.13385 13.19922,-7.86719 6.53333,-3.6 12.40023,-6.26646 12.9336,-6 0.0876,0.0539 0.19881,0.19634 0.32031,0.38672 a 392.68792,392.58516 0 0 0 -3.73047,-9.61328 c 0.38305,1.04209 0.64455,1.87806 0.74414,2.42578 0.39999,2.26666 -1.06691,3.06826 -10.93359,5.60156 -15.99999,4.13333 -18.13398,3.99935 -21.33399,-1.33398 -4.0001,-6.53337 -5.86521,-14.00039 -3.86523,-16.40039 0.80001,-1.06666 6.00012,-4.93321 11.46679,-8.53321 5.46668,-3.73334 10.53259,-6.66601 11.19922,-6.66601 1.06979,0 7.28872,12.16001 10.90235,20.4707 a 392.68792,392.58516 0 0 0 -39.7813,-72.62305 c 4.43874,6.94648 8.55584,14.14286 7.94531,14.68555 -0.66663,0.66667 -6.79907,3.73269 -13.73242,6.66602 l -12.66797,5.46679 -4.26563,-4.13281 c -2.26669,-2.26666 -5.33271,-6.534 -6.66601,-9.33398 l -2.40039,-5.33399 10.66601,-10.66601 c 5.73332,-5.73332 10.80066,-10.53321 11.33399,-10.53321 0.0863,0 0.21527,0.0742 0.36328,0.1836 a 392.68792,392.58516 0 0 0 -33.34961,-38.58789 c 2.80565,3.09343 4.85156,5.63692 4.85156,6.27148 0,0.39999 -5.46614,4.53256 -12.13281,9.19922 -12,8.26666 -12.26626,8.39947 -15.59961,6.13281 -4.66666,-3.06667 -12.26758,-11.46625 -12.26758,-13.59961 0,-0.93331 3.60145,-7.06575 8.13477,-13.73242 l 8,-12 4.95703,4.14648 A 392.68792,392.58516 0 0 0 645.71094,92.058594 c 2.78723,2.495439 4.68945,4.397491 4.68945,4.845703 0,1.2 -21.73449,20.000003 -23.20117,20.000003 -1.46665,0 -7.19845,-4.13307 -12.39844,-9.06641 l -4.93359,-4.66797 5.46679,-10.798826 c 2.93333,-5.866659 6.26534,-12.13435 7.33204,-13.734375 l 2,-3.066407 0.13867,0.0957 A 392.68792,392.58516 0 0 0 612.21094,66.83398 c 2.92634,2.018407 5.308,3.776086 6.05664,4.603516 2.53334,2.800025 2.39855,2.799609 -8.13477,13.599609 l -10.5332,10.800782 -4.66602,-2.267579 c -6.80001,-3.599999 -13.20117,-8.800768 -13.20117,-10.800781 0,-1.599987 8.40091,-23.198954 10.26758,-26.265625 0.26665,-0.533329 0.93294,-0.933594 1.59961,-0.933594 0.58482,0 3.36336,1.542342 6.79492,3.621094 A 392.68792,392.58516 0 0 0 571.71094,42.988281 c 7.70915,3.974184 16.68945,9.112983 16.68945,9.916016 0,1.066658 -9.06641,13.333203 -15.06641,20.533203 -3.06667,3.6 -3.60104,3.732308 -7.73437,2.265625 -6.66667,-2.266658 -14.5332,-7.865625 -14.5332,-10.265625 0,-2.133317 6.39961,-24.134246 7.59961,-26.267578 0.26668,-0.533333 1.46707,-0.933594 2.40039,-0.933594 0.87165,0 4.4414,1.623015 8.66797,3.748047 A 392.68792,392.58516 0 0 0 536.39453,27.09375 c 8.41146,3.308594 18.67188,7.859375 18.67188,8.609375 0,0.799997 -3.46628,6.800633 -7.59961,13.333984 -7.46665,11.733317 -7.86614,12.000656 -12.13282,11.333985 -2.4,-0.400025 -7.06707,-2.001046 -10.40039,-3.734375 l -6.13281,-3.066407 0.79883,-8.132812 c 0.39999,-4.533351 1.73359,-11.199742 2.93359,-15.066406 1.06666,-3.733334 2.53397,-6.800782 3.33399,-6.800782 1.1,0 5.48047,1.538282 10.52734,3.523438 a 392.68792,392.58516 0 0 0 -24.54297,-8.693359 c 3.91765,1.455714 6.67131,2.869352 6.94922,3.703125 0.39999,1.066669 -2.26719,7.599871 -5.86719,14.533203 l -6.5332,12.533203 -5.06641,-0.798828 c -2.66668,-0.533329 -7.46653,-1.868352 -10.5332,-3.06836 l -5.4668,-2.132812 0.79883,-13.732422 c 0.26665,-7.466665 1.06681,-14.266405 1.4668,-15.066406 1.04507,-1.615083 3.44679,-1.778446 9.42773,-0.357422 A 392.68792,392.58516 0 0 0 477.94922,9.2851562 c 2.62753,0.6473063 4.39133,1.1589228 4.58398,1.3515628 1.06666,0.933331 -2.93254,12.933854 -7.19922,21.867187 -3.73334,8.000002 -5.46781,8.533076 -17.20117,5.066406 l -6.66601,-2 -0.9336,-8.533203 C 449.73319,19.437111 450.26578,10.2375 451.73242,5.4375 c 0.1259,-0.5035572 1.24505,-0.6684688 3.45508,-0.4902344 a 392.68792,392.58516 0 0 0 -9.24023,-1.3671875 c 0.20139,0.085249 0.36699,0.1716809 0.45312,0.2578125 0.93332,0.9333317 -7.60115,28.3981744 -9.20117,29.4648434 -1.86667,1.333331 -15.99872,0.133724 -19.33203,-1.599609 -2.00002,-1.066666 -2.66772,-4.133076 -3.73438,-15.066406 C 413.3328,9.0367162 412.934,2.5045577 413.33398,1.8378906 c 0.39198,-0.6719369 6.00412,-0.7355784 12.4668,-0.46875 A 392.68792,392.58516 0 0 0 393.04492,0 392.68792,392.58516 0 0 0 392.80273,0 Z m 32.99805,1.3691406 a 392.68792,392.58516 0 0 1 20.14649,2.2109375 C 443.61701,2.5936767 434.0168,1.7083601 425.80078,1.3691406 Z m 29.38672,3.578125 a 392.68792,392.58516 0 0 1 22.76172,4.3378906 C 475.12087,8.5883771 471.28277,7.7337425 467.06641,6.9042969 461.50571,5.7780775 457.65889,5.1465784 455.1875,4.9472656 Z m 41.83984,9.0664064 a 392.68792,392.58516 0 0 1 14.82422,4.386719 c -1.72079,-0.639411 -3.64345,-1.286106 -5.71875,-1.896485 -3.75618,-1.111525 -6.69254,-1.916941 -9.10547,-2.490234 z m 74.6836,28.974609 c -0.67323,-0.34706 -1.2927,-0.659023 -1.93946,-0.984375 a 392.68792,392.58516 0 0 1 1.93946,0.984375 z m 28.68359,16.203125 a 392.68792,392.58516 0 0 1 11.81641,7.642578 c -3.63515,-2.507296 -8.08286,-5.380892 -11.81641,-7.642578 z m 24.41016,16.47461 a 392.68792,392.58516 0 0 1 20.90625,16.392578 C 641.03589,87.872979 633.86199,82.012259 628.93359,78.503906 Z m 34.01953,27.917964 a 392.68792,392.58516 0 0 1 14.05664,13.58204 c -3.67894,-4.05631 -8.69823,-9.08463 -12.48047,-12.26172 z m 47.40625,52.16993 a 392.68792,392.58516 0 0 1 9.42383,12.99804 c -3.88217,-6.07545 -7.99952,-11.94513 -9.42383,-12.99804 z m 54.75586,99.66992 a 392.68792,392.58516 0 0 1 6.22656,18.01758 c -2.19024,-7.63894 -4.99953,-16.09488 -6.22656,-18.01758 z m 23.35351,104.12109 -0.0742,-2.10742 c -0.0733,-4.09965 -1.07408,-11.84272 -2.17968,-18.24023 a 392.68792,392.58516 0 0 1 2.2539,20.34765 z m 0.95313,14.4336 a 392.68792,392.58516 0 0 1 0.43945,18.36328 v -5.83789 c 0,-4.7309 -0.16038,-9.02518 -0.43945,-12.52539 z m 0.39844,24.25781 h 0.041 v -5.65039 a 392.68792,392.58516 0 0 1 -0.041,5.65039 z m -0.11329,5.3457 a 392.68792,392.58516 0 0 1 -1.97851,29.86133 c 0.57932,-2.7494 0.94397,-7.64679 1.4668,-16.27344 L 786,403.57031 Z m -8.38085,70.41016 c 0.3741,-0.13654 0.53515,-0.4106 0.53515,-0.82227 0,-0.40159 0.75674,-4.89896 1.66211,-10.33789 a 392.68792,392.58516 0 0 1 -2.19726,11.16016 z m 2.19726,-11.16016 a 392.68792,392.58516 0 0 0 1.64063,-9.70703 c -0.22239,1.34584 -0.46862,2.79108 -0.76758,4.44531 -0.32936,2.00908 -0.57604,3.47746 -0.87305,5.26172 z m 1.64063,-9.70703 c 0.25499,-1.54316 0.45448,-2.87147 0.61132,-4.04688 a 392.68792,392.58516 0 0 1 -0.61132,4.04688 z m -5.18164,26.9668 a 392.68792,392.58516 0 0 1 -6.73047,25.45898 c 1.97766,-6.27906 4.99088,-17.04037 6.47656,-23.44726 0.17033,-0.85165 0.28586,-1.5004 0.25391,-2.01172 z m -14.16407,47.7539 a 392.68792,392.58516 0 0 1 -6.85547,17.38282 c 0.0816,-0.0998 0.16135,-0.20339 0.23243,-0.32422 1.15024,-1.80752 4.26918,-10.08964 6.62304,-17.0586 z m -11.83007,28.66602 a 392.68792,392.58516 0 0 1 -5.72657,11.92773 c 2.22484,-4.21353 4.41909,-8.72098 5.72657,-11.92773 z m -29.5254,53.01172 c 1.96332,-2.15587 4.29119,-6.26569 8.06641,-12.61914 1.45779,-2.42141 2.64481,-4.36805 3.52734,-5.97266 a 392.68792,392.58516 0 0 1 -11.59375,18.5918 z m -6.86718,10.01172 a 392.68792,392.58516 0 0 1 -17.6211,23.01367 c 1.6562,-1.7609 5.66215,-6.54494 9.88672,-12.17774 4.20001,-5.4 6.8625,-8.56953 7.73438,-10.83593 z m -21.53516,27.68164 a 392.68792,392.58516 0 0 1 -22.18555,23.93554 l 0.38672,0.41797 10.80078,-11.46679 c 5.86666,-6.39999 10.93254,-11.99988 11.19922,-12.53321 0.022,-0.066 -0.066,-0.19551 -0.20117,-0.35351 z m -28.04102,29.62695 a 392.68792,392.58516 0 0 1 -17.57617,15.75977 c 5.72798,-4.42953 13.95745,-11.74957 17.57617,-15.75977 z m -26.6582,23.19336 a 392.68792,392.58516 0 0 1 -21.71484,16.05078 c 2.38746,-1.40933 5.46025,-3.45686 9.14844,-6.11719 l 12.93359,-9.46679 z m -30.26758,21.76758 a 392.68792,392.58516 0 0 1 -22.09375,13.33789 c 4.28499,-2.0382 10.13323,-5.31573 16.86133,-9.57227 l 5.4668,-3.46679 z m -33.83593,19.64843 a 392.68792,392.58516 0 0 1 -26.83203,12.58594 c 2.38834,-0.55482 6.46493,-2.25683 13.16992,-5.40234 6.51223,-3.09053 11.95878,-5.97135 13.66211,-7.1836 z m -39.06055,17.52735 A 392.68792,392.58516 0 0 1 509.53125,767.5 c 0.16116,0.0418 0.32002,0.0703 0.46875,0.0703 2.50331,0 16.45599,-5.18972 24.06836,-8.58984 z m -31.4082,10.58398 a 392.68792,392.58516 0 0 1 -29.19727,7.28321 c 0.24257,0.0377 0.50968,0.0566 0.80469,0.0566 3.78683,0 25.109,-5.60985 28.39258,-7.33985 z m -35.69532,8.58789 a 392.68792,392.58516 0 0 1 -32.75195,4.85352 c 0.0923,0.33098 0.19442,0.56445 0.32031,0.56445 1.99998,0 31.86706,-4.40079 32.40039,-4.80078 0.0705,-0.0604 0.0676,-0.29874 0.0312,-0.61719 z m -37.64453,5.33789 a 392.68792,392.58516 0 0 1 -33.32226,1.66797 c 7.8e-4,0.002 0.001,0.0101 0.002,0.0117 0.53333,0.93336 20.66591,0.26709 29.19922,-1.0664 l 4.13476,-0.53321 z m -38.2539,1.67383 a 392.68792,392.58516 0 0 1 -0.29688,-0.002 l 0.29688,0.008 z m -0.29688,-0.002 -15.25781,-0.38477 a 392.68792,392.58516 0 0 0 15.25781,0.38477 z m -15.25781,-0.38477 a 392.68792,392.58516 0 0 1 -15.42188,-0.99218 c 2.7617,0.36692 8.55599,0.78577 15.10938,0.98437 z m -23.60156,-1.76757 A 392.68792,392.58516 0 0 1 321.64258,778.625 c 2.68325,1.55269 28.01745,5.32092 30.22461,4.41211 0.0147,-0.006 0.0284,-0.0199 0.043,-0.0273 z M 316.13477,777.5644 A 392.68792,392.58516 0 0 1 284.25,769.80078 c 0.47229,0.89644 1.80298,1.10468 3.88281,1.63672 12.66667,3.46666 27.46667,6.66614 28,6.13281 4.9e-4,-4.9e-4 10e-4,-0.005 0.002,-0.006 z m -36.79883,-9.21484 a 392.68792,392.58516 0 0 1 -31.75586,-11.10938 c -0.0929,0.2454 -0.14813,0.42806 -0.11328,0.46289 0.66667,0.80002 30.13349,11.20118 31.46679,11.20118 0.11774,0 0.25649,-0.22962 0.40235,-0.55469 z m -37.65625,-13.51758 a 392.68792,392.58516 0 0 1 -27.62891,-12.81836 c 2.6494,2.40025 21.20499,10.89253 27.62891,12.81836 z M 209.81055,739.8105 a 392.68792,392.58516 0 0 1 -29.10352,-16.98438 l -0.43945,0.61133 3.0664,1.86523 c 1.73333,1.06666 8.26603,4.93463 14.66602,8.66797 l 11.4668,6.79883 z m -36.73438,-22.01563 a 392.68792,392.58516 0 0 1 -23.29687,-17.0293 c -0.0241,0.054 -0.0469,0.10543 -0.0469,0.13868 0,1.47901 16.75881,13.41185 23.34375,16.89062 z M 145.1875,697.08594 a 392.68792,392.58516 0 0 1 -24.46094,-21.65235 c -0.10423,0.12062 -0.19336,0.22868 -0.19336,0.26953 -0.13341,0.93332 20.93337,19.60115 24,21.20118 0.2135,0.11495 0.42879,0.17704 0.6543,0.18164 z M 116.29688,671.10547 A 392.68792,392.58516 0 0 1 96.425781,649.84961 c 1.485108,2.26108 5.286049,6.85434 9.841799,11.7207 5.03981,5.53825 7.75395,8.79061 10.0293,9.53516 z M 91.943359,644.59375 a 392.68792,392.58516 0 0 1 -19.121093,-24.7793 c 1.140759,2.50458 4.883433,7.7624 11.978515,16.82227 l 6.666016,8.40039 z M 68.832031,614.08789 A 392.68792,392.58516 0 0 1 51.679688,586.63086 c -0.291488,0.27995 -0.42622,0.51084 -0.345704,0.67187 1.655208,4.20171 15.338355,24.92443 17.498047,26.78516 z M 49.103516,582.0293 A 392.68792,392.58516 0 0 1 34.244141,552.12305 c -0.09826,0.0425 -0.222886,0.092 -0.244141,0.11328 -0.266835,0.13342 2.933077,7.06785 7.066406,15.20117 l 7.466797,14.93359 z M 30.982422,544.58008 a 392.68792,392.58516 0 0 1 -9.083984,-23.75586 c 0.433139,1.71866 1.205038,4.07854 2.36914,7.41211 2.000013,5.86666 4.798942,12.80011 6.265625,15.46679 z m -12.47461,-34.02344 a 392.68792,392.58516 0 0 1 -7.316406,-26.39453 c 0.755824,5.77193 5.11743,22.02779 6.941406,25.67578 z M 8.4511719,471.88086 A 392.68792,392.58516 0 0 1 4.5664062,449.9082 c 0.052498,0.78448 0.123961,1.62402 0.234375,2.59571 0.7370259,7.92281 2.1727237,15.33135 3.6503907,19.37695 z M 2.9726562,437.80859 A 392.68792,392.58516 0 0 1 0.55078125,404.9043 H 0 l 0.93359375,15.46679 c 0.39998745,8.53331 1.33385835,16.26591 1.86718745,17.19922 0.044028,0.0881 0.1020408,0.1667 0.171875,0.23828 z M 0.36132812,391.13086 c 0.004609,-0.71698 0.008517,-1.69504 0.015625,-2.51172 a 392.68792,392.58516 0 0 0 -0.015625,2.51172 z m 0.015625,-2.51172 A 392.68792,392.58516 0 0 1 1.0351562,369.55273 c -0.3758719,2.49265 -0.63476558,8.67924 -0.63476558,15.61719 0,1.32123 -0.0136766,2.32771 -0.0234375,3.44922 z M 1.5429688,362.11523 a 392.68792,392.58516 0 0 1 3.3964843,-29.32812 c -0.6606999,2.15337 -1.2859011,5.91591 -2.1386719,12.38281 -1.0666582,8.26666 -1.7339717,15.86747 -1.3339843,16.80078 0.020439,0.0511 0.050048,0.0966 0.076172,0.14453 z m 4.4628906,-35.8789 a 392.68792,392.58516 0 0 1 6.8652346,-31.9668 c -0.874745,1.25502 -1.577323,4.16158 -3.0039065,10.36719 -1.4666835,6.39999 -3.0662802,13.86656 -3.5996094,16.5332 l -0.8007812,5.06641 z m 8.7695316,-39.05664 a 392.68792,392.58516 0 0 1 9.625,-29.85157 c -0.252052,0.17114 -0.45014,0.43655 -0.667969,0.7754 -0.800013,1.33334 -8.799194,26.53269 -9.199219,28.66601 -0.01,0.12932 0.09041,0.26914 0.242188,0.41016 z m 11.716797,-35.42188 a 392.68792,392.58516 0 0 1 11.558593,-27.0039 c -1.459037,2.38992 -3.398506,6.25611 -5.25,10.68359 -3.200012,7.2 -5.999874,14.13252 -6.533203,15.19922 -0.13506,0.40518 -0.08152,0.76894 0.22461,1.12109 z m 15.396484,-34.88867 a 392.68792,392.58516 0 0 1 14.755859,-26.80859 c -1.305371,1.52543 -3.228964,4.41783 -5.044922,7.77734 -2.666645,5.06665 -6.000151,10.93256 -7.466797,13.19922 -1.333341,2.26666 -2.40039,4.79963 -2.40039,5.59961 0,0.0614 0.06358,0.14308 0.15625,0.23242 z m 18.74414,-33.28711 a 392.68792,392.58516 0 0 1 18.34375,-26.6543 c -0.0087,-0.002 -0.03586,-0.0234 -0.04297,-0.0234 -0.400025,0 -4.801034,5.86693 -9.734375,12.93359 -4.140505,6.21076 -7.670377,11.80483 -8.566407,13.74414 z m 23.462891,-33.32422 a 392.68792,392.58516 0 0 1 19.550777,-23.03125 l -0.0469,-0.0566 -8.798829,9.59961 c -6.072282,6.68722 -9.386568,10.75256 -10.705078,13.48828 z m 24.324217,-28.14258 a 392.68792,392.58516 0 0 1 21.69141,-21.11914 l -0.37891,-0.49218 -11.59961,11.46679 c -5.61438,5.48383 -8.49954,8.33784 -9.71289,10.14453 z M 133.9082,97.619141 a 392.68792,392.58516 0 0 1 24.76563,-20.027344 c -1.15566,0.742567 -2.99139,2.016004 -5.07422,3.578125 -3.19998,2.266658 -9.06695,6.9328 -12.93359,10.132812 l -7.06641,6 z M 163.53125,74.035156 A 392.68792,392.58516 0 0 1 188.4375,57.501953 c -2.44072,0.732633 -5.93151,3.20596 -11.77148,7.001953 -6.61258,4.369021 -12.06427,8.314139 -13.13477,9.53125 z m 35.71094,-22.892578 a 392.68792,392.58516 0 0 1 24.69726,-12.875 c -0.0236,-0.0089 -0.051,-0.03125 -0.0723,-0.03125 -0.80002,0 -6.66695,2.933721 -12.9336,6.400391 -5.57855,3.072241 -9.33336,5.021364 -11.6914,6.505859 z m 32.93945,-16.689453 a 392.68792,392.58516 0 0 1 26.54297,-10.773437 c -0.0691,-0.06645 -0.13412,-0.109376 -0.19141,-0.109376 -0.79997,0 -6.40039,2.000391 -12.40039,4.400391 -5.7387,2.423004 -11.79709,5.194154 -13.95117,6.482422 z m 32.48242,-12.878906 a 392.68792,392.58516 0 0 1 27.31055,-8.347657 c -2.35899,0.355725 -6.10617,1.35537 -11.97461,3.144532 -8.00001,2.4 -14.934,4.665886 -15.33398,5.199218 -8.3e-4,8.26e-4 -10e-4,0.0031 -0.002,0.0039 z M 328.48047,5.34375 c -1.68706,0.04248 -3.57301,0.145736 -4.74805,0.359375 -8.05041,1.7473733 -13.36334,2.9565059 -16.87695,3.8710938 A 392.68792,392.58516 0 0 1 328.48047,5.34375 Z M 339.27148,3.6992188 A 392.68792,392.58516 0 0 1 364.61719,1.03125 l -0.34961,0.00586 C 360.26759,1.1704511 352.93334,1.7044304 348,2.3710938 c -3.68786,0.3882001 -6.98102,0.9144509 -8.72852,1.328125 z m 41.21485,-3.49804692 a 392.68792,392.58516 0 0 1 9.15039,-0.1875 c -3.55891,-0.03631158 -6.87618,0.01494854 -9.15039,0.1875 z M 374.20898,17.380859 c 0.32491,0.07676 0.61524,0.980468 0.99024,2.855469 1.46664,6.666663 1.33452,8.667969 -0.79883,8.667969 -2.13332,0 -2.79973,-5.867577 -1.06641,-10.267578 0.35001,-0.874999 0.6223,-1.31556 0.875,-1.25586 z m 35.52344,0.855469 c 1.73352,0 2.93344,9.599742 1.4668,11.066406 -2.4,2.4 -4.13254,-0.799479 -3.19922,-6.132812 0.39999,-2.666668 1.19909,-4.933594 1.73242,-4.933594 z m -71.83203,4.134766 c 0.26667,-0.06667 0.56655,0.332552 1.0332,1.199218 0.66667,1.066666 1.46667,3.599609 2,5.59961 0.66667,2.799999 0.39882,3.734375 -1.20117,3.734375 -2.26666,0 -3.99932,-5.600258 -2.66601,-8.933594 0.33333,-0.999999 0.56731,-1.532943 0.83398,-1.599609 z M 446,23.570312 c 1.86667,0 0.66745,8.39974 -1.19922,9.066407 -1.86667,0.533333 -2.26693,-3.333594 -0.93359,-6.933594 0.40002,-1.2 1.3328,-2.132813 2.13281,-2.132813 z m -143.31055,5.820313 c 0.0784,-0.01771 0.16081,-0.0031 0.24414,0.04687 2.00002,1.333334 4.13267,8.666799 2.66602,9.466797 -2.26666,1.466668 -3.86719,-0.800127 -3.86719,-5.466797 0,-2.216664 0.40833,-3.922916 0.95703,-4.046875 z M 480.38867,30.3125 c 0.75411,0.04834 1.34375,1.666798 1.34375,4.591797 0,3.200001 -0.66666,4.666015 -2,4.666015 -2.13331,0 -2.39922,-1.60039 -1.19922,-6.40039 0.58334,-1.983334 1.26895,-2.89502 1.85547,-2.857422 z m -98.65625,6.894531 c 19.37501,0.0625 49.70039,1.6625 62.40039,3.5625 77.46664,11.733343 145.60144,45.867591 200.13477,100.267579 55.06666,55.0667 89.19975,123.73359 101.0664,202.93359 2.93333,18.80002 3.3327,75.59961 0.66602,93.59961 -11.73332,81.73334 -45.73281,150.26602 -102.13281,206.66602 -61.86664,61.73333 -137.60014,96.2668 -227.4668,103.46679 -38.53334,3.06668 -86.26784,-2.26664 -125.20117,-14 C 210.66588,709.30314 142.79947,658.90428 96.132812,588.9043 54.399496,526.10427 32.666268,445.83606 37.599609,373.30273 41.466255,318.23608 53.73372,273.83671 78.400391,226.63672 126.93372,133.57001 217.59936,65.304412 320.66602,44.371094 c 8.93332,-1.733333 22.13309,-4.001302 29.0664,-4.667969 6.93336,-0.800001 14.80068,-1.733317 17.33399,-2 2.96667,-0.366666 8.20768,-0.516927 14.66601,-0.496094 z m 135.50196,0.902344 c 0.47109,-0.01953 0.56483,0.661719 -0.0352,2.261719 -0.40003,1.2 -0.79883,3.065625 -0.79883,4.265625 0,3.733345 -2.40001,6.400768 -4,4.800781 -1.0667,-1.066658 -0.80116,-2.800372 0.79883,-6.400391 1.41666,-2.916666 3.24999,-4.895182 4.03516,-4.927734 z M 268.2168,40.986328 c 0.81666,-0.05 2.11563,1.251302 3.51562,3.917969 1.86667,3.733326 1.86667,4.132195 0,4.798828 -2.66664,1.066696 -3.06615,0.666784 -4.13281,-4.533203 -0.53333,-2.733341 -0.19948,-4.133592 0.61719,-4.183594 z m 282.20117,11.785156 c 0.4012,-0.02863 0.64844,0.215494 0.64844,0.798828 0,2.666684 -4.13399,10.000656 -5.33399,9.333985 -1.86667,-1.2 -1.73256,-2.934665 0.80078,-6.667969 1.37499,-2.016794 3.00212,-3.40186 3.88477,-3.464844 z m -315.51758,1.582032 c 0.7,-0.05002 1.89857,1.016809 3.36523,3.216796 2.66684,4.000026 2.66758,6 0.26758,6 -2.26669,0 -2.8,-0.665776 -4,-5.732421 -0.53333,-2.266753 -0.33281,-3.434358 0.36719,-3.484375 z m 138.51563,6.83789 c -3.07207,0.0073 -5.7496,0.728909 -12.34961,2.378906 -5.06665,1.333342 -14.26705,2.533204 -20.40039,2.533204 -8.79999,0.133341 -12.66536,0.799622 -19.33204,3.599609 -4.53335,2.000013 -13.4672,4.400668 -19.86718,5.333984 -8.66669,1.333342 -13.86666,2.933695 -20,6.400391 -4.66666,2.533304 -13.59998,5.998601 -20,7.865234 -6.93332,2.000013 -13.59935,4.801172 -16.66602,7.201172 -7.59999,5.866694 -13.46755,9.200374 -22.26758,12.400394 -5.06664,1.99997 -10.66654,5.60026 -16.5332,10.93359 -4.8,4.40001 -11.8668,9.46536 -15.4668,11.33203 -4.00002,2.00001 -11.73217,8.39961 -18.79882,15.59961 -6.53333,6.66667 -14.26692,13.73383 -16.9336,15.86719 -2.66664,1.99997 -7.60077,7.7341 -10.80078,12.80078 -3.33332,4.93334 -8.7995,11.46564 -12.13281,14.26562 -4.26667,3.6 -7.99949,8.66654 -12.13281,16.53321 -3.20002,6.26664 -8.53388,14.66794 -11.86719,18.66797 -4.26667,5.06664 -7.19961,10.53295 -9.599612,17.59961 -1.866671,5.60001 -5.73411,13.99988 -8.800781,18.5332 -3.466658,5.46667 -5.865877,11.33252 -7.199219,17.19922 -1.866671,9.33331 -4.000907,15.73398 -8.267578,25.33398 -1.466646,3.33336 -3.3328,11.7327 -4.132812,18.66602 -0.800013,7.06669 -2.667591,16.4013 -4.267579,20.66797 -2.266658,6.53333 -2.531905,9.86664 -1.865234,18 0.533329,6.79997 0.132699,13.59972 -1.333984,21.0664 -1.999975,10.13333 -1.999975,11.99912 0,21.73242 1.600176,7.46669 1.867313,13.60026 1.333984,20.9336 -0.666671,8.5333 -0.401424,11.59948 1.865234,18.13281 1.599988,4.40001 3.467566,13.73462 4.267579,20.66797 1.066658,9.33332 2.667212,15.46549 5.867187,22.79883 2.533342,5.46667 5.199987,13.86748 6,18.80078 0.800013,4.8 2.932686,11.06667 4.666016,14 6.533367,10.8 9.066141,16.00076 12.132812,24.80078 1.866667,5.73332 5.334487,11.86602 9.201177,16.66602 3.46665,4.13333 8.39829,11.86691 10.93164,16.93359 2.79998,5.73332 7.73466,12.66578 12.66796,17.73242 4.40002,4.40001 10.79893,12.26783 14.26563,17.20117 3.46666,5.06665 8.66717,10.79829 11.86719,12.93164 3.19997,2.13332 8.53334,6.93516 12,10.53516 12.13334,13.0667 14.5327,15.06626 22.66601,19.59961 4.40002,2.4 12.1336,7.99895 16.9336,12.26562 4.8,4.40002 9.46707,7.86719 10.40039,7.86719 2.66668,0 19.73375,8.93242 26.40039,13.73242 3.73334,2.66669 9.86589,5.46744 15.19922,6.80079 4.93334,1.2 13.73397,4.66628 19.33398,7.5996 7.86667,4.13333 12.79938,5.73466 20.66602,6.66797 5.73335,0.80002 13.99985,2.79935 18.5332,4.66602 6.26665,2.66668 11.73348,3.73319 23.4668,4.5332 8.4,0.53333 16.80129,1.60091 18.66797,2.26758 4.40001,1.86667 58.39934,1.73333 62.66601,0 1.86667,-0.66667 10.26602,-1.73372 18.66602,-2.40039 11.73331,-0.66667 17.20064,-1.73424 23.33398,-4.26758 4.39998,-1.86667 12.79985,-3.99881 18.5332,-4.79883 7.73333,-1.06665 12.79883,-2.80141 18.79883,-6.13476 4.53332,-2.53331 12.93409,-5.86539 18.80078,-7.33203 7.46665,-2.00002 13.20003,-4.66733 20,-9.33399 5.20003,-3.6 13.46656,-8.1328 18.53321,-10.13281 5.86669,-2.4 12.00102,-6.26734 17.73437,-11.33398 4.66666,-4.26668 12.13177,-9.60053 16.39844,-11.86719 4.9333,-2.66669 10.79985,-7.46667 16.5332,-14 4.8,-5.33333 11.86822,-11.73281 15.60156,-14.13281 4.66666,-3.06668 8.5318,-7.20065 12.39844,-13.33399 3.20001,-4.93334 9.46718,-12.39881 13.86719,-16.79883 5.33333,-5.19998 9.6013,-10.93452 12.66797,-17.20117 2.4,-5.06668 7.59922,-13.06576 11.19922,-17.73242 4.8,-6 7.86562,-11.46744 10.26562,-18.80078 2.00001,-5.86666 5.86742,-14.26551 8.80078,-18.79883 3.99999,-6 5.86734,-10.93424 7.33399,-18.26758 1.06669,-5.46667 3.9999,-14.53284 6.5332,-20.13281 3.33335,-7.59999 4.66731,-12.80081 5.33399,-20.80078 0.53332,-5.8667 2.13243,-14.53203 3.73242,-19.33203 2.26669,-6.93336 2.79943,-11.46665 2.66601,-22 -0.13334,-7.33331 0.40063,-16.93397 1.33399,-21.33399 1.46657,-6.66667 1.46717,-9.73334 -0.13282,-18 -1.2,-6.13334 -1.60115,-14.13318 -1.20117,-20.5332 0.53333,-8.53334 0.13348,-12.40066 -2.5332,-21.33399 -1.86667,-5.86665 -3.60001,-15.33219 -4,-20.79882 -0.53333,-7.33334 -1.86587,-12.66666 -5.19922,-20 -2.5333,-5.46667 -5.46797,-14.80128 -6.66797,-20.66797 -1.46668,-7.59999 -3.46551,-12.79855 -6.79883,-17.86524 -2.66668,-3.99998 -6.80117,-12.40075 -9.20117,-18.80078 -2.79999,-7.73333 -6.39987,-14.26734 -10.5332,-19.33398 -3.33336,-4.13333 -8.26549,-11.86585 -10.79883,-17.19922 -2.93333,-6.26665 -7.06613,-12.00078 -12.13281,-16.80078 -4.13333,-3.99999 -10.13397,-11.33281 -13.33399,-16.13281 -3.99998,-6.13335 -8.66638,-11.06577 -15.0664,-15.73243 -5.06665,-3.73334 -11.73411,-10.13474 -14.80078,-14.13476 -3.99999,-5.19999 -8.2664,-8.79986 -15.06641,-12.53321 -5.33333,-2.93332 -13.59986,-8.79924 -18.5332,-13.19921 -4.93334,-4.40002 -11.19998,-8.79964 -14,-9.59961 -7.46665,-2.53334 -14.80041,-6.40003 -22.40039,-12.000003 -4.26667,-3.333354 -9.73398,-5.86783 -15.33399,-7.201172 -4.8,-1.2 -13.99934,-4.799987 -20.66601,-8 -8.53335,-4.133329 -14.39897,-5.999345 -20.26563,-6.666016 -4.40001,-0.399987 -13.06783,-2.534123 -19.20117,-4.800781 -8.66668,-3.199975 -13.19921,-4 -21.19922,-4 -6,0 -14.5332,-1.06599 -20.5332,-2.666016 -9.20002,-2.533303 -11.60077,-2.665864 -20.80078,-1.199218 -7.59999,1.066696 -12.79907,1.066696 -19.73243,0 -4.89999,-0.758332 -7.52858,-1.185385 -9.91796,-1.179688 z m -171.23633,8.890625 c 0.83749,-0.112498 2.68593,1.388263 4.08593,3.488281 2.66684,3.999988 2.66758,6 0.26758,6 -1.46668,0 -4.80078,-6.134097 -4.80078,-8.800781 0,-0.433332 0.1681,-0.65 0.44727,-0.6875 z m 379.12695,0.738281 c 0.0724,0.0057 0.12685,0.03399 0.16016,0.08398 1.2,1.2 -2.79988,8.666015 -4.53321,8.666015 -2.66668,0 -2.26691,-2.667578 1.06641,-6.267578 1.40002,-1.516663 2.79998,-2.522519 3.30664,-2.482422 z m 29.89258,19.416016 c 1.33334,0 0.13437,4.134501 -2.26563,7.201172 -1.46668,2.000013 -2.26679,2.266406 -3.46679,1.066406 -1.2,-1.2 -0.80039,-2.400252 1.59961,-4.933594 1.73333,-1.86667 3.59948,-3.333984 4.13281,-3.333984 z m -438.49219,0.728516 c 0.59375,0.0063 1.99337,1.005481 3.69336,2.605468 3.86668,3.733342 4.13215,6 0.79883,6 -1.73333,0 -4.79883,-5.334248 -4.79883,-8.267578 0,-0.233329 0.10873,-0.339975 0.30664,-0.33789 z M 639.81055,112.0332 c 0.0919,-0.002 0.1561,0.0203 0.18945,0.0703 1.06666,1.06669 -4.00055,8.80078 -5.86719,8.80078 -3.33335,0 -2.93362,-2.53384 1.06641,-5.86719 1.98332,-1.74998 3.96776,-2.98931 4.61133,-3.00391 z m -494.53125,1.47657 c 0.37109,0.043 0.87148,0.24375 1.52148,0.59375 3.73331,2.00001 5.99834,5.20075 4.93164,6.80078 -1.2,1.86663 -7.33203,-3.46759 -7.33203,-6.26758 0,-0.83334 0.26042,-1.19857 0.87891,-1.12695 z m 535.38672,12.59375 3.33398,3.0664 c 1.86667,1.73333 6.93397,7.46692 11.33398,12.9336 9.06664,11.33332 9.86613,9.46587 -7.86718,19.19921 l -10.9336,6 -3.46679,-2.66601 c -5.20003,-4.13333 -11.73374,-14.26614 -10.40039,-16.13281 0.66667,-0.93332 5.06824,-6.26665 9.60156,-12 z m -14.60938,10.82617 c 0.62686,0.0811 0.62722,0.85636 -0.18945,2.37304 -2.2667,4.26668 -6.39961,7.33343 -7.59961,5.4668 -0.53333,-1.06669 0.39936,-2.79885 2.66601,-4.79883 2.47501,-2.1 4.31709,-3.14531 5.12305,-3.04101 z m -546.11133,1.91406 c 0.3711,0.043 0.87149,0.24376 1.52149,0.59375 3.99983,2.13335 5.99895,5.06615 4.26562,6.13281 -1.73333,1.06666 -6.66601,-2.93296 -6.66601,-5.59961 0,-0.83334 0.26041,-1.19856 0.8789,-1.12695 z m 568.03711,26.04297 c 1.05,0.05 1.35131,0.95024 0.41797,2.68359 -0.80001,1.46665 -2.53335,3.19999 -4,4 -3.86668,2.13332 -5.06733,-1.2009 -1.33398,-4.26758 2.06666,-1.66658 3.86601,-2.46603 4.91601,-2.41601 z m -592.148436,1.5 c 0.6,-0.05 2.033084,0.58296 4.566406,1.84961 4.13333,2.13335 4.93267,3.8673 2.66602,5.33398 -1.60003,1.06666 -4.932161,-1.33359 -6.798832,-4.93359 -0.799994,-1.46667 -1.033594,-2.2 -0.433594,-2.25 z m 631.099606,21.18359 c 1.73333,0 16.93389,27.59936 15.86719,28.66602 -1.46664,1.59999 -25.73476,8.80038 -28.13476,8.40039 -1.99998,-0.26668 -4.2654,-3.06641 -7.33204,-9.06641 l -4.5332,-8.66601 6.5332,-5.86719 c 3.46666,-3.19998 8.79963,-7.59911 11.59961,-9.73242 2.79999,-2.00002 5.60002,-3.73438 6,-3.73438 z m -652.132809,8 c 2.533304,0 9.59961,3.8673 9.59961,5.33399 0,2.93333 -2.933569,2.39883 -6.933594,-1.20118 -2.400189,-2.26669 -3.59937,-4.13281 -2.666016,-4.13281 z m 632.798829,0 c 2.53334,0.13331 2.40025,0.40013 -1.06641,3.4668 -2.79998,2.53334 -4.26732,2.93385 -5.33398,1.86719 -1.06666,-1.0667 -0.79831,-2.00012 1.06836,-3.4668 1.46668,-1.06666 3.86538,-1.86719 5.33203,-1.86719 z m 17.84961,30.68946 c 0.96094,0.0617 1.61719,0.3949 1.61719,1.04492 0,0.53333 -1.73384,1.99869 -3.86719,3.33203 -4.66666,2.66668 -7.60013,0.40065 -3.4668,-2.66602 1.66666,-1.16664 4.11523,-1.8138 5.7168,-1.71093 z m -669.845704,0.0684 c 0.386719,-0.007 1.078911,0.14142 2.128906,0.44141 8.666683,2.53334 10.801159,3.73489 9.201172,5.60156 -1.2,1.59999 -2.133481,1.46681 -5.466797,-0.5332 -2.133317,-1.2 -4.666784,-3.06811 -5.466797,-4.13477 -0.833339,-0.91667 -1.041017,-1.36327 -0.396484,-1.375 z m 699.847654,15.08399 a 392.68792,392.58516 0 0 1 1.80078,4.38672 c -0.44607,-1.21232 -1.086,-2.74163 -1.80078,-4.38672 z m -14.65039,16.95898 c 0.53333,0 0.93164,0.39921 0.93164,1.19922 0,1.46665 -7.99832,5.86744 -8.93164,4.80078 -1.46664,-1.46668 0.93187,-4.6678 3.86524,-5.20117 1.73332,-0.26664 3.46809,-0.66541 4.13476,-0.79883 z m -695.308592,2.53125 c 2.324211,-0.0195 5.658195,0.50067 6.908203,1.33399 1.466683,0.93335 1.599861,1.60131 0.533203,2.66797 -1.2,1.2 -2.667704,1.06678 -5.734375,-0.53321 -2.266659,-1.2 -4.132813,-2.53394 -4.132813,-2.80078 0,-0.45 1.031255,-0.65625 2.425782,-0.66797 z M 770.8125,291.94727 c 0.10202,-6.5e-4 0.18724,0.007 0.25391,0.0234 1.33334,0.13334 2.93447,4.79872 5.20117,15.33203 1.86663,8.13336 2.79842,15.33386 2.39844,15.86719 -0.53337,0.53333 -7.59964,1.20034 -15.59961,1.4668 l -14.66602,0.5332 -1.4668,-3.73242 c -2.5333,-6.26668 -3.19972,-18.66626 -1.0664,-19.59961 1.06666,-0.39999 6.66654,-2.93345 12.5332,-5.4668 5.50003,-2.49998 10.88185,-4.41418 12.41211,-4.42382 z m -20.10352,0.95507 c 1.71195,0.0203 2.94076,0.47709 2.35743,1.46875 -1.2,1.86667 -7.33219,3.99973 -8.79883,3.06641 -0.8002,-0.40003 -0.66769,-1.46797 0.26562,-2.66797 0.97502,-1.19999 3.97471,-1.89326 6.17578,-1.86719 z m -716.679683,1.33399 c 2.169438,-0.0761 5.254299,0.53438 6.904297,1.73437 2.266809,1.73333 2.2656,1.86601 0.265625,2.66602 -2.4,0.93332 -8.133493,-0.80028 -9.466797,-2.9336 -0.525,-0.93325 0.609534,-1.40757 2.296875,-1.46679 z M 756.36719,327.6875 c 1.33333,-0.0167 2.63229,0.34871 3.76562,1.08203 1.33334,0.80001 0.66677,1.46797 -2.5332,2.66797 -4.93319,1.73333 -8.93252,-0.26654 -5.19922,-2.5332 1.26667,-0.80003 2.63347,-1.20012 3.9668,-1.2168 z m -726.900393,2.54883 c 4.133329,0 5.600441,0.5349 5.333984,1.60156 -0.933316,2.53334 -5.33372,2.7999 -8.40039,0.5332 -2.533304,-1.86648 -2.266923,-2.00134 3.066406,-2.13476 z m 730.800783,33.33398 c 2.93333,0 5.73282,0.53397 6.13281,1.33399 0.39999,0.66667 2.5e-4,1.33203 -1.06641,1.33203 -1.06665,0 -3.8681,0.40075 -6.13476,0.80078 -3.20001,0.66663 -4.13281,0.39934 -4.13281,-1.33399 0,-1.60002 1.33452,-2.13281 5.20117,-2.13281 z M 26.666016,364.9043 c 3.333543,0 4.134891,0.53331 3.601562,2 -0.933316,2.13331 -3.334236,2.53309 -8.267578,1.0664 -2.4,-0.53333 -2.667326,-1.06717 -1.333984,-1.86718 0.933316,-0.66668 3.6,-1.19922 6,-1.19922 z m 731.205074,33.5625 c 0.75781,-0.0328 1.89571,0.13751 3.59571,0.4375 4.93334,0.93335 6.53345,1.59988 5.46679,2.5332 -0.26664,0.26668 -2.80011,0.79923 -5.46679,1.19922 -4.53332,0.66667 -5.06641,0.4 -5.06641,-2 0,-1.5 0.20769,-2.11523 1.4707,-2.16992 z m -733.033199,2.40039 c 2.576077,0.0358 4.894531,0.76211 4.894531,2.03711 0,2.26666 -1.599975,2.39922 -8,1.19922 -2.933329,-0.66668 -3.731779,-1.19999 -2.398438,-2 1.341669,-0.87501 3.500291,-1.26414 5.503907,-1.23633 z m 730.431639,32.89062 c 0.79688,0.0328 1.99688,0.2961 3.79688,0.7461 2.93333,0.80001 5.33398,1.86653 5.33398,2.5332 0,0.66667 -2.40065,1.19922 -5.33398,1.19922 -4.39998,0 -5.33399,-0.53319 -5.33399,-2.53321 0,-1.41666 0.20899,-1.99999 1.53711,-1.94531 z M 29.683594,435.6875 c 1.649995,0.11667 2.716797,0.74948 2.716797,1.88281 0,1.46669 -1.599988,2 -6,2 -6.666633,0 -7.600252,-0.79934 -2.933594,-2.66601 2.333348,-0.93334 4.566801,-1.33347 6.216797,-1.2168 z m 720.781246,33.33789 c 1.60401,-0.0381 3.68554,0.60391 5.93555,1.87891 3.6,2.13343 3.0667,2.39998 -4,2 -5.33333,-0.26665 -6.00131,-0.66654 -4.66797,-2.53321 0.525,-0.87499 1.48486,-1.31608 2.73242,-1.3457 z m -714.314449,1.39453 c 1.050004,0.05 1.582031,0.61694 1.582031,1.6836 0,2.00001 -2.798841,3.46679 -6.798828,3.46679 -3.466659,0 -3.200139,-1.99909 0.533203,-3.73242 2.066664,-1.0001 3.633589,-1.46794 4.683594,-1.41797 z m 704.681639,32.41992 c 1.76563,-0.0221 4.23439,1.02995 6.23438,2.86328 1.60002,1.60022 1.20116,1.86719 -2.79883,1.86719 -5.4666,0 -6.66822,-0.80011 -5.60156,-3.46679 0.3,-0.85 1.10663,-1.25039 2.16601,-1.26368 z m -694.980468,2.03907 c 1.431448,0.0305 2.21471,0.68372 1.748047,2.02539 -0.533329,1.06669 -1.599848,2 -2.533203,2 -0.933316,0 -3.732812,0.3988 -6.132812,0.79882 l -4.533203,0.80079 4,-2.80079 c 2.7,-1.87499 5.610739,-2.86346 7.451171,-2.82421 z m 681.531248,30.75781 c 1.11667,0.0667 2.81705,0.80116 5.15039,2.20117 3.73331,2.26666 5.06602,4.39844 2.66602,4.39844 -3.20001,0 -9.4668,-3.1988 -9.4668,-4.79883 0,-1.26665 0.53373,-1.86745 1.65039,-1.80078 z m -669.093748,1.41016 c 0.614845,0.0617 1.078122,0.52421 1.578126,1.32421 1.199999,2.13332 -0.934779,3.7327 -6.134766,4.66602 l -4.666016,0.66601 4,-3.33203 c 2.750008,-2.41667 4.197916,-3.42708 5.222656,-3.32421 z m 654.337888,30.60546 c 1.27604,0.0508 2.88934,0.96874 4.97266,2.71875 4.13337,3.46666 2.80025,4.53322 -3.06641,2.53321 -4.66669,-1.46665 -5.73386,-2.66706 -3.86718,-4.40039 0.55,-0.60001 1.19531,-0.88203 1.96093,-0.85157 z M 75,568.48633 c 0.941079,0.0326 1.400391,0.84297 1.400391,2.41797 0,1.73333 -1.867994,2.79881 -8.667969,4.79882 l -4,1.06641 5.201172,-4.5332 c 2.849988,-2.54999 4.856447,-3.7919 6.066406,-3.75 z m 618.41992,28.52148 c 0.91671,-0.004 2.50548,1.27147 4.98047,3.89649 4.00003,4.13333 3.06535,5.06703 -2.66797,2.40039 -1.86667,-0.80002 -3.33203,-2.53527 -3.33203,-4.00196 0,-1.51666 0.30654,-2.29196 1.01953,-2.29492 z m -600.646482,1.86914 c 0.572659,-0.0101 1.109767,0.27617 1.759765,0.82617 1.866671,1.46665 1.465852,2.00089 -2.800781,4.26758 -6.133342,3.06664 -7.332145,2.13293 -2.798828,-2.40039 1.83333,-1.83335 2.885412,-2.67643 3.839844,-2.69336 z m 579.361332,26.13477 c 1.1161,-0.0759 2.45664,1.09205 4.93164,4.02539 4.40001,5.33333 3.46679,6.26654 -2.53321,2.5332 -4.8,-2.93333 -5.60051,-4.13243 -3.86718,-5.73242 0.49999,-0.5 0.96142,-0.79167 1.46875,-0.82617 z m -557.9043,1.875 c 0.85654,-0.0622 1.494,0.525 1.90234,1.75 0.39999,1.46668 -7.73213,7.33424 -8.79883,6.26758 -0.26664,-0.26669 0.79988,-2.26651 2.53321,-4.53321 1.8,-2.24999 3.26201,-3.40439 4.36328,-3.48437 z m 533.72851,24.76758 c 0.94792,-0.0573 2.20769,0.84962 4.04102,2.84961 3.6,4.13333 4.79924,6.40039 3.19922,6.40039 -2.13332,0 -9.46603,-6.80143 -8.66602,-8.13477 0.4,-0.7 0.85703,-1.08086 1.42578,-1.11523 z m -509.1582,0.69922 c 0.96666,-0.05 1.59961,0.74933 1.59961,2.41601 0,1.59999 -5.46735,6.13477 -7.33398,6.13477 -1.46669,0 -0.53387,-2.40049 2.13281,-5.86719 1.33334,-1.73342 2.6349,-2.63357 3.60156,-2.68359 z M 621.92383,674.875 c 1.67161,0.25156 5.14258,4.61145 5.14258,6.82812 0,1.59984 -0.66734,1.46771 -3.33399,-0.26562 -3.33335,-2.13332 -4.26511,-4.53372 -2.39844,-6.40039 0.15,-0.15 0.35105,-0.19805 0.58985,-0.16211 z m -457.01172,0.83594 c 0.55938,0.0203 1.07109,0.47616 1.62109,1.32617 0.39999,0.79997 -1.06732,3.33295 -3.33398,5.59961 -4.53332,4.53335 -5.46524,2.93408 -1.86524,-3.19922 1.58334,-2.58333 2.64583,-3.76041 3.57813,-3.72656 z m 428.82031,19.85937 c 1.73333,0 5.73463,7.99971 4.66797,9.06641 -1.2,1.3333 -7.60128,-6.2672 -6.66797,-7.86719 0.53333,-0.66667 1.33333,-1.19922 2,-1.19922 z m -400.7539,0.73633 c 0.4664,-0.0773 0.95469,0.14766 1.55468,0.59766 1.59999,1.46664 1.33283,2.26523 -1.86718,5.86523 -4.13333,4.93334 -5.46564,3.06747 -2.26563,-3.19922 1.08333,-2.16666 1.80078,-3.13477 2.57813,-3.26367 z m 370.01367,17.90625 c 1.22266,-0.0625 3.02473,1.54101 3.9414,4.29102 0.7999,2.26665 1.20043,4.39918 0.9336,4.66601 -0.93332,1.06666 -6.13477,-4.80024 -6.13477,-6.93359 0,-1.35 0.52617,-1.98594 1.25977,-2.02344 z m -339.30274,0.39258 c 0.65548,0.002 1.24452,0.56562 1.64453,1.76562 0.53333,1.59999 -4.93383,8.93332 -5.86718,8 -0.39999,-0.26668 2.4e-4,-2.80015 0.93359,-5.46679 0.91665,-2.75001 2.19661,-4.30274 3.28906,-4.29883 z m 32.71094,14.29883 c 2.53334,0 1.33335,5.20029 -2,8.93359 l -3.33398,3.73242 0.80078,-4 c 0.53336,-2.26666 1.46614,-5.06705 2.13281,-6.40039 0.66667,-1.2 1.73372,-2.26562 2.40039,-2.26562 z m 275.33203,0 c 1.86667,0 4.40028,8.66616 2.9336,10.13281 -0.79998,0.80001 -4.9336,-6.53412 -4.9336,-8.80078 0,-0.66667 0.93334,-1.33203 2,-1.33203 z m -34.14453,11.98047 c 1.13671,-0.1211 2.76236,1.53514 3.3457,4.28515 0.40026,2.26666 0.53284,4.53395 0.13282,4.80078 -1.06666,1.06666 -4.5326,-4.13409 -4.66602,-6.80078 0,-1.49999 0.50547,-2.2125 1.1875,-2.28515 z m -208.38867,0.0195 c 2.40019,0 2.40102,3.19947 -0.26563,8.13281 -2.66676,5.33333 -3.7332,4.134 -2.5332,-2.66602 0.53333,-3.33331 1.59883,-5.46679 2.79883,-5.46679 z m 34,8 c 2.26666,0 2.66745,3.33188 0.80078,7.86523 -2.26666,5.46667 -4.26641,3.33464 -3.06641,-3.33203 0.53333,-2.53334 1.46562,-4.5332 2.26563,-4.5332 z m 140.5332,0 c 1.33334,0 2,1.466 2,4.66601 0,2.53334 -0.53255,4.66602 -1.19922,4.66602 -1.2,0 -2.80078,-4.39907 -2.80078,-7.73242 0,-0.80002 0.93334,-1.59961 2,-1.59961 z m -34.66601,5.33203 c 2.26665,0 2.93409,8.66719 0.80078,9.86719 -1.2,0.80001 -2.80078,-3.46628 -2.80078,-7.59961 0,-1.2 0.93334,-2.26758 2,-2.26758 z m -70.80469,0.45508 c 1.0875,0.0125 2.13867,1.41212 2.13867,3.41211 0,1.2 -0.93334,3.46694 -2,4.93359 -1.73318,2.4 -1.86658,2.26574 -2,-2.26758 0,-2.66668 0.39884,-5.19958 0.79883,-5.59961 0.33333,-0.33332 0.7,-0.48268 1.0625,-0.47851 z m 36.12109,1.45507 c 1.42499,0.0312 1.94962,1.95625 1.34961,5.15625 -1.46664,6.39999 -2.93241,6.93347 -3.73242,1.4668 -0.53333,-3.33335 -0.26734,-5.46667 0.66602,-6 0.66666,-0.43333 1.2418,-0.63346 1.71679,-0.62305 z"
       style="opacity:0.998;fill:#e53935;fill-opacity:1;stroke-width:25.4637;stroke-linecap:round"
       id="path15702" />
  </g>
</svg>
