<?xml version="1.0" encoding="UTF-8" standalone="no"?>
<svg
   xmlns:dc="http://purl.org/dc/elements/1.1/"
   xmlns:cc="http://creativecommons.org/ns#"
   xmlns:rdf="http://www.w3.org/1999/02/22-rdf-syntax-ns#"
   xmlns:svg="http://www.w3.org/2000/svg"
   xmlns="http://www.w3.org/2000/svg"
   xmlns:sodipodi="http://sodipodi.sourceforge.net/DTD/sodipodi-0.dtd"
   xmlns:inkscape="http://www.inkscape.org/namespaces/inkscape"
   width="171.13249mm"
   height="171.05302mm"
   viewBox="0 0 171.13249 171.05303"
   version="1.1"
   id="svg17736"
   inkscape:version="1.0 (4035a4fb49, 2020-05-01)"
   sodipodi:docname="ring-3.svg">
  <defs
     id="defs17730" />
  <sodipodi:namedview
     id="base"
     pagecolor="#ffffff"
     bordercolor="#666666"
     borderopacity="1.0"
     inkscape:pageopacity="0.0"
     inkscape:pageshadow="2"
     inkscape:zoom="1.0228282"
     inkscape:cx="340.39469"
     inkscape:cy="381.6713"
     inkscape:document-units="mm"
     inkscape:current-layer="layer1"
     inkscape:document-rotation="0"
     showgrid="false"
     inkscape:snap-global="true"
     inkscape:window-width="1920"
     inkscape:window-height="1044"
     inkscape:window-x="0"
     inkscape:window-y="36"
     inkscape:window-maximized="1"
     inkscape:snap-bbox="true"
     inkscape:bbox-paths="true"
     inkscape:bbox-nodes="true"
     inkscape:snap-bbox-edge-midpoints="true"
     inkscape:snap-bbox-midpoints="true" />
  <metadata
     id="metadata17733">
    <rdf:RDF>
      <cc:Work
         rdf:about="">
        <dc:format>image/svg+xml</dc:format>
        <dc:type
           rdf:resource="http://purl.org/dc/dcmitype/StillImage" />
        <dc:title />
      </cc:Work>
    </rdf:RDF>
  </metadata>
  <g
     inkscape:label="Layer 1"
     inkscape:groupmode="layer"
     id="layer1"
     transform="translate(97.510637,-51.268833)">
    <ellipse
       ry="85.528366"
       rx="85.543488"
       cy="136.79515"
       cx="-11.944284"
       id="path7821-8"
       style="opacity:0.998;fill:#ffab91;fill-opacity:1;stroke-width:6.99566;stroke-linecap:round" />
    <path
       id="path7821"
       style="opacity:0.998;fill:#f4511e;fill-opacity:1;stroke-width:6.99566;stroke-linecap:round"
       d="m -11.960819,51.266386 a 85.543487,85.528358 0 0 0 -0.956013,0.006 c 2.160185,-0.0163 4.6277872,0.0917 5.0115812,0.30489 0.5997178,0.3175 0.5292646,0.81163 -1.4815635,8.53747 -2.4694517,9.73666 -2.3284417,9.31322 -2.7517697,8.88989 -0.246941,-0.24695 -4.585769,-16.36909 -4.585769,-17.1452 0,-0.10584 0.281808,-0.31754 0.634587,-0.38809 0.414441,-0.10971 1.45805,-0.1698 2.654102,-0.19121 a 85.543487,85.528358 0 0 0 -15.7887,1.74718 c 0.473601,0.069 0.505396,1.13523 0.505396,9.1333 0,5.04472 -0.105902,9.17205 -0.247012,9.17205 -0.3175,-0.0353 -9.066427,-15.87483 -8.854758,-16.05122 0.008,-0.008 0.04485,-0.0232 0.09508,-0.0424 a 85.543487,85.528358 0 0 0 -1.8619,0.61134 c 0.320911,-0.0743 0.533051,-0.0914 0.567407,-0.0398 0.282229,0.67027 2.363465,18.34461 2.151806,18.34461 -0.28222,0 -10.442051,-13.8292 -10.759551,-14.60531 -0.105436,-0.27413 0.615818,-0.75575 2.229321,-1.47846 a 85.543487,85.528358 0 0 0 -6.707081,3.19929 c 1.62456,-0.83999 2.917383,-1.3759 3.031339,-1.26194 0.423328,0.42333 4.515379,16.33344 4.409548,17.10955 -0.07056,0.52916 -1.693331,-0.98788 -6.35,-5.92677 -3.45722,-3.66889 -6.279203,-6.73806 -6.279203,-6.87917 0,-0.0224 0.0957,-0.097 0.243396,-0.19947 a 85.543487,85.528358 0 0 0 -6.070947,4.13618 c 0.516501,-0.3775 1.098995,-0.7916 1.770436,-1.25522 1.552218,-1.09361 2.928469,-1.8344 3.069579,-1.72857 0.246939,0.24695 5.926389,14.60479 6.420279,16.19229 0.14111,0.45861 0.14111,0.81132 0,0.81132 -0.599721,0 -13.899409,-11.11264 -13.899409,-11.60653 0,-0.23884 0.477819,-0.7339 1.411282,-1.47949 a 85.543487,85.528358 0 0 0 -11.431342,10.66033 c 0.409965,-0.44018 0.719108,-0.74931 0.777213,-0.74931 0.49389,0 1.48153,1.23483 6.385141,8.04344 2.575279,3.56306 4.621455,6.56146 4.480345,6.66729 -0.17639,0.21167 -15.945522,-7.05524 -16.545242,-7.61969 -0.07267,-0.0727 0.204749,-0.55204 0.699182,-1.25109 a 85.543487,85.528358 0 0 0 -1.722376,2.33939 c 0.04634,-0.039 0.08475,-0.0656 0.105937,-0.0656 0.14111,0 2.57563,2.5048 5.4684,5.53868 6.879169,7.337794 6.984891,7.479214 6.77323,7.726154 -0.423339,0.38806 -17.215487,-4.974374 -17.215487,-5.503544 0,-0.002 0.0019,-0.007 0.0021,-0.009 a 85.543487,85.528358 0 0 0 -1.155485,2.13113 c 0.305408,-0.44444 0.639189,-0.63151 0.941545,-0.46354 1.164173,0.74084 13.61726,11.182734 13.61726,11.464954 0,0.17634 -0.52941,0.21176 -1.12913,0.10594 -15.94556,-2.99861 -16.686023,-3.17479 -16.615523,-4.02146 0.02753,-0.22021 0.19739,-0.71619 0.443383,-1.34411 a 85.543487,85.528358 0 0 0 -1.628841,4.04213 c 0.236106,-0.37188 0.496986,-0.59486 0.691431,-0.54622 0.74083,0.17639 15.06368,9.24278 15.06368,9.525 0,0.17639 -0.599797,0.28216 -1.305347,0.28216 -2.29306,-0.0353 -16.757083,-0.98788 -16.898193,-1.16428 -0.05666,-0.0566 0.08341,-0.70588 0.307991,-1.57871 a 85.543487,85.528358 0 0 0 -0.914156,3.48971 c 0.148953,-0.22996 0.312362,-0.39378 0.429948,-0.39378 0.45862,0 15.592607,7.02014 16.051217,7.44348 0.21167,0.17638 0.106013,0.35304 -0.176217,0.45889 -1.12888,0.38804 -17.427293,1.23461 -17.709513,0.95239 -0.06858,-0.0686 -0.07699,-0.41757 -0.04599,-0.92294 a 85.543487,85.528358 0 0 0 -0.387573,3.02824 c 0.143555,-0.27523 0.332368,-0.37672 0.609782,-0.37672 0.9525,0 16.863053,5.29159 16.863053,5.57382 0,0.24694 -16.827563,3.63353 -17.709513,3.59823 -0.127848,0 -0.20797,-0.70117 -0.246497,-1.69086 a 85.543487,85.528358 0 0 0 -0.02946,2.24225 85.543487,85.528358 0 0 0 0.02532,2.08359 c 0.05795,-0.991 0.211107,-1.2237 0.568441,-1.2237 1.44639,0 17.356596,3.28086 17.215486,3.56309 -0.21167,0.28222 -14.28753,5.00954 -16.26309,5.39761 l -0.95498,0.21497 a 85.543487,85.528358 0 0 0 0.202571,1.58388 c 0.350428,-0.25799 2.018385,-0.15895 9.924459,0.35295 7.54945,0.49389 8.67851,0.63513 8.29045,1.0232 -0.35278,0.35276 -15.980967,7.61969 -16.369026,7.61969 -0.04953,0 -0.125091,-0.15236 -0.215491,-0.39946 a 85.543487,85.528358 0 0 0 0.522449,2.03708 c 0.506295,-0.30987 2.596553,-0.56439 7.277592,-0.89658 4.48027,-0.35278 10.936283,-0.45882 10.936283,-0.21188 0,0.55189 -14.431682,9.39833 -15.469857,9.5281 a 85.543487,85.528358 0 0 0 0.814937,2.04225 c -0.02699,-0.13041 -0.04051,-0.23629 -0.02067,-0.28163 0.07056,-0.24694 3.316036,-1.05826 7.690486,-1.86966 4.1275,-0.7761 7.831593,-1.5169 8.219653,-1.5875 1.37583,-0.31749 1.904967,-0.2466 1.728577,0.17674 -0.17639,0.45861 -13.193753,11.28854 -13.793473,11.46493 -0.0215,0.007 -0.05364,-0.0107 -0.09095,-0.0424 a 85.543487,85.528358 0 0 0 0.873849,1.58078 l -0.147795,-0.30334 2.539897,-0.91726 c 1.37583,-0.52917 5.009686,-1.72899 8.008296,-2.68149 2.99861,-0.9525 5.750209,-1.72842 6.102988,-1.76371 0.564438,0 0.599686,0.0704 0.141073,0.70538 -1.09361,1.5875 -11.35954,12.34756 -11.747601,12.34756 -0.08155,0 -0.234968,-0.12515 -0.434598,-0.33693 a 85.543487,85.528358 0 0 0 1.380277,1.90531 c -0.03773,-0.15506 -0.02418,-0.26727 0.04238,-0.33382 0.07055,-0.10585 3.633233,-1.83428 7.901843,-3.88039 7.65528,-3.63361 8.890278,-4.12761 8.396389,-3.28094 -0.635,1.05833 -10.125039,14.04032 -10.371979,14.21671 -0.116198,0.0697 -0.679956,-0.40183 -1.431954,-1.14153 a 85.543487,85.528358 0 0 0 2.644801,2.85408 c -0.337717,-0.4604 -0.352489,-0.67981 -0.154512,-0.7953 0.28222,-0.21166 3.774893,-2.39871 7.761283,-4.93871 3.98639,-2.54 7.266937,-4.44487 7.337536,-4.26848 0.17639,0.45861 -8.184134,15.62782 -8.678024,15.80421 -0.01431,0.003 -0.04179,-0.007 -0.07493,-0.0217 a 85.543487,85.528358 0 0 0 1.311032,1.08572 l 2.150255,-1.94562 c 1.234721,-1.09361 4.303887,-3.70417 6.879167,-5.82083 h 5.29e-4 c 2.575269,-2.08139 4.797594,-3.8101 4.938715,-3.8101 0.176329,0 0.176109,0.35285 0.07028,0.77618 -0.529172,1.79917 -5.926293,15.09869 -6.314344,15.66312 -0.190056,0.25342 -0.338982,0.37727 -0.648023,0.30128 a 85.543487,85.528358 0 0 0 1.822111,1.15858 c -0.101036,-0.54053 0.984732,-1.69763 5.705078,-6.71638 3.386662,-3.59833 6.243892,-6.56136 6.420282,-6.56136 0.423328,-0.0353 0.282281,0.7409 -1.340488,7.12618 -2.046121,8.07861 -2.610594,10.05372 -3.033924,10.30066 -0.03664,0.0244 -0.150548,0.005 -0.313674,-0.0439 a 85.543487,85.528358 0 0 0 1.794205,0.85111 c 0.353428,-0.7151 5.01818,-7.25132 8.749853,-12.27212 1.72861,-2.32833 1.975697,-2.54034 2.081527,-1.76423 0.141111,1.34056 -1.940104,16.96864 -2.292884,17.32142 -0.03061,0.0306 -0.153665,0.0218 -0.317294,-0.005 a 85.543487,85.528358 0 0 0 2.350762,0.76223 c -0.606525,-0.75304 0.327475,-2.16466 2.48202,-6.08387 1.763889,-3.21028 3.739644,-6.84385 4.445206,-8.07857 h -5.29e-4 c 0.91722,-1.62278 1.340702,-2.1165 1.55236,-1.76372 0.352822,0.56444 0.423577,12.06469 0.0708,15.55719 -0.133178,1.522 -0.164971,2.21216 -0.884185,2.34869 a 85.543487,85.528358 0 0 0 2.273763,0.4439 c -0.0063,-0.15363 0.0093,-0.34787 0.05685,-0.56999 0.17639,-0.74084 4.762262,-12.4176 6.279202,-16.05121 0.38806,-0.88195 0.388023,-0.8823 0.670243,0.35243 0.352779,1.5875 2.081527,15.41684 2.081527,16.68684 0,0.34568 0.01815,0.58091 -0.09715,0.72347 a 85.543487,85.528358 0 0 0 6.271969,0.23047 85.543487,85.528358 0 0 0 0.507979,-0.002 h -0.650089 c -2.822221,0 -4.621425,-0.14129 -4.621425,-0.35295 0,-0.52918 3.492397,-14.04039 4.127397,-16.05122 l 0.599448,-1.76423 0.635103,2.11666 c 0.917221,2.8575 3.3868072,12.70008 3.6690277,14.53451 l 0.2278909,1.40044 a 85.543487,85.528358 0 0 0 1.7482158,-0.10956 c -0.1554745,-0.20307 -0.2323624,-0.60647 -0.1767337,-1.079 0.9877689,-8.64306 1.9398985,-16.26313 2.0810087,-16.65118 0.1058413,-0.3175 0.2823686,-0.38789 0.4940274,-0.17622 0.6160875,0.65031 6.3790298,15.71158 6.3996088,16.80156 a 85.543487,85.528358 0 0 0 2.069642,-0.39584 c -0.227113,-0.01 -0.367522,-0.0552 -0.425815,-0.14263 -0.352801,-0.52916 -0.387919,-17.3216 -0.03514,-17.67437 0.14111,-0.10589 0.352777,-0.10559 0.529167,0.0708 0.360399,0.36041 7.6183354,13.54435 8.5674354,15.50861 a 85.543487,85.528358 0 0 0 1.327568,-0.43047 c -0.02487,-0.002 -0.04405,-0.006 -0.05271,-0.015 -0.282231,-0.3175 -2.469414,-17.56809 -2.257745,-17.92087 0.246941,-0.42333 0.352891,-0.31737 5.92677,7.37319 4.152961,5.74276 4.900911,6.88789 4.610573,7.33702 a 85.543487,85.528358 0 0 0 1.957501,-0.91674 c -0.0019,-2.4e-4 -0.0051,2.7e-4 -0.0067,0 -0.423328,-0.10583 -2.116669,-6.03219 -4.7625,-16.61552 -0.105828,-0.52917 -0.07044,-0.95291 0.105937,-0.95291 0.529172,0 12.41788,12.80582 12.276769,13.22916 -0.03296,0.0989 -0.300558,0.31649 -0.716751,0.60358 a 85.543487,85.528358 0 0 0 2.445846,-1.53065 c -0.06374,0.0277 -0.114485,0.0455 -0.141595,0.0455 -0.352779,0 -6.77323,-15.76951 -6.77323,-16.5809 0,-0.21171 0.211421,-0.28218 0.458372,-0.14107 0.635,0.38805 10.407179,8.32582 12.241628,9.98388 l 1.53634,1.36581 a 85.543487,85.528358 0 0 0 1.887226,-1.57768 c -0.346919,0.25969 -0.606296,0.42323 -0.707451,0.42323 -0.49389,0 -9.101696,-15.34573 -8.854758,-15.76906 0.105842,-0.14111 1.093843,0.31764 2.187464,1.02319 1.09361,0.70556 4.515379,2.8575 7.584551,4.7625 3.033893,1.94029 5.538682,3.73939 5.538682,3.98633 0,0.0625 -0.08182,0.1923 -0.210323,0.36018 a 85.543487,85.528358 0 0 0 1.997811,-2.12648 c -0.252974,0.21966 -0.450771,0.35502 -0.552937,0.35502 -0.246941,0 -1.622814,-1.58716 -3.033924,-3.52744 -1.41111,-1.94027 -3.809728,-5.25667 -5.361948,-7.33805 -2.2225,-3.06917 -2.610729,-3.77462 -1.940449,-3.59823 1.5875,0.49389 15.522424,6.91444 16.086873,7.40834 0.08353,0.0766 -0.06669,0.40313 -0.358116,0.86919 a 85.543487,85.528358 0 0 0 2.365745,-3.28042 c -0.520679,0.69448 -0.930688,1.17667 -1.055232,1.17667 -0.458611,0 -12.206036,-12.3474 -12.452988,-13.05294 -0.0706,-0.21168 -0.0706,-0.35296 0,-0.35296 0.07056,0 3.986321,1.23521 8.748821,2.78743 6.985,2.2225 8.608063,2.89261 8.537464,3.35122 -0.0061,0.0339 -0.02767,0.0884 -0.04289,0.13436 a 85.543487,85.528358 0 0 0 1.897557,-3.5109 c -0.70024,1.29748 -1.077531,1.72595 -1.325499,1.57716 -1.27,-0.74083 -13.652912,-11.18271 -13.652912,-11.46493 0,-0.45861 1.622986,-0.21211 9.207706,1.30483 6.210361,1.26149 8.410956,1.78149 8.734867,2.13114 a 85.543487,85.528358 0 0 0 1.206645,-3.11506 c -0.433337,1.05834 -0.766418,1.48609 -1.051615,1.37201 -0.81139,-0.3175 -13.052954,-8.04323 -14.111285,-8.8899 l -0.987536,-0.81132 h 2.292884 c 3.563049,0 15.487359,0.88219 15.76958,1.12913 0.166547,0.18737 -0.01728,1.27121 -0.429948,2.7709 a 85.543487,85.528358 0 0 0 1.293976,-4.73615 c -0.136832,0.37852 -0.248824,0.44804 -0.405659,0.44804 -0.670269,0 -16.227949,-7.47893 -16.227949,-7.79643 0,-0.17639 0.282321,-0.31713 0.635104,-0.35243 0.3175,0 3.633504,-0.21195 7.302396,-0.45889 8.5725,-0.59972 9.983581,-0.63493 10.195243,-0.28215 0.05049,0.10097 -0.04777,1.02941 -0.234612,2.23914 a 85.543487,85.528358 0 0 0 0.530718,-3.71192 c -1.290376,-0.29637 -17.062119,-5.44974 -17.299721,-5.6534 -0.105838,-0.10583 -0.105838,-0.3174 0,-0.42323 0.105831,-0.10583 3.774557,-0.88191 8.113718,-1.72858 4.30389,-0.84667 8.325586,-1.55236 8.854757,-1.55236 l 0.944129,-0.0336 a 85.543487,85.528358 0 0 0 0.0047,-0.86144 85.543487,85.528358 0 0 0 -0.01344,-1.4764 c -0.03069,0.70369 -0.14347,0.92501 -0.371036,0.92501 -0.28222,0 -3.809624,-0.63504 -7.901845,-1.44643 -4.056938,-0.77611 -8.008127,-1.5168 -8.713678,-1.62263 -0.740831,-0.10584 -1.340488,-0.31764 -1.340488,-0.49403 0,-0.17639 3.280598,-1.34056 7.337539,-2.64584 4.021669,-1.27 7.690633,-2.4343 8.184512,-2.61069 1.375841,-0.45861 2.010804,-0.38785 2.257742,0.21187 0.07266,0.21797 0.19472,1.27644 0.31006,2.62155 a 85.543487,85.528358 0 0 0 -1.558562,-10.9585 c 0.482668,2.58818 0.966271,5.93821 0.790133,6.11435 -0.282221,0.28222 -16.580892,-0.66991 -17.639234,-1.02267 -0.3175,-0.10585 -0.387876,-0.28237 -0.176215,-0.49403 0.17639,-0.17639 3.880353,-1.97587 8.254794,-4.02198 4.339169,-2.04611 7.972835,-3.63317 8.043436,-3.56257 0.02658,0.0266 0.05874,0.0974 0.09405,0.1943 a 85.543487,85.528358 0 0 0 -3.942398,-12.13259 c 2.65e-4,0.003 0.003,0.0109 0.0031,0.0139 0.03528,0.21166 -0.246806,0.49414 -0.564306,0.59997 -1.305269,0.42333 -17.498124,3.3864 -17.639234,3.24528 -0.105838,-0.0705 2.998748,-2.78677 6.844028,-5.99705 3.845268,-3.210294 7.161662,-5.785344 7.338051,-5.750044 0.23522,0.0641 1.645868,2.69 2.731617,4.909264 A 85.543487,85.528358 0 0 0 23.785321,59.092266 l -2.021583,2.99775 c -3.421941,5.07999 -8.502116,11.74726 -8.819616,11.57087 -0.176389,-0.10583 -0.246816,-0.56421 -0.176217,-0.98754 0.07056,-0.45861 0.528785,-4.16322 1.022678,-8.22017 0.493879,-4.09222 0.98815,-7.69014 1.093988,-8.04292 0.105831,-0.3175 0.352777,-0.59996 0.529167,-0.59996 0.17639,0 2.151909,0.74069 4.374409,1.62264 l 3.056147,1.23351 a 85.543487,85.528358 0 0 0 -34.805113,-7.40006 z m 34.805113,7.40006 a 85.543487,85.528358 0 0 1 0.941027,0.42582 l 0.02429,-0.0362 z M 65.91143,101.39511 a 85.543487,85.528358 0 0 1 1.286742,2.97863 c -0.02558,-0.29606 -0.588912,-1.55227 -1.286742,-2.97863 z m 5.22914,15.11122 a 85.543487,85.528358 0 0 1 0.633034,2.7926 c -0.237712,-1.27468 -0.474591,-2.35795 -0.633034,-2.7926 z m 2.191597,13.7511 a 85.543487,85.528358 0 0 1 0.237193,5.06119 c 0.02641,-0.60536 -0.0068,-1.56295 -0.08836,-3.09645 -0.04424,-0.69674 -0.09616,-1.35049 -0.148828,-1.96474 z m 0.24598,7.39903 a 85.543487,85.528358 0 0 1 -0.0217,1.233 l 0.06562,-1.23455 z m -0.0217,1.233 -0.181382,3.42201 c -0.01662,0.40401 -0.03492,0.76904 -0.05271,1.14567 a 85.543487,85.528358 0 0 0 0.234092,-4.56768 z m -0.234093,4.56768 a 85.543487,85.528358 0 0 1 -0.357094,3.59048 c 0.05072,0.0116 0.123637,0.0304 0.12764,0.0264 0.02976,-0.0298 0.133816,-1.59269 0.229444,-3.61683 z m -0.887801,7.3024 a 85.543487,85.528358 0 0 1 -1.264523,6.20272 c 0.201734,-0.55806 0.459094,-1.80867 1.005623,-4.66742 0.10033,-0.54179 0.184642,-1.05451 0.2589,-1.5353 z m -2.5585,10.93887 a 85.543487,85.528358 0 0 1 -1.482079,4.42918 c 0.102685,-0.25079 0.20964,-0.52569 0.324527,-0.85008 0.477174,-1.30138 0.870916,-2.53746 1.157552,-3.5791 z m -2.688725,7.54424 a 85.543487,85.528358 0 0 1 -2.964161,6.4518 c 0.295987,-0.54843 0.643591,-1.2361 1.073319,-2.127 1.058331,-2.18722 1.939936,-4.09222 1.939936,-4.23334 0,-0.0293 -0.01974,-0.0598 -0.04909,-0.0915 z m -4.861718,9.9627 a 85.543487,85.528358 0 0 1 -3.735173,5.95622 c 1.330769,-1.77498 3.427412,-5.02787 3.735173,-5.95622 z m -6.100919,9.23664 a 85.543487,85.528358 0 0 1 -4.839499,5.83117 c 1.21943,-1.05885 3.857633,-4.26095 4.839499,-5.83117 z m -6.837309,7.95765 a 85.543487,85.528358 0 0 1 -5.538163,5.21364 c 1.482119,-1.10947 4.701841,-4.12103 5.538163,-5.21364 z m -7.425389,6.79132 a 85.543487,85.528358 0 0 1 -7.321515,5.32681 c 0.848712,-0.36901 4.739299,-3.05438 6.314342,-4.39973 l 1.058333,-0.8816 z m -16.664098,10.59315 c 0.48695,0.0666 5.085958,-2.48742 6.893121,-3.7331 a 85.543487,85.528358 0 0 1 -6.893121,3.7331 z m -1.957501,0.91674 a 85.543487,85.528358 0 0 1 -8.226888,3.22565 c 0.683786,0.0459 7.280799,-2.47243 8.131802,-3.11919 0.03966,-0.0312 0.06974,-0.0672 0.09509,-0.10646 z m -9.554456,3.65611 a 85.543487,85.528358 0 0 1 -8.6356484,2.23759 c 0.597514,0.0252 1.853496,-0.22494 4.230748,-0.81287 2.4341694,-0.59972 4.4449264,-1.12899 4.5154884,-1.16427 0.0075,-0.008 -0.03777,-0.10975 -0.110588,-0.26045 z m -10.7052904,2.63343 a 85.543487,85.528358 0 0 1 -8.797912,1.10484 c 0.041847,0.0547 0.088175,0.098 0.1405599,0.12041 0.423328,0.14111 8.2195541,-0.88204 8.6428821,-1.16427 0.0105,-0.006 0.01511,-0.0275 0.01447,-0.061 z m -10.5461278,1.2144 a 85.543487,85.528358 0 0 1 -3.9873638,0.11679 h 4.0064786 z m -10.7673008,-0.11214 a 85.543487,85.528358 0 0 1 -8.990665,-1.14153 c 0.0077,0.18798 0.04948,0.31212 0.127124,0.31212 0.17639,0 2.081525,0.24695 4.198194,0.52917 3.450968,0.46503 4.40414,0.62322 4.665347,0.30024 z m -11.264428,-1.58543 a 85.543487,85.528358 0 0 1 -7.665681,-1.97973 c 0.436235,0.54162 1.667788,0.74327 3.822505,1.28933 2.112861,0.52009 3.228766,0.80703 3.843176,0.6904 z m -10.016453,-2.74195 a 85.543487,85.528358 0 0 1 -8.221202,-3.27991 c -0.0141,0.0285 -0.03411,0.0655 -0.03411,0.0749 0,0.4144 6.72156,2.95222 8.25531,3.20498 z m -10.015408,-4.13102 a 85.543487,85.528358 0 0 1 -7.437273,-4.10517 c 0.03035,0.16237 0.16333,0.27125 0.342614,0.40979 1.310672,0.9986 5.844323,3.31886 7.094659,3.69538 z m -9.259385,-5.26376 a 85.543487,85.528358 0 0 1 -7.076569,-5.16402 l -0.07183,0.0651 1.234551,1.09347 c 0.67028,0.56444 2.328476,1.79902 3.669028,2.68097 1.244136,0.83591 1.865508,1.23119 2.244822,1.32447 z m -8.387601,-6.24975 a 85.543487,85.528358 0 0 1 -6.191353,-5.78001 c 0.384434,0.5241 1.188762,1.36171 2.597259,2.73265 1.68557,1.58833 3.218944,2.87572 3.594094,3.04736 z m -8.836153,-8.63409 a 85.543487,85.528358 0 0 1 -4.536674,-5.58003 c 0.162276,0.66687 1.277579,2.13441 3.252515,4.25246 0.457458,0.49357 0.894611,0.94439 1.284159,1.32757 z m -5.916951,-7.48534 a 85.543487,85.528358 0 0 1 -4.46226,-7.05021 l 0.557589,1.14308 c 1.015175,2.00133 2.98162,4.92792 3.904671,5.90713 z m -5.336108,-8.63099 a 85.543487,85.528358 0 0 1 -3.733623,-7.86051 c 0.291953,1.41046 3.09539,7.31948 3.733623,7.86051 z m -4.54856,-9.90276 a 85.543487,85.528358 0 0 1 -2.744018,-8.41964 c -0.08512,0.0521 -0.130742,0.10589 -0.130742,0.16175 0,0.70556 2.505067,8.0784 2.822567,8.25479 0.0094,0.006 0.02856,0.006 0.05219,0.003 z m -3.266467,-10.45672 a 85.543487,85.528358 0 0 1 -1.630392,-8.59638 c -0.08427,0.062 -0.09457,0.14443 -0.09457,0.24701 0,1.36461 1.171502,6.83654 1.724959,8.34937 z m -1.832963,-10.18026 a 85.543487,85.528358 0 0 1 -0.565857,-7.95197 c -0.02215,0.37871 -0.03152,0.85841 -0.03152,1.49241 0,1.51694 0.105904,3.59837 0.247014,4.62143 l 0.211356,1.86965 z m -0.561723,-12.27781 a 85.543487,85.528358 0 0 1 0.483175,-7.10447 c -0.130279,0.24977 -0.22304,0.64171 -0.306958,1.24592 -0.179936,1.46193 -0.243986,4.11771 -0.176217,5.85855 z m 0.870748,-10.13271 a 85.543487,85.528358 0 0 1 1.450557,-7.53804 c -0.07448,0.11498 -0.146358,0.24129 -0.205155,0.3824 -0.470176,1.2999 -1.132905,5.32141 -1.245402,7.15564 z m 2.364713,-11.02775 a 85.543487,85.528358 0 0 1 2.140438,-6.51795 c -0.106593,0.16789 -0.208324,0.36346 -0.296106,0.58291 -0.478927,1.14943 -1.369745,4.09053 -1.844332,5.93504 z m 3.769279,-10.56008 a 85.543487,85.528358 0 0 1 2.742468,-5.741774 c -0.01529,0.0223 -0.03085,0.0421 -0.04599,0.0656 -0.652572,0.99191 -1.996634,3.889724 -2.696476,5.676144 z m 3.897954,-7.872904 a 85.543487,85.528358 0 0 1 4.865852,-7.68636 c -0.185175,0.15588 -0.543006,0.59075 -0.881599,1.09864 -2.068276,3.11994 -3.960467,6.23699 -3.984253,6.58772 z m 6.588228,-10.02575 a 85.543487,85.528358 0 0 1 4.203361,-5.09064 c -0.58564,0.6288 -1.413935,1.57288 -2.32699,2.6727 -0.752823,0.90681 -1.410744,1.75962 -1.876371,2.41794 z m 16.862536,-16.68477 c -0.467682,0.34182 -0.865745,0.64528 -1.207677,0.91778 a 85.543487,85.528358 0 0 1 1.207677,-0.91778 z m 6.070947,-4.13618 a 85.543487,85.528358 0 0 1 4.94492,-2.8422 c -0.387134,0.20016 -0.787874,0.41203 -1.201995,0.64285 -1.724488,0.94569 -3.192507,1.8175 -3.742925,2.19935 z m 17.463018,-8.26254 c -0.33764,0.0782 -0.795813,0.22014 -1.302247,0.41909 -1.936552,0.72091 -3.412128,1.31148 -4.496882,1.79679 a 85.543487,85.528358 0 0 1 5.799129,-2.21588 z m 1.8619,-0.61134 a 85.543487,85.528358 0 0 1 8.50129,-2.21175 c -0.02984,-0.004 -0.06112,-0.006 -0.09457,-0.004 -0.352779,0 -2.363546,0.49388 -4.515485,1.05833 -1.877086,0.53184 -3.497675,1.00681 -3.891237,1.15703 z m 24.28999,-3.95893 a 85.543487,85.528358 0 0 1 0.518832,-0.008 c -0.178978,10e-4 -0.345493,0.005 -0.518832,0.008 z m -5.604825,0.32556 c 0.823788,0.002 0.904854,0.15707 0.904854,0.95964 0,1.41111 -2.046073,17.0741 -2.257742,17.28576 -0.211672,0.21167 -0.634865,-0.74049 -4.268475,-9.87743 -1.516949,-3.84528 -2.681523,-7.09114 -2.540413,-7.19698 0.105831,-0.10583 1.623264,-0.4233 3.316594,-0.67024 1.693331,-0.24695 3.70386,-0.45875 4.444691,-0.49403 0.149928,-0.004 0.282807,-0.007 0.400491,-0.007 z m 14.1205848,0.0941 c 2.3885605,0.0209 8.3038848,0.82372 8.3038848,1.25367 -0.03528,0.635 -6.6322155,16.68616 -6.879167,16.72146 -0.3880485,0.0705 -2.7163183,-17.35671 -2.3988183,-17.85059 0.059531,-0.0926 0.4228941,-0.12938 0.9741005,-0.12454 z m 10.0500308,1.34617 c 0.396878,-0.004 1.199309,0.22455 2.945559,0.68316 5.2563764,1.30528 5.5386794,1.41118 5.5386794,1.83451 -0.03528,0.74084 -8.3257604,15.59307 -8.6785404,15.52257 -0.3528,-0.10584 -0.634793,-15.98087 -0.317293,-17.32142 0.123475,-0.47626 0.11472,-0.71441 0.511595,-0.71882 z m -22.2782256,1.70635 c 0.246941,0 3.70427,12.87622 4.33927,16.05122 0.388061,1.97556 -1.692955,10.61905 -2.610176,10.866 -0.740841,0.21167 -0.776351,0.10541 -2.71663,-5.18624 l -1.55236,-4.16254 0.988054,-8.18451 c 0.529169,-4.48028 1.058114,-8.43119 1.128612,-8.78396 0.105841,-0.3175 0.282109,-0.59997 0.42323,-0.59997 z m 10.3011815,0 c 0.2116588,0 0.3529489,0.1059 0.3529489,0.24702 0,0.14111 0.4937522,4.12753 1.0934726,8.85475 l 1.0939913,8.57261 -1.6231579,4.19819 c -0.8819489,2.29305 -1.6226393,4.33896 -1.6226393,4.55062 0,0.49388 -0.5645388,0.77611 -1.1642699,0.52917 -0.3527689,-0.10584 -0.9526058,-1.86956 -1.6934362,-4.93871 l -1.163754,-4.72736 1.8696541,-7.3024 c 1.0230485,-4.05695 2.0105555,-7.93771 2.1869453,-8.67854 0.1763898,-0.70556 0.4938527,-1.30535 0.6702451,-1.30535 z m 10.0479651,1.37149 c 0.416716,-0.0992 0.535368,2.42094 0.535368,8.92969 v 8.92504 l -0.917257,1.5875 c -0.49389,0.88195 -1.551914,2.82247 -2.32802414,4.30413 -1.0230511,1.905 -1.65805636,2.75177 -2.11666656,2.75177 -0.7408386,0 -0.8116941,-0.28208 -1.3761429,-5.85597 l -0.4232301,-4.26899 2.89284556,-7.26726 c 1.58750014,-4.02167 3.03374914,-7.69063 3.21014214,-8.18451 0.211664,-0.56445 0.384058,-0.88832 0.522965,-0.9214 z m -30.5795276,0.0398 c 0.176389,0 1.552112,3.13944 3.069063,6.94944 4.162769,10.51278 3.845269,9.06664 3.175,14.3583 -0.3175,2.54 -0.740868,4.76219 -0.917257,4.97385 -0.635,0.67028 -1.446044,-0.35261 -3.527433,-4.40954 l -2.046388,-4.05712 -0.03514,-8.92504 c 0,-4.86833 0.141044,-8.88989 0.282155,-8.88989 z m 40.84815,2.53214 c 0.104293,-0.0185 0.144695,0.11376 0.144695,0.3607 0,1.83445 -2.187258,17.00372 -2.504758,17.63872 -0.246938,0.45861 -1.5522974,2.36347 -2.8928454,4.26847 -3.386669,4.7625 -3.59823,4.65674 -3.59823,-1.86965 v -5.11545 l 4.233333,-7.69049 c 3.0592394,-5.53971 4.2453324,-7.52638 4.6178054,-7.5923 z m -50.799481,0.0729 c 0.04961,0.003 0.108759,0.0405 0.179316,0.11111 0.211661,0.21166 2.222577,3.6692 4.480348,7.72614 l 4.092255,7.37268 v 5.11545 c 0.03527,4.86833 3.7e-5,5.11555 -0.670243,5.22139 -0.493889,0.0353 -1.023122,-0.42334 -1.834512,-1.5875 -0.59972,-0.9525 -1.834552,-2.75184 -2.75177,-4.05712 l -1.69292,-2.36368 -0.988055,-7.69049 c -0.564449,-4.23333 -0.987893,-8.25527 -1.023191,-8.92555 0,-0.635 0.05994,-0.93235 0.208772,-0.92243 z m 62.553804,1.29398 c 0.344509,-0.003 0.909511,0.21532 1.901693,0.72244 3.245559,1.62278 5.891331,3.31612 5.820833,3.70417 -0.14111,0.59972 -11.92372,13.19351 -12.347051,13.19351 -0.176411,0 -0.246917,-0.28181 -0.141076,-0.63459 0.105828,-0.3175 1.058056,-4.16302 2.186945,-8.53746 1.093611,-4.37445 2.046494,-8.04327 2.152325,-8.21966 0.09261,-0.14552 0.219623,-0.22675 0.426331,-0.22841 z m -72.60487,2.12442 c 0.05292,-0.0265 0.193789,0.0798 0.45837,0.29146 0.564448,0.49388 9.031213,11.95903 10.160103,13.79347 0.3175,0.49389 0.741103,2.46927 0.988052,4.40955 0.211672,1.94028 0.493617,4.09208 0.599448,4.79764 0.246949,1.83444 -0.669933,2.11705 -1.939933,0.56482 -0.529162,-0.59972 -1.94055,-2.18715 -3.104722,-3.45715 -1.199448,-1.27 -2.328224,-2.61072 -2.539896,-2.99879 -0.21167,-0.42332 -1.270069,-4.19804 -2.363679,-8.46666 -1.093611,-4.23333 -2.081634,-8.04347 -2.187464,-8.43153 -0.08819,-0.3175 -0.123196,-0.47635 -0.07028,-0.50281 z m 70.361595,0.37879 c 0.114739,-0.0185 0.158647,0.0919 0.158647,0.30024 0,0.95249 -4.233233,16.61628 -4.656564,17.216 -0.246941,0.35278 -1.799103,2.11636 -3.457154,3.91553 -2.645839,2.82225 -3.104856,3.17496 -3.598746,2.7869 -0.564438,-0.42333 -0.564343,-0.77617 0.105937,-5.00951 0.388051,-2.50472 0.882321,-4.86833 1.093991,-5.29166 0.211669,-0.38806 2.539899,-3.70379 5.18573,-7.37268 3.445092,-4.76801 4.75838,-6.47883 5.168159,-6.54482 z m 11.48302,2.76986 c 0.846669,0 7.796006,5.04496 7.372678,5.36246 -0.105842,0.0706 -1.375672,1.16382 -2.822051,2.4691 -4.903621,4.26861 -11.112598,9.13688 -11.218437,8.74882 -0.07055,-0.17639 1.129131,-3.56265 2.716631,-7.51375 1.55222,-3.91584 2.99861,-7.5498 3.175,-8.11424 0.211669,-0.52917 0.56452,-0.95239 0.776179,-0.95239 z m -2.257743,1.90531 c 0.105839,0.0705 -1.305549,3.91569 -3.104721,8.5018 l -3.245279,8.32559 -3.810103,3.13934 c -3.739451,3.13973 -4.304019,3.49285 -4.72736,2.82257 -0.3175,-0.52917 2.187297,-9.52532 2.892845,-10.37197 0.352782,-0.38807 3.174894,-3.38647 6.244064,-6.6673 3.069161,-3.24556 5.680053,-5.82063 5.750554,-5.75003 z m -88.372382,0.13487 c 0.287943,0.0497 1.430268,1.0953 2.788459,2.5461 7.65528,8.11389 9.842508,10.61851 10.054167,11.53573 0.105841,0.52917 0.670099,2.64573 1.234551,4.65656 0.529158,2.01083 0.917149,3.80993 0.811318,3.98632 -0.388059,0.635 -1.375627,0.21184 -2.963127,-1.23455 -0.917218,-0.81138 -2.434373,-2.15188 -3.386873,-2.92799 -0.987779,-0.81139 -2.116566,-2.15211 -2.539897,-2.99878 -1.09361,-2.15195 -6.067845,-14.95761 -6.067845,-15.52205 0.0044,-0.0353 0.02811,-0.0484 0.06925,-0.0413 z m -11.075811,4.30982 c 0.458611,0 1.869372,2.3285 5.6441,9.34878 3.175,5.85611 3.457395,6.52622 2.998785,6.52622 -0.352782,0 -14.428434,-8.88976 -14.992884,-9.45421 -0.17639,-0.17639 1.12858,-1.6584 2.85719,-3.35173 1.693339,-1.69334 3.281151,-3.06906 3.492809,-3.06906 z m 110.383959,0 c 0.564441,0 6.455937,5.60948 6.455937,6.13864 -0.03528,0.45861 -14.67535,9.84246 -15.13396,9.66608 -0.17639,-0.0353 1.587053,-3.63399 3.950663,-7.97316 2.36361,-4.30388 4.480411,-7.83156 4.72736,-7.83156 z m -107.825975,1.45675 c 0.24121,0.0243 1.659985,1.21571 7.214029,5.77536 3.4925,2.8575 6.56128,5.53871 6.843511,5.92677 0.246941,0.35278 0.917638,1.83403 1.482079,3.28042 0.52917,1.41111 1.340528,3.24573 1.728576,4.05712 0.670282,1.30527 0.705625,1.51684 0.247015,2.01073 -0.49389,0.45861 -0.952494,0.24688 -4.233333,-1.83451 -2.04611,-1.30527 -4.092395,-2.82219 -4.586285,-3.31608 -0.77611,-0.88194 -7.972872,-13.79334 -8.572603,-15.41611 -0.09922,-0.26459 -0.23263,-0.49472 -0.122989,-0.4837 z m 104.946047,0.52349 c 0.03356,-0.001 0.05347,0.008 0.05788,0.0305 0.07056,0.21167 -1.199644,2.82235 -2.857706,5.78569 -5.785549,10.58333 -4.833049,9.34868 -9.525,12.41785 -3.4925,2.32835 -4.268512,2.68093 -4.656563,2.29288 -0.388059,-0.38806 -0.141312,-1.23479 1.375627,-5.00951 l 1.834515,-4.51549 4.762499,-3.95118 c 2.61056,-2.18722 5.714995,-4.72688 6.879167,-5.6441 0.987777,-0.83344 1.894689,-1.39699 2.129584,-1.40663 z m -52.272261,1.36167 c 0.27304,0.0502 0.573334,0.9114 1.106908,2.97294 0.635,2.43418 0.458608,2.85719 -1.058333,2.85719 -1.481669,0 -1.693288,-0.45847 -1.199409,-2.68097 0.246951,-1.16417 0.599273,-2.39899 0.775663,-2.75177 0.132292,-0.2756 0.251063,-0.42021 0.375171,-0.39739 z m -7.818643,0.53847 c 0.49389,0 2.081418,3.88069 1.97559,4.72736 -0.07056,0.56444 -0.388234,0.77638 -1.411284,0.84698 -1.269961,0.10584 -1.340485,0.0351 -1.340485,-0.88212 0,-0.52917 0.106042,-1.83466 0.211873,-2.85771 0.14111,-0.98778 0.387927,-1.83451 0.564306,-1.83451 z m 15.4977616,0.061 c 0.3217677,-0.002 0.4954032,0.96997 0.5891106,2.9378 l 0.1410759,2.64584 H -4.589175 c -2.0108307,0 -2.1164259,-0.38803 -0.9875361,-3.31608 0.5622369,-1.50482 0.9614879,-2.26556 1.2454017,-2.26756 z m -23.0249516,1.2578 c 0.268994,0.004 0.788996,0.86865 1.741496,2.59726 1.058331,1.94027 1.058746,2.01097 0.423746,2.61069 -0.35278,0.3175 -1.023469,0.52897 -1.482079,0.45837 -0.776121,-0.10583 -0.810901,-0.28198 -0.916739,-3.1042 -0.05292,-1.71096 -0.03542,-2.56653 0.233576,-2.56212 z m 30.7593626,0.38396 c 0.03541,-0.004 0.06425,0.004 0.0863,0.0264 0.141092,0.14111 0.247335,1.37557 0.176734,2.71611 -0.105831,2.36361 -0.140973,2.43407 -1.093473,2.5399 -1.199441,0.14111 -2.11673254,-0.52923 -1.83451474,-1.30534 0.1058307,-0.3175 0.70548774,-1.41105 1.34048774,-2.39883 0.524764,-0.89517 1.076563,-1.54733 1.324467,-1.57819 z m 47.2529294,1.82521 c 0.67028,0 6.173473,6.49121 5.855973,6.9851 -0.211659,0.3175 -15.768823,7.83157 -16.227433,7.83157 -0.564449,0 0.140774,-1.09376 5.114933,-7.90236 2.786951,-3.81 5.115417,-6.91431 5.256527,-6.91431 z m -85.513642,0.10387 c 0.031,0.003 0.06625,0.0152 0.105937,0.0372 0.529169,0.35278 3.210655,3.98635 3.210655,4.3744 0,0.49389 -0.776322,1.05841 -1.799373,1.30535 -1.023059,0.24695 -1.058339,0.17659 -1.5875,-4.02146 -0.154339,-1.23472 -0.146759,-1.71335 0.07028,-1.6955 z m 45.473194,0.17828 0.105936,1.41129 c 0.14111,1.94028 -0.529132,4.30361 -1.1994124,4.30361 -0.881938,0 -1.904793,-0.70524 -1.904793,-1.26969 0,-0.59972 1.023027,-2.2224 2.257745,-3.59823 z m -82.60116,1.18701 c 0.412146,-0.0147 2.051144,0.9936 7.812443,4.63382 l 7.408333,4.69223 2.363679,4.19767 c 1.305282,2.32833 2.36352,4.40976 2.398821,4.62143 0.03528,0.9525 -1.128789,0.63543 -5.18573,-1.30483 -3.421949,-1.62278 -4.5159,-2.36365 -5.4684,-3.5631 -1.834439,-2.25777 -9.454203,-12.8768 -9.454203,-13.12374 0,-0.0926 0.02995,-0.1501 0.125057,-0.15348 z m 119.733258,0.24856 c 0.0083,0.002 0.01331,0.005 0.0155,0.0109 0.07056,0.21167 -2.151776,3.52805 -4.938717,7.33805 l -5.08031,6.98459 -4.550627,2.22261 c -4.09222,2.01083 -4.621604,2.18746 -4.974373,1.6583 -0.352779,-0.45862 -0.176352,-0.95262 0.917258,-2.75177 0.705548,-1.19945 1.728851,-2.99868 2.187461,-3.95118 0.49389,-0.98778 1.23458,-2.04605 1.622642,-2.39882 0.388048,-0.35278 3.845216,-2.6105 7.690485,-5.04466 3.725116,-2.3581 6.854558,-4.1205 7.110677,-4.06797 z m -89.942828,1.28106 2.222603,2.18695 c 2.151949,2.11667 2.187229,2.22257 1.5875,2.89285 -0.3175,0.35278 -0.987673,0.74114 -1.481563,0.84697 -0.77611,0.14111 -0.917157,-0.0355 -1.340488,-1.6583 -0.28222,-0.98776 -0.635209,-2.36364 -0.741039,-3.03392 z m 59.972048,0.52917 c 0.17639,0 -0.176353,2.11674 -0.670243,3.95118 -0.282231,1.05833 -0.528753,1.34049 -1.163753,1.34049 -0.458611,0 -1.093642,-0.31785 -1.446425,-0.70591 -0.635,-0.70555 -0.635169,-0.77559 1.234552,-2.64531 1.058341,-1.05834 1.97527,-1.94045 2.045869,-1.94045 z m -66.392329,3.88038 c 0.105831,0 1.234379,0.8116 2.4691,1.79938 1.9403,1.51693 2.18753,1.86938 1.905309,2.4691 -0.388048,0.67028 -1.411385,1.37614 -2.046385,1.37614 -0.35278,0 -0.388157,-0.0705 -1.693437,-3.45716 -0.45861,-1.19944 -0.740418,-2.18746 -0.634587,-2.18746 z m 72.954202,0 c 0.388062,0 0.03552,1.37584 -0.987536,3.70417 -0.917221,2.0461 -1.623224,2.2577 -2.928504,0.81132 -0.635,-0.70556 -0.5993,-0.74045 1.48208,-2.61018 1.164172,-1.02305 2.25757,-1.90531 2.43396,-1.90531 z m 33.161284,0.70538 c 0.17639,0 2.92785,4.02192 4.021461,5.89164 0.811389,1.34055 0.987742,1.905 0.670242,2.11666 -0.635,0.42334 -16.968311,5.715064 -17.14469,5.538684 -0.17639,-0.17639 1.481524,-2.010734 7.443472,-8.360734 2.71639,-2.85749 4.974215,-5.18625 5.009515,-5.18625 z m -136.172565,1.05834 c 0.56445,0 15.945802,7.47913 16.474964,8.0083 0.352779,0.35277 1.834546,2.22276 3.280936,4.163054 3.52778,4.72722 3.315835,4.97381 -2.575555,2.99827 -2.398889,-0.77611 -4.691731,-1.65823 -5.079793,-1.94046 -0.81139,-0.52916 -11.994442,-12.382184 -12.170832,-12.911354 -0.07061,-0.17639 -0.03555,-0.31781 0.07028,-0.31781 z m 133.349998,0 c 0.17639,0 0.07072,0.28247 -0.176217,0.59996 -0.9525,1.23473 -11.394509,12.276674 -11.958961,12.700004 -0.3175,0.21167 -2.540341,1.0584 -4.939231,1.83451 -5.99722,1.94028 -6.173377,1.72847 -2.575038,-3.13985 1.481661,-2.046124 3.033963,-3.951114 3.422015,-4.233344 0.388059,-0.28222 4.127153,-2.15184 8.289932,-4.12739 4.198049,-1.97556 7.761111,-3.63389 7.9375,-3.63389 z m -24.245548,3.22254 c 0.08268,0.01 0.115755,0.0673 0.115755,0.16433 0,0.67028 -2.645862,5.07979 -3.033924,5.07979 -0.705559,0 -1.975623,-1.34021 -1.834512,-1.93993 0.07055,-0.28222 1.058433,-1.1292 2.222603,-1.90531 1.587494,-1.03187 2.282031,-1.42864 2.530078,-1.39888 z m -84.730227,0.29766 c 0.348917,-0.0232 1.228863,0.44008 2.684074,1.41903 1.799108,1.27 2.046076,1.51695 1.728576,2.11667 -0.21167,0.38805 -0.7058,0.8818 -1.129131,1.09347 -0.635,0.35278 -0.84636,0.28216 -1.26969,-0.24701 -0.52917,-0.74083 -2.187461,-3.8807 -2.187461,-4.1982 0,-0.11465 0.05732,-0.17624 0.173632,-0.18396 z m -29.997653,5.32629 c 0.518624,-0.0303 2.492528,0.58387 8.79843,2.61896 l 8.184512,2.680974 3.669028,3.66903 c 3.31611,3.31611 3.63375,3.73944 3.13986,4.23333 -0.49389,0.49389 -1.023337,0.45885 -5.221388,-0.45837 -3.139728,-0.70555 -5.044344,-1.30521 -5.785176,-1.86965 -1.76389,-1.27 -12.947013,-10.583684 -12.947013,-10.760074 0,-0.0661 0.04207,-0.1072 0.161747,-0.1142 z m 144.21497,0.0687 c 0.223025,0.0308 0.105418,0.21773 -0.126093,0.50436 -0.670279,0.77611 -12.382494,10.512814 -13.229166,10.971424 -0.35278,0.17639 -2.716149,0.7758 -5.22087,1.26969 -3.59833,0.70555 -4.621495,0.81153 -4.868436,0.49403 -0.141121,-0.24695 -0.282313,-0.52928 -0.247013,-0.6351 0,-0.10585 1.481635,-1.76389 3.316076,-3.70417 l 3.351218,-3.52795 8.184512,-2.716114 c 6.208887,-2.0373 8.349112,-2.72401 8.839772,-2.65617 z m -24.23935,0.045 c 0.04561,-0.008 0.07565,-0.008 0.08888,5.3e-4 0.17639,0.21165 -2.18677,3.810204 -2.892329,4.445204 -0.599721,0.45861 -0.741249,0.42305 -1.48208,-0.45889 -0.458621,-0.56446 -0.84646,-1.1641 -0.84646,-1.340494 0,-0.17639 1.128787,-0.88209 2.539897,-1.55237 1.203851,-0.58649 2.2728,-1.03758 2.592088,-1.09398 z m -95.494944,0.11472 c 0.319772,-0.005 1.39251,0.3885 2.62723,0.94413 1.975551,0.91722 2.504461,1.34061 2.43396,1.834514 -0.17639,0.81138 -1.09348,1.90531 -1.622639,1.90531 -0.45861,0 -3.704341,-4.304304 -3.527952,-4.657084 0.01323,-0.0177 0.04372,-0.0262 0.0894,-0.0269 z m 100.054874,6.284894 c 0.07993,-0.003 0.132728,0.004 0.150379,0.0217 0.07055,0.0706 -0.634625,0.9874 -1.551845,2.08101 -2.11667,2.43417 -3.174963,2.54045 -3.845243,0.28267 -0.211669,-0.635 -0.03559,-0.81146 1.269691,-1.30535 0.846669,-0.28223 2.08149,-0.67058 2.75177,-0.84697 0.502703,-0.13228 0.985461,-0.22478 1.225248,-0.23306 z m -103.91872,0.16277 c 0.388049,0 1.587363,0.31719 2.680973,0.74053 2.18722,0.81139 2.469539,1.55219 1.16427,2.78691 l -0.776179,0.7059 -1.199412,-1.12913 c -0.635,-0.635 -1.517248,-1.58736 -1.90531,-2.15181 -0.670258,-0.9525 -0.669904,-0.9524 0.03566,-0.9524 z m 131.339268,2.15181 c 0.282221,-0.0353 2.751254,7.33795 2.751254,8.29045 0,0.91722 -0.528928,1.02305 -10.512538,1.5875 -6.80861,0.38805 -8.325628,0.31747 -7.126179,-0.38809 0.28222,-0.17639 3.704,-2.39885 7.584551,-4.90357 3.880559,-2.50472 7.161802,-4.58629 7.302912,-4.58629 z m -2.986381,0.3483 c 0.607716,0.0561 -1.23403,1.3255 -7.385595,5.26118 -8.255,5.22111 -7.443478,4.93846 -14.851808,5.39708 -2.39889,0.17638 -2.751564,0.10608 -3.069064,-0.45837 -0.282217,-0.52915 -0.211735,-0.74097 0.282155,-1.02319 0.352769,-0.17639 1.904934,-1.41097 3.457154,-2.68097 1.516938,-1.30528 3.280794,-2.57549 3.845242,-2.85771 0.599721,-0.28222 4.727052,-1.19921 9.172051,-2.04587 4.48028,-0.84667 8.219996,-1.5875 8.396386,-1.5875 0.06173,-0.007 0.112964,-0.008 0.153479,-0.005 z m -153.13122,0.0884 c 0.145521,-0.0132 0.348438,0.004 0.577743,0.0574 0.42334,0.0705 4.268326,0.81125 8.536946,1.62264 4.26861,0.81138 8.043607,1.62298 8.396387,1.79937 0.91722,0.49389 7.655345,5.96184 7.655345,6.24406 0,0.10583 -0.141041,0.38778 -0.282151,0.59945 -0.35278,0.56445 -9.383991,-0.0701 -10.689271,-0.77566 -0.88194,-0.42333 -10.477873,-6.49153 -13.264823,-8.36125 -0.635,-0.42334 -1.163753,-0.88194 -1.163753,-1.05833 0,-0.0706 0.08806,-0.11441 0.233577,-0.12764 z m 132.265827,3.9579 c 0.04024,10e-4 0.06559,0.006 0.07441,0.015 0.59972,0.45861 -3.52788,3.84545 -4.33927,3.52795 -0.77611,-0.28222 -1.446146,-1.90507 -0.987536,-2.36368 0.17639,-0.17639 1.44635,-0.56438 2.786909,-0.81132 1.172983,-0.21608 2.183789,-0.37809 2.465483,-0.36793 z m -112.214854,0.12092 1.940448,0.14107 c 3.563062,0.3175 4.621454,1.19965 3.422015,2.85771 -0.635,0.88194 -1.446797,0.56428 -3.598746,-1.41128 z m -23.177397,5.67976 c 1.5875,0 16.686293,1.09381 17.356563,1.2702 0.45861,0.10583 2.681207,1.30513 4.868437,2.68097 5.18583,3.24556 5.150628,3.52799 -0.282155,3.91604 -2.222498,0.14114 -4.692288,0.21126 -5.468398,0.10543 -1.44639,-0.14112 -16.7566,-7.16132 -16.7566,-7.69049 0,-0.14111 0.105763,-0.28215 0.282153,-0.28215 z m 158.414618,0.0532 c 1.225901,-0.0177 1.058476,0.12344 0.75861,0.40566 -0.28222,0.28222 -3.986453,2.1167 -8.184512,4.09226 l -7.690488,3.63337 -5.009512,-0.3173 c -4.656672,-0.24694 -5.04485,-0.35305 -5.115451,-0.98805 -0.105831,-0.70555 0.353152,-1.02278 6.914824,-4.83278 1.516938,-0.88195 2.08108,-0.98781 9.20719,-1.44642 5.274025,-0.35278 7.893437,-0.5291 9.119339,-0.54674 z m -19.949687,1.35806 -0.775663,0.84646 c -0.45861,0.45862 -1.51702,1.23482 -2.363679,1.69343 -1.5875,0.81139 -1.587497,0.81136 -2.116666,0.14108 -0.846672,-1.16417 -0.635381,-2.25757 0.493508,-2.43396 0.52917,-0.0705 1.799379,-0.17657 2.857707,-0.21187 z m -116.700367,0.03 c 1.583581,0.008 4.166603,0.28984 4.481896,0.60513 0.529169,0.52916 -0.317503,2.5399 -1.058333,2.5399 -0.67028,0 -4.656564,-2.54031 -4.656564,-2.96364 0,-0.1323 0.513191,-0.18496 1.233001,-0.18139 z m 113.834393,7.03006 c 0.520345,-0.004 1.349062,0.0661 2.724898,0.20723 2.57528,0.28222 2.469746,0.63461 -0.740523,2.081 -2.08139,0.91722 -2.187223,0.95281 -2.645834,0.31781 -0.493889,-0.67028 -0.599932,-1.97562 -0.211873,-2.36368 0.141111,-0.15876 0.352986,-0.23795 0.873332,-0.24236 z m -112.980183,0.12092 c 1.790896,0.0397 2.048965,0.61547 1.652095,2.20297 -0.17639,0.70557 -0.387675,0.84663 -1.022675,0.67024 -1.41111,-0.42333 -4.480347,-1.9759 -4.480347,-2.2934 0,-0.17639 0.670033,-0.38786 1.516703,-0.45837 0.970138,-0.0882 1.737258,-0.13466 2.334224,-0.12144 z m -9.424747,0.61599 c 3.001712,-0.0124 4.06556,0.51986 7.19646,1.97507 3.21028,1.48167 4.37441,2.18722 4.37441,2.64583 0,0.35279 -0.0355,0.63459 -0.0708,0.63459 -0.07056,0 -2.292746,0.38823 -4.973856,0.88212 l -4.903576,0.88211 -7.267257,-2.36367 c -4.02167,-1.27 -7.831806,-2.46931 -8.431527,-2.68098 -1.16416,-0.35278 -1.552053,-0.91745 -0.705383,-0.98805 0.21166,0 3.13945,-0.21142 6.42028,-0.45837 4.061355,-0.3175 6.560219,-0.52121 8.361247,-0.52865 z m 132.399152,0.0165 c 1.745216,-10e-4 4.169873,0.18542 8.112165,0.47646 3.880551,0.28223 7.30233,0.52917 7.584551,0.52917 1.12889,0.0353 -1.516769,1.05864 -9.172051,3.49281 l -7.902358,2.53989 -4.092258,-0.74104 c -2.2225,-0.42333 -4.409966,-0.81091 -4.833297,-0.91673 -0.493889,-0.10585 -0.811318,-0.42379 -0.811318,-0.81184 0,-0.45861 1.093883,-1.16379 4.163052,-2.61018 3.020655,-1.43315 4.04282,-1.95681 6.951514,-1.95854 z m -9.199438,6.44044 c 0.10473,-0.004 0.219141,0.007 0.342614,0.0336 0.388049,0.0705 1.65802,0.31751 2.78691,0.52916 1.09361,0.21167 2.011246,0.52914 2.011246,0.67025 0,0.14111 -1.19983,0.63486 -2.681489,1.09347 -2.257779,0.74084 -2.716038,0.77642 -2.998266,0.31781 -0.352772,-0.56444 -0.423437,-1.44649 -0.105937,-2.2226 0.105831,-0.26456 0.330727,-0.4101 0.644922,-0.42168 z m -114.749584,0.25269 c 1.03663,-0.04 1.789036,0.13351 1.92133,0.48628 0.282221,0.74084 -0.141213,2.29288 -0.635103,2.29288 -0.211672,0 -1.481359,-0.31718 -2.857191,-0.74052 -2.61055,-0.77611 -2.751666,-1.19941 -0.529166,-1.72858 0.754065,-0.1852 1.478153,-0.28608 2.10013,-0.31006 z m -7.53339,1.40354 c 1.76389,-0.0705 10.301181,2.75187 10.301181,3.38687 0,0.59972 -1.199142,1.12879 -6.032191,2.5399 l -3.739824,1.12861 -8.607743,-1.65778 c -4.72723,-0.88194 -8.67832,-1.69322 -8.74882,-1.76371 -0.35278,-0.35278 0.67028,-0.63527 7.9375,-2.04639 4.26861,-0.84666 8.254897,-1.5522 8.889897,-1.5875 z m 130.174998,0 c 0.45861,-0.0353 4.268607,0.59951 8.466666,1.37562 7.02028,1.34056 9.560486,1.94077 9.207706,2.25827 -0.07056,0.0705 -4.056986,0.88163 -8.854754,1.79885 l -8.748821,1.6583 -4.7625,-1.51722 c -6.244169,-1.97555 -6.279351,-2.25767 -0.42323,-4.1274 2.36361,-0.77611 4.656322,-1.41112 5.114933,-1.44642 z m -121.657172,5.56503 c 0.311393,-0.004 0.469534,0.11052 0.65474,0.3266 0.599721,0.77611 0.529204,2.15174 -0.141076,2.43396 -0.705561,0.24694 -5.432744,-0.56434 -5.432744,-0.9524 0,-0.17639 1.163927,-0.67038 2.575037,-1.16427 1.289839,-0.43656 1.943678,-0.63846 2.344043,-0.64389 z m 113.966687,0.0439 c 0.881938,0 4.939231,1.44673 4.939231,1.76423 0,0.38806 -4.727192,1.19934 -5.432743,0.9524 -0.564449,-0.21167 -0.811699,-2.01101 -0.317809,-2.46962 0.10583,-0.14112 0.493821,-0.24701 0.811321,-0.24701 z m 7.585064,2.61069 c 1.164172,0.10583 16.615801,4.93913 17.074412,5.36247 0.423338,0.38804 -0.882322,0.52879 -9.031492,1.02267 l -8.819099,0.56483 -4.480346,-2.04639 c -3.704172,-1.69334 -4.44501,-2.15168 -4.374411,-2.71611 0.10583,-0.59973 0.705318,-0.84657 4.162538,-1.48157 2.2225,-0.45861 4.69229,-0.7412 5.468398,-0.7059 z m -128.466058,0.0816 c 1.353096,0.0293 2.846131,0.31554 5.346444,0.76533 2.963331,0.52917 3.527539,0.74076 3.633369,1.34049 0.07056,0.56443 -0.740518,1.02277 -4.444689,2.71611 l -4.551143,2.04639 -8.43101,-0.56483 c -4.62139,-0.28222 -8.74899,-0.52917 -9.10177,-0.52917 -1.62278,0 0.38806,-0.84649 7.9375,-3.35121 5.490106,-1.80799 7.35614,-2.47203 9.611299,-2.42311 z m 120.012311,4.43384 c 0.489482,0.0353 1.25708,0.37055 2.632914,1.02319 1.940271,0.91722 2.18722,1.16396 1.5875,1.37563 -0.388059,0.17639 -1.693265,0.31781 -2.927985,0.31781 -2.469441,0.0353 -2.92853,-0.38822 -2.258261,-1.94045 0.264586,-0.54681 0.476353,-0.81146 0.965832,-0.77618 z m -112.290819,0.0532 c 0.635389,-0.0267 0.826513,0.42085 0.905888,1.39319 l 0.105937,1.30535 h -2.822567 c -1.763889,0 -2.857189,-0.14128 -2.857189,-0.35295 0,-0.21167 0.987366,-0.84619 2.222086,-1.44591 1.188421,-0.57106 1.951656,-0.87895 2.445845,-0.89968 z m -8.019665,3.40392 5.11545,0.21187 c 4.79778,0.17639 5.82091,0.42354 5.538679,1.27021 -0.03527,0.14111 -1.904897,1.41107 -4.127397,2.78691 l -4.057115,2.57504 -6.879167,0.42323 c -3.774719,0.24694 -7.867049,0.52926 -9.10177,0.6351 -1.41111,0.10583 -2.187266,0.0707 -2.116666,-0.17622 0.07056,-0.17639 3.59861,-2.01114 7.86722,-4.02197 z m 128.16427,0 7.972639,3.77496 c 4.374441,2.04611 7.902263,3.84534 7.796424,3.95118 -0.246941,0.24694 -4.092162,0.10556 -11.923821,-0.45888 l -6.102987,-0.42323 -4.127397,-2.57504 c -4.90361,-3.06917 -5.150795,-3.63368 -1.658295,-3.95118 1.27,-0.10583 3.598368,-0.21171 5.150588,-0.24701 z m -9.736357,3.13986 1.26969,0.81132 c 4.339169,2.5753 4.339233,2.92846 0.247013,2.54042 -2.39889,-0.21168 -2.645834,-0.31778 -2.645834,-0.98806 0,-0.42334 0.246806,-1.12903 0.564306,-1.55236 z m -108.902912,0.38809 c 0.67028,0 1.235065,0.81146 1.235065,1.83451 0,0.84666 -0.141523,0.98754 -0.952913,0.98754 -0.564449,0 -1.869657,0.10591 -2.927985,0.24701 -1.834441,0.21167 -1.904658,0.17649 -1.410769,-0.42322 0.282221,-0.35279 1.234342,-1.09334 2.081012,-1.65779 0.88194,-0.52917 1.763929,-0.98805 1.97559,-0.98805 z m 106.82552,3.56774 c 0.745241,-0.0309 2.165276,0.0833 4.934582,0.31264 2.293059,0.17639 4.515385,0.52937 4.938715,0.74104 0.423331,0.24696 3.951145,2.43428 7.796424,4.86844 4.7625,2.99862 6.773471,4.48003 6.314861,4.55063 -0.740831,0.10583 -15.063787,-2.53976 -16.757118,-3.10421 -1.552228,-0.49389 -8.254825,-6.10332 -8.113715,-6.80888 0.07055,-0.35278 0.141007,-0.52879 0.886251,-0.55966 z m -105.763569,0.0806 c 1.478356,-0.0215 2.113049,0.17032 2.113049,0.62011 0,0.67028 -6.349904,6.03257 -7.831564,6.59702 -1.12889,0.42333 -15.628226,3.24579 -16.757117,3.24579 -1.128879,0 -0.84646,-0.21179 7.09104,-5.25652 7.12611,-4.55083 7.231767,-4.58611 9.701217,-4.7625 1.375831,-0.14111 3.13993,-0.28245 3.91604,-0.35295 0.687917,-0.0529 1.274548,-0.0838 1.767335,-0.091 z m 1.619538,2.70164 c 0.529161,0 1.410671,1.44664 1.30483,2.18746 -0.07055,0.67029 -0.423262,0.88177 -1.869652,1.23455 -0.9525,0.21166 -2.222331,0.38793 -2.822051,0.42323 -1.058331,0 -1.023057,-0.0351 1.058333,-1.90479 1.16417,-1.05833 2.222701,-1.94045 2.32854,-1.94045 z m 103.83087,0.18965 c 0.194027,0.004 0.432358,0.16309 0.873331,0.48059 0.49389,0.38806 1.552432,1.23489 2.32854,1.94045 l 1.410769,1.23455 h -1.058333 c -0.564452,-0.0353 -1.939939,-0.21157 -2.998269,-0.42323 -1.76385,-0.38805 -1.940343,-0.49409 -1.834513,-1.2702 0.03528,-0.49389 0.352743,-1.16393 0.670243,-1.5167 0.264586,-0.29986 0.414205,-0.44987 0.608232,-0.44546 z m -2.776574,3.17087 c 0.12547,-0.0174 0.267787,0.0173 0.439766,0.0966 0.3175,0.17639 2.504451,0.70566 4.832781,1.16427 l 4.233334,0.81132 6.35,5.25653 c 7.408327,6.13833 7.408645,6.17334 7.196976,6.42028 -0.246941,0.21167 -16.545584,-5.04452 -17.251143,-5.60896 -0.28222,-0.21167 -1.940041,-1.83421 -3.633372,-3.63337 -2.822218,-2.89278 -3.104679,-3.28091 -2.716628,-3.95118 0.176387,-0.35278 0.339167,-0.52658 0.548286,-0.55552 z m -98.124242,0.1974 c 1.291262,0.0501 0.588597,1.25523 -2.718697,4.66173 l -3.59823,3.70417 -7.831563,2.50476 c -4.30389,1.37584 -8.078887,2.6108 -8.396387,2.71663 -1.51694,0.59972 0.03538,-0.98789 5.397603,-5.3976 8.00806,-6.6675 7.443506,-6.31476 12.064898,-7.26726 2.2225,-0.45861 4.410096,-0.88196 4.798155,-0.91726 0.10363,-0.007 0.198136,-0.009 0.284221,-0.005 z m 0.491442,2.79208 c 0.52917,0 1.48208,1.27017 1.48208,1.94045 0,0.81139 -0.458706,1.09326 -3.280937,1.93993 -2.2225,0.67028 -2.292982,0.24701 -0.282151,-1.86965 1.058328,-1.09362 1.975178,-2.01073 2.081008,-2.01073 z m 97.049372,0 c 0.246952,0 2.681002,2.50486 3.59823,3.66903 0.45861,0.635 0.423304,0.67018 -0.917255,0.42323 -1.763881,-0.3175 -4.409551,-1.48146 -4.409551,-1.9048 0,-0.17638 0.317701,-0.74103 0.74104,-1.2702 0.388051,-0.49388 0.846426,-0.91726 0.987536,-0.91726 z m -3.243212,3.21634 c 0.601168,0.0296 1.827625,0.43495 4.5837,1.40508 4.656669,1.5875 4.938823,1.72851 6.632154,3.59823 0.987779,1.05834 3.66885,3.9515 5.961909,6.38566 2.293049,2.46945 4.092289,4.55059 3.951179,4.6917 -0.211669,0.21166 -6.279309,-2.46934 -12.735139,-5.71489 l -3.527949,-1.76424 -2.892848,-3.84524 c -2.257769,-2.99861 -2.821985,-3.98608 -2.575036,-4.44469 0.105833,-0.21166 0.241329,-0.32938 0.60203,-0.31161 z m -90.677668,0.15296 c 1.361845,0.0186 0.496432,1.44643 -2.105298,4.88601 l -2.892845,3.84524 -7.725627,3.66851 c -4.268611,1.97555 -7.867048,3.63389 -8.043438,3.63389 -0.70555,0 0.105877,-0.98765 5.679757,-6.91431 l 5.926769,-6.35 4.198194,-1.41128 c 2.526768,-0.87312 4.14538,-1.36922 4.962488,-1.35806 z m 0.928626,2.62775 c 0.635,0 1.658295,1.12909 1.658295,1.79937 0,0.45861 -0.705943,1.02303 -2.152322,1.72858 -3.069169,1.55222 -3.351284,1.27007 -1.481563,-1.34049 0.881941,-1.19944 1.763929,-2.18746 1.97559,-2.18746 z m 88.758921,0 c 0.388062,0 2.081564,1.97573 2.998785,3.52795 l 0.635103,1.12913 -0.811837,-0.24701 c -1.799161,-0.56445 -4.550627,-2.08129 -4.550627,-2.5399 0,-0.24695 0.317333,-0.77621 0.705384,-1.16427 0.38806,-0.38806 0.846802,-0.7059 1.023192,-0.7059 z m -3.563088,2.46962 c 0.105838,0 2.152253,0.95249 4.551143,2.11667 l 4.338753,2.11666 2.927985,3.98632 c 5.89139,7.97278 7.373237,10.12462 7.232118,10.4774 -0.03527,0.17639 -3.422052,-1.76347 -7.514269,-4.33876 l -7.408334,-4.69222 -2.504757,-4.3744 c -1.834441,-3.175 -2.433886,-4.55094 -2.186948,-4.86844 0.211672,-0.21166 0.458478,-0.42323 0.564309,-0.42323 z m -81.679253,0.0336 c 0.151445,0.0207 0.390464,0.21349 0.575675,0.46043 0.3175,0.38805 -0.10587,1.41097 -1.975588,4.79765 l -2.398821,4.26847 -7.51427,4.79815 c -4.162779,2.61056 -7.619786,4.65627 -7.725626,4.58577 -0.10583,-0.10584 -0.03531,-0.42316 0.141076,-0.70538 0.881951,-1.44639 9.383886,-12.91185 10.054166,-13.58212 0.45861,-0.42334 2.575044,-1.62263 4.691705,-2.68097 2.151949,-1.05833 3.986416,-1.94045 4.092255,-1.94045 0.01765,-0.004 0.03779,-0.005 0.05943,-0.002 z m 1.351857,2.78846 c 0.705548,0 2.222669,1.58763 1.940449,2.08152 -0.35278,0.56445 -4.44527,2.96357 -4.692219,2.71663 -0.105831,-0.10583 0.353052,-1.23475 0.988052,-2.50475 0.705551,-1.34056 1.410938,-2.2934 1.763718,-2.2934 z m 79.01533,0.0522 c 0.407495,0.002 0.780827,0.37382 1.276924,1.14773 1.023051,1.62277 1.904764,3.73931 1.516705,3.73931 -0.635,0 -4.585769,-2.64611 -4.585769,-3.10472 0,-0.21167 0.317326,-0.74056 0.705385,-1.12861 0.432149,-0.43216 0.769816,-0.65498 1.086755,-0.65371 z m -75.250704,2.096 c 0.231098,0.003 0.451134,0.0924 0.71572,0.25114 0.352768,0.24694 0.211804,0.81115 -0.564306,2.57504 -0.564441,1.23472 -1.305529,3.13986 -1.658298,4.19819 -0.493889,1.51695 -1.12885,2.39882 -2.786909,3.98632 -3.845279,3.63362 -12.029863,10.12444 -12.135694,9.59528 -0.07056,-0.24695 0.917086,-2.25733 2.151806,-4.47983 1.27,-2.18722 2.857532,-5.15076 3.563091,-6.56187 1.622769,-3.21027 3.210616,-5.00923 5.997567,-6.66729 1.164159,-0.70555 2.645691,-1.65806 3.210139,-2.11667 0.705551,-0.55122 1.121723,-0.78548 1.506884,-0.78031 z m 71.340866,0.0341 c 0.582745,0.0513 1.76055,0.75923 4.622456,2.651 l 4.092257,2.71663 4.338754,7.86671 c 2.363608,4.33916 4.268883,7.97293 4.163052,8.04343 -0.17639,0.21167 -13.652394,-10.90107 -14.181563,-11.71246 -0.846659,-1.23472 -3.77476,-8.92522 -3.563091,-9.27798 0.121266,-0.19844 0.26325,-0.31067 0.528135,-0.28733 z m -69.5849,2.45825 c 0.279466,-0.002 0.613399,0.17932 1.07642,0.51005 1.199449,0.84666 0.917046,1.58781 -1.411282,3.49281 l -2.151809,1.72857 0.211357,-1.12913 c 0.141111,-0.635 0.564724,-1.94034 0.988055,-2.89284 0.507119,-1.19063 0.821484,-1.70567 1.287259,-1.70946 z m 68.207206,0.0429 c 0.04113,-0.003 0.07765,-4e-5 0.108519,0.009 0.49389,0.17637 2.540103,4.76243 2.222603,5.04465 -0.211658,0.24694 -3.951078,-2.43431 -4.374409,-3.13986 -0.10583,-0.21167 0.211363,-0.7408 0.740524,-1.19941 0.493893,-0.40129 1.014825,-0.69442 1.302763,-0.71417 z m -3.983736,1.31413 c 0.105839,0 0.987669,0.74056 2.010731,1.65778 0.987769,0.9525 2.540071,2.29323 3.422012,2.99879 1.023059,0.84667 1.975424,2.08156 2.680973,3.52795 1.55222,3.06916 6.06816,14.81646 5.856491,15.13396 -0.07055,0.14111 -0.917295,-0.56458 -1.834515,-1.55236 -0.9525,-1.02306 -3.562922,-3.8099 -5.855973,-6.24407 -2.293059,-2.43416 -4.339204,-4.79777 -4.621424,-5.29166 -0.246949,-0.49389 -0.952638,-2.7516 -1.552358,-5.04466 -0.881951,-3.24555 -1.022884,-4.30364 -0.705384,-4.6917 0.211669,-0.28222 0.493617,-0.49403 0.599447,-0.49403 z m -60.009256,0.36794 c 0.07745,0.005 0.147275,0.0244 0.213424,0.0553 0.388109,0.21166 0.564716,0.56462 0.458885,0.88212 -0.246941,0.56445 -2.328539,8.53701 -2.328539,8.78396 0,0.28222 -11.641876,12.665 -12.382707,13.15889 -0.70558,0.49389 -0.705421,0.49355 -0.03514,-1.23507 0.388059,-0.9525 1.834687,-4.65645 3.245795,-8.25479 1.41111,-3.59833 2.751457,-6.77354 2.963127,-7.09104 0.211671,-0.3175 1.97577,-1.90504 3.916039,-3.56309 2.500313,-2.1299 3.406992,-2.77389 3.949115,-2.73627 z m 2.000912,2.07843 c 0.349125,0.01 0.765635,0.2345 1.281575,0.65784 0.987769,0.81139 0.741003,1.34079 -1.763717,3.77496 l -1.834513,1.76372 0.211873,-1.30535 c 0.141111,-0.70555 0.458679,-2.08128 0.776179,-3.06906 0.352782,-1.25677 0.746726,-1.83831 1.328603,-1.82211 z m 55.909246,0.0181 c 0.54157,0.0517 0.855763,0.75466 1.252638,2.29805 0.917221,3.59835 0.811075,3.73945 -1.376143,1.5875 -1.05833,-1.05833 -1.939935,-2.11673 -1.939935,-2.36367 0,-0.21167 0.35284,-0.67018 0.776181,-0.9524 0.555623,-0.39688 0.962319,-0.60048 1.287259,-0.56948 z m -52.158055,1.06298 c 0.105831,0 0.388162,0.14156 0.635103,0.28267 0.35278,0.24695 0.352674,1.12864 -0.105936,4.6917 -0.3175,2.39889 -0.670351,4.69173 -0.77618,5.07979 -0.246951,0.81138 -9.771943,14.00569 -10.583333,14.71125 -0.493882,0.38805 -0.529341,0.35272 -0.352951,-0.24701 0.10583,-0.38805 1.128993,-4.33948 2.222603,-8.78448 l 2.046388,-8.11372 3.351215,-3.8101 c 1.86972,-2.08139 3.45726,-3.8101 3.563091,-3.8101 z m 47.977948,0 c 0.423331,0 6.667466,6.94975 7.020245,7.79642 0.423328,1.02306 4.268473,15.87496 4.268473,16.54524 0,0.84666 -0.987677,-0.31712 -5.714897,-6.84351 -2.575279,-3.4925 -4.868651,-7.02031 -5.080309,-7.79642 -0.70556,-2.29306 -1.446385,-8.96073 -1.058334,-9.34878 0.21167,-0.21167 0.458983,-0.35295 0.564822,-0.35295 z m -45.579127,2.11666 c 0.705559,0 2.187461,0.95282 2.187461,1.37615 0,0.45861 -2.893155,4.26847 -3.210655,4.26847 -0.282221,0 -0.176316,-1.65799 0.247012,-4.51549 0.105831,-0.77611 0.352851,-1.12913 0.776182,-1.12913 z m 43.2505866,0 c 0.7761214,0 0.8818044,0.17681 1.0934764,2.01125 0.105828,1.12889 0.317915,2.50461 0.423746,3.06906 0.246938,1.34055 -0.211916,1.02291 -2.1874644,-1.55236 l -1.622639,-2.08152 0.740523,-0.74053 c 0.388059,-0.38805 1.093748,-0.7059 1.552358,-0.7059 z m -4.20181,0.60617 c 0.28608,0.0182 0.577233,0.17021 0.709517,0.38189 0.211672,0.28222 1.51688,2.11683 2.927987,4.05711 1.3758314,1.97556 2.5398974,3.66862 2.5398974,3.77445 0,0.14111 0.458613,3.88059 1.058334,8.32559 1.164169,8.92527 1.199649,9.45441 0.741039,9.13691 -0.211669,-0.10583 -2.222944,-3.56299 -4.5160034,-7.69049 l -4.162536,-7.47913 -0.105937,-5.18573 c -0.105831,-4.7625 -0.07056,-5.18583 0.529167,-5.29166 0.08819,-0.0265 0.183176,-0.035 0.278535,-0.0289 z m -34.6144236,0.0434 c 0.110588,-0.003 0.215699,0.0319 0.328147,0.0915 0.59967,0.35278 0.670277,0.74073 0.529166,5.18573 l -0.105936,4.8333 -3.986321,7.3024 c -2.18722,3.98639 -4.233407,7.54944 -4.480346,7.9375 -0.458591,0.56444 -0.493511,0.52891 -0.493511,-0.59997 -0.03528,-2.50473 1.97521,-16.43909 2.469099,-17.28576 0.282221,-0.49388 1.587429,-2.43441 2.927988,-4.30413 1.748451,-2.43634 2.332501,-3.1491 2.811714,-3.16053 z m 32.0605746,1.5291 c 0.229304,0.009 0.352571,0.1498 0.581877,0.43202 0.49389,0.56445 0.388469,5.11541 -0.10542,5.25652 -0.35278,0.0706 -2.68148884,-3.88072 -2.68148884,-4.58628 0,-0.21167 0.4236028,-0.56413 0.98805184,-0.74052 0.652635,-0.24697 0.987677,-0.37055 1.21698,-0.36174 z m -29.4767516,0.11421 c 0.568851,0.0116 1.316503,0.256 1.7663,0.59996 0.352769,0.28222 0.175943,0.91719 -0.811837,2.78691 -0.705559,1.34056 -1.41111,2.43448 -1.5875,2.43448 -0.529169,0 -0.388093,-5.57417 0.141076,-5.75056 0.132294,-0.0529 0.302342,-0.0747 0.491961,-0.0708 z m 25.0387793,0.1204 c 0.5660311,0.0372 1.49241666,1.44522 3.0799163,4.46588 l 2.328024,4.41007 v 8.8191 c 0,5.04472 -0.140904,8.81961 -0.317293,8.81961 -0.17639,0 -1.799072,-3.66896 -3.59823064,-8.18451 l -3.24579706,-8.18451 0.4232301,-3.73931 c 0.2469488,-2.04611 0.5292725,-4.30382 0.6351032,-5.04465 0.1455234,-0.91282 0.355428,-1.384 0.6950471,-1.36168 z m -20.7325823,0.0563 c 0.529158,0 0.705519,0.67055 1.199409,4.69222 0.423331,3.31611 0.493953,5.04445 0.247012,5.89111 -0.564449,2.01084 -5.891519,15.20466 -6.314858,15.62799 -0.28222,0.28222 -0.388091,-2.18715 -0.388091,-8.74882 v -9.10177 l 1.270207,-2.32802 c 0.705551,-1.27 1.763583,-3.17514 2.328024,-4.1982 0.635,-1.12889 1.270235,-1.83451 1.658297,-1.83451 z m 13.738695,0.69091 c 0.5109766,0.0215 1.1661273,1.25843 2.2773799,4.14239 0.8819409,2.29305 1.6930264,4.48 1.7988571,4.83278 0.2116693,0.635 -1.7991666,17.8509 -2.1166666,18.1684 -0.070559,0.0705 -0.211463,0.0702 -0.3172937,-0.0357 -0.2469488,-0.24695 -4.4095507,-16.47465 -4.4095507,-17.21549 0,-0.77611 1.9753841,-9.03112 2.2928841,-9.525 0.1499288,-0.24694 0.3040644,-0.37458 0.4743899,-0.36742 z m -6.993371,0.14832 c 0.07883,-0.003 0.160403,-0.001 0.239778,0.008 0.423331,0.0706 0.881767,1.30524 1.763715,4.90357 l 1.199412,4.79764 -2.151808,8.39587 c -1.199449,4.62139 -2.293226,8.53729 -2.469616,8.71368 -0.17639,0.17639 -0.388046,-0.21132 -0.529167,-0.8816 -0.352768,-2.11666 -1.940448,-15.27531 -1.940448,-16.26309 0,-0.70556 2.751873,-8.39611 3.386873,-9.525 0.05292,-0.0794 0.264787,-0.1389 0.501261,-0.14882 z m -3.605982,0.25424 c 0.07055,0 0.423637,0.14128 0.846976,0.35295 0.846661,0.45861 0.740941,1.30521 -0.423231,3.98632 -0.917217,2.18722 -1.305654,1.83441 -1.623154,-1.44642 -0.211662,-2.25778 -0.175975,-2.50458 0.423746,-2.68097 0.388051,-0.10583 0.705064,-0.17657 0.775663,-0.21188 z m 14.7996134,0.17157 c 0.7094115,0.0314 1.146183,0.37548 1.146183,0.95756 0,1.37584 -0.7762531,5.18591 -1.023194,5.00952 -0.5291693,-0.28222 -2.2221534,-5.18618 -1.939933,-5.4684 0.1763898,-0.14111 0.6346164,-0.35273 1.0226781,-0.42323 0.291039,-0.0617 0.5577946,-0.0859 0.7942659,-0.0754 z m -7.9054614,0.54829 c 0.163711,-0.003 0.337793,0.004 0.514181,0.0212 1.199451,0.10583 1.305758,0.1765 1.199927,1.16427 -0.07056,0.56445 -0.352882,1.93993 -0.635103,2.99827 -0.564451,1.86972 -0.564584,1.90499 -1.023194,1.05833 -0.59972,-1.16417 -1.305422,-4.55053 -1.023194,-4.97386 0.07937,-0.15873 0.476253,-0.25828 0.967383,-0.2682 z" />
  </g>
</svg>
