<?xml version="1.0" encoding="UTF-8" standalone="no"?>
<svg
   xmlns:dc="http://purl.org/dc/elements/1.1/"
   xmlns:cc="http://creativecommons.org/ns#"
   xmlns:rdf="http://www.w3.org/1999/02/22-rdf-syntax-ns#"
   xmlns:svg="http://www.w3.org/2000/svg"
   xmlns="http://www.w3.org/2000/svg"
   xmlns:sodipodi="http://sodipodi.sourceforge.net/DTD/sodipodi-0.dtd"
   xmlns:inkscape="http://www.inkscape.org/namespaces/inkscape"
   width="423.20215mm"
   height="422.92346mm"
   viewBox="0 0 423.20214 422.92348"
   version="1.1"
   id="svg17736"
   inkscape:version="1.0 (4035a4fb49, 2020-05-01)"
   sodipodi:docname="ring-4.svg">
  <defs
     id="defs17730" />
  <sodipodi:namedview
     id="base"
     pagecolor="#ffffff"
     bordercolor="#666666"
     borderopacity="1.0"
     inkscape:pageopacity="0.0"
     inkscape:pageshadow="2"
     inkscape:zoom="0.24748737"
     inkscape:cx="-119.23396"
     inkscape:cy="1139.6559"
     inkscape:document-units="mm"
     inkscape:current-layer="layer1"
     inkscape:document-rotation="0"
     showgrid="false"
     inkscape:snap-global="false"
     inkscape:window-width="1920"
     inkscape:window-height="1044"
     inkscape:window-x="0"
     inkscape:window-y="36"
     inkscape:window-maximized="1" />
  <metadata
     id="metadata17733">
    <rdf:RDF>
      <cc:Work
         rdf:about="">
        <dc:format>image/svg+xml</dc:format>
        <dc:type
           rdf:resource="http://purl.org/dc/dcmitype/StillImage" />
        <dc:title />
      </cc:Work>
    </rdf:RDF>
  </metadata>
  <g
     inkscape:label="Layer 1"
     inkscape:groupmode="layer"
     id="layer1"
     transform="translate(-154.61168,254.86236)">
    <path
       id="path14379"
       d="m 362.12552,-254.67249 c -0.635,0.14111 -0.635,0.42333 -0.42333,4.62139 0.3175,6.06777 1.23472,18.27389 1.48166,19.86139 l 0.21167,1.34055 h 2.61055 c 1.79917,0 2.68112,-0.14111 2.78695,-0.45861 0.24694,-0.70556 1.23472,-13.6525 1.48167,-19.64972 l 0.21166,-5.57389 -1.02305,-0.17639 c -1.19945,-0.21167 -6.35,-0.21167 -7.33778,0.0353 z"
       style="stroke-width:0.0352777;fill:#9575cd;fill-opacity:1" />
    <path
       id="path14381"
       d="m 349.95468,-254.21388 c -1.44638,0.17639 -2.78694,0.45861 -2.96333,0.635 -0.35278,0.35278 2.92806,24.87083 3.35139,25.29417 0.14111,0.10583 1.44639,0.10583 2.89278,-0.0353 l 2.68111,-0.24695 -0.0706,-12.94694 -0.10583,-12.91167 -1.5875,-0.0353 c -0.88194,-0.0353 -2.75167,0.0706 -4.19806,0.24694 z"
       style="stroke-width:0.0352777;fill:#9575cd;fill-opacity:1" />
    <path
       id="path14383"
       d="m 356.93969,-254.46083 c -0.0706,0.0706 -0.10584,5.89139 -0.0353,12.87639 l 0.0705,12.73528 h 2.46945 c 1.34055,0 2.50472,-0.14111 2.64583,-0.3175 0.10583,-0.21167 -0.21167,-5.92667 -0.70555,-12.77055 -0.49389,-6.80862 -0.88195,-12.45306 -0.88195,-12.52362 0,-0.17638 -3.38667,-0.17638 -3.56305,0 z"
       style="stroke-width:0.0352777;fill:#9575cd;fill-opacity:1" />
    <path
       id="path14385"
       d="m 371.65052,-254.1786 c -0.3175,0.9525 -1.69333,21.37833 -1.55222,23.21277 l 0.10583,1.94028 2.57528,0.10584 2.54,0.10583 -0.0706,-12.80583 -0.10583,-12.80584 -1.69333,-0.10583 c -1.12889,-0.0706 -1.69334,0.0353 -1.79917,0.35278 z"
       style="stroke-width:0.0352777;fill:#9575cd;fill-opacity:1" />
    <path
       id="path14387"
       d="m 376.27191,-254.35499 c -0.14111,0.10583 -0.24695,5.92666 -0.24695,12.87639 0,9.80722 0.10584,12.7 0.45861,12.80583 0.21167,0.10583 1.55223,0.21167 2.89278,0.28222 l 2.46945,0.0706 1.79916,-12.52361 c 0.98778,-6.87917 1.69334,-12.66472 1.55223,-12.80583 -0.14112,-0.17639 -1.83445,-0.45861 -3.73945,-0.59973 -4.30389,-0.38805 -4.90361,-0.42333 -5.18583,-0.10583 z"
       style="stroke-width:0.0352777;fill:#9575cd;fill-opacity:1" />
    <path
       id="path14389"
       d="m 342.96968,-253.5436 c -0.45861,0.17639 -0.81138,0.59972 -0.81138,0.9525 0,0.35277 0.38805,5.85611 0.88194,12.27666 0.49389,6.38528 0.88194,11.85334 0.88194,12.13556 0,0.38806 0.49389,0.45861 2.32834,0.28222 1.27,-0.0706 2.46944,-0.3175 2.64583,-0.49389 0.45861,-0.45861 -2.71639,-24.09472 -3.38667,-25.15305 -0.24694,-0.42334 -1.48166,-0.42334 -2.54,0 z"
       style="stroke-width:0.0352777;fill:#9575cd;fill-opacity:1" />
    <path
       id="path14391"
       d="m 386.25552,-253.47305 c -0.0353,0.24695 -0.81139,5.85611 -1.72861,12.41778 -0.9525,6.59694 -1.65806,12.17083 -1.55222,12.3825 0.14111,0.45861 1.97555,0.88195 3.84527,0.88195 1.09361,0 1.12889,-0.0706 1.34056,-1.86973 0.3175,-2.71639 1.19944,-14.21694 1.48167,-19.33222 l 0.24694,-4.445 -0.84667,-0.21167 c -1.37583,-0.38805 -2.78694,-0.28222 -2.78694,0.17639 z"
       style="stroke-width:0.0352777;fill:#9575cd;fill-opacity:1" />
    <path
       id="path14393"
       d="m 336.05524,-252.66166 c -3.4925,0.59972 -3.77472,0.70556 -3.77472,1.5875 0,0.91722 4.55083,22.43667 4.97417,23.60084 0.3175,0.77611 0.42333,0.81138 2.71638,0.56444 1.30528,-0.14111 2.54,-0.35278 2.71639,-0.45861 0.28222,-0.17639 0.14111,-3.98639 -0.42333,-12.24139 -0.45861,-6.59695 -0.91722,-12.34722 -0.98778,-12.80583 -0.21167,-0.91723 -0.98778,-0.9525 -5.22111,-0.24695 z"
       style="stroke-width:0.0352777;fill:#9575cd;fill-opacity:1" />
    <path
       id="path14395"
       d="m 390.70052,-251.35638 c -0.42333,3.77472 -1.69333,23.60083 -1.51695,23.77722 0.3175,0.3175 5.15056,0.98778 5.3975,0.74084 0.42334,-0.42334 5.43278,-24.72973 5.18584,-24.97667 -0.35278,-0.35278 -6.13834,-1.37584 -7.69056,-1.37584 -1.12889,0 -1.16416,0.0353 -1.37583,1.83445 z"
       style="stroke-width:0.0352777;fill:#9575cd;fill-opacity:1" />
    <path
       id="path14397"
       d="m 328.22357,-251.28583 c -0.635,0.45862 -0.59972,0.84667 1.05834,12.59417 0.91722,6.6675 1.76389,12.34722 1.86972,12.59417 0.10583,0.35278 0.56444,0.42333 1.62278,0.24694 2.64583,-0.42333 3.77472,-0.88194 3.59833,-1.51694 -0.10583,-0.35278 -1.05833,-4.72722 -2.11667,-9.77195 -3.38666,-16.05139 -2.96333,-14.64027 -4.26861,-14.64027 -0.59972,0 -1.41111,0.21166 -1.76389,0.49388 z"
       style="stroke-width:0.0352777;fill:#9575cd;fill-opacity:1" />
    <path
       id="path14399"
       d="m 400.8958,-251.35638 c -0.28223,0.70555 -5.11528,23.56556 -5.11528,24.09472 0,0.84667 4.58611,1.69334 5.04472,0.9525 0.21167,-0.3175 1.79917,-10.44222 2.89278,-18.415 0.81139,-5.75028 0.81139,-6.20889 0.28222,-6.63222 -0.3175,-0.21167 -1.12889,-0.42333 -1.76389,-0.42333 -0.67028,0 -1.27,0.21166 -1.34055,0.42333 z"
       style="stroke-width:0.0352777;fill:#9575cd;fill-opacity:1" />
    <path
       id="path14401"
       d="m 405.19969,-249.76888 c -0.91723,5.75028 -3.06917,21.9075 -3.06917,23.03639 0,1.30528 0.0706,1.41111 1.34055,1.72861 0.70556,0.17639 1.905,0.42333 2.61056,0.52917 l 1.30528,0.24694 0.88194,-2.92805 c 2.25778,-7.44362 6.24417,-21.87223 6.13834,-22.01334 -0.17639,-0.17639 -7.97278,-1.905 -8.5725,-1.905 -0.24695,0 -0.52917,0.59972 -0.635,1.30528 z"
       style="stroke-width:0.0352777;fill:#9575cd;fill-opacity:1" />
    <path
       id="path14403"
       d="m 320.99163,-249.90999 c -2.11667,0.52916 -3.03389,0.9525 -3.10444,1.34055 -0.10584,0.52917 6.45583,23.91834 6.80861,24.23584 0.21166,0.21166 4.51555,-0.635 5.11527,-0.98778 0.38806,-0.24694 0.38806,-0.81139 0.0353,-3.24556 -0.21166,-1.5875 -0.9525,-6.91444 -1.62278,-11.7475 -1.5875,-11.32416 -1.30527,-10.40694 -2.92805,-10.37166 -0.70556,0 -2.64583,0.35277 -4.30389,0.77611 z"
       style="stroke-width:0.0352777;fill:#9575cd;fill-opacity:1" />
    <path
       id="path14405"
       d="m 315.06496,-248.60471 c -0.67027,0.17638 -1.34055,0.42333 -1.55222,0.635 -0.38805,0.38805 4.69195,25.11777 5.18583,25.11777 0.52917,0 3.98639,-0.84666 4.445,-1.09361 0.52917,-0.24694 0.17639,-1.69333 -2.8575,-12.34722 -1.905,-6.59694 -3.59833,-12.13556 -3.73944,-12.27667 -0.17639,-0.17639 -0.84667,-0.17639 -1.48167,-0.0353 z"
       style="stroke-width:0.0352777;fill:#9575cd;fill-opacity:1" />
    <path
       id="path14407"
       d="m 414.8658,-246.77027 c -2.68111,8.32556 -6.49111,22.18972 -6.13834,22.5425 0.45861,0.45861 4.445,1.41111 4.7625,1.09361 0.28223,-0.28222 5.22111,-23.1775 5.22111,-24.30639 0,-0.52916 -0.3175,-0.84666 -1.09361,-1.12889 -1.79916,-0.635 -1.97555,-0.49389 -2.75166,1.79917 z"
       style="stroke-width:0.0352777;fill:#9575cd;fill-opacity:1" />
    <path
       id="path14409"
       d="m 310.58469,-247.36999 c -0.17639,0.0353 -1.69334,0.52916 -3.35139,1.02305 -1.65806,0.49389 -3.21028,1.02306 -3.42195,1.19945 -0.35277,0.21166 0.49389,2.8575 3.24556,10.51278 4.7625,13.12333 5.11528,13.97 5.60916,13.79361 0.24695,-0.10584 1.41112,-0.45861 2.61056,-0.77611 1.62278,-0.45861 2.18722,-0.77611 2.18722,-1.23473 0,-0.59972 -2.64583,-13.47611 -4.33916,-20.99027 -0.635,-2.96334 -0.88195,-3.52778 -1.48167,-3.59834 -0.38806,-0.0353 -0.84667,0 -1.05833,0.0705 z"
       style="stroke-width:0.0352777;fill:#9575cd;fill-opacity:1" />
    <path
       id="path14411"
       d="m 419.6283,-246.98194 c -0.1411,0.56445 -1.72861,7.90223 -4.09223,19.01473 -1.23472,5.78555 -1.19944,5.32694 -0.10583,5.75027 1.37583,0.56445 4.33916,1.23473 4.51556,1.05834 0.24693,-0.21167 8.64306,-23.42445 8.64306,-23.8125 0,-0.42334 -5.00946,-2.08139 -7.26723,-2.43417 -1.23473,-0.17639 -1.51693,-0.10583 -1.69333,0.42333 z"
       style="stroke-width:0.0352777;fill:#9575cd;fill-opacity:1" />
    <path
       id="path14413"
       d="m 429.36496,-244.30083 c -5.29166,14.42862 -8.18443,22.54251 -8.18443,23.00112 0,0.59972 1.7286,1.44639 3.66887,1.83444 0.9878,0.17639 1.23473,0.0706 1.41113,-0.45861 1.37583,-4.445 6.56167,-23.00111 6.56167,-23.495 0,-0.56445 -0.45863,-0.84667 -2.36363,-1.44639 -0.635,-0.21167 -0.88194,-0.10583 -1.09361,0.56444 z"
       style="stroke-width:0.0352777;fill:#9575cd;fill-opacity:1" />
    <path
       id="path14415"
       d="m 300.31885,-244.37138 c -0.42333,0.17639 -0.88194,0.45861 -0.98777,0.67028 -0.21167,0.35277 5.64444,21.59 6.52638,23.63611 0.28223,0.70555 0.52917,0.81139 1.48167,0.635 0.635,-0.10583 1.76389,-0.42333 2.50472,-0.74083 1.12889,-0.45862 1.27,-0.67028 1.09361,-1.34056 -0.42333,-1.41111 -6.10305,-16.89806 -7.3025,-20.03778 -1.23472,-3.13972 -1.69333,-3.52778 -3.31611,-2.82222 z"
       style="stroke-width:0.0352777;fill:#9575cd;fill-opacity:1" />
    <path
       id="path14417"
       d="m 295.76802,-242.7486 c -4.48028,1.62277 -6.17361,2.36361 -6.17361,2.68111 0,0.52916 9.8425,22.57778 10.26583,23.00111 0.35278,0.38806 3.63361,-0.52917 4.65667,-1.27 0.59972,-0.42333 0.52917,-0.74083 -0.635,-5.25639 -1.37583,-5.43278 -4.93889,-17.74472 -5.46806,-18.94417 -0.38805,-0.88194 -0.70555,-0.91722 -2.64583,-0.21166 z"
       style="stroke-width:0.0352777;fill:#9575cd;fill-opacity:1" />
    <path
       id="path14419"
       d="m 433.38663,-241.65499 c -0.67027,2.08139 -6.56167,22.5425 -6.56167,22.78944 0,0.10584 1.1289,0.635 2.46944,1.16417 2.15196,0.84667 2.5753,0.88194 2.96333,0.45861 0.3175,-0.35278 8.7489,-18.90889 10.37167,-22.89528 0.0353,-0.14111 -0.35277,-0.42333 -0.88194,-0.67028 -1.37583,-0.67027 -6.84389,-2.50472 -7.37306,-2.50472 -0.24694,0 -0.67027,0.74084 -0.98777,1.65806 z"
       style="stroke-width:0.0352777;fill:#9575cd;fill-opacity:1" />
    <path
       id="path14421"
       d="m 441.92386,-236.32805 c -2.18723,4.69195 -5.5739,12.27667 -7.33779,16.54528 l -1.34054,3.21028 2.08137,0.9525 c 1.16417,0.52917 2.32833,0.88194 2.5753,0.77611 0.52916,-0.21167 8.78416,-22.86 8.60776,-23.70667 -0.0353,-0.35278 -0.70556,-0.84666 -1.44639,-1.09361 l -1.37584,-0.45861 z"
       style="stroke-width:0.0352777;fill:#9575cd;fill-opacity:1" />
    <path
       id="path14423"
       d="m 286.52524,-239.2561 c -0.635,0.28222 -1.16416,0.67027 -1.16416,0.88194 0,0.21167 1.5875,4.69195 3.4925,9.98361 5.29166,14.56973 4.90361,13.6525 5.78555,13.6525 1.05833,-0.0353 3.73945,-1.27 3.95111,-1.83444 0.28222,-0.70556 -9.77194,-23.00111 -10.40694,-23.10695 -0.28222,-0.0353 -1.05834,0.14111 -1.65806,0.42334 z"
       style="stroke-width:0.0352777;fill:#9575cd;fill-opacity:1" />
    <path
       id="path14425"
       d="m 279.71663,-236.22221 c -2.01083,0.9525 -3.70417,1.79916 -3.77472,1.86972 -0.0706,0.0706 11.71222,22.36611 11.99444,22.68361 0.24695,0.21167 5.18584,-2.04611 5.18584,-2.36361 0,-0.38806 -8.07861,-22.5425 -8.50195,-23.35389 -0.17639,-0.35278 -0.52916,-0.635 -0.77611,-0.635 -0.24694,0 -2.08139,0.81139 -4.1275,1.79917 z"
       style="stroke-width:0.0352777;fill:#9575cd;fill-opacity:1" />
    <path
       id="path14427"
       d="m 447.53303,-237.80971 c -0.21167,0.42333 -8.32557,22.78944 -8.4314,23.38916 -0.0706,0.28223 0.8114,0.88195 2.29307,1.55223 2.0461,0.91722 2.46943,0.98777 2.8575,0.56444 0.56443,-0.56444 11.85333,-21.69583 11.85333,-22.15445 0,-0.35277 -5.8914,-3.13972 -7.26723,-3.42194 -0.59973,-0.10583 -1.19944,-0.0705 -1.30527,0.0706 z"
       style="stroke-width:0.0352777;fill:#9575cd;fill-opacity:1" />
    <path
       id="path14429"
       d="m 273.29608,-233.39999 c -0.74084,0.38805 -1.34056,0.88194 -1.34056,1.09361 0,0.49389 9.8425,22.57778 10.23056,23.00111 0.21166,0.17639 1.27,-0.14111 2.61055,-0.81139 l 2.32833,-1.12889 -0.84666,-1.65805 c -2.99861,-5.89139 -10.86556,-20.42584 -11.25361,-20.77861 -0.3175,-0.3175 -0.70556,-0.24695 -1.72861,0.28222 z"
       style="stroke-width:0.0352777;fill:#9575cd;fill-opacity:1" />
    <path
       id="path14431"
       d="m 456.66996,-233.36471 c -0.84666,1.34055 -11.07723,20.67277 -11.28889,21.37833 -0.17637,0.52917 0.21166,0.84667 1.86973,1.62278 1.1289,0.56444 2.25777,0.9525 2.46943,0.88194 0.3175,-0.10583 10.61863,-22.57778 10.61863,-23.10694 0,-0.17639 -1.69333,-1.12889 -2.36363,-1.34056 -0.56443,-0.17639 -0.9172,-0.0353 -1.30527,0.56445 z"
       style="stroke-width:0.0352777;fill:#9575cd;fill-opacity:1" />
    <path
       id="path14433"
       d="m 268.78052,-231.07166 c -0.88194,0.49389 -2.57528,1.44639 -3.81,2.11667 -2.04611,1.12889 -2.15194,1.27 -1.79917,1.97555 1.34056,2.54 13.12334,21.06083 13.40556,21.06083 0.45861,0 4.445,-2.0461 4.69194,-2.39888 0.21167,-0.38806 -10.08944,-23.45972 -10.54805,-23.56556 -0.17639,-0.0353 -1.05833,0.3175 -1.94028,0.81139 z"
       style="stroke-width:0.0352777;fill:#9575cd;fill-opacity:1" />
    <path
       id="path14435"
       d="m 460.37413,-230.3661 c -2.46943,5.08 -9.56027,21.44889 -9.45443,21.76639 0.10583,0.21166 1.16416,0.91722 2.39887,1.55222 1.76389,0.91722 2.29306,1.05833 2.61056,0.70555 0.67027,-0.74083 13.22917,-20.99027 13.22917,-21.34305 0,-0.45861 -6.8439,-4.33917 -7.69057,-4.33917 -0.1411,0 -0.635,0.74083 -1.0936,1.65806 z"
       style="stroke-width:0.0352777;fill:#9575cd;fill-opacity:1" />
    <path
       id="path16767"
       d="m 469.0172,-225.6036 c -0.635,1.02305 -3.6689,5.89139 -6.7028,10.795 -6.20887,9.94833 -6.0325,9.31333 -2.92804,10.90083 1.69334,0.84666 1.79917,0.84666 2.15194,0.24694 2.32833,-3.88055 11.50056,-21.34305 11.50056,-21.94277 0,-0.21167 -0.635,-0.74084 -1.41113,-1.12889 l -1.4111,-0.70556 z"
       style="stroke-width:0.0352777;fill:#9575cd;fill-opacity:1" />
    <path
       id="path16769"
       d="m 260.06691,-226.34444 c -0.635,0.42334 -1.16417,0.84667 -1.16417,0.9525 0,0.28223 6.63223,12.84112 9.73667,18.48556 l 2.29305,4.16277 1.65806,-0.84666 c 3.42194,-1.76389 3.81,-0.52917 -3.73944,-12.59417 -3.66889,-5.89138 -6.91445,-10.75972 -7.16139,-10.795 -0.28222,-0.0705 -1.02306,0.21167 -1.62278,0.635 z"
       style="stroke-width:0.0352777;fill:#9575cd;fill-opacity:1" />
    <path
       id="path16771"
       d="m 473.53273,-224.15721 c -0.3175,0.59972 -3.03387,5.715 -6.0325,11.32416 -5.29166,9.91305 -5.3975,10.19528 -4.79777,10.86555 0.9525,1.05834 3.56307,2.50473 4.1275,2.29306 0.52917,-0.21167 14.7814,-19.72027 14.95777,-20.46111 0.0353,-0.21166 -0.35277,-0.67027 -0.88193,-0.98777 -0.56444,-0.28223 -2.29307,-1.37584 -3.88057,-2.36362 l -2.92803,-1.83444 z"
       style="stroke-width:0.0352777;fill:#9575cd;fill-opacity:1" />
    <path
       id="path16773"
       d="m 254.14024,-222.67555 c -1.94027,1.23473 -3.56305,2.39889 -3.63361,2.61056 -0.17639,0.56444 14.42861,20.84916 15.02834,20.84916 0.52916,0 4.30388,-2.54 4.30388,-2.89278 0,-0.77611 -10.16,-20.07305 -11.64166,-22.08388 -0.52917,-0.70556 -0.59972,-0.67028 -4.05695,1.51694 z"
       style="stroke-width:0.0352777;fill:#9575cd;fill-opacity:1" />
    <path
       id="path16775"
       d="m 475.40246,-209.65805 c -3.98639,5.50333 -7.33776,10.23055 -7.37306,10.4775 -0.10583,0.38805 3.38667,3.13972 3.9864,3.13972 0.24693,0 13.72306,-21.34305 13.72306,-21.73111 0,-0.17638 -2.57529,-1.905 -2.8575,-1.905 -0.10583,0 -3.45723,4.51556 -7.4789,10.01889 z"
       style="stroke-width:0.0352777;fill:#9575cd;fill-opacity:1" />
    <path
       id="path16777"
       d="m 247.5433,-218.3011 -1.12889,1.02305 6.6675,10.61861 c 3.63361,5.85611 6.73806,10.72444 6.87917,10.795 0.10583,0.0706 1.19944,-0.49389 2.39889,-1.30528 l 2.18722,-1.41111 -1.34056,-1.86972 c -7.54944,-10.61861 -13.72305,-18.87361 -14.07583,-18.87361 -0.24695,0 -0.9525,0.45861 -1.5875,1.02306 z"
       style="stroke-width:0.0352777;fill:#9575cd;fill-opacity:1" />
    <path
       id="path16779"
       d="m 479.7769,-206.44777 c -3.70417,5.92666 -6.73804,10.90083 -6.73804,11.1125 0,0.17639 0.88194,0.98777 1.97554,1.83444 1.55223,1.16417 2.0814,1.41111 2.54,1.09361 1.09363,-0.67028 16.29833,-18.83833 16.29833,-19.43805 0,-0.21167 -5.6797,-4.40972 -6.9497,-5.11528 -0.24696,-0.17639 -2.78696,3.52778 -7.12613,10.51278 z"
       style="stroke-width:0.0352777;fill:#9575cd;fill-opacity:1" />
    <path
       id="path16781"
       d="m 241.65191,-214.20888 c -3.21028,2.39889 -3.56306,2.75167 -3.13972,3.28083 2.43416,3.06917 15.59278,18.66194 15.94555,18.90889 0.49389,0.3175 2.96334,-1.16417 4.16278,-2.50472 0.59972,-0.67028 0.38806,-1.05834 -6.06778,-11.43 -3.70416,-5.89139 -6.84389,-10.75972 -6.985,-10.83028 -0.17639,-0.0353 -1.94027,1.12889 -3.91583,2.57528 z"
       style="stroke-width:0.0352777;fill:#9575cd;fill-opacity:1" />
    <path
       id="path16783"
       d="m 236.14858,-210.15194 c -0.56445,0.35278 -1.12889,0.88195 -1.27,1.16417 -0.21167,0.35278 1.905,3.56305 6.985,10.51277 3.98639,5.50334 7.37305,10.16 7.54944,10.33639 0.3175,0.35278 4.19806,-2.43416 4.19806,-3.03389 0,-0.35277 -14.95778,-18.41499 -15.94556,-19.22638 -0.38805,-0.3175 -0.70555,-0.28222 -1.51694,0.24694 z"
       style="stroke-width:0.0352777;fill:#9575cd;fill-opacity:1" />
    <path
       id="path16785"
       d="m 492.86496,-208.84666 c -4.55083,5.29166 -13.93473,16.54528 -14.07583,16.96861 -0.10583,0.24694 0.1764,0.84667 0.635,1.34055 0.88194,0.9525 3.10444,2.43417 3.28083,2.2225 1.09361,-1.19944 14.67557,-20.31999 14.67557,-20.63749 0,-0.52917 -1.65807,-1.905 -2.32833,-1.905 -0.24697,0 -1.23474,0.91722 -2.18724,2.01083 z"
       style="stroke-width:0.0352777;fill:#9575cd;fill-opacity:1" />
    <path
       id="path16787"
       d="m 230.36302,-205.38944 c -1.76389,1.48167 -3.28083,2.8575 -3.42194,3.03389 -0.10584,0.21167 1.19944,1.83444 2.89278,3.59833 1.72861,1.79917 5.71499,5.89139 8.85472,9.13695 3.13972,3.28083 5.85611,5.92666 6.0325,5.92666 0.21166,0 1.23472,-0.74083 2.32833,-1.65805 1.94028,-1.65806 1.97556,-1.65806 1.37583,-2.57528 -1.27,-1.94028 -14.25222,-19.72027 -14.56972,-19.93194 -0.17639,-0.10583 -1.72861,1.02305 -3.4925,2.46944 z"
       style="stroke-width:0.0352777;fill:#9575cd;fill-opacity:1" />
    <path
       id="path16789"
       d="m 496.21636,-205.49527 c -1.02306,1.41111 -4.37446,6.06777 -7.4789,10.30111 l -5.60916,7.76111 1.905,1.69333 c 1.05833,0.91722 2.0814,1.69334 2.32833,1.69334 0.24694,0 4.40973,-4.09223 9.27807,-9.06639 l 8.81943,-9.10167 -1.1289,-1.16417 c -1.51693,-1.5875 -5.3622,-4.65666 -5.8561,-4.65666 -0.1764,0 -1.19943,1.16417 -2.25777,2.54 z"
       style="stroke-width:0.0352777;fill:#9575cd;fill-opacity:1" />
    <path
       id="path16791"
       d="m 498.61523,-194.03 c -4.05693,4.19806 -8.04333,8.32556 -8.78416,9.17223 l -1.37584,1.55222 1.37584,1.41111 c 2.43416,2.50472 2.11666,2.61056 6.59696,-2.57528 5.64443,-6.59694 12.24137,-14.74611 12.24137,-15.09889 0,-0.3175 -2.0461,-2.11666 -2.3989,-2.11666 -0.1411,0 -3.56304,3.45722 -7.65527,7.65527 z"
       style="stroke-width:0.0352777;fill:#9575cd;fill-opacity:1" />
    <path
       id="path16793"
       d="m 224.3658,-200.23888 -1.09361,1.09361 0.77611,0.98777 c 2.89278,3.63362 15.34583,18.34445 15.66333,18.48556 0.24695,0.0706 1.27,-0.59972 2.29306,-1.55222 l 1.905,-1.69334 -2.82222,-2.92805 c -11.57111,-12.065 -14.95778,-15.48695 -15.27528,-15.48695 -0.21167,0 -0.84667,0.49389 -1.44639,1.09362 z"
       style="stroke-width:0.0352777;fill:#9575cd;fill-opacity:1" />
    <path
       id="path16795"
       d="m 501.40217,-189.12638 c -4.44497,5.29166 -8.14914,9.8425 -8.21971,10.05416 -0.1411,0.49389 3.13974,3.84528 3.77474,3.84528 0.42333,0 18.16803,-15.69861 18.94414,-16.75694 0.38806,-0.59973 -0.0353,-1.09362 -3.73944,-4.40973 l -2.64583,-2.43416 z"
       style="stroke-width:0.0352777;fill:#9575cd;fill-opacity:1" />
    <path
       id="path16797"
       d="m 219.14469,-195.19416 -3.10445,3.03389 2.99862,2.92805 c 4.30388,4.1275 15.80444,14.35806 16.15722,14.35806 0.42333,0 3.95111,-3.38667 3.95111,-3.77472 -0.0353,-0.42334 -15.98083,-19.26167 -16.47472,-19.43806 -0.24695,-0.0706 -1.83445,1.23472 -3.52778,2.89278 z"
       style="stroke-width:0.0352777;fill:#9575cd;fill-opacity:1" />
    <path
       id="path16799"
       d="m 507.43467,-183.16444 c -5.04471,4.55083 -9.20747,8.50194 -9.27804,8.74889 -0.0353,0.28222 0.70557,1.23472 1.69333,2.15194 l 1.79917,1.69334 6.06777,-6.27945 c 3.3161,-3.4925 7.3025,-7.58472 8.78417,-9.17222 1.51693,-1.55222 2.75166,-2.99861 2.75166,-3.175 0,-0.45861 -1.86973,-2.25778 -2.32833,-2.25778 -0.1764,0 -4.445,3.73945 -9.48973,8.29028 z"
       style="stroke-width:0.0352777;fill:#9575cd;fill-opacity:1" />
    <path
       id="path16801"
       d="m 213.95886,-190.00833 c -0.49389,0.59972 -0.91723,1.19945 -0.91723,1.37583 0,0.17639 3.98639,4.37445 8.89,9.34862 l 8.89,9.06638 1.69334,-1.76389 c 0.91722,-0.98777 1.69333,-1.905 1.69333,-2.08138 0,-0.38806 -18.59139,-17.03917 -19.01472,-17.03917 -0.17639,0 -0.74084,0.49389 -1.23472,1.09361 z"
       style="stroke-width:0.0352777;fill:#9575cd;fill-opacity:1" />
    <path
       id="path16803"
       d="m 511.13884,-179.24861 c -4.7625,4.93889 -8.67834,9.2075 -8.74888,9.41917 -0.0353,0.24694 0.67027,1.30528 1.62277,2.36361 l 1.72861,1.94028 4.72723,-3.56306 c 8.04333,-6.10305 15.48693,-12.13555 15.48693,-12.59416 0,-0.45861 -5.5386,-6.59695 -5.92666,-6.59695 -0.14111,0.0353 -4.1275,4.09222 -8.89,9.03111 z"
       style="stroke-width:0.0352777;fill:#9575cd;fill-opacity:1" />
    <path
       id="path16805"
       d="m 209.23163,-184.89305 c -1.65805,1.76389 -2.8575,3.38667 -2.82222,3.70417 0.10583,0.56444 18.94417,15.55749 19.82611,15.76916 0.21167,0.0353 1.16417,-0.77611 2.11667,-1.86972 1.5875,-1.86972 1.65805,-2.01083 1.16417,-2.75167 -0.3175,-0.42333 -4.33917,-4.65666 -8.96056,-9.38389 l -8.39611,-8.60777 z"
       style="stroke-width:0.0352777;fill:#9575cd;fill-opacity:1" />
    <path
       id="path16807"
       d="m 516.7833,-172.93389 c -5.32696,4.19806 -9.73667,7.83167 -9.80723,8.07862 -0.10584,0.49388 2.61056,3.73944 3.13973,3.73944 0.35277,0 11.28887,-9.66611 15.98083,-14.14639 l 3.13971,-2.96333 -0.98777,-1.16417 c -0.52917,-0.59972 -1.1289,-1.12889 -1.34057,-1.12889 -0.24693,0 -4.79777,3.42195 -10.1247,7.58472 z"
       style="stroke-width:0.0352777;fill:#9575cd;fill-opacity:1" />
    <path
       id="path16809"
       d="m 204.0458,-179.07222 c -0.49389,0.59972 -0.84667,1.27 -0.81139,1.44639 0.0706,0.17639 4.30389,4.09222 9.45445,8.74889 l 9.34861,8.39611 0.98777,-0.91722 c 0.56445,-0.52917 1.34056,-1.48167 1.72862,-2.15195 0.67027,-1.02305 0.67027,-1.23472 0.24694,-1.5875 -0.3175,-0.21166 -4.7625,-3.66889 -9.91306,-7.72583 -5.15055,-4.02167 -9.525,-7.3025 -9.73666,-7.3025 -0.21167,0 -0.77611,0.49389 -1.30528,1.09361 z"
       style="stroke-width:0.0352777;fill:#9575cd;fill-opacity:1" />
    <path
       id="path16811"
       d="m 520.13467,-168.70055 c -5.04471,4.58611 -9.2075,8.50194 -9.27804,8.74889 -0.14113,0.67027 3.06917,4.55083 3.56304,4.26861 1.62279,-0.98778 20.70806,-14.00528 20.88446,-14.25222 0.24694,-0.42334 -5.00946,-7.05556 -5.5739,-7.05556 -0.24693,0.0353 -4.55083,3.73944 -9.59556,8.29028 z"
       style="stroke-width:0.0352777;fill:#9575cd;fill-opacity:1" />
    <path
       id="path16813"
       d="m 201.5058,-175.86194 c -1.76389,1.97555 -4.65667,6.0325 -4.48028,6.31472 0.14111,0.24695 16.68639,11.53583 20.32,13.86417 l 0.91722,0.59972 1.65806,-2.15194 1.65806,-2.15195 -0.98778,-1.09361 c -2.32834,-2.43417 -17.70945,-16.15722 -18.13278,-16.15722 -0.14111,0 -0.56444,0.35278 -0.9525,0.77611 z"
       style="stroke-width:0.0352777;fill:#9575cd;fill-opacity:1" />
    <path
       id="path16815"
       d="m 528.91884,-164.43194 c -7.86694,5.25639 -13.40554,9.17222 -13.72304,9.66611 -0.21167,0.35278 1.48166,3.03389 2.39887,3.81 0.42333,0.35278 2.18723,-0.88194 9.80723,-6.84389 5.11527,-3.98639 9.6661,-7.62 10.08944,-8.00805 l 0.77612,-0.77612 -0.88196,-1.16416 c -0.49387,-0.59972 -1.0936,-1.12889 -1.34054,-1.12889 -0.24696,0 -3.45723,2.01083 -7.12612,4.445 z"
       style="stroke-width:0.0352777;fill:#9575cd;fill-opacity:1" />
    <path
       id="path16817"
       d="m 194.90886,-167.39527 c -0.635,0.84666 -0.77611,1.27 -0.49389,1.5875 0.38805,0.49388 19.26166,15.38111 19.72027,15.5575 0.3175,0.14111 3.13973,-3.52778 3.13973,-4.05695 0,-0.21167 -3.59834,-2.82222 -8.00806,-5.78555 -11.21833,-7.54945 -12.55889,-8.43139 -13.05278,-8.43139 -0.21166,0 -0.81138,0.49389 -1.30527,1.12889 z"
       style="stroke-width:0.0352777;fill:#9575cd;fill-opacity:1" />
    <path
       id="path16819"
       d="m 532.76413,-161.08055 c -7.7964,5.99722 -14.21696,11.25361 -14.21696,11.64166 0,0.21167 0.67029,1.30528 1.48167,2.43417 1.44639,2.04611 1.44639,2.08139 2.43416,1.5875 2.3989,-1.27 20.6375,-11.92389 21.06084,-12.31194 0.35279,-0.35278 -0.0353,-1.12889 -2.04611,-4.02167 -1.37583,-1.97556 -2.64583,-3.59833 -2.78693,-3.59833 -0.1764,0 -2.82223,1.94027 -5.92667,4.26861 z"
       style="stroke-width:0.0352777;fill:#9575cd;fill-opacity:1" />
    <path
       id="path16821"
       d="m 192.47469,-163.8675 c -1.86972,2.54 -4.09222,6.06778 -3.95111,6.31473 0.24694,0.38805 12.55889,7.58472 20.35528,11.88861 l 2.01083,1.12889 1.48167,-2.15195 c 0.77611,-1.16417 1.37583,-2.32833 1.27,-2.54 -0.14112,-0.42333 -19.33223,-15.48694 -19.96723,-15.69861 -0.17638,-0.0706 -0.70555,0.42333 -1.19944,1.05833 z"
       style="stroke-width:0.0352777;fill:#9575cd;fill-opacity:1" />
    <path
       id="path16823"
       d="m 533.258,-150.63833 c -5.96193,3.42194 -10.83027,6.42056 -10.83027,6.59694 0,0.67028 2.25777,4.09223 2.7164,4.09223 0.4586,0 20.7786,-13.58195 21.0961,-14.11111 0.21167,-0.3175 -1.23473,-2.54 -1.76389,-2.71639 -0.21167,-0.0706 -5.25638,2.68111 -11.21834,6.13833 z"
       style="stroke-width:0.0352777;fill:#9575cd;fill-opacity:1" />
    <path
       id="path16825"
       d="m 186.65386,-155.15389 -0.77611,1.41112 1.12888,0.84666 c 3.38667,2.46945 19.75556,13.29972 20.14361,13.29972 0.24695,0 0.98778,-0.88194 1.62278,-1.97555 1.02306,-1.65806 1.12889,-2.01083 0.70556,-2.43417 -0.91722,-0.88194 -21.23722,-12.52361 -21.83695,-12.52361 -0.14111,0 -0.56444,0.635 -0.98777,1.37583 z"
       style="stroke-width:0.0352777;fill:#9575cd;fill-opacity:1" />
    <path
       id="path16827"
       d="m 536.18607,-146.12277 c -5.53861,3.77472 -10.19527,7.05555 -10.37167,7.30249 -0.1764,0.3175 0.1764,1.23473 1.02306,2.68112 1.05834,1.79916 1.41111,2.18722 1.97554,2.01083 0.8114,-0.28222 22.2603,-10.72444 22.5425,-10.97139 0.38807,-0.42333 -4.1275,-7.90222 -4.7625,-7.90222 -0.17637,0.0353 -4.86833,3.10444 -10.40693,6.87917 z"
       style="stroke-width:0.0352777;fill:#9575cd;fill-opacity:1" />
    <path
       id="path16829"
       d="m 183.86691,-150.28555 c -0.77611,1.34055 -1.76389,3.06916 -2.18722,3.88055 l -0.70556,1.44639 0.77612,0.52917 c 1.16416,0.77611 9.73666,5.00944 16.43944,8.18444 l 5.78555,2.71639 0.635,-0.84667 c 0.35278,-0.42333 1.02306,-1.48166 1.44639,-2.32833 l 0.81139,-1.51694 -0.88194,-0.70556 c -1.30528,-1.02305 -19.64972,-13.37028 -20.17889,-13.54666 -0.28222,-0.10584 -1.05833,0.74083 -1.94028,2.18722 z"
       style="stroke-width:0.0352777;fill:#9575cd;fill-opacity:1" />
    <path
       id="path16831"
       d="m 540.1019,-138.67916 c -11.00667,5.3975 -11.04194,5.43277 -10.795,6.42055 0.3175,1.27 1.83444,3.59833 2.3989,3.59833 0.21166,0 5.18583,-2.78694 11.00666,-6.13833 7.40834,-4.30389 10.61861,-6.35 10.68917,-6.80861 0.10583,-0.77611 -1.16417,-2.57528 -1.79917,-2.54 -0.24696,0 -5.3975,2.46945 -11.50056,5.46806 z"
       style="stroke-width:0.0352777;fill:#9575cd;fill-opacity:1" />
    <path
       id="path16833"
       d="m 179.52774,-142.70083 c -0.88194,1.48167 -0.88194,1.76389 0.10584,2.39889 5.00944,3.175 20.67278,11.99444 21.30778,11.99444 0.52916,0 2.36361,-3.66889 2.15194,-4.26861 -0.14111,-0.35278 -19.72028,-10.12472 -22.40139,-11.14778 -0.24694,-0.10583 -0.74083,0.35278 -1.16417,1.02306 z"
       style="stroke-width:0.0352777;fill:#9575cd;fill-opacity:1" />
    <path
       id="path16835"
       d="m 543.20634,-134.19889 c -5.75027,3.35139 -10.68917,6.27945 -11.00667,6.56167 -0.52917,0.42333 -0.4586,0.67028 0.635,2.89278 0.70556,1.34055 1.30529,2.43416 1.37583,2.43416 0.21167,0 23.56557,-9.48972 23.74196,-9.63083 0.38804,-0.38805 -3.56306,-8.43139 -4.1275,-8.32555 -0.10583,0 -4.86833,2.75166 -10.61862,6.06777 z"
       style="stroke-width:0.0352777;fill:#9575cd;fill-opacity:1" />
    <path
       id="path16837"
       d="m 177.62274,-138.82028 c -0.28222,0.45862 -1.19944,2.2225 -2.01083,3.95112 -1.16417,2.50472 -1.34055,3.175 -0.98778,3.42194 0.35278,0.21167 15.41639,6.31472 23.14223,9.38389 0.24694,0.10583 0.9525,-0.84667 1.65805,-2.29306 l 1.27,-2.50472 -2.2225,-1.37583 c -5.08,-3.175 -19.47333,-11.35945 -20.03778,-11.35945 -0.14111,0 -0.52916,0.35278 -0.81139,0.77611 z"
       style="stroke-width:0.0352777;fill:#9575cd;fill-opacity:1" />
    <path
       id="path16839"
       d="m 546.69884,-126.43778 c -6.31471,2.57528 -11.64167,4.7625 -11.7475,4.90362 -0.24694,0.24694 1.72862,4.86833 2.04612,4.86833 0.0705,0 5.32694,-2.54 11.67694,-5.60917 l 11.50056,-5.64444 -0.635,-1.48167 c -0.35279,-0.84667 -0.81139,-1.55222 -0.98779,-1.62278 -0.17637,-0.0353 -5.50333,2.01084 -11.85333,4.58611 z"
       style="stroke-width:0.0352777;fill:#9575cd;fill-opacity:1" />
    <path
       id="path16841"
       d="m 173.00136,-129.36583 c -0.28223,0.56444 -0.52917,1.23472 -0.52917,1.51694 0,0.74084 22.5425,11.64167 23.10694,11.18306 0.49389,-0.42333 2.11667,-4.16278 1.905,-4.37445 -0.56444,-0.52916 -22.71889,-9.38388 -23.45972,-9.38388 -0.24694,0 -0.70555,0.45861 -1.02305,1.05833 z"
       style="stroke-width:0.0352777;fill:#9575cd;fill-opacity:1" />
    <path
       id="path16843"
       d="m 549.06246,-121.56944 c -5.99723,2.92805 -11.14779,5.53861 -11.43,5.78555 -0.42333,0.42334 -0.38806,0.81139 0.45861,2.82223 0.70556,1.5875 1.19943,2.29305 1.62277,2.29305 0.35279,0 4.79779,-1.37583 9.91306,-3.03389 5.11527,-1.65805 10.3011,-3.31611 11.50056,-3.70416 1.23471,-0.38806 2.29304,-0.88195 2.43417,-1.05834 0.10583,-0.17639 0,-0.91722 -0.24696,-1.65805 -0.59971,-1.86973 -2.8575,-6.77334 -3.10444,-6.77334 -0.10583,0 -5.11527,2.39889 -11.14777,5.32695 z"
       style="stroke-width:0.0352777;fill:#9575cd;fill-opacity:1" />
    <path
       id="path16845"
       d="m 171.44913,-125.7675 c -0.17639,0.45861 -0.91722,2.29306 -1.62277,4.09222 -0.88195,2.18723 -1.19945,3.42195 -0.98778,3.63362 0.56444,0.56444 23.03639,7.76111 23.84778,7.65527 0.45861,-0.0705 0.9525,-0.77611 1.5875,-2.32833 0.77611,-1.905 0.84666,-2.25778 0.38805,-2.68111 -0.45861,-0.45861 -22.26028,-11.14778 -22.71889,-11.14778 -0.10583,0 -0.3175,0.35278 -0.49389,0.77611 z"
       style="stroke-width:0.0352777;fill:#9575cd;fill-opacity:1" />
    <path
       id="path16847"
       d="m 552.23746,-113.73778 c -13.26446,4.37445 -12.17083,3.95112 -12.17083,4.83306 0,0.91722 1.4111,4.23333 1.79917,4.23333 0.38804,0 23.0011,-9.2075 23.35387,-9.48972 0.4939,-0.45861 -0.67027,-3.03389 -1.37583,-3.10444 -0.35277,-0.0353 -5.57388,1.55222 -11.60638,3.52777 z"
       style="stroke-width:0.0352777;fill:#9575cd;fill-opacity:1" />
    <path
       id="path16849"
       d="m 167.56858,-115.99555 c -0.9525,2.25777 -0.91722,2.29305 14.25222,8.32555 9.8425,3.88056 8.89,3.70417 9.66611,1.86972 0.35278,-0.84666 0.74084,-1.94027 0.88195,-2.46944 l 0.21166,-0.9525 -11.35944,-3.70417 c -14.39334,-4.65666 -13.12334,-4.37444 -13.6525,-3.06916 z"
       style="stroke-width:0.0352777;fill:#9575cd;fill-opacity:1" />
    <path
       id="path16851"
       d="m 553.82496,-108.55194 c -6.10306,2.46944 -11.32416,4.65666 -11.60639,4.83305 -0.38807,0.24695 -0.35277,0.74084 0.35277,2.8575 0.42333,1.411113 1.02306,2.540003 1.23473,2.540003 1.44639,0 23.35389,-5.573893 24.55333,-6.244163 0.56444,-0.28223 -2.3636,-8.5725 -2.9986,-8.53723 -0.24696,0 -5.4328,2.04612 -11.53584,4.55084 z"
       style="stroke-width:0.0352777;fill:#9575cd;fill-opacity:1" />
    <path
       id="path16853"
       d="m 165.09913,-108.51666 c -0.77611,2.39888 -1.37583,4.37444 -1.30527,4.44499 0.24694,0.28223 23.67139,6.103063 24.4475,6.103063 0.635,0 0.88194,-0.38806 1.55222,-2.469443 0.49389,-1.55223 0.67028,-2.57528 0.45861,-2.78695 -0.28222,-0.28222 -21.30778,-8.85472 -22.96583,-9.34861 -0.67028,-0.21167 -0.84667,0.10583 -2.18723,4.05695 z"
       style="stroke-width:0.0352777;fill:#9575cd;fill-opacity:1" />
    <path
       id="path16855"
       d="m 556.82357,-100.61444 c -13.335,3.386663 -12.94694,3.245553 -12.73527,3.986393 0.10583,0.3175 0.35277,1.23472 0.52916,2.01083 0.70554,2.61055 0.28221,2.61055 8.39611,0.0353 8.81943,-2.75167 16.29833,-5.32695 16.68639,-5.750283 0.17638,-0.14111 0.10584,-0.84667 -0.10583,-1.51695 -0.35279,-1.02305 -0.59973,-1.23472 -1.48167,-1.30527 -0.56446,-0.0353 -5.64446,1.09361 -11.28889,2.54 z"
       style="stroke-width:0.0352777;fill:#9575cd;fill-opacity:1" />
    <path
       id="path16857"
       d="m 162.84136,-101.32 c -0.3175,0.84667 -0.45861,1.622783 -0.3175,1.693333 0.14111,0.10584 1.05833,0.38806 2.01083,0.70556 0.98778,0.3175 6.17361,2.01083 11.57111,3.73944 5.43278,1.76389 10.12472,3.21028 10.4775,3.21028 0.88195,0 2.15195,-4.48028 1.41111,-4.93889 -0.59972,-0.35277 -23.21278,-5.997223 -24.05944,-5.997223 -0.35278,0 -0.77611,0.56445 -1.09361,1.5875 z"
       style="stroke-width:0.0352777;fill:#9575cd;fill-opacity:1" />
    <path
       id="path16859"
       d="m 558.94023,-95.675547 c -5.60916,1.83444 -10.9361,3.59833 -11.7475,3.91583 l -1.55223,0.56444 0.24696,1.65806 c 0.14111,0.88194 0.45861,2.15194 0.74084,2.82222 0.38804,0.9525 0.635,1.12889 1.27,0.98778 0.4586,-0.10583 5.82083,-1.09361 11.92387,-2.18722 6.10306,-1.09361 11.39473,-2.04611 11.7475,-2.15195 0.8114,-0.24694 0.77613,-0.91722 -0.3175,-5.25639 -0.70554,-2.82222 -1.05833,-3.70416 -1.51694,-3.66889 -0.3175,0 -5.15056,1.51695 -10.795,3.31612 z"
       style="stroke-width:0.0352777;fill:#9575cd;fill-opacity:1" />
    <path
       id="path16861"
       d="m 161.74775,-97.016107 c -0.84667,2.61056 -1.65806,6.91444 -1.37584,7.19667 0.17639,0.14111 5.82083,1.23472 12.59417,2.43416 10.08944,1.79917 12.34722,2.11667 12.59417,1.72861 0.28222,-0.49388 1.41111,-4.97416 1.27,-5.11527 -0.14112,-0.14111 -24.05945,-7.90223 -24.30639,-7.90223 -0.10584,0 -0.45861,0.74084 -0.77611,1.65806 z"
       style="stroke-width:0.0352777;fill:#9575cd;fill-opacity:1" />
    <path
       id="path16863"
       d="m 559.39884,-87.032497 c -6.35,1.12889 -11.67694,2.15195 -11.85334,2.25778 -0.38804,0.24694 0.635,5.15055 1.09363,5.15055 0.49387,0 23.07167,-5.60916 24.02417,-5.99722 0.7761,-0.28222 0.81137,-0.45861 0.56443,-1.51694 -0.35277,-1.69334 -0.635,-2.01084 -1.51693,-1.97556 -0.42334,0 -5.96196,0.9525 -12.31196,2.08139 z"
       style="stroke-width:0.0352777;fill:#9575cd;fill-opacity:1" />
    <path
       id="path16865"
       d="m 159.63108,-88.514167 c -0.10583,0.17639 -0.28222,0.9525 -0.42333,1.72862 l -0.21167,1.41111 6.10305,1.62277 c 8.36084,2.2225 17.60362,4.48028 18.34445,4.48028 0.45861,0 0.74083,-0.42333 0.98778,-1.34055 0.67027,-2.57528 0.77611,-3.52778 0.45861,-3.73945 -0.24695,-0.14111 -24.20056,-4.445 -24.83556,-4.445 -0.14111,0 -0.3175,0.14111 -0.42333,0.28222 z"
       style="stroke-width:0.0352777;fill:#9575cd;fill-opacity:1" />
    <path
       id="path16867"
       d="m 561.40967,-81.917217 c -5.60917,1.44639 -10.83027,2.78694 -11.60637,2.99861 l -1.34057,0.42333 0.21167,1.79917 c 0.4586,3.42194 0.4586,3.42194 2.29306,3.42194 3.84527,0 22.93054,-2.01083 23.70667,-2.50472 0.38804,-0.21166 0.38804,-0.81139 0.0353,-3.21028 -0.70556,-4.79777 -0.98777,-5.57388 -2.11667,-5.53861 -0.52916,0 -5.5386,1.19945 -11.18306,2.61056 z"
       style="stroke-width:0.0352777;fill:#9575cd;fill-opacity:1" />
    <path
       id="path16869"
       d="m 158.60802,-83.434167 c -0.70555,3.13973 -1.34055,7.79639 -1.09361,8.04334 0.24695,0.21166 23.42445,2.8575 25.04722,2.82222 0.49389,0 1.19945,-2.61056 1.19945,-4.37444 0,-1.16417 -0.0706,-1.23473 -1.83445,-1.76389 -4.16277,-1.16417 -22.04861,-5.50334 -22.86,-5.50334 -0.14111,0 -0.35277,0.35278 -0.45861,0.77611 z"
       style="stroke-width:0.0352777;fill:#9575cd;fill-opacity:1" />
    <path
       id="path16871"
       d="m 562.11523,-73.450547 c -5.82083,0.67027 -10.97139,1.19944 -11.43,1.19944 -0.81139,0.0353 -0.84666,0.10583 -0.67027,2.50472 0.10584,1.37583 0.28221,2.61056 0.42334,2.71639 0.21166,0.24694 12.065,-1.65806 20.6022,-3.31611 l 4.65667,-0.88194 v -1.16417 c 0,-1.905 -0.28221,-2.29306 -1.7286,-2.25778 -0.70557,0.0353 -6.0325,0.56445 -11.85334,1.19945 z"
       style="stroke-width:0.0352777;fill:#9575cd;fill-opacity:1" />
    <path
       id="path16873"
       d="m 156.94997,-73.415277 c -0.52917,1.37584 -0.42334,2.54 0.28222,2.75167 1.23472,0.38806 22.86,4.09222 23.77722,4.09222 1.09361,0 1.44639,-0.81139 1.48167,-3.52778 l 0.0353,-1.5875 -10.58333,-1.09361 c -5.82084,-0.635 -11.50056,-1.23472 -12.62945,-1.34055 -1.94028,-0.17639 -2.04611,-0.17639 -2.36361,0.70555 z"
       style="stroke-width:0.0352777;fill:#9575cd;fill-opacity:1" />
    <path
       id="path16875"
       d="m 562.36217,-67.982497 c -6.24417,1.09361 -11.50054,2.11667 -11.60637,2.25778 -0.28223,0.24694 -0.1764,2.99861 0.10583,4.58611 l 0.21167,1.02305 8.36083,-0.24694 c 4.5861,-0.10583 10.37167,-0.3175 12.87637,-0.45861 l 4.55084,-0.21167 -0.21167,-3.21028 c -0.1411,-1.76388 -0.35277,-3.81 -0.4586,-4.55083 -0.21167,-1.19944 -0.3175,-1.30528 -1.34057,-1.27 -0.5997,0 -6.20887,0.9525 -12.48833,2.08139 z"
       style="stroke-width:0.0352777;fill:#9575cd;fill-opacity:1" />
    <path
       id="path16877"
       d="m 156.4208,-69.323057 c -0.17639,0.52917 -0.88194,6.94973 -0.88194,7.97278 0,0.59972 0.38805,0.70556 3.45722,0.88195 7.37305,0.49389 22.18972,0.705549 22.40139,0.35277 0.14111,-0.21166 0.35278,-1.48166 0.45861,-2.82222 l 0.21167,-2.43416 -12.45306,-2.18723 c -6.87917,-1.19944 -12.62945,-2.18722 -12.77056,-2.18722 -0.14111,0 -0.35277,0.21167 -0.42333,0.42333 z"
       style="stroke-width:0.0352777;fill:#9575cd;fill-opacity:1" />
    <path
       id="path16879"
       d="m 568.64163,-59.868608 c -2.99863,0.14111 -7.76113,0.28222 -10.58333,0.3175 -7.09084,0.0705 -6.80863,-0.0706 -6.63223,2.89278 0.0706,1.30527 0.21166,2.50472 0.35277,2.61055 0.21166,0.21167 24.30639,-2.15194 25.25889,-2.46944 0.4939,-0.17639 0.56444,-1.55222 0.0706,-2.78695 -0.28223,-0.776109 -0.52917,-0.917219 -1.65807,-0.846659 -0.74083,0.0353 -3.81,0.17639 -6.8086,0.282219 z"
       style="stroke-width:0.0352777;fill:#9575cd;fill-opacity:1" />
    <path
       id="path16881"
       d="m 155.4683,-59.339438 c -0.38806,0.38805 -0.35278,3.35138 0.0353,3.35138 0.14111,0 5.57389,0.56445 12.02972,1.27 6.42056,0.67028 12.065,1.19945 12.45306,1.12889 0.88194,-0.14111 1.48166,-2.2225 1.12889,-4.02166 l -0.17639,-1.09361 -4.86834,-0.21167 c -9.98361,-0.49389 -20.35527,-0.67028 -20.60222,-0.42333 z"
       style="stroke-width:0.0352777;fill:#9575cd;fill-opacity:1" />
    <path
       id="path16883"
       d="m 564.93746,-54.365278 c -5.99723,0.635 -11.46529,1.23472 -12.065,1.37584 l -1.16416,0.21166 v 2.78695 c 0,2.01083 0.1411,2.82222 0.4586,2.8575 2.8575,0.21166 24.5886,0.81139 25.0825,0.70555 0.59973,-0.14111 0.635,-0.38805 0.42333,-3.88055 -0.28223,-4.58611 -0.4586,-5.32695 -1.23473,-5.29167 -0.3175,0.0353 -5.46804,0.56444 -11.50054,1.23472 z"
       style="stroke-width:0.0352777;fill:#9575cd;fill-opacity:1" />
    <path
       id="path16885"
       d="m 155.04497,-52.777778 c -0.10584,1.19945 -0.21167,3.28084 -0.21167,4.65667 v 2.46944 l 3.81,-0.24694 c 2.08139,-0.10583 7.65528,-0.3175 12.41778,-0.42333 4.7625,-0.14112 8.92528,-0.38806 9.27805,-0.56445 0.49389,-0.24694 0.59973,-0.77611 0.59973,-2.92805 v -2.61056 l -1.48167,-0.17639 c -4.05695,-0.56444 -21.41361,-2.32833 -22.71889,-2.32833 h -1.44639 z"
       style="stroke-width:0.0352777;fill:#9575cd;fill-opacity:1" />
    <path
       id="path16887"
       d="m 551.95523,-44.769718 c -0.24693,1.48166 0,3.4925 0.45861,3.77472 0.3175,0.21167 20.74333,-0.45861 23.56556,-0.74083 l 1.83444,-0.17639 v -1.69334 -1.69333 l -3.42194,-0.21167 c -1.905,-0.14111 -7.69056,-0.35277 -12.8411,-0.45861 l -9.3839,-0.24694 z"
       style="stroke-width:0.0352777;fill:#9575cd;fill-opacity:1" />
    <path
       id="path16889"
       d="m 164.3583,-45.334168 c -4.37444,0.17639 -8.29028,0.38806 -8.67833,0.45861 -0.91723,0.21167 -1.34056,1.55223 -0.88195,2.75167 l 0.35278,0.88195 8.5725,0.24694 c 4.72722,0.14111 10.40694,0.28222 12.62944,0.3175 l 4.05695,0.0353 0.10583,-2.57528 0.10584,-2.54 -4.16278,0.0706 c -2.29306,0 -7.72584,0.17638 -12.10028,0.35277 z"
       style="stroke-width:0.0352777;fill:#9575cd;fill-opacity:1" />
    <path
       id="path16891"
       d="m 561.40967,-40.395278 c -4.445,0.17639 -8.46667,0.38806 -8.89,0.45861 -0.74083,0.17639 -0.81137,0.38806 -0.81137,2.8575 0,1.79917 0.1411,2.68111 0.4586,2.78695 1.62277,0.56444 24.5886,2.78694 24.9414,2.39889 0.17637,-0.14112 0.35277,-2.18723 0.42333,-4.51556 l 0.10583,-4.23333 -4.05696,-0.0353 c -2.2225,-0.0353 -7.69054,0.10583 -12.17083,0.28222 z"
       style="stroke-width:0.0352777;fill:#9575cd;fill-opacity:1" />
    <path
       id="path16893"
       d="m 155.08024,-40.254168 c -0.3175,0.3175 -0.3175,3.38667 0,6.56167 l 0.21167,2.39889 h 1.41111 c 1.48167,0 16.58056,-1.51695 21.34306,-2.15195 l 2.89278,-0.38805 v -2.36361 c 0,-1.27 -0.14112,-2.54 -0.3175,-2.82222 -0.21167,-0.35278 -2.08139,-0.52917 -7.47889,-0.77612 -3.95111,-0.14111 -9.59556,-0.38805 -12.48834,-0.49388 -2.92805,-0.10584 -5.43277,-0.10584 -5.57389,0.0353 z"
       style="stroke-width:0.0352777;fill:#9575cd;fill-opacity:1" />
    <path
       id="path16895"
       d="m 551.56717,-32.281388 c -0.10583,0.45861 -0.21167,1.55222 -0.21167,2.46944 0,1.44639 0.10584,1.69334 0.8114,1.83445 1.0936,0.24694 24.6239,0.98778 24.83556,0.77611 0.10584,-0.0706 0.24694,-0.81139 0.35277,-1.5875 0.1764,-1.27 0.10584,-1.48167 -0.635,-1.72861 -0.91723,-0.35278 -21.48416,-2.54 -23.6361,-2.54 -1.02306,0 -1.34056,0.14111 -1.51696,0.77611 z"
       style="stroke-width:0.0352777;fill:#9575cd;fill-opacity:1" />
    <path
       id="path16897"
       d="m 166.65136,-31.434718 c -5.82084,0.67027 -10.75973,1.27 -11.00667,1.37583 -0.52917,0.17639 -0.59972,2.2225 -0.14111,2.96333 0.24694,0.38806 1.94028,0.42334 9.94833,0.21167 5.32695,-0.14111 11.00667,-0.35278 12.66472,-0.49389 3.42195,-0.24694 3.42195,-0.24694 2.99862,-3.42194 l -0.21167,-1.905 -1.83445,0.0353 c -1.02305,0.0353 -6.59694,0.56445 -12.41777,1.23473 z"
       style="stroke-width:0.0352777;fill:#9575cd;fill-opacity:1" />
    <path
       id="path16899"
       d="m 551.00273,-26.213608 c -0.17639,0.52916 -0.35277,1.86972 -0.35277,2.99861 v 2.01083 l 11.92388,2.04611 c 6.52639,1.12889 12.20612,2.08139 12.55889,2.08139 0.88194,0.10584 1.23473,-1.12889 1.51694,-5.46805 0.21167,-3.38667 0.21167,-3.42195 -0.635,-3.59834 -0.4586,-0.10583 -4.09221,-0.24694 -8.0786,-0.38805 -3.9864,-0.10584 -9.31334,-0.28222 -11.88861,-0.42334 l -4.65666,-0.21166 z"
       style="stroke-width:0.0352777;fill:#9575cd;fill-opacity:1" />
    <path
       id="path16901"
       d="m 162.66497,-25.966668 c -3.77472,0.14111 -6.91445,0.3175 -6.985,0.42334 -0.17639,0.17638 0.42333,6.84388 0.77611,8.32555 0.21166,1.02306 -1.44639,1.23472 21.23722,-2.82222 l 4.30389,-0.77611 v -1.12889 c 0,-0.635 -0.10583,-1.86972 -0.21167,-2.78695 l -0.24694,-1.62277 -6.0325,0.0706 c -3.31611,0 -9.10167,0.17639 -12.84111,0.3175 z"
       style="stroke-width:0.0352777;fill:#9575cd;fill-opacity:1" />
    <path
       id="path16903"
       d="m 550.47357,-20.004718 c -0.10584,0.17639 -0.28223,1.34055 -0.42334,2.61055 l -0.21166,2.29306 1.19943,0.17639 c 1.905,0.35277 17.8153,1.97555 21.41363,2.2225 2.75167,0.17639 3.24554,0.14111 3.24554,-0.3175 0,-0.3175 0.10583,-1.02306 0.21167,-1.62278 0.21166,-1.02306 0.14112,-1.09361 -1.12888,-1.44639 -1.12889,-0.3175 -23.31862,-4.26861 -23.91833,-4.26861 -0.10583,0 -0.24696,0.14111 -0.38806,0.35278 z"
       style="stroke-width:0.0352777;fill:#9575cd;fill-opacity:1" />
    <path
       id="path16905"
       d="m 168.83858,-17.711668 c -13.75834,2.43417 -12.34722,1.97556 -12.02972,3.98639 0.10583,0.91722 0.28222,1.69333 0.3175,1.76389 0.14111,0.14111 24.20055,-2.36361 25.01194,-2.61056 0.56445,-0.21166 0.635,-0.45861 0.42333,-2.32833 -0.10583,-1.16417 -0.28222,-2.25778 -0.42333,-2.43417 -0.3175,-0.56444 -2.57528,-0.28222 -13.29972,1.62278 z"
       style="stroke-width:0.0352777;fill:#9575cd;fill-opacity:1" />
    <path
       id="path16907"
       d="m 549.4505,-13.725278 c -0.42333,0.74083 -0.9525,4.7624997 -0.5997,5.1152797 0.17637,0.17639 5.78554,1.65805 12.41777,3.31611 9.06639,2.2225 12.13556,2.82222 12.34723,2.50472 0.35277,-0.56444 1.37583,-6.17361 1.37583,-7.6199997 0,-0.59972 -0.10583,-1.12889 -0.24696,-1.12889 -0.35277,0 -15.45167,-1.62277 -19.54387,-2.11666 -3.59834,-0.42334 -5.50334,-0.45861 -5.7503,-0.0706 z"
       style="stroke-width:0.0352777;fill:#9575cd;fill-opacity:1" />
    <path
       id="path16909"
       d="m 170.00274,-12.384718 c -5.92666,0.635 -11.00666,1.16416 -11.28888,1.19944 -1.44639,0.0706 -1.48167,0.42333 -0.74084,4.6213897 0.42334,2.18722 0.88195,4.1275 1.05834,4.30389 0.49389,0.49389 24.02416,-5.25639 24.80027,-6.0325 0.14112,-0.14111 0.0706,-1.37583 -0.17638,-2.7163897 l -0.42334,-2.46944 -1.23472,-0.0353 c -0.67028,-0.0353 -6.06778,0.45861 -11.99445,1.12889 z"
       style="stroke-width:0.0352777;fill:#9575cd;fill-opacity:1" />
    <path
       id="path16911"
       d="m 548.1805,-6.3874983 c -0.21166,0.52917 -0.38804,1.65805 -0.4586,2.54 l -0.0706,1.62278 12.34723,2.18722004 c 6.8086,1.19943996 12.45306,2.11665996 12.59416,2.04610996 0.38807,-0.24695 0.98777,-2.61055996 0.77611,-3.06917 -0.14111,-0.42333 -22.89527,-6.27944 -24.23584,-6.24416 -0.35277,0 -0.7761,0.42333 -0.9525,0.91722 z"
       style="stroke-width:0.0352777;fill:#9575cd;fill-opacity:1" />
    <path
       id="path16913"
       d="m 181.64441,-6.5286083 c -3.59833,0.74083 -21.76639,5.29166 -22.18972,5.53861004 -0.45861,0.28222 -0.28222,2.25777996 0.28222,3.13971996 0.28222,0.45861 4.05695,-0.0706 16.61583,-2.43416996 9.73667,-1.79916004 8.92528,-1.51694004 8.64306,-3.06916004 -0.35278,-2.18722 -0.91722,-3.59834 -1.34055,-3.56306 -0.24695,0.0353 -1.12889,0.17639 -2.01084,0.38806 z"
       style="stroke-width:0.0352777;fill:#9575cd;fill-opacity:1" />
    <path
       id="path16915"
       d="m 546.2755,1.1972217 c -0.4586,1.65806 -0.52916,2.61056 -0.3175,2.82222 0.3528,0.35278 20.88446,7.1613903 23.28334,7.7258303 1.09362,0.28223 1.16416,0.21166 1.48166,-1.02304 1.16417,-4.3039003 1.86973,-7.4789003 1.72863,-7.6200103 -0.1764,-0.21167 -23.95363,-4.40972 -24.87083,-4.40972 -0.52917,0 -0.8114,0.45861004 -1.3053,2.50472 z"
       style="stroke-width:0.0352777;fill:#9575cd;fill-opacity:1" />
    <path
       id="path16917"
       d="m 172.2958,1.2677817 -11.99444,2.18722 0.10583,1.05833 c 0.17639,1.44639 1.44639,6.5264003 1.86972,7.2672303 0.3175,0.59971 0.45861,0.59971 2.71639,-0.0353 2.82222,-0.81137 18.87361,-6.1383303 20.70806,-6.8791603 1.19944,-0.52917 1.27,-0.59972 1.02305,-1.86972 -0.45861,-2.46944996 -1.05833,-3.77471996 -1.76389,-3.84527996 -0.35277,-0.0353 -6.06778,0.91722 -12.66472,2.11666996 z"
       style="stroke-width:0.0352777;fill:#9575cd;fill-opacity:1" />
    <path
       id="path16919"
       d="m 544.82913,7.2297217 c -0.77613,2.71638 -0.70556,3.0338803 0.81137,3.4219403 8.36084,2.2225 22.86,5.67974 23.2128,5.53861 0.56443,-0.21167 1.37583,-2.68111 0.98777,-3.03387 -0.635,-0.59974 -22.75417,-7.7611203 -23.95361,-7.7611203 -0.3175,0 -0.70556,0.74083 -1.05833,1.83444 z"
       style="stroke-width:0.0352777;fill:#9575cd;fill-opacity:1" />
    <path
       id="path16921"
       d="m 174.41247,9.5227817 c -6.20889,2.0461203 -11.43,3.8099903 -11.57111,3.9863803 -0.45861,0.42334 0.49388,3.175 1.09361,3.175 0.56444,0 19.40278,-4.5861 22.57778,-5.50333 2.08138,-0.59973 2.15194,-0.74083 1.30527,-3.5983303 -0.45861,-1.51695 -0.70555,-1.83445 -1.34055,-1.79917 -0.42334,0 -5.85611,1.69333 -12.065,3.73945 z"
       style="stroke-width:0.0352777;fill:#9575cd;fill-opacity:1" />
    <path
       id="path16923"
       d="m 543.2769,11.851102 c -0.1764,0.45863 -0.56444,1.65806 -0.88194,2.64583 -0.52916,1.79917 -0.49389,1.83447 0.24694,2.2578 1.7286,0.9172 23.0011,9.38387 23.24806,9.24277 0.52917,-0.3175 2.89277,-8.255 2.57527,-8.5725 -0.21166,-0.1764 -5.57389,-1.62277 -11.99443,-3.21027 -6.3853,-1.5875 -11.9239,-2.96333 -12.2414,-3.0339 -0.42333,-0.1411 -0.74083,0.0706 -0.9525,0.67027 z"
       style="stroke-width:0.0352777;fill:#9575cd;fill-opacity:1" />
    <path
       id="path16925"
       d="m 176.38802,14.532232 c -6.70278,1.69333 -12.20611,3.24554 -12.27666,3.4572 -0.17639,0.45863 2.2225,7.86697 2.68111,8.32557 0.24694,0.24693 22.64833,-8.64307 23.53028,-9.3486 0.45861,-0.3528 -0.635,-4.40974 -1.37584,-5.08 -0.3175,-0.28224 -3.52778,0.38803 -12.55889,2.64583 z"
       style="stroke-width:0.0352777;fill:#9575cd;fill-opacity:1" />
    <path
       id="path16927"
       d="m 540.80746,19.647502 c -0.42333,1.0936 -0.74083,2.2225 -0.74083,2.46943 0,0.3175 1.27,0.91723 3.28083,1.55223 17.03917,5.5739 20.81388,6.73807 21.09611,6.59694 0.42333,-0.2822 1.19943,-2.96333 0.91723,-3.21027 -0.3528,-0.35277 -21.83696,-8.99583 -22.86,-9.2075 -0.88196,-0.1764 -0.9878,-0.0353 -1.69334,1.79917 z"
       style="stroke-width:0.0352777;fill:#9575cd;fill-opacity:1" />
    <path
       id="path16929"
       d="m 178.57524,22.751932 c -9.31333,3.77473 -11.39472,4.7625 -11.39472,5.29167 0,0.74083 0.9525,2.75167 1.30528,2.75167 0.10583,0 5.57389,-1.76387 12.13556,-3.88054 8.255,-2.7164 11.95916,-4.05696 11.95916,-4.40973 0,-0.28223 -0.3175,-1.37584 -0.74083,-2.46944 -0.49389,-1.34056 -0.91722,-1.94029 -1.30528,-1.905 -0.3175,0 -5.715,2.08137 -11.95917,4.62137 z"
       style="stroke-width:0.0352777;fill:#9575cd;fill-opacity:1" />
    <path
       id="path16931"
       d="m 539.18467,23.704432 c -0.10583,0.21167 -0.59971,1.37584 -1.05833,2.64584 l -0.88194,2.29306 6.985,3.42194 c 3.81,1.86973 9.0311,4.40973 11.6064,5.64446 l 4.65666,2.2225 0.9525,-1.97557 c 0.49388,-1.0936 1.30527,-2.9986 1.76388,-4.19806 0.77612,-2.08137 0.77612,-2.25777 0.21166,-2.57527 -0.635,-0.3175 -23.42443,-7.7964 -23.8125,-7.7964 -0.10583,0 -0.2822,0.14113 -0.42333,0.3175 z"
       style="stroke-width:0.0352777;fill:#9575cd;fill-opacity:1" />
    <path
       id="path16933"
       d="m 180.97413,27.655562 c -6.49111,2.08137 -11.92389,3.9511 -12.065,4.09221 -0.24694,0.24696 2.25778,6.94973 3.03389,8.21973 0.10584,0.1764 1.55222,-0.3175 3.24556,-1.0936 3.77472,-1.7639 19.15583,-9.34863 19.79083,-9.77197 0.3175,-0.21166 0.21167,-0.84666 -0.56444,-2.71637 -0.52917,-1.34056 -1.12889,-2.46946 -1.34056,-2.50473 -0.17639,-0.0353 -5.60916,1.65807 -12.10028,3.77473 z"
       style="stroke-width:0.0352777;fill:#9575cd;fill-opacity:1" />
    <path
       id="path16935"
       d="m 535.9744,31.677232 c -0.4586,1.0936 -0.84667,2.15193 -0.84667,2.39887 0,0.24696 0.67027,0.70556 1.51694,1.05833 3.4925,1.51697 20.60223,8.32557 21.4489,8.53723 0.84666,0.21167 0.98777,0.0706 1.51693,-1.27 0.3175,-0.81139 0.52917,-1.51693 0.45863,-1.5875 -0.3175,-0.3175 -22.50723,-11.07723 -22.86,-11.07723 -0.1764,0 -0.74083,0.88197 -1.23473,1.9403 z"
       style="stroke-width:0.0352777;fill:#9575cd;fill-opacity:1" />
    <path
       id="path16937"
       d="m 184.25497,35.416662 c -5.99723,2.92807 -11.07723,5.53861 -11.32417,5.75027 -0.56444,0.56447 0.45861,3.0339 1.30528,3.0339 0.3175,0 4.55083,-1.5875 9.38389,-3.56306 13.89944,-5.60917 13.89944,-5.60917 13.89944,-6.24417 0,-0.81137 -1.65805,-4.30387 -2.04611,-4.30387 -0.14111,0 -5.18583,2.39887 -11.21833,5.32693 z"
       style="stroke-width:0.0352777;fill:#9575cd;fill-opacity:1" />
    <path
       id="path16939"
       d="m 534.10467,35.875272 c -0.17637,0.21166 -0.74083,1.27 -1.23471,2.32833 -0.70556,1.51696 -0.81139,2.01083 -0.45862,2.36363 0.59973,0.5997 21.30779,12.45304 21.73112,12.45304 0.35277,0 4.445,-7.72584 4.19804,-7.9375 -0.38804,-0.38804 -18.45027,-7.76111 -22.0486,-8.99584 -1.4111,-0.49387 -1.905,-0.56443 -2.18723,-0.21166 z"
       style="stroke-width:0.0352777;fill:#9575cd;fill-opacity:1" />
    <path
       id="path16941"
       d="m 188.52358,39.579432 c -11.35945,4.51557 -13.93472,5.64447 -13.93472,6.13834 0,0.81139 3.63361,7.65529 4.05694,7.65529 0.67028,0 22.04861,-12.41779 22.04861,-12.80583 0,-0.52917 -2.11666,-4.83307 -2.39889,-4.83307 -0.14111,0 -4.51555,1.72861 -9.77194,3.84527 z"
       style="stroke-width:0.0352777;fill:#9575cd;fill-opacity:1" />
    <path
       id="path16943"
       d="m 530.96496,42.331102 c -1.48166,2.11667 -1.94029,3.3514 -1.41112,3.81 0.45862,0.42333 22.225,11.1125 22.64833,11.1125 0.24696,0 1.72863,-2.8575 1.55223,-2.9986 -0.67027,-0.59973 -11.64167,-7.02027 -20.10833,-11.78277 l -1.97557,-1.09363 z"
       style="stroke-width:0.0352777;fill:#9575cd;fill-opacity:1" />
    <path
       id="path16945"
       d="m 190.28747,47.905002 c -5.82084,3.38666 -10.795,6.31473 -11.07723,6.4911 -0.38805,0.24696 -0.35277,0.56446 0.3175,1.7639 0.45862,0.7761 0.9525,1.4464 1.09362,1.4464 0.52916,0 22.47194,-10.86557 22.68361,-11.25363 0.24694,-0.38804 -1.79917,-4.62137 -2.2225,-4.62137 -0.10584,0 -4.97417,2.78693 -10.795,6.1736 z"
       style="stroke-width:0.0352777;fill:#9575cd;fill-opacity:1" />
    <path
       id="path16947"
       d="m 527.78996,47.834432 c -0.35279,0.635 -1.02306,1.72863 -1.44639,2.43417 l -0.77611,1.3053 1.86971,1.37583 c 1.02306,0.74083 5.85613,4.02167 10.68917,7.2672 8.74889,5.85613 8.81946,5.8914 9.41916,5.15057 0.8114,-1.02307 4.26863,-7.05557 4.1275,-7.19667 -0.24693,-0.21167 -9.525,-4.83306 -16.43943,-8.18443 l -6.77334,-3.24557 z"
       style="stroke-width:0.0352777;fill:#9575cd;fill-opacity:1" />
    <path
       id="path16949"
       d="m 192.40413,52.843902 c -5.99722,2.96333 -10.97138,5.5386 -11.04194,5.75026 -0.28222,0.84667 4.02167,7.97277 4.65667,7.72584 0.42333,-0.1764 20.32,-13.58194 20.81388,-14.00527 0.45862,-0.45863 -2.18722,-4.9389 -2.89277,-4.90363 -0.3175,0 -5.50334,2.46946 -11.53584,5.4328 z"
       style="stroke-width:0.0352777;fill:#9575cd;fill-opacity:1" />
    <path
       id="path16951"
       d="m 524.43857,53.796402 c -0.4939,0.635 -1.1289,1.65803 -1.41111,2.2225 -0.52916,1.05833 -0.52916,1.0936 0.56444,1.83443 1.51694,0.98777 20.10833,11.67694 20.7786,11.92387 0.38807,0.1411 0.8114,-0.1764 1.3053,-0.98777 0.38804,-0.67027 0.74083,-1.37583 0.74083,-1.5875 0,-0.3175 -14.32279,-10.23053 -20.1789,-13.97 -0.91723,-0.5997 -0.91723,-0.5997 -1.79916,0.56447 z"
       style="stroke-width:0.0352777;fill:#9575cd;fill-opacity:1" />
    <path
       id="path16953"
       d="m 196.91969,60.005272 c -5.67972,3.81 -10.40694,7.16139 -10.4775,7.40833 -0.24694,0.52917 1.19944,2.89277 1.72861,2.8575 0.21167,0 5.18583,-2.8222 11.1125,-6.27944 7.05556,-4.09223 10.75972,-6.45583 10.72444,-6.8086 -0.0353,-0.56446 -2.29305,-4.16279 -2.61055,-4.16279 -0.10583,0.0353 -4.79778,3.175 -10.4775,6.985 z"
       style="stroke-width:0.0352777;fill:#9575cd;fill-opacity:1" />
    <path
       id="path16955"
       d="m 520.62857,59.440832 c -1.65807,2.29307 -1.94027,3.0339 -1.34057,3.6336 1.6228,1.6228 19.5439,15.27527 19.8614,15.13417 0.635,-0.24696 4.86833,-6.87917 4.69194,-7.3025 -0.14111,-0.3528 -18.20334,-10.97137 -21.30777,-12.55887 -0.70557,-0.3528 -0.91723,-0.24696 -1.905,1.0936 z"
       style="stroke-width:0.0352777;fill:#9575cd;fill-opacity:1" />
    <path
       id="path16957"
       d="m 208.27913,59.828902 c -4.86833,2.64583 -18.94416,10.83024 -19.54388,11.3947 -0.17639,0.17637 4.445,7.09083 4.93888,7.37304 0.24695,0.1764 15.83973,-11.67691 19.29695,-14.71081 l 1.19944,-1.02306 -1.48166,-2.25777 c -0.81139,-1.27 -1.51695,-2.29307 -1.55223,-2.29307 0,0 -1.30527,0.70557 -2.8575,1.51697 z"
       style="stroke-width:0.0352777;fill:#9575cd;fill-opacity:1" />
    <path
       id="path16959"
       d="m 516.50107,65.685002 -1.48167,2.0814 2.18723,1.58747 c 2.15194,1.51693 14.81667,10.0189 17.85054,11.95917 l 1.48167,0.98776 0.91723,-1.4111 c 0.49389,-0.74083 0.81139,-1.51693 0.70556,-1.7286 -0.28223,-0.45863 -19.08529,-15.16944 -19.72029,-15.41637 -0.28221,-0.10583 -1.02304,0.5997 -1.94027,1.94027 z"
       style="stroke-width:0.0352777;fill:#9575cd;fill-opacity:1" />
    <path
       id="path16961"
       d="m 209.51386,67.695832 c -2.61056,2.08137 -7.09084,5.57387 -9.94834,7.79637 -2.89277,2.2225 -5.22111,4.19807 -5.22111,4.33917 0,0.4586 1.79917,2.46943 2.18722,2.46943 0.24695,0 20.03778,-13.12333 21.02556,-13.96997 0.35278,-0.24693 -2.54,-4.37443 -3.03389,-4.37443 -0.14111,0 -2.39889,1.69333 -5.00944,3.73943 z"
       style="stroke-width:0.0352777;fill:#9575cd;fill-opacity:1" />
    <path
       id="path16963"
       d="m 512.44413,70.729702 -1.69333,2.18723 0.81137,0.74084 c 3.38667,3.21027 18.30917,16.40416 18.52083,16.40416 0.3528,0 4.3039,-4.93889 4.97417,-6.24416 0.42333,-0.74084 0.42333,-0.9525 0,-1.34057 -0.635,-0.59973 -19.86137,-13.54664 -20.4611,-13.7583 -0.28223,-0.10584 -1.09361,0.63497 -2.15194,2.0108 z"
       style="stroke-width:0.0352777;fill:#9575cd;fill-opacity:1" />
    <path
       id="path16965"
       d="m 207.74997,75.950802 c -5.715,3.8453 -10.44222,7.1614 -10.51278,7.37307 -0.14111,0.4586 4.90361,7.05556 5.3975,7.09083 0.38805,0 19.22639,-16.79223 19.22639,-17.145 0,-0.35277 -3.21028,-4.37443 -3.45722,-4.37443 -0.14112,0.0353 -4.93889,3.175 -10.65389,7.05553 z"
       style="stroke-width:0.0352777;fill:#9575cd;fill-opacity:1" />
    <path
       id="path16967"
       d="m 508.88107,75.598042 c -0.91723,0.98776 -1.62277,2.01083 -1.55223,2.29306 0.17639,0.74083 19.64973,15.76917 20.17889,15.59277 0.28223,-0.10583 0.8114,-0.67027 1.23473,-1.23473 0.91721,-1.34054 1.51694,-0.67027 -8.07862,-9.27804 -4.16277,-3.73946 -8.14917,-7.3025 -8.85471,-7.9728 l -1.27,-1.19943 z"
       style="stroke-width:0.0352777;fill:#9575cd;fill-opacity:1" />
    <path
       id="path16969"
       d="m 212.9358,82.618302 c -5.18583,4.69197 -9.41917,8.7489 -9.41917,8.99584 0,0.74083 2.01084,2.43416 2.54,2.11666 1.16417,-0.67026 19.685,-15.3811 19.685,-15.62803 0,-0.14113 -0.74083,-1.09363 -1.69333,-2.11667 l -1.65806,-1.905 z"
       style="stroke-width:0.0352777;fill:#9575cd;fill-opacity:1" />
    <path
       id="path16971"
       d="m 504.15384,80.536932 c -0.84667,0.9525 -1.48167,1.94027 -1.41111,2.25777 0.10584,0.52917 2.11667,2.64584 12.20611,13.0175 l 5.43279,5.609168 1.05833,-1.02307 c 1.69334,-1.587498 4.93888,-5.714998 4.79777,-6.067758 -0.17639,-0.52917 -19.685,-15.5575 -20.1436,-15.52224 -0.21167,0.0353 -1.1289,0.8114 -1.94029,1.72863 z"
       style="stroke-width:0.0352777;fill:#9575cd;fill-opacity:1" />
    <path
       id="path16973"
       d="m 216.25191,86.922202 c -8.255,6.45584 -9.87778,7.86694 -9.59555,8.36084 0.59972,1.0936 5.36222,6.067758 5.82083,6.067758 0.35278,0 7.69055,-7.443598 15.875,-16.121928 l 2.08139,-2.2225 -1.65806,-1.94027 c -0.91722,-1.05833 -1.86972,-1.9403 -2.11666,-1.9403 -0.24695,0 -4.93889,3.4925 -10.40695,7.7964 z"
       style="stroke-width:0.0352777;fill:#9575cd;fill-opacity:1" />
    <path
       id="path16975"
       d="m 499.99107,85.299432 c -0.88194,0.88194 -1.55221,1.83444 -1.48167,2.11667 0.1764,0.7761 18.30917,17.109698 18.97944,17.109698 0.35279,0 2.11666,-2.0461 2.11666,-2.43416 0,-0.28221 -16.8275,-17.674168 -17.53304,-18.132768 -0.28223,-0.1764 -1.02306,0.28223 -2.08139,1.34056 z"
       style="stroke-width:0.0352777;fill:#9575cd;fill-opacity:1" />
    <path
       id="path16977"
       d="m 221.86108,93.272202 -8.92528,9.207498 1.27,1.27 1.27,1.23473 2.75167,-2.39889 c 5.15055,-4.480268 16.33361,-14.710838 16.33361,-14.957768 0,-0.28223 -3.28084,-3.56307 -3.59834,-3.56307 -0.10583,0 -4.23333,4.1275 -9.10166,9.2075 z"
       style="stroke-width:0.0352777;fill:#9575cd;fill-opacity:1" />
    <path
       id="path16979"
       d="m 495.29913,89.850272 c -1.0936,1.0936 -1.79917,2.11666 -1.69333,2.39887 0.21166,0.52916 13.89943,16.862788 15.41637,18.414998 l 0.98779,1.02306 3.21027,-2.96333 c 1.7639,-1.62277 3.175,-3.13973 3.13973,-3.38667 -0.10583,-0.35277 -18.76776,-17.391928 -19.08526,-17.391928 -0.0353,0 -0.9525,0.84666 -1.97557,1.905 z"
       style="stroke-width:0.0352777;fill:#9575cd;fill-opacity:1" />
    <path
       id="path16981"
       d="m 225.98858,96.799972 c -5.18584,4.656668 -9.41917,8.643068 -9.41917,8.889998 0,0.45863 4.90361,5.29167 5.92667,5.85613 0.59972,0.3175 1.65805,-0.8114 8.5725,-9.03113 4.33916,-5.150538 8.04333,-9.630828 8.21972,-9.913038 0.21167,-0.35279 -0.24695,-1.02306 -1.5875,-2.39889 -1.02306,-1.05834 -1.97556,-1.905 -2.08139,-1.905 -0.10583,0 -4.445,3.81 -9.63083,8.50193 z"
       style="stroke-width:0.0352777;fill:#9575cd;fill-opacity:1" />
    <path
       id="path16983"
       d="m 490.71303,94.471642 c -1.02307,0.9525 -1.7639,1.83446 -1.72863,1.97556 0.1764,0.4586 17.3214,18.309168 17.6036,18.309168 0.45863,0 2.43417,-1.79917 2.43417,-2.2225 0,-0.42333 -13.4761,-16.651098 -15.52221,-18.732498 l -0.98776,-1.02307 z"
       style="stroke-width:0.0352777;fill:#9575cd;fill-opacity:1" />
    <path
       id="path16985"
       d="m 235.68997,98.316932 c -6.6675,7.796368 -11.71223,14.040538 -11.71223,14.534438 0,0.24693 0.49389,0.84667 1.09362,1.34056 0.91722,0.77611 1.19944,0.88194 1.65805,0.49387 1.5875,-1.30526 17.00389,-17.709428 17.00389,-18.097498 0,-0.4586 -3.03389,-3.35137 -3.4925,-3.35137 -0.10583,0 -2.15195,2.29304 -4.55083,5.08 z"
       style="stroke-width:0.0352777;fill:#9575cd;fill-opacity:1" />
    <path
       id="path16987"
       d="m 485.6683,98.493302 c -1.0936,0.88197 -2.01084,1.763898 -2.01084,1.940298 -0.0353,0.4586 14.49917,20.39054 15.02834,20.56694 0.4586,0.17639 4.33916,-2.78694 6.1736,-4.72724 l 0.9525,-0.98776 -8.5372,-8.81944 c -4.69197,-4.86833 -8.7489,-8.995828 -9.0664,-9.207498 -0.42334,-0.3175 -0.91723,-0.10583 -2.54,1.2347 z"
       style="stroke-width:0.0352777;fill:#9575cd;fill-opacity:1" />
    <path
       id="path16989"
       d="m 236.00747,106.36027 -8.85473,9.24277 1.12889,1.19943 c 1.34056,1.37583 5.36223,4.65667 5.75028,4.65667 0.14111,0 0.59972,-0.42334 1.02306,-0.9525 1.05833,-1.34054 11.81805,-16.15721 13.19388,-18.16804 l 1.12889,-1.6228 -2.08139,-1.799158 c -1.12888,-0.98777 -2.15194,-1.79917 -2.25777,-1.79917 -0.10584,0 -4.16278,4.162798 -9.03111,9.242798 z"
       style="stroke-width:0.0352777;fill:#9575cd;fill-opacity:1" />
    <path
       id="path16991"
       d="m 481.29386,102.3386 c -3.06916,2.25777 -3.45723,1.30527 4.83304,11.18304 4.05696,4.86833 7.83167,9.24279 8.36083,9.77196 l 0.9525,0.9525 1.3053,-1.1289 1.34054,-1.1289 -7.09084,-9.70137 c -3.88053,-5.32696 -7.33777,-9.98363 -7.69053,-10.33639 -0.56447,-0.59974 -0.6703,-0.56444 -2.01084,0.38806 z"
       style="stroke-width:0.0352777;fill:#9575cd;fill-opacity:1" />
    <path
       id="path16993"
       d="m 242.28691,112.0047 -7.47889,10.26584 1.12889,1.02306 c 0.59972,0.52917 1.30528,0.98777 1.55222,0.98777 0.38806,0 15.41639,-17.56833 16.26306,-18.97944 0.24694,-0.42333 -0.0706,-0.91723 -1.41111,-2.08139 -0.91723,-0.84667 -1.905,-1.51694 -2.15195,-1.51694 -0.24694,0 -3.77472,4.62137 -7.90222,10.3011 z"
       style="stroke-width:0.0352777;fill:#9575cd;fill-opacity:1" />
    <path
       id="path16995"
       d="m 250.36552,110.76997 c -9.03111,10.61863 -11.99444,14.2875 -11.67694,14.56973 0.14111,0.1411 1.79916,1.37584 3.70416,2.75167 3.10445,2.29306 3.42195,2.43417 3.91584,1.905 0.24694,-0.3175 3.38666,-5.2564 6.94972,-10.9714 l 6.45583,-10.40693 -1.34055,-1.09361 c -0.74084,-0.635 -1.76389,-1.41113 -2.32834,-1.72863 l -0.98777,-0.56443 z"
       style="stroke-width:0.0352777;fill:#9575cd;fill-opacity:1" />
    <path
       id="path16997"
       d="m 475.6847,106.39554 c -0.9525,0.635 -1.86974,1.4111 -2.04613,1.69333 -0.24694,0.42333 1.30529,3.13973 6.42056,11.35943 l 6.77333,10.8303 2.18724,-1.48167 c 2.64583,-1.79916 5.18583,-3.81 5.18583,-4.1275 0,-0.45863 -15.94557,-19.26166 -16.3689,-19.3675 -0.24693,-0.0706 -1.19943,0.42334 -2.15193,1.09361 z"
       style="stroke-width:0.0352777;fill:#9575cd;fill-opacity:1" />
    <path
       id="path16999"
       d="m 470.21663,110.45247 c -1.05833,0.74083 -1.905,1.55223 -1.83443,1.7639 0.0705,0.35277 13.68776,19.3675 14.53443,20.28473 0.3175,0.35277 2.11667,-0.4939 2.78694,-1.3053 0.35279,-0.42333 -0.70554,-2.32833 -6.35,-11.28887 -3.70417,-5.92666 -6.84387,-10.795 -6.985,-10.795 -0.10584,0 -1.09361,0.635 -2.15194,1.34054 z"
       style="stroke-width:0.0352777;fill:#9575cd;fill-opacity:1" />
    <path
       id="path17001"
       d="m 259.89052,110.06443 c -0.77611,0.91721 -12.98222,20.60221 -12.98222,20.955 0,0.17637 0.59972,0.70554 1.30528,1.19944 1.05833,0.70556 1.41111,0.7761 1.76389,0.42333 0.21166,-0.21166 3.66888,-4.9036 7.65527,-10.37166 l 7.23195,-9.94834 -1.30528,-1.02306 c -1.19944,-0.9525 -2.64583,-1.83444 -2.99861,-1.83444 -0.0706,0 -0.38806,0.28223 -0.67028,0.59973 z"
       style="stroke-width:0.0352777;fill:#9575cd;fill-opacity:1" />
    <path
       id="path17003"
       d="m 260.10219,120.29497 c -3.06917,4.23333 -6.42056,8.85473 -7.47889,10.26583 -1.02306,1.4464 -1.79917,2.78697 -1.72861,3.0339 0.21166,0.56444 6.42055,4.51557 7.16139,4.5861 0.52916,0.0353 12.13555,-21.30776 12.13555,-22.3661 0,-0.42333 -3.81,-3.175 -4.37444,-3.175 -0.10584,0 -2.68111,3.45723 -5.715,7.65527 z"
       style="stroke-width:0.0352777;fill:#9575cd;fill-opacity:1" />
    <path
       id="path17005"
       d="m 464.46636,113.9097 c -1.51696,0.9525 -1.97556,1.4111 -1.83446,1.86973 0.3175,1.02304 11.1478,21.34304 11.67696,21.87221 0.38804,0.42333 0.88194,0.24696 3.28084,-1.19944 1.5522,-0.91723 3.24553,-2.0461 3.7747,-2.46943 l 0.9878,-0.77613 -2.50474,-3.4925 c -8.64306,-11.95917 -12.34723,-16.89804 -12.80583,-16.9686 -0.28223,-0.0706 -1.4464,0.4586 -2.57527,1.16416 z"
       style="stroke-width:0.0352777;fill:#9575cd;fill-opacity:1" />
    <path
       id="path17007"
       d="m 459.59803,117.04943 c -2.99863,1.55221 -3.24557,0.77611 4.0922,12.52361 3.63363,5.82083 6.73807,10.68916 6.91447,10.795 0.42333,0.24693 2.78693,-1.19944 2.78693,-1.69334 0,-0.84666 -11.53583,-22.5425 -11.95917,-22.50723 -0.10583,0.0353 -0.9525,0.42333 -1.83443,0.88196 z"
       style="stroke-width:0.0352777;fill:#9575cd;fill-opacity:1" />
    <path
       id="path17009"
       d="m 265.35858,127.20943 c -3.13973,5.89137 -5.75028,11.00667 -5.82084,11.35944 -0.10583,0.74083 1.905,2.11667 2.68111,1.83443 0.42334,-0.17637 12.94695,-19.8261 13.44084,-21.0961 0.21166,-0.52916 -3.10445,-2.78693 -4.09223,-2.78693 -0.28222,0 -2.71638,4.19803 -6.20888,10.68916 z"
       style="stroke-width:0.0352777;fill:#9575cd;fill-opacity:1" />
    <path
       id="path17011"
       d="m 453.53023,120.29497 c -1.30527,0.70557 -2.3636,1.37583 -2.3636,1.55223 0,0.42334 9.91307,22.64834 10.3011,23.07167 0.21167,0.21167 1.4464,-0.24694 3.56307,-1.30527 5.29166,-2.7164 5.11527,-1.905 1.69333,-7.54946 -3.38667,-5.57387 -9.3839,-15.09887 -10.26583,-16.22777 l -0.56444,-0.7761 z"
       style="stroke-width:0.0352777;fill:#9575cd;fill-opacity:1" />
    <path
       id="path17013"
       d="m 270.0858,129.9258 c -3.63361,5.82084 -6.59695,10.795 -6.59695,11.04197 0,0.635 7.54945,4.79777 7.97278,4.4097 0.14111,-0.1411 10.37167,-23.1775 10.37167,-23.35387 0,-0.21167 -3.56306,-2.2225 -4.40972,-2.46946 -0.59973,-0.17637 -1.5875,1.23473 -7.33778,10.37166 z"
       style="stroke-width:0.0352777;fill:#9575cd;fill-opacity:1" />
    <path
       id="path17015"
       d="m 282.18608,123.46997 c -2.11667,4.58613 -9.87778,22.11917 -9.87778,22.36613 0,0.4586 2.8575,1.83444 3.175,1.48167 0.77611,-0.84667 11.64166,-21.83697 11.57111,-22.29557 -0.10583,-0.4586 -3.4925,-2.46943 -4.19806,-2.50473 -0.10583,0 -0.42333,0.42333 -0.67027,0.9525 z"
       style="stroke-width:0.0352777;fill:#9575cd;fill-opacity:1" />
    <path
       id="path17017"
       d="m 447.77996,123.36414 c -0.98776,0.45863 -1.905,0.98779 -2.01083,1.16416 -0.38806,0.635 11.50057,22.68363 12.2061,22.68363 0.24697,0 0.9525,-0.3175 1.55223,-0.70556 l 1.1289,-0.67027 -1.51696,-3.63363 c -3.35137,-8.04333 -8.78417,-19.685 -9.1722,-19.685 -0.21167,0 -1.19947,0.38807 -2.18724,0.84667 z"
       style="stroke-width:0.0352777;fill:#9575cd;fill-opacity:1" />
    <path
       id="path17019"
       d="m 286.56052,128.58527 c -3.13972,5.60916 -10.01889,18.76777 -10.01889,19.1911 0,0.4586 6.80861,3.6689 7.76111,3.6689 0.49389,0 1.44639,-2.29307 4.90361,-11.81807 2.32834,-6.4911 4.26861,-11.95916 4.26861,-12.13556 0,-0.1411 -1.09361,-0.7761 -2.46944,-1.37584 l -2.46944,-1.0936 z"
       style="stroke-width:0.0352777;fill:#9575cd;fill-opacity:1" />
    <path
       id="path17021"
       d="m 441.74746,126.04527 c -1.23473,0.56443 -2.2225,1.19943 -2.2225,1.44637 0,0.56446 8.14917,22.96583 8.53724,23.495 0.24693,0.3175 0.67026,0.28223 1.79916,-0.10584 2.39887,-0.84666 6.59694,-2.96333 6.59694,-3.35137 0,-0.35279 -11.14777,-21.37833 -11.71223,-22.11916 -0.45861,-0.56447 -0.45861,-0.56447 -2.99861,0.635 z"
       style="stroke-width:0.0352777;fill:#9575cd;fill-opacity:1" />
    <path
       id="path17023"
       d="m 436.17357,128.54997 c -2.71637,1.1289 -2.71637,1.05833 -1.41111,4.1275 4.26861,10.05417 9.2075,20.53167 9.66611,20.53167 0.21166,0 0.91723,-0.28221 1.62279,-0.59971 0.98777,-0.45863 1.19944,-0.74083 1.02304,-1.30529 -0.38804,-1.30527 -8.255,-22.82471 -8.46667,-23.1775 -0.24693,-0.42334 -0.38803,-0.38804 -2.43416,0.42333 z"
       style="stroke-width:0.0352777;fill:#9575cd;fill-opacity:1" />
    <path
       id="path17025"
       d="m 290.22941,139.34497 c -2.25778,6.17363 -4.19806,11.57113 -4.33917,12.02973 -0.21166,0.67027 0,0.88194 1.30528,1.48167 0.84667,0.35277 1.62278,0.56443 1.76389,0.42333 0.635,-0.70556 10.19528,-22.78943 10.01889,-23.21277 -0.21167,-0.56446 -2.08139,-1.44639 -3.70417,-1.76389 l -0.98778,-0.21167 z"
       style="stroke-width:0.0352777;fill:#9575cd;fill-opacity:1" />
    <path
       id="path17027"
       d="m 430.03523,130.80777 c -1.2347,0.4586 -2.3636,0.9525 -2.5047,1.12887 -0.28223,0.3175 6.42054,23.95363 6.985,24.51806 0.3175,0.3175 8.5372,-2.46943 8.5372,-2.92806 0,-0.4586 -9.9836,-22.71887 -10.37166,-23.14221 -0.28221,-0.3175 -0.91721,-0.21166 -2.64584,0.42334 z"
       style="stroke-width:0.0352777;fill:#9575cd;fill-opacity:1" />
    <path
       id="path17029"
       d="m 299.68385,131.40747 c -0.24694,0.635 -2.57527,5.82083 -5.11527,11.50057 -2.54,5.715 -4.62139,10.4775 -4.62139,10.65389 0,0.49387 8.255,3.4925 8.60777,3.13971 0.28223,-0.28221 6.91445,-23.53027 6.91445,-24.20054 0,-0.52917 -0.56445,-0.88196 -2.18722,-1.4464 -2.8575,-1.02306 -2.99861,-0.98777 -3.59834,0.35277 z"
       style="stroke-width:0.0352777;fill:#9575cd;fill-opacity:1" />
    <path
       id="path17031"
       d="m 423.5794,133.17137 c -1.12887,0.38806 -2.0461,0.91723 -2.0461,1.16417 0,0.56443 8.29027,23.42443 8.60777,23.74193 0.14113,0.10583 0.91723,0 1.72863,-0.3175 1.27,-0.42333 1.48166,-0.635 1.37583,-1.37583 -0.21167,-1.51694 -6.49113,-23.07167 -6.8439,-23.56554 -0.4586,-0.52917 -0.35277,-0.52917 -2.82223,0.35277 z"
       style="stroke-width:0.0352777;fill:#9575cd;fill-opacity:1" />
    <path
       id="path17033"
       d="m 305.85746,134.93527 c -1.05833,3.24553 -5.18583,17.7447 -5.715,20.17887 -0.42333,1.905 -0.38805,2.11666 0.21167,2.54 0.9525,0.70556 2.50472,0.635 2.82222,-0.1411 2.04611,-5.15057 8.29028,-22.86 8.14917,-23.1775 -0.17639,-0.45861 -3.10445,-1.5875 -4.1275,-1.5875 -0.42333,0 -0.81139,0.635 -1.34056,2.18723 z"
       style="stroke-width:0.0352777;fill:#9575cd;fill-opacity:1" />
    <path
       id="path17035"
       d="m 417.29996,134.97054 c -1.86972,0.635 -2.29305,0.91723 -2.2225,1.48166 0.10584,1.27 5.04474,24.2711 5.22111,24.4475 0.17639,0.1764 5.715,-1.27 7.69056,-2.01083 0.52917,-0.21167 0.9525,-0.59973 0.9525,-0.88194 0,-0.67029 -8.0786,-22.82473 -8.53723,-23.42446 -0.4586,-0.52917 -0.38804,-0.56443 -3.10444,0.38807 z"
       style="stroke-width:0.0352777;fill:#9575cd;fill-opacity:1" />
    <path
       id="path17037"
       d="m 312.34857,134.93527 c -4.02166,10.7597 -8.50194,23.4597 -8.32555,23.67137 0.24694,0.24696 8.5725,2.78696 8.67833,2.64583 0.14111,-0.21167 5.00945,-23.38917 5.18584,-24.5886 0.10583,-0.74083 -0.14112,-0.91723 -1.65806,-1.48167 -2.11667,-0.74083 -3.66889,-0.84666 -3.88056,-0.24693 z"
       style="stroke-width:0.0352777;fill:#9575cd;fill-opacity:1" />
    <path
       id="path17039"
       d="m 410.84413,136.7697 c -0.91722,0.24694 -1.76389,0.52917 -1.86972,0.635 -0.10584,0.10584 1.37583,5.67973 3.28083,12.31194 3.21028,11.25363 3.52778,12.13556 4.30389,12.2414 0.42333,0.0706 1.23472,-0.0353 1.76389,-0.28224 0.81139,-0.3175 0.95251,-0.56443 0.81139,-1.34053 -0.17639,-1.19947 -4.58611,-22.0839 -4.86834,-23.2128 -0.24694,-0.98777 -0.84666,-1.02304 -3.42194,-0.35277 z"
       style="stroke-width:0.0352777;fill:#9575cd;fill-opacity:1" />
    <path
       id="path17041"
       d="m 318.73385,137.2283 c -0.10583,0.3528 -1.30528,5.85613 -2.68111,12.27667 -2.29305,10.86557 -2.39889,11.67696 -1.83444,12.1003 0.3175,0.24693 1.16416,0.42333 1.83444,0.35277 l 1.19945,-0.10584 3.24555,-11.32416 c 1.79917,-6.24417 3.31611,-11.71224 3.38667,-12.13557 0.0706,-0.635 -0.14111,-0.9172 -1.12889,-1.27 -1.86972,-0.67027 -3.81,-0.635 -4.02167,0.10583 z"
       style="stroke-width:0.0352777;fill:#9575cd;fill-opacity:1" />
    <path
       id="path17043"
       d="m 324.87219,138.46304 c -0.49389,1.16416 -6.70278,23.10693 -6.70278,23.67139 0,0.35277 1.16416,0.74084 3.81,1.30527 2.08139,0.42334 3.98639,0.84667 4.19805,0.91723 0.24695,0.0705 0.59973,-0.14113 0.77611,-0.49389 0.38806,-0.77611 3.13973,-19.93194 3.28084,-22.96584 l 0.10583,-2.25777 -1.94028,-0.45863 c -2.71639,-0.635 -3.13972,-0.5997 -3.52777,0.28224 z"
       style="stroke-width:0.0352777;fill:#9575cd;fill-opacity:1" />
    <path
       id="path17045"
       d="m 404.17663,138.11027 c -1.51694,0.3175 -1.69333,0.4586 -1.69333,1.30527 0,0.49389 0.74083,6.27943 1.62277,12.80583 1.94028,13.7936 1.05834,12.3825 6.87917,11.14777 1.94028,-0.38804 3.63361,-0.9525 3.73945,-1.19944 0.21166,-0.59973 -4.72723,-18.20333 -6.45584,-23.0011 -0.59972,-1.65806 -0.88194,-1.72863 -4.09222,-1.05833 z"
       style="stroke-width:0.0352777;fill:#9575cd;fill-opacity:1" />
    <path
       id="path17047"
       d="m 331.43385,140.05054 c -0.14111,0.7761 -1.83444,12.5236 -3.24555,22.93056 -0.21167,1.37583 -0.14111,1.51694 0.74083,1.8697 1.5875,0.59974 2.61056,0.45863 2.82222,-0.4586 1.55222,-6.59693 5.04472,-24.05943 4.86834,-24.2711 -0.24695,-0.21167 -3.95112,-1.02306 -4.72723,-1.02306 -0.14111,0 -0.35277,0.42333 -0.45861,0.9525 z"
       style="stroke-width:0.0352777;fill:#9575cd;fill-opacity:1" />
    <path
       id="path17049"
       d="m 398.07357,139.4861 c -0.77611,0.17637 -1.51694,0.4586 -1.69333,0.635 -0.21167,0.21167 3.56306,19.1911 4.7625,23.6361 l 0.38806,1.51694 1.44639,-0.21167 c 0.81138,-0.1411 1.55222,-0.35277 1.69333,-0.49387 0.38805,-0.38806 -2.92806,-24.3064 -3.45722,-25.18833 -0.21167,-0.3528 -1.30528,-0.3175 -3.13973,0.10583 z"
       style="stroke-width:0.0352777;fill:#9575cd;fill-opacity:1" />
    <path
       id="path17051"
       d="m 337.81913,140.4033 c -0.38806,0.59974 -5.22111,24.23584 -5.04472,24.65917 0.24694,0.59973 8.46666,1.83446 8.78416,1.3053 0.10584,-0.1764 0.52917,-5.04473 0.91723,-10.86557 0.38805,-5.82083 0.81138,-11.39473 0.91722,-12.34723 0.0706,-0.98777 0.0353,-1.94027 -0.10584,-2.1872 -0.3175,-0.4939 -5.18583,-1.02307 -5.46805,-0.56447 z"
       style="stroke-width:0.0352777;fill:#9575cd;fill-opacity:1" />
    <path
       id="path17053"
       d="m 390.84163,140.4033 c -0.49389,0.10584 -0.98778,0.28224 -1.16417,0.42334 -0.3175,0.3175 1.44639,25.15306 1.79917,25.50583 0.14111,0.14113 2.2225,0 4.58611,-0.3175 3.45722,-0.4586 4.30389,-0.67027 4.30389,-1.12887 0,-0.59973 -4.83306,-23.5303 -5.11528,-24.3064 -0.14111,-0.42333 -2.46944,-0.52916 -4.40972,-0.1764 z"
       style="stroke-width:0.0352777;fill:#9575cd;fill-opacity:1" />
    <path
       id="path17055"
       d="m 344.45135,141.60277 c -0.0705,0.2822 -0.49389,5.00943 -0.88194,10.54803 -0.38806,5.53863 -0.77611,11.04197 -0.91723,12.2414 l -0.17638,2.18723 1.16416,0.3175 c 1.44639,0.38804 2.32834,0.17637 2.54,-0.59973 0.56445,-1.86973 3.52778,-24.34166 3.24556,-24.6239 -0.0706,-0.10583 -1.19945,-0.2822 -2.46945,-0.35276 -1.76389,-0.14111 -2.36361,-0.0706 -2.50472,0.28223 z"
       style="stroke-width:0.0352777;fill:#9575cd;fill-opacity:1" />
    <path
       id="path17057"
       d="m 384.0683,141.46164 c -0.42334,0.10583 -0.635,0.4939 -0.635,1.23473 0,1.19943 3.10444,23.3186 3.35139,24.02417 0.14111,0.28223 0.74083,0.38806 1.83444,0.28223 l 1.62278,-0.10584 -0.24695,-5.18583 c -0.21166,-5.36223 -0.81139,-14.07583 -1.19944,-18.02696 l -0.24695,-2.29304 -1.94027,-0.0706 c -1.05834,0 -2.2225,0.0353 -2.54,0.1411 z"
       style="stroke-width:0.0352777;fill:#9575cd;fill-opacity:1" />
    <path
       id="path17059"
       d="m 350.51913,142.6611 c -1.05833,5.96194 -3.38667,24.13 -3.13972,24.37694 0.21166,0.21166 2.25777,0.42333 4.55083,0.52916 l 4.23333,0.21167 0.21167,-1.02307 c 0.28222,-1.37583 0.14111,-24.37693 -0.17639,-24.65916 -0.10583,-0.10584 -1.41111,-0.3175 -2.8575,-0.42334 l -2.61055,-0.21166 z"
       style="stroke-width:0.0352777;fill:#9575cd;fill-opacity:1" />
    <path
       id="path17061"
       d="m 377.61246,141.81443 c -0.38805,0.10584 -0.81139,0.35277 -0.9525,0.59971 -0.38805,0.56446 -0.3175,24.27113 0.0353,24.87083 0.24695,0.38807 1.16417,0.45863 4.445,0.3175 2.25778,-0.10583 4.23333,-0.3175 4.40972,-0.49387 0.3175,-0.3175 -2.89277,-24.4475 -3.35139,-25.15306 -0.21166,-0.38807 -3.24555,-0.45861 -4.58611,-0.14111 z"
       style="stroke-width:0.0352777;fill:#9575cd;fill-opacity:1" />
    <path
       id="path17063"
       d="m 357.32774,155.14943 v 12.87637 h 1.72861 1.76389 l 0.17639,-1.48166 c 0.10583,-0.84667 0.42333,-5.08 0.74083,-9.45444 0.28223,-4.37443 0.59973,-9.48973 0.74084,-11.39473 l 0.24694,-3.42193 h -2.71639 -2.68111 z"
       style="stroke-width:0.0352777;fill:#9575cd;fill-opacity:1" />
    <path
       id="path17065"
       d="m 363.53663,143.40193 c -0.21167,1.30527 -1.62278,22.15444 -1.62278,23.63611 v 0.98776 h 4.58611 c 4.51556,0 4.58611,0 4.58611,-0.81137 0,-1.37583 -1.41111,-21.87223 -1.62277,-23.45973 l -0.17639,-1.48166 h -2.78695 -2.78694 z"
       style="stroke-width:0.0352777;fill:#9575cd;fill-opacity:1" />
    <path
       id="path17067"
       d="m 370.55691,146.40054 c 0.3175,5.8561 1.19944,17.56833 1.44639,19.79083 l 0.21166,1.86973 1.65806,-0.10583 1.62278,-0.10584 0.10583,-12.80583 0.0706,-12.77056 H 372.99111 370.31 Z"
       style="stroke-width:0.0352777;fill:#9575cd;fill-opacity:1" />
  </g>
</svg>
