<?xml version="1.0" encoding="UTF-8" standalone="no"?>
<svg
   xmlns:dc="http://purl.org/dc/elements/1.1/"
   xmlns:cc="http://creativecommons.org/ns#"
   xmlns:rdf="http://www.w3.org/1999/02/22-rdf-syntax-ns#"
   xmlns:svg="http://www.w3.org/2000/svg"
   xmlns="http://www.w3.org/2000/svg"
   xmlns:sodipodi="http://sodipodi.sourceforge.net/DTD/sodipodi-0.dtd"
   xmlns:inkscape="http://www.inkscape.org/namespaces/inkscape"
   sodipodi:docname="ring-1.svg"
   inkscape:version="1.0 (4035a4fb49, 2020-05-01)"
   id="svg17736"
   version="1.1"
   viewBox="0 0 95.052818 95.21801"
   height="95.21801mm"
   width="95.052818mm">
  <defs
     id="defs17730" />
  <sodipodi:namedview
     inkscape:snap-bbox-midpoints="true"
     inkscape:snap-bbox-edge-midpoints="true"
     inkscape:bbox-nodes="true"
     inkscape:bbox-paths="true"
     inkscape:snap-bbox="true"
     inkscape:window-maximized="1"
     inkscape:window-y="36"
     inkscape:window-x="0"
     inkscape:window-height="1044"
     inkscape:window-width="1920"
     inkscape:snap-global="true"
     showgrid="false"
     inkscape:document-rotation="0"
     inkscape:current-layer="layer1"
     inkscape:document-units="mm"
     inkscape:cy="232.41971"
     inkscape:cx="538.58011"
     inkscape:zoom="1"
     inkscape:pageshadow="2"
     inkscape:pageopacity="0.0"
     borderopacity="1.0"
     bordercolor="#666666"
     pagecolor="#ffffff"
     id="base" />
  <metadata
     id="metadata17733">
    <rdf:RDF>
      <cc:Work
         rdf:about="">
        <dc:format>image/svg+xml</dc:format>
        <dc:type
           rdf:resource="http://purl.org/dc/dcmitype/StillImage" />
        <dc:title />
      </cc:Work>
    </rdf:RDF>
  </metadata>
  <g
     transform="translate(31.65141,-53.688615)"
     id="layer1"
     inkscape:groupmode="layer"
     inkscape:label="Layer 1">
    <ellipse
       style="opacity:0.998;fill:#f48fb1;fill-opacity:1;stroke-width:5.08773;stroke-linecap:round"
       id="path18060-8"
       cx="15.874955"
       cy="101.29758"
       rx="47.526409"
       ry="47.608967" />
    <path
       transform="matrix(0.26458333,0,0,0.26458333,-31.65141,53.688615)"
       d="m 179.09961,0 a 179.62737,179.9394 0 0 0 -17.39063,0.8984375 c 1.72906,0.9377342 4.1999,5.8361609 9.625,17.9023435 L 178.13281,34.267578 172.80078,46 c -6.26667,13.466665 -5.73398,13.466794 -15.33398,-0.533203 l -6.40039,-9.199219 3.59961,-16.40039 c 1.99999,-9.066668 4.2664,-17.334247 5.0664,-18.2675786 0.18633,-0.2329132 0.37215,-0.407324 0.55664,-0.5527344 A 179.62737,179.9394 0 0 0 124.625,8.6445312 c 2.02313,0.7823234 5.29394,4.5126988 11.10742,12.5546878 12.53334,16.93333 12.13491,15.866536 9.60156,28.533203 -1.2,6 -2.66731,11.466663 -3.33398,12 -0.53333,0.666663 -4.26615,-1.599741 -8.13281,-5.066406 C 121.46719,45.866016 122,47.20013 122,27.466797 c 0,-8.983181 0.342,-16.635333 0.70898,-18.1933595 A 179.62737,179.9394 0 0 0 59.876953,45.820312 c 0.354906,-0.295772 0.736107,-0.486328 1.056641,-0.486328 2.933333,0 31.598958,17.599091 32.265625,19.732422 0.266668,1.2 1.334764,5.867577 2.134765,10.267578 0.799998,4.399998 1.866167,9.065625 2.132813,10.265625 0.933335,3.333332 -3.334506,2.934636 -15.201172,-1.332031 l -9.865234,-3.601562 -7.066407,-16 c -3.866668,-8.800003 -6.667074,-16.799608 -6.40039,-17.59961 0.190109,-0.443588 0.504441,-0.850328 0.849609,-1.162109 a 179.62737,179.9394 0 0 0 -25.375,28.126953 c 1.25627,-1.28005 5.895553,-0.133395 20.125,4.501953 l 16,5.066406 4.933594,11.466797 c 2.799999,6.399994 4.399089,11.867064 3.732422,12.400394 -0.666667,0.39998 -4.666927,0.40051 -8.933594,-0.13282 C 53.732358,105.60066 55.066147,106.40066 44.132812,91.333984 38.532811,83.600651 34,76.40065 34,75.333984 c 0,-0.474012 0.09026,-0.851091 0.292969,-1.142578 a 179.62737,179.9394 0 0 0 -18.53711,32.054684 c 0.672904,-0.63569 2.178613,-0.91211 4.644532,-0.91211 5.733335,0 27.999739,2.39871 31.066406,3.33204 3.066667,1.06667 16.133723,20.26731 14.400391,21.33398 -2.000002,1.33333 -22.000391,2.93333 -24.400391,2 -3.333336,-1.2 -26.132813,-22.80078 -26.132813,-24.80078 a 179.62737,179.9394 0 0 0 -2.814453,6.74414 c 0.360721,-0.3611 0.931008,-0.60938 1.347657,-0.60938 1.066669,0 20.532551,17.19935 21.199218,18.66602 0.666667,1.73333 -3.467055,2.53347 -16.40039,3.4668 C 10.132685,136.13347 6,135.86641 6,135.06641 c 0,-1.06904 2.3445114,-9.09655 4.203125,-14.90625 A 179.62737,179.9394 0 0 0 4.0625,141.89258 c 1.2285222,-0.88999 5.705125,-1.9955 11.404297,-2.69336 6.13333,-0.8 14.666927,-1.59908 18.933594,-1.73242 l 7.867187,-0.13282 8.533203,8.26563 c 4.666666,4.53333 8.132943,8.66783 7.59961,9.20117 -0.666667,0.4 -5.999482,2.53315 -12.132813,4.5332 l -10.933594,3.59961 -9.066406,-5.0664 C 12.596784,150.25904 4.8782609,145.20208 3.8339844,142.96484 a 179.62737,179.9394 0 0 0 -1.953125,10.99805 c 0.5695822,-2.65126 1.3587365,-4.62891 1.9863281,-4.62891 3.0666671,0 24.9324215,13.7336 23.7324215,14.9336 -1.2,1.2 -16.265883,6.53229 -23.1992184,8.26562 -3.59999242,0.8 -3.73437498,0.66719 -3.73437498,-4.13281 0,-2.09878 0.22679178,-5.69569 0.50781248,-8.99414 A 179.62737,179.9394 0 0 0 0,179.86719 c 0,-1.2 5.5999987,-3.86678 16,-7.4668 8.799999,-3.06667 16.79909,-5.59961 17.732422,-5.59961 2.000001,-0.13333 22.933594,11.73164 22.933594,12.93164 0,2.00001 -19.866797,12.26818 -23.466797,12.13477 C 26.79922,191.73385 0,182.13385 0,179.86719 a 179.62737,179.9394 0 0 0 0,0.0723 179.62737,179.9394 0 0 0 34.269531,105.71485 c -0.646169,-1.85895 2.351598,-6.87788 9.863281,-17.1211 C 53.999481,254.79987 55.066735,254.00029 64,252.93359 c 2.266666,-0.26664 6.532421,-0.66736 9.732422,-0.80078 7.2,-0.13334 7.19987,1.1999 0.533203,14.53321 l -4.931641,10 L 54,281.59961 c -8.4,2.66665 -16.399609,4.93359 -17.599609,4.93359 -0.778215,0.0472 -1.350265,-0.0551 -1.72461,-0.32031 a 179.62737,179.9394 0 0 0 24.416016,27.13672 c -0.279001,-3.73918 10.918124,-31.22674 13.974609,-34.2832 0.933332,-0.80002 6.40091,-3.0655 12.267578,-4.79883 13.333331,-4.26667 12.79948,-4.13463 12.132813,-0.66797 -0.399999,1.73333 -1.334247,6.66643 -2.267578,11.06641 -0.800002,4.40001 -2.265884,9.33413 -3.199219,10.80078 -2.538627,3.9349 -28.501611,18.37123 -32.371094,18.36914 a 179.62737,179.9394 0 0 0 29.56836,21.57617 c -0.371048,-0.37814 -0.53125,-1.07728 -0.53125,-2.07813 0,-3.46665 5.200778,-27.73475 6.800781,-32.13476 0.933332,-2.13336 4.666923,-5.33164 10.933593,-8.93164 5.33333,-3.06667 10.3987,-5.60156 11.33203,-5.60156 1.2,0 1.60156,3.33322 1.60156,12.5332 v 12.66797 l -13.46679,12 c -9.735495,8.78104 -14.345209,12.29937 -16.17969,11.83008 a 179.62737,179.9394 0 0 0 89.93945,24.18164 179.62737,179.9394 0 0 0 54.60352,-8.51563 c -0.11941,-0.0444 -0.23801,-0.0865 -0.36328,-0.16406 -3.33333,-1.99998 -21.20117,-27.99884 -21.20117,-30.79883 0,-1.59999 0.93424,-7.46643 2.26757,-13.06641 1.2,-5.46667 2.66589,-10 3.19922,-10 1.2,0 15.46758,12.39911 18.26758,15.73243 1.06666,1.46668 1.59961,7.33334 1.59961,18 0,11.38504 -0.73697,17.90831 -2.26172,19.80859 a 179.62737,179.9394 0 0 0 41.3711,-19.79883 c -0.89203,0.54837 -1.58543,0.90352 -1.91016,0.92383 -0.8,0 -6.5332,-24.93333 -6.5332,-28 0,-0.79997 0.53307,-1.33398 1.0664,-1.33398 2,0 23.46667,12.8004 24,14.40039 0.30113,1.00375 -9.13957,8.88218 -14.73828,12.77343 a 179.62737,179.9394 0 0 0 19.73438,-15.20117 c -0.10721,0.0124 -0.20815,0.0324 -0.32813,0.0274 C 297.86705,314.53271 290.4,310.53344 282,305.4668 l -15.33398,-8.9336 -2.26563,-10.66601 c -1.2,-5.73332 -2.26758,-11.60078 -2.26758,-12.80078 -0.13333,-1.33335 0.66628,-2.13245 1.59961,-1.73243 0.8,0.26665 6.53372,1.99999 12.40039,4 l 10.80078,3.4668 L 294,294.66602 c 4.67305,10.53922 6.5988,16.55185 5.95117,18.875 a 179.62737,179.9394 0 0 0 25.01563,-27.86329 c -1.47743,1.2902 -6.86341,-0.11368 -17.36719,-3.54492 -8.53334,-2.80002 -16.40013,-5.86604 -17.4668,-6.66601 -1.73333,-1.33334 -8,-14.26652 -10,-20.53321 -0.93333,-2.66687 -0.5332,-2.93359 3.4668,-2.93359 2.4,0 8.00039,0.53397 12.40039,1.33398 7.06666,1.06666 8.53307,1.86695 13.06641,6.9336 2.66666,3.20001 7.73255,9.73218 11.19921,14.79883 3.75995,5.46901 5.63726,8.7417 5.00391,10.19336 a 179.62737,179.9394 0 0 0 18.3125,-31.8125 c -1.83654,1.21599 -7.94296,0.76576 -18.91601,-0.24805 l -17.4668,-1.73242 -7.33203,-9.86719 c -4,-5.46667 -7.20117,-10.39974 -7.20117,-11.06641 0,-0.53333 2.80039,-1.4672 6.40039,-1.86718 3.46667,-0.40003 7.2009,-1.06581 8.26757,-1.19922 8.66668,-1.86667 10.39988,-1.06756 24.53321,11.73242 7.66651,6.8534 11.93956,10.8216 12.29687,12.93164 a 179.62737,179.9394 0 0 0 5.03711,-12.83594 c -0.1772,0.43161 -0.35627,0.85071 -0.53515,1.23828 L 346,246.93359 l -5.06641,-4 c -6.53334,-5.33333 -16.93281,-16.00076 -16.13281,-16.80078 0.26666,-0.26668 5.59857,-1.19856 11.86524,-1.86523 18,-2.00001 16.53293,-2.40052 15.5996,4.13281 -0.13744,1.0996 -0.42277,2.47379 -0.79492,3.93555 a 179.62737,179.9394 0 0 0 3.71875,-14.32813 c -1.88352,1.38994 -7.49336,2.3427 -18.65625,3.45899 -19.06667,1.86667 -17.46588,2.26732 -29.19922,-8.66602 -3.99999,-3.73334 -6.40104,-6.93489 -5.73437,-7.60156 0.66666,-0.66667 5.33372,-2.66511 10.40039,-4.39844 5.2,-1.86667 10.13255,-3.33398 11.19922,-3.33398 2.26666,-0.13334 29.86667,15.19908 32,17.73242 0.18308,0.2197 0.32919,0.42997 0.44726,0.63281 a 179.62737,179.9394 0 0 0 2.71485,-17.9668 c -1.39714,11.22917 -2.03672,12.5939 -4.09571,11.86719 -3.73333,-1.3333 -22.93164,-12.79907 -22.93164,-13.73242 0,-0.53333 5.1991,-2.79975 11.73243,-5.06641 11.90831,-4.19172 15.36002,-5.36565 15.98047,-2.35156 a 179.62737,179.9394 0 0 0 0.20703,-8.64258 179.62737,179.9394 0 0 0 -0.26953,-9.84179 c -0.03,1.98302 -0.22628,3.23632 -0.58399,3.23632 -3.86666,0 -27.20078,-8.40156 -26.80078,-9.60156 0.4,-0.93333 5.60104,-4.39995 11.73437,-8 6.13333,-3.46667 11.59949,-6.39844 12.13282,-6.39844 0.59524,0 1.07675,0.61516 1.50586,2.01563 a 179.62737,179.9394 0 0 0 -1.28125,-7.06836 c -1.37826,1.16487 -8.00832,5.20018 -15.82422,9.71875 l -15.33399,8.80078 -11.46679,-3.73437 c -6.4,-2.00007 -11.73332,-4.39923 -12,-5.19922 -0.26666,-0.8 3.46757,-4.79975 8.26757,-9.06641 10,-8.53334 10.66667,-8.53334 32,-6 7.50345,0.94871 11.97632,1.89922 13.85157,3.06445 a 179.62737,179.9394 0 0 0 -3.42578,-13.36132 l 1.97265,7.49609 -6.79883,-0.13281 c -8.93334,-0.13333 -20.66718,-1.73308 -21.86718,-3.06641 -0.66666,-0.53334 3.46693,-5.20091 8.93359,-10.26758 5.46667,-4.93332 10.40025,-9.06587 10.93359,-9.19922 0.89747,0 2.25748,2.18378 3.6543,5.52149 a 179.62737,179.9394 0 0 0 -4.34375,-10.92383 c -3.0037,4.52929 -22.69537,22.44659 -26.51172,23.80078 C 315.19909,132.79909 294.40027,131.2 292.93359,130 c -1.86666,-1.6 12.66706,-20.53347 16.40039,-21.4668 1.6,-0.4 7.06616,-1.19909 12.13282,-1.73242 11.69811,-1.43662 19.11175,-1.68432 21.91601,-0.8125 a 179.62737,179.9394 0 0 0 -8.16992,-15.978514 c 2.63537,4.84292 4.90992,9.734614 4.38672,10.257814 -1.6,1.6 -14.40052,3.73242 -21.86719,3.73242 h -6.5332 l 2,-3.73242 c 1.06666,-1.999996 4.66809,-7.466666 8.13476,-12.000002 C 324.80065,83.734246 327.99987,80 328.5332,80 c 0.23693,0 0.68603,0.456942 1.24805,1.177734 a 179.62737,179.9394 0 0 0 -3.89453,-5.695312 c -0.707,1.860531 -5.0348,8.235711 -10.1543,15.183594 -11.46667,15.333334 -11.99883,15.601424 -26.79883,16.134764 -10.53333,0.4 -10.40104,0.5319 -3.73437,-14.134764 l 4.40039,-9.466797 15.20117,-4.798828 c 11.62374,-3.719597 17.33388,-5.162761 19.73242,-4.794922 a 179.62737,179.9394 0 0 0 -12.78125,-15.56836 c 4.2144,4.925048 8.63325,10.68055 8.24805,11.296875 -0.93334,1.466665 -25.59922,9.733074 -27.19922,9.066407 -0.66667,-0.266669 1.59831,-6.53281 4.93164,-14.132813 3.33333,-7.466664 6.53502,-13.467326 7.06836,-13.333984 0.0344,0.0129 0.0964,0.06302 0.13672,0.08398 A 179.62737,179.9394 0 0 0 300.54492,46.875 c 0.0752,0.266747 0.1211,0.553485 0.1211,0.857422 0,2.533334 -11.33294,28.933854 -13.59961,31.867187 -1.6,1.999998 -23.33372,9.199479 -24.40039,8.132813 -1.2,-1.2 3.46784,-23.464976 5.20117,-24.931641 0.8,-0.666667 7.73347,-4.933983 15.46679,-9.333984 7.6041,-4.457574 14.53045,-7.99375 15.52149,-8.111328 a 179.62737,179.9394 0 0 0 -4.96289,-4.253907 C 293.78431,41.658893 293.0692,42.82388 292,44 289.2,47.066667 270.53347,56.933857 269.4668,55.867188 268.93346,55.467189 269.86732,49.2 271.33398,42 272.80066,34.933334 274,28.799887 274,28.533203 c 0,-1.005019 4.28355,1.206608 9.26562,4.435547 A 179.62737,179.9394 0 0 0 235.23828,8.8398438 C 237.13634,10.072879 238,16.286035 238,28.533203 v 16.132813 l -9.33398,8.933593 c -5.20001,5.066669 -9.86654,9.066407 -10.53321,9.066407 -1.2,0 -5.46679,-18.133076 -5.46679,-23.066407 0,-2.799998 17.19986,-28.399867 20.5332,-30.5332028 0.48738,-0.3314179 0.93103,-0.470848 1.33984,-0.453125 A 179.62737,179.9394 0 0 0 229.83594,7.171875 l -2.76953,4.027344 c -8.8,12.533333 -15.59897,20.801562 -16.26563,19.601562 -0.8,-1.2 -6.00142,-24.8011716 -6.13476,-27.2011716 0,-1.4666646 5.60051,-1.065494 15.86718,1.2011718 l 3.60938,0.8125 A 179.62737,179.9394 0 0 0 182.77734,0.02734375 c 6.3608,0.10585832 8.55664,0.55946741 8.55664,1.70507815 0,2.0000012 -5.73359,16.6674511 -8.93359,22.8007811 -1.33333,2.666646 -2.40066,3.333726 -3.33398,2.400391 -1.6,-1.599999 -11.73243,-23.8677082 -11.73243,-25.7343752 0,-0.66666714 5.46667,-1.1992188 12,-1.1992188 a 179.62737,179.9394 0 0 0 -0.23437,0 z m 0.23437,0 c 1.01475,0 1.92544,0.00680942 2.79102,0.01757813 A 179.62737,179.9394 0 0 0 179.62695,0 179.62737,179.9394 0 0 0 179.33398,0 Z m 2.79102,0.01757813 a 179.62737,179.9394 0 0 1 0.65234,0.0097656 c -0.21372,-0.0035569 -0.42907,-0.0069879 -0.65234,-0.0097656 z m 42.01758,5.59570307 a 179.62737,179.9394 0 0 1 5.69336,1.5585938 L 230,6.9335938 Z m 10.39648,3 a 179.62737,179.9394 0 0 1 0.69922,0.2265626 C 235.01923,8.6975425 234.78606,8.623989 234.53906,8.6132812 Z M 283.26562,32.96875 a 179.62737,179.9394 0 0 1 10.62696,8.132812 c 0.0267,-0.13768 0.0274,-0.247955 -0.0254,-0.300781 -3.02531,-2.633143 -6.99115,-5.492083 -10.60157,-7.832031 z m 15.58985,12.386719 a 179.62737,179.9394 0 0 1 1.68945,1.519531 c -0.25484,-0.903442 -0.89075,-1.541016 -1.61133,-1.541016 -0.0134,0 -0.0613,0.01949 -0.0781,0.02148 z m 6.08203,5.662109 a 179.62737,179.9394 0 0 1 6.81445,7.019531 c -2.96175,-3.461175 -5.79897,-6.491877 -6.81445,-7.019531 z m 19.5957,22.587891 a 179.62737,179.9394 0 0 1 1.35352,1.876953 C 325.95308,75.307796 326,75.157931 326,75.066406 c 0,-0.806868 -0.42619,-1.301351 -1.4668,-1.460937 z m 5.24805,7.572265 a 179.62737,179.9394 0 0 1 5.41992,8.8125 c -1.9389,-3.561564 -4.05079,-7.056597 -5.41992,-8.8125 z m 13.60156,24.810546 a 179.62737,179.9394 0 0 1 0.86133,1.94336 c 0.24949,-0.3762 0.42188,-0.6914 0.42188,-0.86523 0,-0.46078 -0.44374,-0.81714 -1.28321,-1.07813 z m 5.20508,12.86719 a 179.62737,179.9394 0 0 1 3.17188,9.64844 l -0.0274,-0.10352 c -0.93671,-3.62976 -2.0511,-6.93218 -3.14453,-9.54492 z m 6.59766,23.00976 a 179.62737,179.9394 0 0 1 0.50586,2.41602 c 0.12651,-0.10693 0.27496,-0.2252 0.30859,-0.28125 0.47087,-0.80048 0.20935,-1.4986 -0.81445,-2.13477 z m 1.78711,9.48438 a 179.62737,179.9394 0 0 1 2.01172,18.74805 c 0.0259,-1.71276 -0.0712,-3.9646 -0.31836,-6.49805 -0.55455,-6.4169 -1.06516,-10.19972 -1.69336,-12.25 z m 2.07422,37.23242 a 179.62737,179.9394 0 0 1 -0.68555,9.2832 c 0.14092,-1.13263 0.28064,-2.25384 0.43945,-3.59765 0.30454,-2.62661 0.49402,-4.48117 0.2461,-5.68555 z m -3.4004,27.25 a 179.62737,179.9394 0 0 1 -0.45703,2.17578 c 0.84035,-0.62012 0.95119,-1.3269 0.45703,-2.17578 z m -4.17578,16.50391 a 179.62737,179.9394 0 0 1 -2.26953,6.95898 c 0.86316,-2.10236 1.67976,-4.64237 2.26953,-6.95898 z m -7.30664,19.79492 a 179.62737,179.9394 0 0 1 -0.58203,1.31641 c 0.48096,-0.31845 0.67811,-0.74902 0.58203,-1.31641 z m -18.89453,33.12891 a 179.62737,179.9394 0 0 1 -0.30273,0.41796 c 0.13375,-0.11679 0.23225,-0.25643 0.30273,-0.41796 z m -25.31836,28.28125 a 179.62737,179.9394 0 0 1 -1.22265,1.09765 c 0.61996,-0.0714 1.03436,-0.42221 1.22265,-1.09765 z M 235.73828,350.875 a 179.62737,179.9394 0 0 1 -1.50781,0.48828 c 0.56786,0.21119 1.07091,0.0562 1.50781,-0.48828 z M 89.6875,335.69727 a 179.62737,179.9394 0 0 1 -0.490234,-0.28516 c 0.134612,0.13719 0.296379,0.23556 0.490234,0.28516 z M 59.628906,313.83594 a 179.62737,179.9394 0 0 1 -0.537109,-0.48633 c 0.0131,0.17557 0.04164,0.31703 0.107422,0.38281 0.07682,0.0768 0.234527,0.10341 0.429687,0.10352 z M 34.675781,286.21289 a 179.62737,179.9394 0 0 1 -0.40625,-0.55859 c 0.08079,0.23241 0.212639,0.42142 0.40625,0.55859 z m -32.7949216,-132.25 c -0.1564735,0.72834 -0.299123,1.50011 -0.4140625,2.30469 -0.1,0.96668 -0.1992187,2.0328 -0.2929688,3.13281 a 179.62737,179.9394 0 0 1 0.7070313,-5.4375 z M 4.0625,141.89258 c -0.179813,0.13026 -0.2960305,0.25583 -0.3300781,0.375 -0.072127,0.18753 -0.024729,0.42401 0.1015625,0.69531 A 179.62737,179.9394 0 0 1 4.0625,141.89258 Z m 8.457031,-27.94922 c -0.101021,0.10113 -0.19361,0.20753 -0.251953,0.32422 -0.309585,0.53072 -1.139917,3.00501 -2.0625,5.88867 a 179.62737,179.9394 0 0 1 2.314453,-6.21289 z m 3.236328,-7.69727 c -0.272112,0.25707 -0.420928,0.56616 -0.421875,0.94922 a 179.62737,179.9394 0 0 1 0.421875,-0.94922 z m 18.53711,-32.054684 a 179.62737,179.9394 0 0 1 0.115234,-0.160156 c -0.04648,0.04736 -0.07771,0.106198 -0.115234,0.160156 z M 59.783203,45.904297 a 179.62737,179.9394 0 0 1 0.09375,-0.08398 c -0.03242,0.02702 -0.06185,0.05517 -0.09375,0.08398 z M 122.70898,9.2734375 A 179.62737,179.9394 0 0 1 124.625,8.6445312 c -0.76092,-0.2942403 -1.35047,-0.1846823 -1.82422,0.2890626 -0.0308,0.041104 -0.0611,0.2097392 -0.0918,0.3398437 z M 160.28906,1.046875 a 179.62737,179.9394 0 0 1 1.41992,-0.1484375 c -0.52039,-0.28222738 -0.97394,-0.20306731 -1.41992,0.1484375 z m 38.8711,0.21875 c 0.87109,-0.082357 1.53906,0.7089848 2.03906,2.3339844 1.33333,4.5333354 6.13476,29.4666656 6.13476,31.9999996 0,1.333331 -3.06693,6.79948 -6.93359,12.132813 l -6.93359,9.734375 -2.40039,-3.066406 c -4,-5.199999 -9.19896,-19.734115 -8.26563,-22.800782 0.53333,-1.599998 3.73203,-9.066013 7.33203,-16.666015 4.21667,-9.0750002 7.11094,-13.4867842 9.02735,-13.667969 z m -44.75977,1.4003906 -0.80078,6.9335938 C 153.06628,13.466278 151.7332,20.000001 150.5332,24 l -2.13281,7.333984 -5.33398,-6 C 136.93306,18.400653 130.66576,8.2664063 131.73242,7.0664062 c 0.53334,-0.4000025 4.00052,-1.4665372 7.86719,-2.5332031 3.86667,-0.9333354 8.80026,-1.7324219 10.93359,-1.7324219 z M 240.66602,12 l 3.73437,0.800781 c 5.33333,1.333334 18.13371,7.59922 18.40039,9.199219 0.4,1.733337 -19.60169,19.333204 -21.06836,18.533203 -0.53333,-0.399999 -1.0664,-6.932683 -1.0664,-14.666015 z m -124.33985,0.146484 c 3.11198,-0.04297 3.00781,3.852864 3.00781,14.519532 0,14.399996 -0.13463,14.667318 -2.66796,13.333984 -4.93335,-2.666665 -19.999221,-17.60026 -19.199223,-18.933594 0.533333,-0.800001 4.533073,-3.065887 9.066403,-5.199218 4.90001,-2.250001 7.92578,-3.694922 9.79297,-3.720704 z M 90.121094,24.119141 c 2.225422,-0.238835 7.204297,3.623435 16.279296,12.148437 l 12.93359,12.398438 v 12.533203 c 0,11.333325 -0.26757,12.400132 -2.26757,11.466797 -4.8,-1.733333 -18.665626,-9.998568 -20.265629,-11.865235 -1.733333,-2.133331 -8.001424,-28.267186 -8.134765,-33.867187 0,-1.749999 0.443522,-2.705892 1.455078,-2.814453 z m 178.900386,0.03125 C 271.65879,24.275488 270.59961,30.425002 267.59961,44 L 264,60.666016 253.4668,66.933594 c -5.86666,3.466666 -11.06771,5.999608 -11.73438,5.599609 -1.73333,-1.066669 -1.33203,-23.732294 0.66797,-26.265625 0.8,-1.2 6.66693,-6.668098 12.93359,-12.134766 7.35,-6.533333 11.63627,-10.079719 13.6875,-9.982421 z M 84.472656,28.958984 c 0.149219,0.006 0.261459,0.04076 0.328125,0.107422 1.06667,1.066666 6.798958,27.067708 6.265625,27.734375 C 90.533073,57.20078 72.933201,48.132552 68.533203,45.199219 L 65.333984,42.933594 68,40 c 1.466665,-1.599999 5.60065,-5.066797 9.333984,-7.466797 3.15,-2.216667 6.094142,-3.616146 7.138672,-3.574219 z m 95.916014,11.744141 c 0.0549,0.01514 0.10287,0.04766 0.14453,0.09766 0.66667,0.666667 3.0668,5.598308 5.4668,10.931641 l 4.13281,9.867187 -4.93359,7.201172 C 182.39922,72.80078 180.13383,76 179.86719,76 178.93384,76 170,62.800131 170,61.466797 c 0,-0.933332 2.13268,-6.267708 4.66602,-11.734375 2.625,-5.625 4.89942,-9.256349 5.72265,-9.029297 z m -29.05664,2.740234 c 0.0477,-0.0086 0.0931,-0.0016 0.13477,0.02344 2,1.2 13.19922,17.466407 13.19922,19.066406 0,2.800003 -5.59883,14.800781 -6.79883,14.800781 -2.66667,0 -12.9332,-10.799736 -12.53321,-13.066406 0.26668,-1.2 1.46602,-6.667185 2.66602,-11.867187 1.25,-5 2.6167,-8.827636 3.33203,-8.957032 z m 57.59766,0.375 c 0.0576,-3.25e-4 0.10338,0.0155 0.13672,0.04883 0.53334,0.533332 2.00064,5.999999 3.33398,12 l 2.26563,11.066406 -6,5.199218 c -3.33334,2.799999 -6.40027,5.201172 -6.9336,5.201172 -0.4,0 -2.39896,-3.333464 -4.26562,-7.466796 L 194,62.267578 l 6.93359,-9.734375 c 3.62501,-4.999999 7.13233,-8.709963 7.9961,-8.714844 z M 55.158203,51.521484 c 0.136979,-0.01354 0.241927,0.01146 0.308594,0.07813 2.266601,2.266666 11.732163,25.066669 10.798828,26 -0.799997,0.800002 -24.932161,-6.132423 -26.798828,-7.732421 -0.800001,-0.666668 3.732943,-7.200133 9.599609,-13.466797 2.566667,-2.800001 5.132943,-4.784117 6.091797,-4.878907 z m 68.574217,1.8125 c 0.8,0 5.20157,3.199217 9.60156,7.199219 l 8,7.066406 -1.60156,7.734375 c -0.93333,4.266667 -1.99844,7.998435 -2.39844,8.398438 -0.66666,0.666667 -10.00156,-3.99883 -13.60156,-6.798828 C 122.53242,76.133592 122,71.866537 122,64.533203 c 0,-8.133332 0.39909,-11.199219 1.73242,-11.199219 z m 111.91992,0.388672 c 0.0836,-0.0088 0.15651,-0.0069 0.21485,0.0098 0.93334,0.266668 1.59855,4.667317 1.86523,11.333984 l 0.40039,10.800782 -7.0664,4 C 227.19975,82.133853 223.59922,84 223.19922,84 c -1.2,0 -2.53242,-3.600393 -3.73242,-10.400391 -1.06667,-5.600001 -1.06784,-5.599741 6.79882,-13.066406 4.125,-3.750002 8.13282,-6.678723 9.38672,-6.810547 z m -67.91992,12.410156 3.86719,4.533204 C 177.99961,78.266014 178.13333,78.933335 174,84 l -3.86719,4.666016 -3.73242,-2.798828 c -4.8,-3.6 -5.19961,-6.933335 -1.59961,-14 z m 23.73438,0.533204 c 0.93333,0 6.5332,11.199743 6.5332,13.066406 0,0.666667 -1.73333,2.800262 -4,4.933594 -3.86667,3.733334 -4.00078,3.734506 -6.80078,1.201172 -5.46667,-4.933335 -5.60026,-6.80117 -0.9336,-13.201172 2.4,-3.199998 4.80118,-5.866659 5.20118,-6 z m 69.46679,0 c 1.6,0 1.3336,2.800523 -1.0664,13.867187 l -2.26758,10 -6,2.132813 c -10.53333,3.6 -11.06601,3.201044 -10.66602,-6.265625 L 241.33398,78 l 9.33204,-5.599609 c 5.06666,-3.200002 9.73424,-5.734375 10.26757,-5.734375 z M 99.199219,68 c 1.333331,0 6.133591,2.265886 10.933591,5.199219 l 8.53321,5.201172 0.40039,7.466797 c 0.53333,9.066667 -0.79896,9.998829 -10.26563,6.798828 -7.2,-2.4 -7.2,-2.265754 -9.999999,-15.732422 C 97.200783,68.666928 97.199221,68 99.199219,68 Z m 45.601561,4 c 0.66667,0 3.59988,2.134117 6.5332,4.800781 l 5.19922,4.798828 -2,4.800782 c -2.53333,6.266668 -2.53308,6.265626 -7.0664,4.265625 -6.13334,-2.533335 -6.66784,-3.865755 -5.20118,-11.732422 C 143.06563,75.20026 144.26745,72 144.80078,72 Z m 69.33203,0.632812 c 1.26667,-0.06667 2.0013,1.100002 2.66797,3.5 2.13333,7.333335 1.33203,11.19961 -2.66797,13.59961 -5.46667,3.199997 -6.66693,2.934895 -8.93359,-2.398438 -2.53334,-6 -2.5336,-5.600782 3.0664,-10.800781 2.8,-2.533334 4.60052,-3.833724 5.86719,-3.900391 z m -183.732419,7.234376 3.066406,2.933593 c 3.466666,3.200002 13.867187,18.266139 13.867187,20.132809 0,0.53333 -2.266925,1.06641 -4.933593,1.06641 -5.86667,0 -21.734637,-2.2664 -22.667969,-3.06641 -0.533333,-0.66667 5.067969,-12.533329 8.667969,-17.999996 z M 235.4668,81.333984 c 1.46667,0 2.5332,3.866796 2.5332,9.466797 0,4.400002 -0.53334,5.465886 -4,7.199219 -6.13334,3.2 -8.93386,2.66718 -9.86719,-2.132812 -1.33333,-6.800002 -1.0664,-7.466407 4.9336,-11.066407 3.06667,-1.866667 6.00039,-3.333455 6.40039,-3.466797 z m -112.39649,0.84375 c 0.8987,-0.06745 3.59649,0.822654 6.39649,2.222657 5.33333,2.53333 5.86718,3.200129 5.86718,7.466797 0,6.800001 -1.60143,8.666272 -6.13476,7.599609 -2.13333,-0.533337 -4.6668,-1.600393 -5.4668,-2.400391 -1.73333,-1.333334 -2.39831,-13.198825 -0.93164,-14.798828 0.05,-0.05 0.14115,-0.08021 0.26953,-0.08984 z m 56.5293,0.771485 c 0.96667,0.01667 2.00105,1.25013 3.73437,3.716797 3.46667,4.8 2.79987,9.734765 -1.46679,12.134765 -2.13334,1.066666 -3.33399,0.933074 -5.33399,-0.933593 -3.19998,-2.799999 -3.19896,-6.267317 -0.26562,-11.333985 h -0.002 c 1.46667,-2.399996 2.36732,-3.600652 3.33399,-3.583984 z m -19.86719,2.384765 c 2.4,0 7.60156,5.598961 7.60156,8.265625 0,7.466661 -6.26809,10.267051 -10.13476,4.400391 -1.73333,-2.666668 -1.86654,-3.999997 -0.5332,-8 0.8,-2.53333 2.2664,-4.666016 3.0664,-4.666016 z m 39.85156,0.232422 c 0.98334,0.133333 1.81537,1.367578 3.08204,3.767578 2.4,4.533336 0.66705,10.133463 -3.59961,11.466796 -6.13335,1.86666 -8.6668,-6.933722 -3.4668,-12.400389 1.86666,-2 3.00104,-2.967318 3.98437,-2.833985 z M 77.716797,86.699219 c 1.783333,-0.06667 5.350522,0.966536 11.617187,3.033203 8.799999,2.933333 9.464973,3.467056 10.931636,8.40039 0.80001,2.799998 1.60157,6.534238 1.60157,8.267578 0.13332,2.93334 -0.2681,3.06602 -8.134768,2.66602 l -8.398438,-0.40039 -3.601562,-7.33204 c -2.000001,-3.999994 -4.264974,-8.93307 -4.931641,-11.066402 -0.866666,-2.333333 -0.867317,-3.501693 0.916016,-3.568359 z m 204.470703,0.04492 c 0.5875,-0.03542 0.94505,0.02279 1.01172,0.189453 0.26666,0.666667 -1.59857,5.732551 -3.86524,11.199218 -4.66667,10.53333 -4.53385,10.40105 -15.86718,11.73438 l -5.86719,0.5332 0.93359,-7.4668 c 0.53333,-4.133331 1.46758,-8.133595 2.26758,-8.933592 0.66666,-0.666667 5.99961,-2.934114 11.59961,-4.800781 4.2,-1.400001 8.02461,-2.348827 9.78711,-2.455078 z m -64.0332,4.917968 c 1.41015,0.05208 2.04492,1.770833 3.04492,5.9375 1.6,7.066663 -8.66641,12.666143 -11.06641,6.132813 -1.6,-4.399998 -0.26628,-7.733205 4.40039,-10.533203 1.65,-1.000001 2.775,-1.56836 3.6211,-1.53711 z m -76.55469,0.4375 c 1.22135,-0.117578 2.84974,0.574871 5.06641,2.033203 5.46666,3.6 3.86666,12.53321 -2,12.53321 -4.13334,0 -7.06615,-4.80001 -6.13282,-10.000006 0.6,-2.925 1.4961,-4.415234 3.06641,-4.566407 z M 254.9668,95.28125 c 0.12031,0.0013 0.19908,0.0194 0.23242,0.05273 0.26666,0.266669 0.002,3.865232 -0.39844,7.86524 -0.93334,7.2 -0.93373,7.20143 -6.40039,8.13476 -6.53334,1.2 -8.00013,-0.13411 -7.4668,-6.80078 0.4,-4.933335 0.79974,-5.333466 7.06641,-7.466798 3.26666,-1.05 6.1246,-1.794278 6.9668,-1.785156 z m -150.13282,0.4375 c 1.32501,-0.06875 3.99845,0.480471 6.89844,1.480469 6.79999,2.4 6.93502,2.533329 7.06836,8.000001 0.13333,3.06666 -0.40169,5.86758 -1.06836,6.26758 -0.66666,0.39998 -3.4651,0.40051 -6.39844,-0.13282 -4.93333,-0.8 -5.19987,-1.20156 -6.5332,-7.60156 -0.8,-3.6 -1.20078,-7.065753 -0.80078,-7.73242 0.1,-0.166667 0.39232,-0.258334 0.83398,-0.28125 z m 82.41211,4.009766 c 2.41719,-0.02497 4.74636,2.188674 3.55469,4.138674 -1.33333,2 -4.13333,1.86628 -6,-0.40039 -1.33333,-1.46666 -1.06784,-2.26732 0.79883,-3.33399 0.525,-0.274997 1.08867,-0.398533 1.64648,-0.404294 z m -14.92968,0.263672 c 1.89062,-0.01042 3.23307,1.541672 1.8164,3.875002 -0.66666,1.06668 -2.26666,1.4655 -4,0.79883 -2.4,-0.66666 -2.66536,-1.19883 -1.33203,-2.79883 1.05,-1.3 2.38125,-1.868753 3.51563,-1.875002 z m 62.32812,1.664062 c 2.41055,0.0906 3.35547,2.04283 3.35547,6.07617 0,2.93333 -5.33425,8.26758 -8.26758,8.26758 -6.26667,0 -5.73203,-10.80064 0.66797,-13.33398 1.75,-0.70834 3.14844,-1.05095 4.24414,-1.00977 z m -110.06641,0.0234 c 2.26251,-0.0375 5.9875,1.08789 7.6875,2.58789 2.53334,2 2.13489,9.9983 -0.39843,10.93164 -3.33335,1.2 -4.40118,0.93477 -7.20117,-1.86524 -2.66668,-2.66666 -3.59909,-9.3345 -1.73243,-11.20117 0.3,-0.3 0.89037,-0.44062 1.64453,-0.45312 z M 204,102.66602 c 2.4,0 3.73242,4.26679 1.73242,5.46679 -2.13333,1.33333 -5.7332,-2 -4.5332,-4 0.53333,-0.8 1.73411,-1.46679 2.80078,-1.46679 z m -48.94922,0.15039 c 0.75,-0.0833 1.61589,0.31692 2.94922,1.18359 1.73331,1.06666 1.73242,1.4668 -0.26758,3.4668 -1.86666,1.86667 -2.6651,1.99986 -4.39844,0.5332 -1.59999,-1.33334 -1.7332,-2.13347 -0.5332,-3.4668 0.86667,-1.06666 1.5,-1.63346 2.25,-1.71679 z m 23.95313,2.58593 c 0.10312,0.009 0.21341,0.0311 0.33007,0.0645 1.6,0.66667 1.99844,2.53267 0.39844,2.66601 -0.53333,0 -1.20015,-0.66628 -1.4668,-1.59961 -0.34999,-0.69999 0.0164,-1.19647 0.73829,-1.13086 z m -14.33789,1.26368 c 1.86666,0 2.80065,2.40064 1.33398,3.33398 -1.73333,1.06666 -4.26732,-0.53281 -3.33398,-2.13281 0.53332,-0.66666 1.33332,-1.20117 2,-1.20117 z m 30.5625,0.0937 c 0.97005,-0.14584 1.4375,0.48958 1.4375,1.90625 0,2.26667 -0.26536,2.40117 -3.33204,1.20117 -1.73332,-0.66666 -1.86705,-1.06666 -0.40039,-2 0.95001,-0.65 1.71289,-1.01993 2.29493,-1.10742 z m -53.66211,2.58984 c 1,0.05 1.96693,0.45026 2.43359,1.18359 0.8,1.33333 -2.80078,5.4668 -4.80078,5.4668 -1.33334,0 -1.59896,-4.39908 -0.26563,-5.73242 0.6,-0.66666 1.63282,-0.96797 2.63282,-0.91797 z m -81.589848,0.006 c 1.017188,-0.0102 2.574219,0.12695 4.824219,0.37695 3.999999,0.53333 9.064844,0.9336 11.464844,0.9336 5.199999,0 7.468489,2.13476 10.535156,10.13476 2.799999,7.46666 1.865754,8.5332 -8.267578,8.5332 h -6.666015 l -6,-8.40039 c -3.333332,-4.53333 -6.534505,-9.06615 -7.201172,-10.13281 -0.583333,-1 -0.384766,-1.42838 1.310546,-1.44531 z m 158.089848,0.0273 c 1.43333,0.05 2.99986,0.75066 3.5332,2.08399 1.2,3.06666 -1.7323,5.33255 -4.26563,3.19922 -1.06667,-0.93333 -2,-2.53347 -2,-3.4668 0,-1.26668 1.29909,-1.86641 2.73243,-1.81641 z m 78.46679,0.084 c 5.33334,-0.13333 5.19922,0.53242 -2.80078,11.73242 -5.46667,7.6 -5.9987,8.00142 -11.33203,8.13476 -3.06667,0 -7.06692,-0.53398 -8.93359,-1.33398 L 270,126.80078 l 2.80078,-6.40039 c 3.46666,-8.4 3.73333,-8.53437 12,-9.73437 4,-0.53333 9.19909,-1.06588 11.73242,-1.19922 z m -87.9375,1.41015 c 0.10755,0.005 0.22123,0.0233 0.33789,0.0566 2.4,0.80001 2.79988,3.73243 0.53321,3.73243 -1.2,0 -2.13282,-0.93282 -2.13282,-2.13282 0,-1.05 0.50886,-1.69089 1.26172,-1.65625 z m -57.54882,0.51563 c 0.25208,0.008 0.48554,0.0737 0.68554,0.20703 0.8,0.53333 0.40026,1.46653 -1.0664,2.5332 -3.06668,2.26667 -4.26668,1.33321 -2,-1.46679 0.69999,-0.8 1.62461,-1.29844 2.38086,-1.27344 z m 117.71874,0.83984 c 1.16667,0.0333 1.43373,0.43438 1.9004,1.23438 0.53333,0.8 10e-4,4.00064 -1.33204,7.33398 -2.13333,5.73332 -2.40143,5.86524 -8.13476,5.86524 -6.8,0 -7.86563,-1.46615 -6.26563,-8.13282 1.06667,-4 1.86654,-4.66732 6.53321,-5.33398 4.06667,-0.66668 6.13216,-1.00013 7.29882,-0.9668 z m -177.138667,0.56836 c 3.806248,-0.1 9.806637,0.99844 11.306637,2.39844 0.80001,0.8 1.73334,3.60143 2,6.13476 0.4,4.66667 0.40039,4.66641 -5.599606,5.06641 -6,0.4 -6.135026,0.39949 -9.068359,-5.86719 -2.266666,-4.66667 -2.664844,-6.53254 -1.464844,-7.19922 0.533333,-0.33333 1.557423,-0.49987 2.826172,-0.5332 z m 155.707027,1.86524 c 3.73332,0 4,0.40129 4,4.66796 0,6 -5.06667,9.86628 -10,7.59961 -3.99999,-1.86667 -4.26796,-5.46732 -0.66796,-9.33398 1.59999,-1.73334 4.40129,-2.93359 6.66796,-2.93359 z m -135.79687,0.0937 c 2.29072,-0.0662 5.08046,0.67382 6.73047,2.17382 3.33331,2.93333 3.19909,9.33372 -0.26758,10.40039 -5.2,1.6 -11.99948,-5.73359 -10.13281,-10.93359 0.40833,-1.05 1.88825,-1.58913 3.66992,-1.64062 z m 119.66211,3.90625 c 2.93333,0 4.80026,3.8677 2.93359,5.73437 -1.99999,2 -5.46679,2.7e-4 -5.46679,-3.06641 0,-1.73332 0.9332,-2.66796 2.5332,-2.66796 z m -102.06641,0.18359 c 0.63334,0.05 1.06653,0.41706 1.53321,1.15039 1.06665,1.73333 -1.73282,5.33398 -4.13282,5.33398 -2.26667,0 -2.39948,-4.93437 -0.13281,-5.73437 1.26667,-0.53334 2.09909,-0.8 2.73242,-0.75 z m 92.79297,0.18359 c 0.89825,-0.0343 2.02461,0.68321 2.47461,2.03321 0.26666,0.93334 -0.39961,1.59961 -1.59961,1.59961 -1.2,0 -2.13476,-0.93282 -2.13476,-2.13282 0,-0.99166 0.56113,-1.47334 1.25976,-1.5 z m -84.29492,0.25586 c 0.21875,0.0187 0.43476,0.0777 0.63476,0.17774 0.80001,0.53334 0.80054,1.33229 -0.13281,2.26562 -1.73333,1.73333 -3.46614,0.40039 -2.13281,-1.59961 0.3,-0.60001 0.97461,-0.9 1.63086,-0.84375 z m -10.56445,10.04492 c 1.99999,0 2.00052,0.13229 -0.13282,2.26563 -2.26665,2.26666 -4.53359,1.7345 -2.93359,-0.79883 0.4,-0.8 1.86641,-1.4668 3.06641,-1.4668 z m 106.13281,0 c 1.2,0 2.13476,0.93282 2.13476,2.13282 0,2.26667 -2.93437,1.86679 -3.73437,-0.53321 -0.26667,-0.93333 0.39961,-1.59961 1.59961,-1.59961 z m -116.33984,1.22071 c 1.37142,-0.11136 2.48203,1.11992 2.20703,3.04492 -0.53334,3.86666 -5.06641,5.06731 -5.06641,1.33398 0,-1.33333 0.40026,-2.93398 0.93359,-3.33398 0.625,-0.66667 1.30241,-0.9943 1.92579,-1.04492 z m -16.53126,0.0996 c 3.15495,-0.0221 7.07227,0.61328 8.07227,1.61328 0.93333,0.93334 1.59961,3.19922 1.59961,5.19922 0,2.66667 -0.79922,3.73373 -3.19922,4.40039 -1.86667,0.39998 -4.1345,0.53281 -5.20117,0.13281 -2.133332,-0.93334 -6.400651,-9.3332 -5.333985,-10.5332 0.550001,-0.55 2.169531,-0.79922 4.062495,-0.8125 z m 157.80469,0.0117 c 4.4,0 5.20117,0.40129 5.20117,2.66796 0,2.93333 -5.46667,9.33204 -8,9.33204 -5.86667,0 -8.5332,-5.99858 -4.5332,-9.86524 1.2,-1.2 4.26537,-2.13476 7.33203,-2.13476 z m -15.68164,0.0781 c 1.29756,-0.0105 2.62344,0.70664 3.14844,2.05664 0.4,1.06666 0.1345,2.66627 -0.79883,3.59961 -1.86667,1.86666 -6.26692,-2.00091 -4.93359,-4.26758 0.58333,-0.93333 1.57477,-1.38047 2.58398,-1.38867 z M 273.86719,132 c 9.6,0 10.66614,1.46666 6.13281,8 -2,2.93333 -4.26745,5.73332 -4.80078,6 -0.4,0.4 -3.2,-0.13256 -6,-1.19922 -5.33334,-1.86667 -5.60026,-2.53451 -2.9336,-9.20117 1.20001,-3.2 2.00157,-3.59961 7.60157,-3.59961 z m -191.189456,0.0234 c 4.105468,-0.10287 8.85547,0.54231 9.855469,1.70898 0.800001,1.06667 1.867576,3.60052 2.267578,5.86719 0.666667,3.6 0.399088,4.00014 -4.267578,5.4668 -5.866666,1.73334 -6.267321,1.59986 -11.333984,-5.4668 -2.933333,-4.13334 -3.465625,-5.7332 -2.265625,-6.5332 1.049999,-0.65 3.28086,-0.98125 5.74414,-1.04297 z m 205.988286,1.17578 8.93359,0.93359 c 16.8,1.73333 16.5345,1.46655 7.20117,10.53321 -4.53334,4.4 -8.80064,8.13374 -9.33398,8.40039 -1.86666,0.66671 -15.4668,-4.6661 -15.4668,-6.13278 0,-0.79999 1.99896,-4.13345 4.26562,-7.46679 z m -220.154301,0.37695 c 1.909669,0.0181 4.105469,2.06641 7.355469,6.69141 5.466667,7.86667 5.466533,7.8664 -5.466797,11.0664 l -6.267579,1.86524 -8.40039,-7.33203 c -4.66667,-4.13333 -8.398438,-7.99988 -8.398438,-8.53321 0,-1.2 4.398763,-2.2664 13.332032,-3.0664 2.533334,-0.26666 5.866798,-0.66797 7.466796,-0.66797 0.125001,-0.0167 0.251595,-0.0246 0.378907,-0.0234 z m 48.021481,7.75781 c 2.4,0 2.80079,2.40001 0.80078,4 -1.73331,1.33333 -2,1.19883 -2,-1.20117 0,-1.46667 0.53256,-2.79883 1.19922,-2.79883 z m 125.91602,0.48243 c 0.38333,0.0167 0.81654,0.25013 1.2832,0.71679 1.73333,1.73333 0.40039,3.46616 -1.59961,2.13282 -0.80001,-0.4 -1.06601,-1.46563 -0.66601,-2.26563 0.26667,-0.39999 0.59908,-0.60065 0.98242,-0.58398 z m 8.08398,3.51757 c 2.53333,0 3.73268,1.86511 2.66602,4.39844 -1.06667,2.8 -4.5332,1.33476 -4.5332,-1.86523 0,-1.33333 0.80051,-2.53321 1.86718,-2.53321 z m -141.60547,0.0508 c 1.22344,-0.0586 2.40625,0.83242 2.40625,2.48242 0,2.80001 -3.46744,4.79934 -4.80078,2.66601 -0.4,-0.66667 -0.4,-2.13255 0,-3.19922 0.46667,-1.28333 1.44297,-1.90364 2.39453,-1.94921 z m 155.17188,1.34765 c 1.83333,0.0333 3.70104,0.6013 5.23437,1.66797 2.26666,1.73333 2.26524,2 -0.13476,6 -2.8,4.80005 -7.46536,5.59954 -11.33203,2.13281 -2.53333,-2.26667 -2.00079,-5.59895 1.19922,-8.26562 1.4,-1.06667 3.19987,-1.56849 5.0332,-1.53516 z m -169.042969,0.0469 c 1.739062,-0.07 3.39375,0.59648 5.343749,2.02148 5.33333,3.6 2.93229,9.86524 -3.734374,9.86524 -2.4,0 -4.533202,-1.33282 -6.533204,-4.13282 -1.733332,-2.26667 -2.799886,-4.26705 -2.533203,-4.40039 0.133331,-0.26667 1.599738,-1.06523 3.066407,-1.86523 1.633332,-0.93333 3.038021,-1.43382 4.390625,-1.48828 z m -12.966797,4.26367 c 1.601367,0.0853 2.460938,1.36602 4.710937,4.29101 3.999999,5.33339 3.331769,7.2 -3.601562,10 -3.866663,1.6 -4.265367,1.46654 -9.332031,-3.46679 -2.800003,-2.8 -4.668099,-5.60144 -4.134766,-6.13477 0.533333,-0.53333 3.334245,-1.86498 6.267578,-2.93164 3.149999,-1.16667 4.844336,-1.82412 6.089844,-1.75781 z m 197.216796,1.06641 c 2.09726,0.003 4.60977,0.68176 7.75977,2.02343 l 4.93359,2 -5.59961,5.33399 c -3.06667,2.8 -6.13464,5.19922 -6.66797,5.19922 -1.86667,0 -9.73242,-5.19987 -9.73242,-6.53321 0,-0.53333 1.20078,-2.66601 2.80078,-4.66601 1.8,-2.25 3.80938,-3.36182 6.50586,-3.35742 z m -168.81836,2.89257 c 0.30469,0.0375 0.66133,0.28047 1.11133,0.73047 1.2,1.2 1.2,2.00117 0,3.20117 -0.8,0.80002 -2.00039,1.19935 -2.40039,0.66602 -0.53333,-0.4 -0.53333,-1.86636 0,-3.06641 0.41667,-1.08333 0.78125,-1.59375 1.28906,-1.53125 z M 249.33398,156 c 1.2,0 1.99911,0.6668 1.73243,1.4668 -0.26666,0.80005 -1.06575,1.33398 -1.73243,1.33398 -0.66667,0 -1.46772,-0.53393 -1.73437,-1.33398 -0.26667,-0.8 0.53437,-1.4668 1.73437,-1.4668 z m 46.79883,1.33398 c 2.53333,0 21.86719,7.06667 21.86719,8 0,0.66668 -4.26679,3.73217 -9.4668,6.79883 l -9.46679,5.4668 -4.9336,-2.13281 c -2.66667,-1.33336 -6.26719,-3.33269 -7.86719,-4.66602 l -3.19921,-2.40039 6.26757,-5.4668 c 3.46667,-3.06666 6.53215,-5.59961 6.79883,-5.59961 z M 62.666016,157.4668 c 0.800001,0 4.001174,2.40065 7.201172,5.33398 5.600001,4.93333 5.732944,5.33242 3.599609,7.73242 -1.2,1.33334 -4.533464,3.46744 -7.466797,4.80078 L 60.800781,177.73242 50.666016,172 c -5.466667,-3.2 -10,-6.26602 -10,-6.66602 0,-0.53332 4.667059,-2.53372 10.40039,-4.40039 5.599937,-2 10.932946,-3.46679 11.59961,-3.46679 z m 192.500004,2.61718 c 0.66666,-0.05 1.49974,0.44896 2.5664,1.51563 1.06667,1.06667 1.06667,2.26615 0,4.13281 -1.33333,2.66667 -1.46588,2.66707 -3.19922,0.40039 -0.93332,-1.33332 -1.33359,-3.19896 -0.93359,-4.26562 0.4,-1.13334 0.89974,-1.7332 1.56641,-1.78321 z m -150.25782,0.12305 c 0.90886,0.0495 1.07422,0.89323 0.82422,2.72656 -0.53333,3.86667 -5.0664,5.06732 -5.0664,1.33399 0,-1.46667 0.80104,-3.0673 1.73437,-3.33399 1.15001,-0.5 1.9625,-0.75625 2.50781,-0.72656 z m 162.42969,4.07227 c 1.18359,-0.0246 2.34531,0.72148 5.19531,2.52148 l 4.40039,2.66602 -3.0664,3.33398 c -5.33333,5.73333 -16,3.33215 -14,-3.20117 0.53333,-1.46667 2.1319,-3.2 3.86523,-4 1.75,-0.81667 2.6849,-1.30117 3.60547,-1.32031 z m -174.287109,0.75976 c 2.233301,0.0656 4.132422,1.18633 5.482422,3.36133 3.999997,6.26667 -7.067058,10.13372 -12.400391,4.40039 l -3.066406,-3.33398 4.267578,-2.66602 c 2.041667,-1.225 3.979786,-1.81276 5.716797,-1.76172 z m 232.283199,1.62696 c 0.66668,0 8.66627,2.40013 17.59961,5.46679 21.46666,7.06667 21.5987,8.26693 1.33203,14.9336 -8.26666,2.66668 -16.5332,4.93359 -18.5332,4.93359 -3.6,0 -22.39844,-10.1328 -22.39844,-12.13281 0,-0.66667 4.66511,-3.86639 10.39844,-7.06641 5.6,-3.33333 10.80157,-6.13476 11.60156,-6.13476 z M 251.75,169.83398 c 0.38333,-0.0333 0.78359,0.16641 1.18359,0.56641 0.80001,0.8 0.93373,2.1336 0.40039,2.93359 -0.66666,1.06669 -1.46757,1.06563 -2.26757,0.26563 -0.8,-0.8 -0.93372,-2.1336 -0.40039,-2.93359 0.33333,-0.53334 0.70065,-0.7987 1.08398,-0.83204 z m -144.41602,0.83204 c 0.8,0 1.33204,0.93333 1.33204,2 0,1.06666 -0.53204,2 -1.33204,2 -0.66666,0 -1.33398,-0.93334 -1.33398,-2 0,-1.06667 0.66732,-2 1.33398,-2 z m 172.9668,1.60156 c 1.13333,-0.0333 2.49974,0.73229 5.56641,2.26562 8.66667,4.40002 8.80012,5.73386 1.46679,9.86719 l -6.66796,3.73242 -4,-2.93359 c -4.93333,-3.73331 -5.06654,-6.79842 -0.53321,-10.39844 2.13334,-1.66667 3.03464,-2.49987 4.16797,-2.5332 z m -201.263671,0.0488 c 1.264747,-0.001 2.220315,0.91757 4.695313,3.01757 4.533316,3.99999 4.534375,4.66591 -0.265625,9.19922 l -3.867188,3.73438 -6.798828,-3.73438 c -6.666667,-3.46666 -6.801822,-3.73228 -4.535156,-6.26562 1.333334,-1.46669 4.267059,-3.46706 6.400391,-4.40039 2.216667,-0.99167 3.387402,-1.54965 4.371093,-1.55078 z m 177.929691,3.91601 c 0.43333,0 1.03294,0.5 2.09961,1.5 2,2.13332 2,2.40184 0,4.53516 -2.13334,2.00001 -2.39922,2.00001 -3.19922,0 -0.4,-1.2 -0.4,-3.33516 0,-4.53516 0.4,-1 0.66627,-1.5 1.09961,-1.5 z m -155.20703,0.1875 c 2.18124,-0.21251 3.70702,2.91328 1.70703,6.11328 -1.06667,1.59999 -1.60013,1.59963 -3.4668,-0.40039 -1.866667,-1.73333 -1.999871,-2.53229 -0.533203,-4.26562 0.766663,-0.93334 1.565883,-1.37643 2.292973,-1.44727 z m -40.292973,6.2461 c 2.133335,0 13.867187,6.66665 13.867187,8 0,0.53332 -2.667186,3.46702 -5.867187,6.40039 l -5.867188,5.46679 -10.533203,-3.19922 C 47.333075,197.46731 42.133982,196 41.333984,196 c -2.4,0 3.998697,-5.19923 11.332032,-9.19922 3.999934,-2.26669 8.000783,-4.13476 8.800781,-4.13476 z m 236.666013,0 c 2.4,0 18.93346,9.73489 19.4668,11.60156 0.26666,0.80001 -2.93256,2.39908 -7.19922,3.73242 -4.26667,1.33334 -9.06797,2.93347 -10.66797,3.4668 -2.13333,0.80001 -4.26498,-0.001 -8.93164,-3.73438 -3.33334,-2.66664 -6.13476,-5.46508 -6.13476,-6.39844 0,-0.93331 2.53437,-3.3345 5.73437,-5.20117 3.06666,-1.86667 6.53242,-3.33338 7.73242,-3.46679 z M 92.875,182.77344 c 1.144531,7.8e-4 2.375781,0.42657 3.925781,1.22656 3.866669,2.13335 3.19883,7.60053 -1.201172,9.86719 -3.466665,1.73333 -4.132813,1.73256 -8.132812,-0.80078 l -4.267578,-2.79883 3.601562,-3.73438 c 2.499999,-2.58333 4.166667,-3.76106 6.074219,-3.75976 z m 174.01953,0.041 c 1.97022,-0.0314 3.90469,1.16876 6.30469,3.71875 l 3.60156,3.73438 -4.40039,2.66601 c -5.2,3.06667 -9.33386,2.26631 -11.86719,-2.40039 -1.33333,-2.66664 -1.19987,-3.33348 1.4668,-5.46679 1.80833,-1.45835 3.36214,-2.22757 4.89453,-2.25196 z m -159.56055,2.51953 c 0.8,0 1.33204,0.93335 1.33204,2 0,1.06666 -0.53204,2 -1.33204,2 -0.66666,0 -1.33398,-0.93334 -1.33398,-2 0,-1.06665 0.66732,-2 1.33398,-2 z m 144.11719,0 c 0.49609,-7.8e-4 1.06524,0.24883 1.61524,0.79883 1.2,1.2 -0.53386,4.66769 -1.86719,3.73438 C 250.53255,189.46716 250,188.26588 250,187.19922 c 0,-1.16667 0.62435,-1.86394 1.45117,-1.86524 z M 0.26757812,186.5332 4.1328125,187.33398 C 10.399477,188.80063 23.866668,193.33267 26,194.66602 c 1.733333,1.2 1.466018,1.73334 -1.333984,4 C 18.79935,203.33267 3.5993511,210.80014 2.6660156,209.4668 2.2660169,208.66678 1.5997392,203.33398 1.0664062,197.33398 Z M 103.44922,192.42383 c 1.00928,0.0809 1.9832,1.50155 2.2832,3.97656 0.4,3.7333 -0.53294,4.40037 -3.59961,2.40039 -1.06664,-0.66667 -1.46549,-2.13333 -0.79883,-4 0.525,-1.69166 1.33025,-2.43984 2.11524,-2.37695 z m 152.38476,0.12695 c 0.5,0.0167 1.03178,0.44974 1.89844,1.31641 1.73335,1.59998 1.73424,2.40001 0.26758,4 -0.93334,1.2 -2.13269,2.13281 -2.66602,2.13281 -2,0 -2.66784,-4.26757 -1.20117,-6.26758 0.73334,-0.79995 1.20117,-1.19832 1.70117,-1.18164 z m -176.234371,0.7832 c 1.066666,0 9.067578,3.73217 10.267579,4.79883 C 91.067187,199.19947 84.132814,208 82.132812,208 c -2.933331,0 -11.066016,-2.66613 -12.666015,-4.13281 -0.666667,-0.66667 0.933854,-3.0672 3.867187,-5.86719 2.933333,-2.53334 5.732292,-4.66602 6.265625,-4.66602 z m 199.599611,0 c 3.33333,0 13.20131,10.39921 10.66797,11.19922 -1.06666,0.39999 -4.40014,1.59932 -7.4668,2.66602 l -5.73437,2 -3.59961,-4.79883 -3.59961,-4.66797 3.59961,-3.19922 c 2.13334,-1.73333 4.79947,-3.19922 6.13281,-3.19922 z M 36,197.4668 c 4.133337,0 22.666545,7.06652 22.533203,8.5332 -0.13333,0.66663 -4.133072,4.93255 -9.066406,9.19922 l -8.800781,7.86719 -17.066407,-1.59961 C 5.7329587,219.73347 1.333464,217.9999 5.4667969,214.5332 c 1.2,-1.06666 7.9997401,-5.33346 15.0664061,-9.46679 C 27.599869,200.93308 34.533335,197.4668 36,197.4668 Z M 249.4668,200 c 2.26667,0 1.86679,2.93245 -0.53321,3.73242 -0.93333,0.26669 -1.59961,-0.39961 -1.59961,-1.59961 0,-1.2 0.93282,-2.13281 2.13282,-2.13281 z m -139.05078,0.53125 c 1.04999,-0.0312 2.25,0.96953 2.25,2.26953 0,0.66667 -0.93335,1.19922 -2,1.19922 -2.00001,0 -2.6659,-1.59972 -1.19922,-3.06641 0.26666,-0.26666 0.59922,-0.39192 0.94922,-0.40234 z m -13.142582,0.77148 c 3.232612,-0.0322 6.060542,1.95587 6.060542,5.63086 0,3.33332 -5.868224,6.79912 -9.601558,5.73243 -5.866666,-1.86664 -6.666273,-3.33347 -3.59961,-7.4668 1.866667,-2.625 4.626369,-3.87142 7.140626,-3.89649 z m 165.527342,0.0312 c 3.06666,0 4.79987,0.93346 6.5332,3.4668 1.2,1.86663 1.8663,4.13309 1.59961,5.06641 -1.06667,2.79998 -7.86784,3.46535 -11.20117,1.33203 -2.93333,-1.86667 -4.13281,-7.06497 -2.13281,-8.93164 0.4,-0.53333 2.80117,-0.9336 5.20117,-0.9336 z m -198.267577,5.33204 c 1.733333,0 14.132553,4.26728 15.199219,5.33398 0.533333,0.39999 -1.198566,3.73398 -3.865234,7.33398 l -4.933594,6.39844 -10.667969,-0.79883 c -5.733264,-0.39998 -11.065233,-1.19998 -11.865234,-2 -0.666667,-0.66667 1.866929,-3.99935 6.933593,-8.66601 4.533268,-4.26667 8.665886,-7.60156 9.199219,-7.60156 z m 229.999997,0.13476 c 1.46667,-0.13334 18.13282,14.39855 18.13282,15.86524 0,0.53332 -3.7323,1.46667 -8.26563,2 -4.66667,0.40002 -10.00052,1.06681 -11.86719,1.46679 -3.06667,0.53333 -4.26706,-0.26668 -8.40039,-6 -2.8,-3.73334 -4.66615,-7.33284 -4.13281,-8.13281 0.4,-0.66667 3.59975,-2.13256 7.06641,-3.19922 3.46667,-1.06666 6.80012,-2 7.46679,-2 z m -187.49218,1.33984 c 0.45234,0.009 1.1082,0.26016 2.1582,0.66016 2.26667,0.80001 3.06693,5.86524 0.93359,5.86524 -3.2,0 -5.06653,-1.73282 -4.5332,-4.13282 0.5,-1.74999 0.6875,-2.4069 1.44141,-2.39258 z m 144.40039,0.25 c 1.10156,0.027 1.99101,0.95078 2.29101,2.67579 0.53333,2.79979 -3.33203,4.53321 -5.33203,2.5332 -1.06668,-1.06666 -1.0677,-2.13296 0.26563,-3.59961 0.93333,-1.10834 1.91861,-1.63034 2.77539,-1.60938 z m -166.775394,4.94336 c 0.399998,0 2.934376,0.66679 5.734375,1.4668 5.466667,1.46665 5.998829,3.20015 2.798828,9.4668 -1.999998,3.86668 -2.3987,3.99817 -9.332031,3.46484 -3.999998,-0.39999 -7.599998,-0.93151 -8,-1.46484 -0.399999,-0.40003 1.199087,-3.46743 3.732421,-6.80078 2.399999,-3.33332 4.666404,-5.9994 5.066407,-6.13282 z m 31.066404,0.38282 c 0.3,-0.05 0.80157,0.28254 1.60156,0.94922 1.06666,0.93335 1.59922,2.13414 1.19922,2.80078 -1.06666,1.73336 -3.19922,0.13295 -3.19922,-2.40039 0,-0.86667 0.0984,-1.29961 0.39844,-1.34961 z m 157.78516,0.004 c 0.18672,-0.008 0.34909,-0.005 0.48242,0.0117 2.4,0.39999 10.13359,11.20182 8.93359,12.53516 -0.53333,0.39999 -4.13332,1.06485 -8,1.46484 -6.93332,0.53333 -6.93398,0.53438 -9.33398,-4.26562 -2.93334,-6.26665 -3.06719,-5.9995 2.13281,-8.13282 1.98334,-0.93332 4.47812,-1.56045 5.78516,-1.61328 z m -30.76172,0.22852 c 0.2625,0 0.54375,0.15117 0.84375,0.45117 1.6,1.59999 0.13372,4.66627 -1.59961,3.59961 -0.66668,-0.40003 -0.80039,-1.73412 -0.40039,-2.80078 0.33333,-0.83334 0.71875,-1.25001 1.15625,-1.25 z m 12.80469,3.45898 c 1.22031,0.0727 2.39023,0.3922 3.24023,0.99219 2,1.33334 4.5332,6.26549 4.5332,8.79883 0,1.60002 -1.33359,2.13476 -4.93359,2.13476 -7.6,0 -12.40143,-6.13372 -8.13477,-10.40039 1.08334,-1.08333 3.26107,-1.64648 5.29493,-1.52539 z m -150.64453,0.0254 c 1.51666,0.0667 3.01654,0.70039 4.2832,1.90039 2,2.00002 1.59974,5.06562 -0.9336,8.26563 -1.33334,1.73333 -10.533327,2.40028 -11.999995,0.93359 -1.066666,-1.06666 1.734248,-7.46629 4.267575,-9.59961 1.33334,-1.06665 2.86615,-1.56666 4.38282,-1.5 z m 9.85156,4.5293 c 0.39844,-0.009 0.99844,0.25313 1.89844,0.70313 3.2,1.73332 3.7332,7.33476 0.5332,6.13476 C 115.99922,228.40076 114.79989,228 114.5332,228 114.26655,228 114,226.53269 114,224.66602 c 0,-1.91665 0.10351,-2.6875 0.76758,-2.70313 z m 129.47656,0.0645 c 0.23125,-0.0271 0.42331,0.005 0.55664,0.10547 2,1.2 1.33164,5.60038 -1.06836,6.40039 -3.2,1.33334 -4.66615,-2.00079 -2.13281,-4.80078 0.9,-0.99986 1.95078,-1.62379 2.64453,-1.70508 z m -233.769531,0.86524 c 0.633334,0.0167 1.32526,0.0738 2.058594,0.17383 2.666665,0.39998 8.532549,1.20104 13.199219,1.73437 4.533332,0.53333 8.66691,1.33191 8.933594,1.86524 0.666663,1.06665 -15.599607,16.66742 -19.59961,18.80078 -1.866663,0.93331 -2.665755,-0.40017 -5.7324216,-9.4668 -2.0000013,-5.8667 -3.0665361,-11.33284 -2.5332032,-12.13281 0.3999997,-0.70007 1.773827,-1.02463 3.6738278,-0.97461 z m 223.406251,3.78125 c 0.82682,0.013 1.45312,0.74218 1.45312,1.99219 0,1.06665 -0.5345,2 -1.20117,2 -1.73332,0 -2.93385,-2.13256 -1.86719,-3.19922 0.55001,-0.55001 1.11915,-0.80078 1.61524,-0.79297 z M 44,226.80078 c 4.266667,0 22.399739,2.39921 23.066406,3.19922 0.266669,0.26665 -2.666535,5.06653 -6.533203,10.5332 -7.999933,11.19999 -6.932811,10.66694 -28.132812,12.9336 -21.599997,2.13335 -21.86771,1.06603 -3.734375,-15.33399 C 35.599347,231.86613 42.533335,226.80078 44,226.80078 Z m 81.55078,0.57422 c 0.41172,2e-5 0.85,0.0746 1.25,0.22461 1.33333,0.53333 1.59883,1.20002 0.79883,2 -1.6,1.60002 -4.66628,0.13372 -3.59961,-1.59961 0.25,-0.41676 0.86458,-0.62503 1.55078,-0.625 z m 160.71484,2.0918 c 0.53334,0 4.00104,4.26677 7.73438,9.46679 l 6.80078,9.73243 -5.86719,0.40039 c -3.2,0.26664 -8.8009,-0.13269 -12.26757,-0.66602 -6.40001,-1.06666 -6.53347,-1.33373 -9.4668,-8.40039 -1.6,-3.99999 -2.66562,-7.59997 -2.26563,-8 0.26667,-0.26665 3.73346,-0.93347 7.4668,-1.4668 3.86666,-0.40002 7.3319,-0.93299 7.86523,-1.0664 z m -213.865229,0.26562 7.066406,0.66797 c 4.000001,0.26665 7.733723,1.06575 8.400391,1.73242 2.133335,1.86667 -3.46784,13.60066 -7.201172,15.33399 -5.066665,2.4 -21.332032,3.46681 -21.332032,1.46679 0,-0.93331 2.933203,-5.60039 6.533204,-10.40039 z m 43.279299,2.27735 c 2.69531,-0.11328 4.98633,1.82423 4.98633,5.32421 0,4.53336 -2.26615,6.53357 -8.13282,6.9336 -4.26666,0.39999 -4.53426,0.1332 -4.26758,-3.4668 0.13334,-2.13335 1.33516,-4.93424 2.53516,-6.26758 1.5,-1.65 3.26172,-2.45547 4.87891,-2.52343 z m -18.388674,0.0586 c 1.222655,0.0375 2.691408,0.28242 4.441404,0.73242 2.26667,0.66667 2.9336,1.86643 2.9336,5.06641 0,2.26669 -0.53256,4.93334 -1.19922,6 -1.2,1.73336 -14.133466,4.39975 -15.4668,3.0664 -0.666667,-0.66667 3.199739,-10.93398 5.066406,-13.33398 0.833332,-1.08335 2.18685,-1.59375 4.22461,-1.53125 z m 145.777344,0.0117 c 3.78125,-0.13751 8.03125,3.58593 8.53125,8.58594 0.4,3.86675 0.26783,4.00083 -4.79883,3.73437 -7.2,-0.53337 -11.33451,-6.66745 -7.20117,-10.80078 1,-1.00001 2.20833,-1.4737 3.46875,-1.51953 z m 18.63672,0.1289 c 0.28359,0.005 0.56146,0.0252 0.82812,0.0586 3.33333,0.39999 4.39974,1.46533 7.06641,7.33203 l 3.06641,7.06641 h -6.13282 c -7.86666,0 -10.80051,-1.73357 -11.86718,-6.9336 -0.8,-3.33331 -0.39988,-4.66666 1.46679,-6 1.28334,-0.93332 3.58711,-1.55998 5.57227,-1.52344 z m -29.95117,2.45118 c 1.20442,0.0794 2.24609,1.09051 2.24609,2.67382 0,1.73333 -0.93269,2.66602 -2.66602,2.66602 -2.53333,0 -3.60104,-2.66706 -1.73437,-4.40039 0.65,-0.7 1.43164,-0.98711 2.1543,-0.93945 z m -104.55469,0.006 c 1.33333,0 2.80117,1.20132 3.20117,2.66796 0.53333,2.13336 1.3e-4,2.66602 -2.5332,2.66602 -2.26667,0 -3.20117,-0.79934 -3.20117,-2.66602 0,-1.73332 0.9332,-2.66796 2.5332,-2.66796 z m 95.2168,1.83398 c 0.38333,-0.0334 0.78359,0.1664 1.18359,0.56641 0.8,0.80001 0.93372,2.13362 0.40039,2.93359 -0.66667,1.06647 -1.46758,1.06759 -2.26758,0.26758 -0.8,-0.79998 -0.93177,-2.13358 -0.39844,-2.9336 0.33334,-0.53342 0.6987,-0.80063 1.08204,-0.83398 z m -85.88282,0.83398 c 0.8,0 1.73282,0.53202 2.13282,1.33204 0.4,0.66667 -0.13256,1.33398 -1.19922,1.33398 -1.2,0 -2.13282,-0.66731 -2.13282,-1.33398 0,-0.80002 0.53256,-1.33204 1.19922,-1.33204 z m 82.24805,6.6543 c 1.61631,-0.0773 3.21875,0.87773 3.21875,2.67774 0,3.20016 -3.46628,5.06691 -5.59961,2.93359 -0.80001,-0.80001 -1.06797,-2.40014 -0.66797,-3.4668 0.525,-1.4 1.7917,-2.08437 3.04883,-2.14453 z M 150,244 c 1.86667,0 2.80066,2.40063 1.33398,3.33398 -1.73332,1.06666 -4.26731,-0.53474 -3.33398,-2.13476 C 148.53333,244.53255 149.33333,244 150,244 Z m 59.88086,0.006 c 0.82682,-0.0469 1.45312,0.66079 1.45312,1.99414 0,1.06666 -0.93333,2 -2,2 -2.13333,0 -2.66836,-1.59976 -1.06836,-3.06641 0.55001,-0.60001 1.11915,-0.8996 1.61524,-0.92773 z m 20.78516,0.0937 c 1.8,0 3.6013,0.63372 4.66796,1.90039 1.86668,2.13332 2.66538,9.33344 1.33204,11.4668 -0.66666,0.93331 -2.3991,0.80063 -5.73243,-0.66602 C 225.60026,254.66743 223.2,249.33332 226,246 c 1.06666,-1.26667 2.86602,-1.90039 4.66602,-1.90039 z M 140.5,244.11719 c 0.83333,0.0167 1.83346,0.68228 2.9668,2.01562 1.33331,1.73333 1.33242,2.26733 -0.26758,3.33399 -1.06667,0.66667 -2.2655,1.19922 -2.79883,1.19922 -1.59998,0 -2.66719,-2.66601 -1.86719,-4.66602 0.46667,-1.26663 1.13347,-1.89949 1.9668,-1.88281 z m -11.43555,0.14843 c 2.23125,-0.063 4.29298,0.9258 4.66797,2.80079 0.93334,4.93334 -1.06588,8.66616 -5.19922,10.13281 -2.26666,0.80009 -4.66731,1.06795 -5.33398,0.66797 -2,-1.2 -1.3336,-8.80012 1.0664,-11.4668 1.22501,-1.39999 3.06342,-2.08578 4.79883,-2.13477 z m 115.77344,3.89258 c 0.72917,0.025 1.59557,0.10886 2.62891,0.24219 2.93334,0.39999 5.73335,0.93201 6,1.33203 0.4,0.39999 1.06679,4.00144 1.46679,8.13477 l 0.79883,7.46679 -7.19922,-2.5332 c -6.53333,-2.13335 -7.19961,-2.80128 -7.59961,-6.66797 -0.26665,-2.4 -0.13437,-5.33373 0.26563,-6.40039 0.5,-1.20013 1.45117,-1.64926 3.63867,-1.57422 z m -132.75195,0.082 c 0.63125,-0.0146 1.28073,-0.006 1.91406,0.0274 4.4,0.39999 4.66641,0.79871 5.06641,5.33203 0.39999,4.00002 -0.13413,5.33308 -2.80079,7.06641 -4.66667,3.06667 -12.93164,4.26718 -12.93164,1.86718 0,-3.6 2.9332,-12.53295 4.53321,-13.59961 0.6,-0.39994 2.325,-0.6496 4.21875,-0.69336 z m 145.51367,0.69336 7.86719,0.9336 c 4.53334,0.53336 8.53347,1.8664 9.46679,3.0664 2.4,3.06667 8.93282,19.06722 8.13282,19.86719 -0.4,0.40003 -5.3336,-0.66759 -10.9336,-2.26758 -11.46667,-3.33331 -12.53242,-4.53411 -13.73242,-14.80078 z m -62.93359,0.40039 c 1.2,0 2.00105,0.66679 1.73437,1.4668 -0.26667,0.80001 -1.06771,1.33203 -1.73437,1.33203 -0.66668,0 -1.46574,-0.53202 -1.73243,-1.33203 -0.26666,-0.80001 0.53243,-1.4668 1.73243,-1.4668 z m -31.66797,0.13672 c 0.24375,-0.0125 0.5358,0.0289 0.86914,0.12891 1.33333,0.13334 2.26562,0.93436 2.26562,1.73437 -0.13333,2.00002 -3.20053,1.59959 -3.86719,-0.40039 -0.29999,-0.89994 10e-4,-1.42537 0.73243,-1.46289 z m -64.121097,0.0625 c 4.131087,0.1751 3.397927,2.45065 1.656247,10.33399 l -1.333981,6.66601 -10.265625,3.33399 c -5.599998,1.86667 -11.067186,3.46679 -11.867188,3.46679 -1.866667,0 -1.200132,-2.13358 4.533203,-14.93359 3.066666,-6.93332 3.734247,-7.59948 8.267579,-8.13281 4.25,-0.45834 7.131998,-0.81397 9.009765,-0.73438 z m 80.240237,1.13282 c 0.65,-0.0667 1.34922,0.20078 1.94922,0.80078 1.46665,1.46664 -0.4004,3.20036 -2.40039,2.40039 -1.06666,-0.53333 -1.59923,-1.33333 -1.19922,-2 0.4,-0.73333 1.00039,-1.13451 1.65039,-1.20117 z m -23.95117,0.11718 c 0.83333,0.0167 1.83346,0.68424 2.96679,2.01758 1.33336,1.73333 1.33438,2.26537 -0.26562,3.33203 -1.06667,0.66667 -2.26745,1.20117 -2.80078,1.20117 -1.59999,0 -2.66719,-2.66799 -1.86719,-4.66796 0.46666,-1.26664 1.13346,-1.89949 1.9668,-1.88282 z m 48.74023,0.0625 c 2.2444,-0.0387 3.96823,2.2715 2.22656,5.02149 -0.93333,1.33341 -1.73333,1.46615 -4,0.13281 -2.4,-1.2 -2.66536,-1.86681 -1.33203,-3.4668 0.95833,-1.16667 2.08529,-1.66992 3.10547,-1.6875 z m -58.58984,2.57032 c 1.78333,-0.0833 3.34947,0.58411 3.88281,2.05078 1.73333,4.53335 0.80026,7.99896 -3.06641,10.26562 -5.46666,3.20001 -6.40013,2.93347 -7.46679,-2.5332 -0.66668,-3.6 -0.26654,-5.46536 1.46679,-7.33203 1.4,-1.53332 3.40026,-2.36784 5.1836,-2.45117 z m 69.16601,0.0176 c 1.85,0 3.85,0.7655 5.25,2.29883 1.60002,1.73333 2.00066,3.73399 1.33399,7.33399 -0.8,5.46667 -1.60027,5.73358 -6.9336,2.93359 -4.26668,-2.13335 -5.99999,-6.53427 -4,-10.26758 0.8,-1.53333 2.49961,-2.29883 4.34961,-2.29883 z M 46.798828,254.7832 c 1.73584,0.19972 -0.373047,4.68359 -5.998047,12.6836 -10.000002,14.4 -9.599871,14.26562 -16.533203,2.26562 -3.333332,-5.73331 -5.733983,-10.66642 -5.333984,-11.0664 0.266668,-0.40003 6.400131,-1.3328 13.466797,-2.13282 7.066669,-0.93331 13.333333,-1.599 14,-1.73242 0.15,-0.025 0.282714,-0.0309 0.398437,-0.0176 z m 123.785152,0.041 c 1.81511,0.026 3.98243,0.85937 4.48243,2.10937 0.26665,0.93332 -0.53295,2.13322 -1.59961,2.53321 -2.53334,0.93335 -6.53399,-1.86771 -5.33399,-3.73438 0.4,-0.65 1.36211,-0.92382 2.45117,-0.9082 z m 16.87891,0.0879 c 1.45703,-0.0729 3.10352,0.68814 3.60352,2.02148 0.66666,2.26681 -3.46732,3.86667 -5.33399,2 -0.8,-0.79997 -0.93177,-2.00024 -0.39844,-2.93359 0.45,-0.7 1.25469,-1.04414 2.12891,-1.08789 z M 317.73242,256 c 10.8,0 22.9336,1.59976 22.9336,3.06641 0,1.73333 -11.06615,20.93359 -12.13282,20.93359 -0.93333,0 -13.46576,-16.6659 -15.73242,-21.19922 C 311.33411,256.13417 311.59909,256 317.73242,256 Z m -155.68554,2.71484 c 2.78645,-0.15364 5.2871,2.3353 5.2871,6.75196 0,2.4 -1.20013,4.66706 -3.46679,6.40039 -4.13334,3.19997 -4.93451,2.93347 -7.20117,-2.53321 -1.33334,-3.33331 -1.33347,-4.53395 0.5332,-7.33398 1.4,-2.14999 3.17578,-3.19297 4.84766,-3.28516 z m 34.46679,0.11719 c 2.28646,-0.0898 5.12043,1.28452 6.28711,3.70117 1.19999,2.2667 1.19897,4.26691 0.26563,6.9336 -1.86666,5.46667 -3.46589,6.00039 -7.19922,2.40039 -3.2,-2.93333 -4.00039,-6.9345 -2.40039,-11.20117 0.5,-1.19999 1.675,-1.78009 3.04687,-1.83399 z m 31.5918,1.20508 c 1.58343,-0.0248 3.54505,0.52864 5.76172,1.69531 3.46666,1.73333 5.06628,7.86719 3.59961,13.86719 l -0.80078,3.06641 L 230,275.33398 c -6.93334,-3.46665 -7.73386,-5.33373 -5.86719,-12.40039 0.525,-1.87501 1.93682,-2.86455 3.97266,-2.89648 z m -48.43945,0.084 c 1.4581,-0.075 2.85117,0.86251 4.20117,2.8125 2.8,3.86669 2.66627,6.4 -0.40039,10 -3.2,3.86676 -4.80065,3.86616 -7.33399,0.13282 -2.66666,-3.86669 -2.66666,-8.26691 0,-10.9336 1.225,-1.28333 2.39912,-1.95338 3.53321,-2.01172 z m -48.91602,0.0117 c 1.81667,-0.1 3.31654,0.20025 3.7832,0.9336 0.26668,0.53333 0.93347,3.06773 1.4668,5.73437 0.8,4.53336 0.66563,4.79897 -5.73438,8.26563 -3.6,2.00001 -6.93151,3.19934 -7.46484,2.66601 C 122.40078,277.33243 122,273.73334 122,270 c 0,-5.86666 0.39973,-7.20039 3.06641,-8.40039 1.73333,-0.86667 3.86692,-1.3668 5.68359,-1.4668 z m 111.55078,4.69336 c 3.08438,0.1732 13.36563,3.08973 14.76563,4.37305 1.46667,1.46668 5.33373,21.46704 4.40039,22.40039 -1.06667,1.06666 -6.40039,-1.33322 -14.40039,-6.5332 l -6.40039,-4 v -7.59961 c 0,-4.26667 0.40078,-7.99988 0.80078,-8.53321 0.1,-0.1 0.39336,-0.13216 0.83398,-0.10742 z m -125.41797,0.6211 c 2.34792,0.0547 2.45117,1.00311 2.45117,6.95312 0,5.73332 -0.66692,7.73387 -2.93359,9.86719 C 113.46706,284.93426 100.39987,292 98.533203,292 c -1.33333,0 0.267063,-11.6005 2.400387,-17.86719 1.33335,-4.13333 2.80039,-5.60029 6.40039,-6.93359 2.53334,-0.93336 6.26511,-1.73242 8.39844,-1.73242 0.43333,-0.0167 0.81498,-0.0273 1.15039,-0.0195 z m 34.05078,1.21875 c 0.26667,0 1.59922,2.53489 3.19922,5.60156 l 2.80078,5.59961 -5.46679,5.0664 c -3.06667,2.93333 -5.99935,4.80038 -6.66602,4.40039 -1.2,-0.66667 -4.66719,-14.1346 -3.86719,-14.66796 0.26667,-0.13331 2.53308,-1.46642 5.06641,-3.06641 2.53333,-1.60003 4.80025,-2.93359 4.93359,-2.93359 z m 58.55469,1.49023 c 1.37197,-0.10732 3.0194,0.57656 5.17774,1.97656 C 216.93269,271.59946 218,273.6 218,276 c 0,4.13333 -2.53386,12 -3.86719,12 -0.53333,0 -3.19948,-2.40066 -6.13281,-5.33398 l -5.19922,-5.33204 2.26563,-4.66796 c 1.35,-2.925 2.65791,-4.37179 4.42187,-4.50977 z m -40.02148,4.04297 c 1.36666,0.0333 2.66705,1.13424 4.40039,3.26758 3.73332,4.66666 3.59987,5.60037 -1.4668,12.40039 -3.86667,5.46667 -4.26667,5.59869 -6,3.33203 -0.93333,-1.33334 -2.53399,-4.80011 -3.33398,-7.4668 -1.33335,-4.66666 -1.20039,-5.46511 1.59961,-8.39844 1.99999,-2.13329 3.43411,-3.16811 4.80078,-3.13476 z m 20.14843,0.0527 c 1.30567,0.0463 2.81797,0.91549 4.91797,2.54883 4.13334,3.33332 4.26706,5.465 0.40039,12.93164 l -3.0664,5.73438 -2.80078,-3.06641 c -1.46667,-1.73333 -3.60079,-4.53376 -4.80079,-6.40039 -1.99999,-3.06667 -1.99817,-3.59905 0.53516,-7.73242 1.8,-2.77499 3.13574,-4.0751 4.81445,-4.01563 z M 136.13281,276 c 1.6,0 4.53321,9.60039 4.53321,14.40039 0,2.93333 -15.33203,16.79961 -17.33204,15.59961 C 122.66732,305.60001 122,300.26758 122,294.26758 v -10.9336 l 6.40039,-3.60156 C 131.86706,277.73241 135.33281,276 136.13281,276 Z m 87.27344,0.10156 c 1.38633,0.0856 3.58477,1.13244 7.25977,3.23242 3.6,2.13336 5.99986,4.66694 6.5332,6.9336 1.2,4.26667 0.6668,20.26639 -0.5332,21.0664 -0.4,0.26665 -4.79961,-3.06731 -9.59961,-7.33398 l -8.80079,-7.86719 1.20118,-6.40039 c 0.66667,-3.46669 1.46718,-7.19946 1.86718,-8.13281 0.40834,-1.05 0.99401,-1.56459 2.07227,-1.49805 z m -157.046875,5.29297 c 0.647916,0.0146 0.974609,0.17266 0.974609,0.47266 0,1.33334 -10.801043,25.46707 -11.734375,26.40039 -0.533333,0.53333 -4.798699,-3.06812 -9.332031,-8.13477 -5.600001,-6.26668 -7.734638,-9.59895 -6.667969,-10.26562 0.799998,-0.53333 6.400913,-2.668 12.267579,-4.66797 7.699949,-2.60008 12.548439,-3.84846 14.492187,-3.80469 z m 134.707035,0.0723 6.5332,5.46679 6.5332,5.4668 -0.79883,6.79883 c -1.2,8.26666 -3.86679,16.13342 -5.46679,16 -0.66666,-0.13334 -4.00014,-3.99883 -7.4668,-8.79883 l -6.40039,-8.668 3.59961,-8.13281 z m 92.75976,0.0371 c 1.6211,-0.056 5.42383,1.08009 14.17383,3.83007 12.13333,4.00003 12.66588,4.26691 11.19922,6.9336 -1.86667,3.46664 -13.19987,15.7324 -14.5332,15.7324 -1.06667,0 -12,-22.93256 -12,-25.19922 0,-0.80001 0.18749,-1.26328 1.16015,-1.29687 z m -136.35937,1.16211 c 1.46666,0 7.19922,11.60129 7.19922,14.66796 0,2.00002 -12.13296,18.66602 -13.59961,18.66602 -0.93335,0 -2.66746,-5.33334 -4.80079,-16 -1.19999,-5.86666 -1.06575,-6.13241 4.26758,-11.73242 2.93334,-3.06663 6.00026,-5.60156 6.9336,-5.60156 z m 21.73242,2.66796 c 1.33333,0 7.46732,6.66563 9.33398,10.26563 1.2,2.4 0.66641,4.6669 -2.93359,12.93359 -2.26667,5.59998 -4.66733,10.13282 -5.33399,10.13282 -1.59999,0 -5.99843,-8.00028 -8.39843,-14.9336 l -2,-6.26562 L 174,291.33398 c 2.26667,-3.33331 4.53255,-6 5.19922,-6 z m 62.66797,1.33204 c 0.93334,0 19.19869,9.86823 21.33203,11.60156 1.06666,0.79997 8.13346,34.39997 7.4668,36 -0.26667,0.93329 -1.33282,1.7324 -2.13282,1.7324 -1.46667,0 -22.53281,-18.13319 -26.13281,-22.5332 -1.2,-1.2 -1.73437,-6.40038 -1.73437,-14.40039 0,-6.79998 0.5345,-12.40039 1.20117,-12.40039 z m -100.72852,11.0625 c 0.0793,-0.0129 0.14531,-0.0128 0.19531,0.004 1.33335,0.53333 3.33308,8.13502 5.06641,19.06836 0.93333,5.33333 0.53216,6.13244 -9.20117,19.73242 C 123.19922,356.26653 122,355.73426 122,330.26758 V 314 l 8.93359,-8.26758 c 4.62501,-4.37499 9.01514,-7.81116 10.20508,-8.0039 z m 51.52735,3.20507 L 200,311.19922 c 4.13333,5.86666 7.33398,11.60012 7.33398,13.4668 0,2.79998 -2.26667,14.66692 -6,30.93359 -1.46666,6.13334 -4.79987,3.2013 -10.5332,-9.33203 -10.13333,-21.6 -9.86823,-19.86681 -3.60156,-33.4668 z m -25.4668,1.73243 c 0.4,0 3.06772,5.0673 5.73437,11.33398 5.73335,12.79997 6.00013,10.39975 -4.5332,33.06641 -3.86667,8.13335 -6.13294,11.60082 -7.59961,11.33398 -1.46667,-0.26665 -3.06771,-5.06706 -5.73437,-16.40039 -2.00001,-8.79999 -3.59908,-16.66678 -3.73243,-17.4668 0,-1.73333 8.13178,-14.13359 12.39844,-18.93359 1.46667,-1.60003 3.0668,-2.93359 3.4668,-2.93359 z M 89.066406,302.8008 C 89.599739,302.66744 90,304.39989 90,306.5332 c 0,4.53332 -3.999219,23.06656 -5.199219,24.53321 -0.933331,0.93335 -20.134765,-11.9991 -20.134765,-13.73243 0,-0.53332 5.201042,-3.86825 11.734375,-7.60156 6.400001,-3.73334 11.999348,-6.93164 12.666015,-6.93164 z m 27.916014,17.03125 c 0.71172,-0.002 1.01797,0.66758 1.41797,1.76758 1.33333,3.46666 0.7987,24.40103 -0.66797,25.73437 -0.8,0.80002 -21.066404,-7.06807 -21.066404,-8.13476 0,-2.26666 3.333077,-6.13269 11.066404,-12.66602 5.75,-4.83333 8.0638,-6.69856 9.25,-6.70117 z M 242.66602,320 c 1.06667,0 6.40103,4.13257 11.73437,9.19922 L 264,338.40039 253.59961,343.4668 c -8.66667,4.00002 -10.66575,4.66643 -11.73242,3.0664 -0.66667,-1.06666 -1.20117,-7.46561 -1.20117,-14.26562 0,-9.99999 0.4,-12.26758 2,-12.26758 z m -31.33204,8 c 1.86668,0 17.46511,23.06615 16.39844,24.13281 -1.6,1.59999 -21.59934,5.7341 -22.66601,4.80078 -0.26666,-0.39998 0.66706,-7.06745 2.40039,-14.80078 1.6,-7.73336 3.33386,-14.13281 3.86718,-14.13281 z m -62.82421,0.74805 c 0.0629,0.002 0.11458,0.0194 0.15625,0.0527 0.53332,0.66667 2.26626,7.19986 3.5996,14.5332 2,9.99999 2.26836,13.46559 1.06836,13.73243 -1.86666,0.39998 -20.6677,-3.33374 -21.73437,-4.40039 -1.06667,-0.93332 1.60117,-5.33188 9.20117,-15.86524 3.5,-4.62497 6.76513,-8.07861 7.70899,-8.05273 z m 130.38867,1.15429 a 179.62737,179.9394 0 0 1 -1.76367,1.15821 c 0.52428,-0.32318 1.10695,-0.70363 1.76367,-1.15821 z m -98.375,2.81836 c 0.0538,0.012 0.10091,0.0384 0.14258,0.0801 0.66666,0.66663 3.59987,6.53259 6.5332,13.19922 4.8,10.6667 5.06641,12.13358 3.0664,12.93359 -2.79999,1.06647 -15.99856,1.33229 -19.86523,0.26563 -2.66667,-0.80001 -2.79973,-1.06576 -1.06641,-5.73242 0.93335,-2.66669 3.6,-8.66733 6,-13.33399 2.25,-4.5 4.38232,-7.59229 5.18946,-7.41211 z"
       style="opacity:0.998;fill:#d81b60;fill-opacity:1;stroke-width:19.2292;stroke-linecap:round"
       id="path18060" />
  </g>
</svg>
