<?xml version="1.0" encoding="UTF-8" standalone="no"?>
<svg
   xmlns:dc="http://purl.org/dc/elements/1.1/"
   xmlns:cc="http://creativecommons.org/ns#"
   xmlns:rdf="http://www.w3.org/1999/02/22-rdf-syntax-ns#"
   xmlns:svg="http://www.w3.org/2000/svg"
   xmlns="http://www.w3.org/2000/svg"
   xmlns:sodipodi="http://sodipodi.sourceforge.net/DTD/sodipodi-0.dtd"
   xmlns:inkscape="http://www.inkscape.org/namespaces/inkscape"
   sodipodi:docname="ring-4.svg"
   inkscape:version="1.0 (4035a4fb49, 2020-05-01)"
   id="svg17736"
   version="1.1"
   viewBox="0 0 423.20214 422.92348"
   height="422.92346mm"
   width="423.20215mm">
  <defs
     id="defs17730" />
  <sodipodi:namedview
     inkscape:snap-bbox-edge-midpoints="true"
     inkscape:bbox-nodes="true"
     inkscape:bbox-paths="true"
     inkscape:snap-bbox-midpoints="true"
     inkscape:snap-bbox="true"
     inkscape:window-maximized="1"
     inkscape:window-y="36"
     inkscape:window-x="0"
     inkscape:window-height="1044"
     inkscape:window-width="1920"
     inkscape:snap-global="true"
     showgrid="false"
     inkscape:document-rotation="0"
     inkscape:current-layer="layer1"
     inkscape:document-units="mm"
     inkscape:cy="916.07133"
     inkscape:cx="490.35776"
     inkscape:zoom="0.35"
     inkscape:pageshadow="2"
     inkscape:pageopacity="0.0"
     borderopacity="1.0"
     bordercolor="#666666"
     pagecolor="#ffffff"
     id="base" />
  <metadata
     id="metadata17733">
    <rdf:RDF>
      <cc:Work
         rdf:about="">
        <dc:format>image/svg+xml</dc:format>
        <dc:type
           rdf:resource="http://purl.org/dc/dcmitype/StillImage" />
        <dc:title />
      </cc:Work>
    </rdf:RDF>
  </metadata>
  <g
     transform="translate(-154.61168,254.86236)"
     id="layer1"
     inkscape:groupmode="layer"
     inkscape:label="Layer 1">
    <ellipse
       ry="211.44408"
       rx="211.60109"
       cy="-43.400593"
       cx="366.21268"
       id="path3675"
       style="opacity:0.998;fill:#90caf9;stroke:none;stroke-width:10.7035;stroke-linecap:round;fill-opacity:1" />
    <path
       d="m 365.71464,-254.86231 c -0.0198,5e-5 -0.0386,4.4e-4 -0.0584,5.1e-4 a 211.60109,211.44409 0 0 1 0.13539,0 c -0.0259,5e-5 -0.0511,-5.9e-4 -0.077,-5.1e-4 z m 0.077,5.1e-4 c 1.53572,-0.002 3.08132,0.0499 3.67109,0.154 l 1.0232,0.17622 -0.21188,5.57433 c -0.24695,5.99722 -1.23462,18.94389 -1.48156,19.64945 -0.10583,0.3175 -0.98774,0.45889 -2.78691,0.45889 h -2.61069 l -0.21136,-1.34101 c -0.24694,-1.5875 -1.16406,-13.79355 -1.48156,-19.86132 -0.21167,-4.19806 -0.21177,-4.48031 0.42323,-4.62142 0.48762,-0.12192 1.99065,-0.18334 3.53105,-0.18914 a 211.60109,211.44409 0 0 0 -12.73669,0.41703 c 0.48322,-0.0187 0.92732,-0.0282 1.23248,-0.016 l 1.5875,0.0351 0.10594,12.91188 0.0708,12.94701 -2.68097,0.24701 c -1.44639,0.14113 -2.75174,0.14097 -2.89285,0.0351 -0.42333,-0.42334 -3.70451,-24.94128 -3.35173,-25.29406 0.17639,-0.17639 1.51726,-0.45871 2.96364,-0.6351 0.26115,-0.0318 0.54432,-0.0584 0.82476,-0.0853 a 211.60109,211.44409 0 0 0 -5.72161,0.49609 c 0.21417,0.0513 0.37896,0.1348 0.45165,0.25942 0.67028,1.05833 3.84548,24.69437 3.38687,25.15298 -0.17639,0.17639 -1.37583,0.42343 -2.64583,0.49403 -1.83445,0.17639 -2.32854,0.10591 -2.32854,-0.28215 0,-0.28222 -0.38771,-5.75042 -0.8816,-12.1357 -0.49389,-6.42055 -0.88212,-11.924 -0.88212,-12.27677 0,-0.35278 0.35271,-0.776 0.81132,-0.95239 0.0545,-0.0218 0.11065,-0.0378 0.16588,-0.0574 a 211.60109,211.44409 0 0 0 -12.78165,1.79679 c 0.88902,-0.0756 0.88103,0.34617 3.90209,14.66473 1.05834,5.04473 2.01084,9.41924 2.11667,9.77202 0.17639,0.635 -0.9524,1.09337 -3.59823,1.5167 -1.05834,0.17639 -1.51681,0.10577 -1.62264,-0.24701 -0.10583,-0.24695 -0.95244,-5.92657 -1.86966,-12.59407 -1.65806,-11.7475 -1.69333,-12.13544 -1.05833,-12.59406 0.0944,-0.0756 0.22319,-0.14552 0.37052,-0.20825 a 211.60109,211.44409 0 0 0 -13.37541,2.8639 c 0.58554,-0.10839 1.16549,-0.1011 1.32757,0.061 0.14111,0.14111 1.83482,5.67932 3.73982,12.27626 3.03389,10.65389 3.38636,12.10062 2.85719,12.34756 -0.45861,0.24695 -3.91552,1.09348 -4.44469,1.09348 -0.49388,0 -5.5743,-24.7298 -5.18625,-25.11785 0.17901,-0.17901 0.68883,-0.38077 1.24644,-0.54622 a 211.60109,211.44409 0 0 0 -13.47566,3.85403 c 0.91125,-0.0832 1.40374,0.70222 2.35179,3.11299 1.19945,3.13972 6.87907,18.62642 7.3024,20.03753 0.17639,0.67028 0.0354,0.88187 -1.09348,1.34049 -0.74083,0.3175 -1.86975,0.63521 -2.50475,0.74104 -0.9525,0.17639 -1.19985,0.0704 -1.48208,-0.6351 -0.88194,-2.04611 -6.73789,-23.28352 -6.52622,-23.63629 0.0924,-0.18488 0.4547,-0.4198 0.82682,-0.59479 a 211.60109,211.44409 0 0 0 -26.15034,10.56369 c 0.51725,-0.2032 0.7873,-0.17956 1.017,0.0501 0.38804,0.35277 8.25496,14.88719 11.25357,20.77858 l 0.84698,1.6583 -2.32854,1.12861 c -1.34055,0.67028 -2.39852,0.98771 -2.61018,0.81132 -0.38806,-0.42333 -10.2309,-22.50729 -10.2309,-23.00118 0,-0.19087 0.48903,-0.61035 1.1281,-0.97565 a 211.60109,211.44409 0 0 0 -12.2468,6.50348 c 0.36122,-0.15947 0.68721,-0.24197 0.85318,-0.20051 0.24694,0.0353 3.49243,4.90331 7.16132,10.79469 7.54944,12.065 7.16124,10.83069 3.73931,12.59458 l -1.6583,0.84646 -2.29289,-4.16305 c -3.10443,-5.64444 -9.73635,-18.20295 -9.73635,-18.48518 0,-0.10069 0.48295,-0.48984 1.07642,-0.89193 a 211.60109,211.44409 0 0 0 -105.36773,182.865317 211.60109,211.44409 0 0 0 4.62969,43.9880152 c -0.0944,-0.72331 -0.0411,-1.40298 0.21343,-1.5596 0.42333,-0.24695 18.59153,-4.79785 22.18986,-5.53868 0.88195,-0.21167 1.76378,-0.35279 2.01072,-0.38809 0.42333,-0.0353 0.98771,1.37587 1.34049,3.56309 0.28222,1.55222 1.09379,1.2699 -8.64288,3.06906 -12.55888,2.36357 -16.33382,2.89309 -16.61604,2.43448 -0.119,-0.18593 -0.2196,-0.422 -0.30179,-0.67903 a 211.60109,211.44409 0 0 0 19.6789,53.8757898 c -0.23797,-0.553 -0.1831,-0.77263 0.0961,-0.95033 0.28223,-0.17637 5.25652,-3.10443 11.07736,-6.49107 5.82083,-3.3867 10.68885,-6.17379 10.79469,-6.17379 0.42333,0 2.46954,4.23339 2.2226,4.62142 -0.21167,0.38807 -22.15421,11.25358 -22.68337,11.25358 -0.12755,0 -0.54377,-0.55515 -0.96118,-1.23351 a 211.60109,211.44409 0 0 0 7.2378,12.46952 c -0.33257,-0.59092 -0.56605,-1.19256 -0.45578,-1.42886 0.0706,-0.24693 4.79767,-3.59833 10.47739,-7.40833 5.67972,-3.81 10.37157,-6.94981 10.4774,-6.98511 0.3175,0 2.57539,3.5986 2.61069,4.16306 0.0353,0.35277 -3.66885,2.71614 -10.72441,6.80837 -5.92667,3.45723 -10.90083,6.27972 -11.1125,6.27972 -0.1982,0.0132 -0.52549,-0.31033 -0.84387,-0.74776 a 211.60109,211.44409 0 0 0 7.05745,10.45673 c -0.0233,-0.058 -0.0398,-0.11047 -0.0398,-0.14883 0,-0.1411 2.32809,-2.11677 5.22087,-4.33927 2.8575,-2.2225 7.33766,-5.71506 9.94823,-7.79643 2.61054,-2.0461 4.8684,-3.7393 5.00951,-3.7393 0.49389,0 3.3867,4.12747 3.03392,4.37441 -0.98778,0.84664 -20.77864,13.97021 -21.02559,13.97021 -0.19213,0 -0.72988,-0.49408 -1.22421,-1.04748 a 211.60109,211.44409 0 0 0 8.26151,10.5859 c -0.0306,-0.0808 -0.0522,-0.15799 -0.0522,-0.2253 0,-0.24693 4.23324,-4.30387 9.41907,-8.99583 l 9.45472,-8.53747 1.65778,1.90532 c 0.9525,1.02304 1.69343,1.97554 1.69343,2.11666 0,0.24694 -18.52093,14.95772 -19.6851,15.62799 -0.25858,0.15515 -0.8707,-0.17105 -1.42937,-0.63045 a 211.60109,211.44409 0 0 0 8.369,9.316748 l 8.86509,-9.145188 c 4.86833,-5.08 8.99543,-9.20719 9.10125,-9.20719 0.3175,0 3.59875,3.28086 3.59875,3.56309 0,0.24694 -11.18333,10.47748 -16.33389,14.957748 l -2.7466,2.39469 a 211.60109,211.44409 0 0 0 8.80205,8.42687 c -0.18776,-0.23312 -0.30489,-0.4364 -0.30489,-0.55605 0,-0.4939 5.04444,-6.73761 11.71194,-14.533978 2.39888,-2.78697 4.4448,-5.08032 4.55063,-5.08032 0.45861,0 3.49281,2.89314 3.49281,3.35174 0,0.38807 -15.41663,16.791808 -17.00413,18.097078 -0.32807,0.2776 -0.5693,0.2966 -1.01389,0.004 a 211.60109,211.44409 0 0 0 9.45782,7.91168 l -0.36535,-0.33073 7.47913,-10.26605 c 4.1275,-5.67973 7.65542,-10.30118 7.90236,-10.30118 0.24695,0 1.23458,0.67056 2.1518,1.51723 1.34051,1.16414 1.65823,1.65767 1.41129,2.081 -0.84667,1.4111 -15.87503,18.97973 -16.26309,18.97973 -0.0609,0 -0.15019,-0.0286 -0.25838,-0.0786 a 211.60109,211.44409 0 0 0 1.43763,1.09503 c -0.0875,-0.49964 2.97373,-4.27117 11.69697,-14.52779 l 4.6917,-5.53868 0.98805,0.5643 c 0.56445,0.3175 1.5877,1.09357 2.32854,1.72857 l 1.34049,1.094 -6.45594,10.4066 c -3.56306,5.715 -6.70302,10.65392 -6.94996,10.97142 -0.26659,0.28562 -0.48533,0.37208 -1.11518,0.0341 a 211.60109,211.44409 0 0 0 2.02003,1.3901 c -0.18665,-0.17854 -0.30489,-0.32422 -0.30489,-0.401 0,-0.3528 12.20605,-20.03812 12.98216,-20.95532 0.28222,-0.3175 0.59964,-0.59944 0.67024,-0.59944 0.35278,0 1.79934,0.88201 2.99878,1.83451 l 1.30535,1.02267 -7.23212,9.94876 c -3.98639,5.46804 -7.44369,10.15979 -7.65535,10.37145 -0.19695,0.19693 -0.39858,0.2557 -0.7183,0.15193 a 211.60109,211.44409 0 0 0 3.4432,2.23345 c -0.97702,-0.67061 -1.73716,-1.24505 -1.80764,-1.43298 -0.0706,-0.24694 0.70552,-1.58753 1.72858,-3.03393 1.05833,-1.4111 4.40996,-6.03218 7.47913,-10.26551 3.03389,-4.19804 5.60905,-7.65535 5.7149,-7.65535 0.56443,0 4.3744,2.75167 4.3744,3.175 0,1.05833 -11.60653,22.40137 -12.13569,22.36607 -0.1259,-0.0119 -0.4181,-0.14266 -0.80357,-0.34313 a 211.60109,211.44409 0 0 0 2.84996,1.68052 c -0.36011,-0.32705 -0.60331,-0.67992 -0.56483,-0.94929 0.0706,-0.35277 2.68111,-5.46815 5.82084,-11.35952 3.4925,-6.49113 5.9267,-10.68927 6.20892,-10.68927 0.98778,0 4.30392,2.25774 4.09226,2.78691 -0.49389,1.27 -13.01719,20.92002 -13.44053,21.09639 -0.15953,0.058 -0.37243,0.043 -0.60719,-0.019 a 211.60109,211.44409 0 0 0 4.53047,2.50166 c -1.46041,-0.85812 -2.65358,-1.66626 -2.65358,-1.91823 0,-0.24696 2.9634,-5.22086 6.59701,-11.04169 5.75028,-9.13694 6.73832,-10.54836 7.33805,-10.37199 0.84666,0.24696 4.40955,2.25796 4.40955,2.46962 0,0.17637 -10.23087,23.21251 -10.37198,23.35361 -0.0945,0.0867 -0.55552,-0.0612 -1.19734,-0.33848 a 211.60109,211.44409 0 0 0 2.40037,1.20147 c -0.21567,-0.15973 -0.35605,-0.30414 -0.35605,-0.4041 0,-0.24696 7.76128,-17.77994 9.87795,-22.36607 0.24694,-0.52917 0.56441,-0.9524 0.67024,-0.9524 0.70556,0.0353 4.09185,2.04563 4.19768,2.50423 0.0705,0.4586 -10.79476,21.44914 -11.57087,22.2958 -0.0807,0.0897 -0.32619,0.067 -0.64647,-0.0233 a 211.60109,211.44409 0 0 0 3.60443,1.68309 c -1.08202,-0.56025 -1.89963,-1.04502 -1.89963,-1.20147 0,-0.42333 6.87931,-13.58191 10.01903,-19.19108 l 1.97559,-3.56309 2.4691,1.094 c 1.37583,0.59973 2.46962,1.23452 2.46962,1.37562 0,0.1764 -1.94014,5.6446 -4.26848,12.1357 -3.45722,9.525 -4.40968,11.81788 -4.90357,11.81788 -0.0947,0 -0.26079,-0.039 -0.45889,-0.0966 a 211.60109,211.44409 0 0 0 2.33629,0.96997 c -0.38409,-0.27432 -0.425,-0.51581 -0.2899,-0.94361 0.14111,-0.45861 2.08097,-5.85613 4.33875,-12.02976 l 4.05712,-11.25358 0.98753,0.21135 c 1.62278,0.3175 3.4925,1.19978 3.70417,1.76424 0.17639,0.42334 -9.38351,22.50697 -10.01851,23.21254 -0.0434,0.0434 -0.1524,0.0503 -0.29972,0.0331 a 211.60109,211.44409 0 0 0 2.57245,0.99322 c -0.7731,-0.34277 -1.28519,-0.62127 -1.28519,-0.74414 0,-0.1764 2.08142,-4.93861 4.62142,-10.65361 2.54,-5.67976 4.86851,-10.86559 5.11545,-11.50059 0.59973,-1.34054 0.74073,-1.37602 3.59823,-0.35295 1.62277,0.56443 2.18747,0.91725 2.18747,1.44642 0,0.67027 -6.6326,23.91839 -6.91483,24.20059 -0.0808,0.0808 -0.58684,-0.0193 -1.30225,-0.21963 a 211.60109,211.44409 0 0 0 2.84376,0.95705 c -0.33407,-0.33621 -0.30313,-0.75388 0.046,-2.32492 0.52917,-2.43417 4.65657,-16.9336 5.7149,-20.17914 0.52917,-1.55223 0.91767,-2.18694 1.341,-2.18694 1.02305,0 3.95101,1.12888 4.1274,1.5875 0.14111,0.3175 -6.10326,18.02683 -8.14938,23.1774 -0.13863,0.33888 -0.5127,0.54321 -0.96945,0.60719 a 211.60109,211.44409 0 0 0 2.84944,0.88159 c -0.5596,-0.19126 -0.98392,-0.3462 -1.03301,-0.39531 -0.17639,-0.21167 4.30393,-12.91172 8.32559,-23.67143 0.21167,-0.59973 1.76371,-0.49381 3.88038,0.24702 1.51694,0.56444 1.76361,0.74073 1.65778,1.48156 -0.17294,1.17602 -4.84507,23.42549 -5.16092,24.49565 a 211.60109,211.44409 0 0 0 1.39423,0.35865 c -0.44406,-0.47848 -0.21583,-1.83195 1.9327,-12.01269 1.37583,-6.42054 2.57514,-11.92398 2.68097,-12.27678 0.21167,-0.74083 2.15174,-0.77621 4.02146,-0.10594 0.98778,0.3528 1.19973,0.63522 1.12913,1.27022 -0.0706,0.4233 -1.5877,5.891 -3.38687,12.13516 l -3.24528,11.32438 -1.19941,0.10594 c -0.0439,0.004 -0.0902,0.005 -0.13539,0.008 a 211.60109,211.44409 0 0 0 3.24269,0.76584 c -0.67004,-0.22151 -0.99063,-0.4145 -0.99063,-0.59738 0,-0.56446 6.20854,-22.50725 6.70243,-23.67142 0.38805,-0.88194 0.81156,-0.91715 3.52795,-0.28215 l 1.94045,0.45836 -0.10594,2.25774 c -0.14111,3.0339 -2.89288,22.18995 -3.28094,22.96605 -0.0932,0.18642 -0.23592,0.33179 -0.38602,0.41857 a 211.60109,211.44409 0 0 0 1.90118,0.35348 c -0.43288,-0.25746 -0.44615,-0.57814 -0.28061,-1.65417 1.41111,-10.40696 3.10469,-22.15428 3.2458,-22.93038 0.10584,-0.52917 0.31726,-0.95239 0.45837,-0.95239 0.77611,0 4.48041,0.8115 4.72736,1.02319 0.17638,0.21167 -3.31622,17.67393 -4.86844,24.27087 -0.081,0.35099 -0.28172,0.58745 -0.58652,0.71313 a 211.60109,211.44409 0 0 0 3.03495,0.48678 c -0.80636,-0.19122 -1.36368,-0.38018 -1.42523,-0.52967 -0.17639,-0.42333 4.65659,-24.05923 5.04465,-24.65896 0.28222,-0.4586 5.15038,0.0704 5.46788,0.56431 0.14114,0.24693 0.17654,1.1997 0.10594,2.18747 -0.10584,0.9525 -0.52921,6.52621 -0.91726,12.34704 -0.38806,5.82084 -0.81141,10.68909 -0.91725,10.86549 -0.0537,0.0895 -0.34656,0.12538 -0.77567,0.12557 a 211.60109,211.44409 0 0 0 2.38384,0.2744 l -0.69092,-0.1881 0.17674,-2.18746 c 0.14112,-1.19944 0.52919,-6.70248 0.91725,-12.24111 0.38805,-5.5386 0.8111,-10.26599 0.8816,-10.5482 0.14111,-0.35285 0.74087,-0.42328 2.50476,-0.28215 1.27,0.0705 2.39902,0.24659 2.46962,0.35243 0.28222,0.28223 -2.68135,22.75408 -3.2458,24.62381 -0.098,0.3592 -0.34109,0.59614 -0.71572,0.71004 a 211.60109,211.44409 0 0 0 2.80603,0.25736 c -0.48781,-0.072 -0.81374,-0.1492 -0.8909,-0.22635 -0.24695,-0.24694 2.08153,-18.41487 3.13986,-24.3768 l 0.21187,-1.19941 2.61018,0.21135 c 1.44639,0.10583 2.75188,0.31789 2.85771,0.42375 0.3175,0.28223 0.45843,23.28312 0.17621,24.65896 l -0.21135,1.02319 -2.46032,-0.123 a 211.60109,211.44409 0 0 0 3.62459,0.18346 v -12.69018 -12.87621 h 2.68097 2.71611 l -0.24701,3.42201 c -0.14111,1.905 -0.45829,7.02022 -0.74052,11.39465 -0.3175,4.37444 -0.63521,8.60753 -0.74104,9.4542 l -0.16795,1.41335 a 211.60109,211.44409 0 0 0 1.0852,0.0249 v -0.94411 c 0,-1.48167 1.41097,-22.33102 1.62264,-23.63629 l 0.17674,-1.12861 h 2.78691 2.78691 l 0.17621,1.48157 c 0.21166,1.5875 1.62316,22.08371 1.62316,23.45954 0,0.56719 -0.0697,0.73515 -1.63298,0.78653 a 211.60109,211.44409 0 0 0 2.74816,-0.06 l -0.19844,-1.74924 c -0.24695,-2.2225 -1.12841,-13.93494 -1.44591,-19.79104 l -0.24701,-4.1274 h 2.68097 2.68098 l -0.0703,12.77028 -0.10594,12.77855 a 211.60109,211.44409 0 0 0 3.04684,-0.15555 c -1.21851,-0.0111 -1.68534,-0.12665 -1.84743,-0.38137 -0.3528,-0.5997 -0.42319,-24.30637 -0.0351,-24.87083 0.14111,-0.24694 0.56434,-0.49414 0.9524,-0.59997 1.34056,-0.3175 4.37462,-0.24648 4.58628,0.14161 0.45862,0.70553 3.66872,24.83548 3.35122,25.15298 -0.0127,0.0127 -0.037,0.0254 -0.0677,0.0382 a 211.60109,211.44409 0 0 0 1.7415,-0.16639 c -0.22995,-0.0534 -0.37904,-0.13952 -0.43925,-0.25993 -0.24695,-0.70559 -3.35122,-22.82494 -3.35122,-24.02438 0,-0.74083 0.21176,-1.12871 0.6351,-1.23454 0.3175,-0.10581 1.48156,-0.14108 2.5399,-0.14108 l 1.94045,0.0703 0.2465,2.29341 c 0.38805,3.95113 0.98775,12.66457 1.19941,18.02681 l 0.23564,4.94799 a 211.60109,211.44409 0 0 0 2.52646,-0.30331 c -0.72634,0.0444 -1.21502,0.0418 -1.28002,-0.0233 -0.35278,-0.35277 -2.11688,-25.18844 -1.79938,-25.50594 0.17639,-0.1411 0.67038,-0.31739 1.16427,-0.42322 1.94028,-0.35277 4.26844,-0.24712 4.40955,0.17621 0.28222,0.7761 5.11545,23.7068 5.11545,24.30653 0,0.17402 -0.12435,0.31245 -0.46457,0.44233 a 211.60109,211.44409 0 0 0 1.57613,-0.26043 l -0.33538,-1.31104 c -1.19944,-4.445 -4.97417,-23.42409 -4.7625,-23.63576 0.17639,-0.17639 0.91733,-0.45873 1.69344,-0.6351 1.83445,-0.42333 2.92767,-0.45874 3.13934,-0.10594 0.51691,0.86151 3.69276,23.70098 3.47783,25.11991 a 211.60109,211.44409 0 0 0 2.25102,-0.42841 c -1.5046,-0.33033 -1.57123,-2.85906 -2.836,-11.85042 -0.88194,-6.5264 -1.62264,-12.31205 -1.62264,-12.80594 0,-0.84667 0.17649,-0.98785 1.69344,-1.30535 3.21028,-0.6703 3.49253,-0.59973 4.09225,1.05833 1.72861,4.79777 6.66708,22.40145 6.45542,23.00118 -0.0412,0.0961 -0.32715,0.24101 -0.76998,0.4041 a 211.60109,211.44409 0 0 0 2.59416,-0.61751 c -0.76848,-0.11261 -1.09762,-1.03722 -4.29328,-12.23957 -1.905,-6.63221 -3.38677,-12.20608 -3.28094,-12.31191 0.10584,-0.10583 0.95244,-0.38817 1.86966,-0.63511 2.57528,-0.67027 3.17507,-0.63481 3.42201,0.35296 0.28223,1.1289 4.69205,22.01307 4.86844,23.21253 0.0946,0.52049 0.0562,0.80195 -0.22014,1.02732 a 211.60109,211.44409 0 0 0 2.03812,-0.53432 c -0.35414,0.0664 -0.62047,0.10506 -0.6537,0.0718 -0.17638,-0.1764 -5.11556,-23.17761 -5.2214,-24.44761 -0.0705,-0.56443 0.35289,-0.84656 2.22261,-1.48156 2.7164,-0.9525 2.64559,-0.91725 3.1042,-0.38809 0.45862,0.59973 8.53746,22.75412 8.53746,23.42441 0,0.21072 -0.23629,0.48017 -0.57618,0.69144 a 211.60109,211.44409 0 0 0 1.88722,-0.58912 c -0.0492,-0.006 -0.09,-0.0159 -0.11163,-0.032 -0.3175,-0.3175 -8.60774,-23.17727 -8.60774,-23.7417 0,-0.24694 0.91699,-0.77621 2.04587,-1.16427 2.46946,-0.88194 2.36397,-0.88212 2.82257,-0.35296 0.35277,0.49387 6.63183,22.04905 6.8435,23.56602 0.0532,0.37216 0.0259,0.61023 -0.17518,0.80925 a 211.60109,211.44409 0 0 0 3.01583,-1.02838 c -0.864,0.24045 -1.4881,0.37174 -1.57044,0.2894 -0.56446,-0.56444 -7.26733,-24.20038 -6.9851,-24.51788 0.1411,-0.17637 1.27005,-0.67053 2.50475,-1.12914 1.72863,-0.635 2.36363,-0.74072 2.64584,-0.42322 0.38806,0.42333 10.37145,22.68365 10.37145,23.14225 0,0.0241 -0.0269,0.0559 -0.0698,0.092 a 211.60109,211.44409 0 0 0 1.31879,-0.51832 c -0.90903,-1.11982 -5.52024,-10.9575 -9.53894,-20.42302 -1.30527,-3.06917 -1.30509,-2.9985 1.41129,-4.1274 2.04612,-0.81137 2.18701,-0.84656 2.43395,-0.42323 0.21167,0.3528 8.07863,21.87213 8.46667,23.1774 0.0912,0.29189 0.0754,0.50826 -0.0946,0.7126 a 211.60109,211.44409 0 0 0 2.20348,-0.92395 c -0.63534,0.17137 -0.93205,0.1375 -1.12138,-0.10594 -0.38807,-0.52917 -8.53694,-22.93075 -8.53694,-23.49521 0,-0.24694 0.98787,-0.88199 2.2226,-1.44643 2.54,-1.19946 2.53966,-1.19956 2.99826,-0.6351 0.56446,0.74083 11.71247,21.76679 11.71247,22.11959 0,0.13017 -0.49572,0.46252 -1.21441,0.86868 a 211.60109,211.44409 0 0 0 2.63861,-1.24489 c -1.30911,-1.2337 -12.49,-22.00884 -12.11347,-22.62497 0.10583,-0.17637 1.02296,-0.70565 2.01073,-1.16428 0.98777,-0.4586 1.9758,-0.84645 2.18747,-0.84645 0.38803,0 5.82067,11.64124 9.17204,19.68458 l 1.50326,3.60082 a 211.60109,211.44409 0 0 0 2.9895,-1.51929 c -1.26225,0.57221 -2.00462,0.7947 -2.16421,0.6351 -0.38804,-0.42333 -10.30119,-22.64865 -10.30119,-23.07198 0,-0.1764 1.05842,-0.84627 2.36369,-1.55184 l 2.36368,-1.23507 0.5643,0.77618 c 0.88194,1.1289 6.87885,10.65408 10.26552,16.22795 2.13561,3.52267 3.00664,4.53086 2.07377,5.45135 a 211.60109,211.44409 0 0 0 2.00764,-1.12655 c -0.0843,0.009 -0.15529,0.006 -0.2005,-0.0206 -0.1764,-0.10586 -3.28121,-4.97438 -6.91484,-10.79522 -7.33777,-11.7475 -7.09035,-10.97158 -4.09173,-12.52378 0.88194,-0.45863 1.72816,-0.8463 1.83399,-0.88159 0.42333,-0.0353 11.95948,21.66048 11.95948,22.50715 0,0.0878 -0.0774,0.20637 -0.20256,0.33951 a 211.60109,211.44409 0 0 0 2.43602,-1.44849 c -0.78137,0.37897 -1.07133,0.35293 -1.3162,0.0858 -0.52916,-0.52917 -11.3593,-20.84901 -11.6768,-21.87204 -0.1411,-0.45863 0.31702,-0.91769 1.83398,-1.87019 1.12888,-0.70556 2.29333,-1.23436 2.57556,-1.16374 0.45861,0.0705 4.16288,5.0093 12.80594,16.96847 l 2.50476,3.49229 -0.9307,0.73123 a 211.60109,211.44409 0 0 0 2.17041,-1.42679 c -0.31957,0.0923 -0.57381,0.10308 -0.67541,-0.01 -0.84666,-0.91723 -14.464,-19.93178 -14.53451,-20.28455 -0.0706,-0.21167 0.77618,-1.02341 1.83451,-1.76424 1.05834,-0.70554 2.04597,-1.34049 2.15181,-1.34049 0.14113,0 3.28094,4.86855 6.9851,10.79522 5.17155,8.2098 6.48835,10.49128 6.40221,11.14247 a 211.60109,211.44409 0 0 0 2.45411,-1.70431 l -1.37771,0.93329 -6.77323,-10.83035 c -5.11527,-8.2197 -6.66721,-10.93618 -6.42027,-11.35951 0.1764,-0.28223 1.09336,-1.05791 2.04586,-1.69291 0.9525,-0.67027 1.90487,-1.16459 2.15181,-1.094 0.42333,0.10583 16.36903,18.90919 16.36903,19.36782 0,0.14509 -0.54581,0.65272 -1.37459,1.32341 a 211.60109,211.44409 0 0 0 2.47787,-1.8779 l -0.82113,-0.82167 c -0.52917,-0.52916 -4.30377,-4.90317 -8.36073,-9.77148 -8.29027,-9.87777 -7.90194,-8.92553 -4.83277,-11.1833 1.34054,-0.9525 1.44626,-0.98783 2.01072,-0.38809 0.35277,0.35276 3.80995,5.00935 7.69049,10.33631 l 7.06882,9.67177 a 211.60109,211.44409 0 0 0 2.45412,-1.98334 c -0.91991,0.66032 -1.65021,1.09534 -1.83246,1.02526 -0.52916,-0.1764 -15.06384,-20.1081 -15.02854,-20.5667 0,-0.1764 0.91765,-1.058488 2.01126,-1.940458 1.62277,-1.34053 2.11656,-1.55204 2.53989,-1.23454 0.3175,0.21167 4.37415,4.338848 9.06611,9.207178 l 8.53747,8.81962 -0.9524,0.98753 c -0.0788,0.0833 -0.16626,0.17108 -0.25217,0.25787 a 211.60109,211.44409 0 0 0 2.04173,-1.78644 c -0.0209,0.005 -0.044,0.0119 -0.061,0.0119 -0.28221,0 -17.42718,-17.850878 -17.60358,-18.309478 -0.0353,-0.1411 0.70551,-1.02256 1.72858,-1.97506 l 1.79885,-1.69344 0.98806,1.02319 c 2.0461,2.0814 15.52204,18.308848 15.52204,18.732188 0,0.0265 -0.008,0.0581 -0.0222,0.0946 a 211.60109,211.44409 0 0 0 2.24017,-2.07635 l -1.22989,1.13533 -0.98806,-1.0232 c -1.51693,-1.5522 -15.20444,-17.885748 -15.4161,-18.414888 -0.10584,-0.28223 0.5993,-1.30522 1.69291,-2.39882 1.02306,-1.05836 1.94029,-1.90532 1.97559,-1.90532 0.3175,0 18.97983,17.039458 19.08566,17.392228 0.013,0.0908 -0.17258,0.35512 -0.49609,0.7312 a 211.60109,211.44409 0 0 0 1.55546,-1.57146 c -1.30265,-0.60399 -18.73695,-16.319948 -18.90996,-17.081128 -0.0705,-0.28223 0.59963,-1.23473 1.48156,-2.11667 1.05834,-1.05833 1.7993,-1.51688 2.08153,-1.34048 0.70554,0.4586 17.53278,17.850528 17.53278,18.132738 0,0.0506 -0.0324,0.13126 -0.0853,0.22995 a 211.60109,211.44409 0 0 0 0.8568,-0.90485 l -5.42808,-5.604298 c -10.08944,-10.37167 -12.10014,-12.48865 -12.20597,-13.01782 -0.0706,-0.3175 0.56409,-1.30524 1.41075,-2.25774 0.8114,-0.91723 1.72879,-1.69328 1.94046,-1.72857 0.4586,-0.0353 19.96707,14.99338 20.14347,15.52257 0.0669,0.16722 -0.63617,1.18965 -1.56528,2.38072 a 211.60109,211.44409 0 0 0 2.80292,-3.22977 c -1.00637,-0.21471 -19.9725,-14.85969 -20.14657,-15.59078 -0.0705,-0.28223 0.63514,-1.30514 1.55237,-2.29288 l 1.6583,-1.79938 1.26968,1.19941 c 0.70554,0.67029 4.69199,4.2337 8.85476,7.97317 7.07607,6.34764 8.60629,7.64876 8.55504,8.43256 a 211.60109,211.44409 0 0 0 2.47322,-3.04324 c -0.80632,0.97004 -1.47381,1.70119 -1.6092,1.70119 -0.21167,0 -15.13417,-13.1939 -18.52083,-16.40417 l -0.81132,-0.74051 1.69344,-2.18747 c 1.05833,-1.37583 1.86957,-2.11659 2.1518,-2.01073 0.59973,0.21164 19.82629,13.1586 20.46129,13.75834 0.42333,0.38806 0.42333,0.59965 0,1.34048 -0.1923,0.37446 -0.6662,1.05815 -1.23611,1.8283 a 211.60109,211.44409 0 0 0 2.59054,-3.42977 l -1.35443,-0.90329 c -3.03387,-1.94027 -15.69866,-10.44204 -17.85059,-11.95895 l -2.18694,-1.5875 1.48156,-2.08153 c 0.91723,-1.34057 1.65772,-2.04629 1.93992,-1.94046 0.635,0.24694 19.43801,14.95801 19.72025,15.41664 0.0783,0.15653 -0.0759,0.62211 -0.36071,1.1534 a 211.60109,211.44409 0 0 0 1.88465,-2.65253 c -0.24363,0.30125 -0.43688,0.50821 -0.53588,0.54674 -0.3175,0.1411 -18.23853,-13.51169 -19.86132,-15.13449 -0.59971,-0.5997 -0.31758,-1.3403 1.34048,-3.63336 0.98777,-1.34057 1.19923,-1.44629 1.90479,-1.09347 3.10444,1.5875 21.16664,12.2056 21.30774,12.55839 0.0775,0.18611 -0.70749,1.58086 -1.65415,3.09698 a 211.60109,211.44409 0 0 0 2.88973,-4.44418 c -0.25098,0.22471 -0.48495,0.29911 -0.70641,0.2186 -0.67027,-0.24694 -19.26164,-10.93605 -20.77858,-11.92382 -1.0936,-0.74084 -1.09347,-0.77618 -0.5643,-1.83452 0.28221,-0.56449 0.91739,-1.5876 1.41129,-2.2226 0.88193,-1.16417 0.88162,-1.16401 1.79885,-0.56431 5.8561,3.73946 20.17913,13.65219 20.17913,13.96969 0,0.0837 -0.0659,0.25818 -0.15658,0.46355 a 211.60109,211.44409 0 0 0 3.37344,-5.65444 c -0.85376,1.46918 -1.7294,2.90441 -2.08825,3.3569 -0.5997,0.74081 -0.67016,0.70554 -9.41906,-5.15059 -4.83304,-3.24554 -9.66621,-6.52643 -10.68927,-7.26726 l -1.86965,-1.37615 0.77618,-1.30535 c 0.42333,-0.70554 1.09363,-1.79895 1.44642,-2.43395 l 0.67024,-1.09347 6.77323,3.24527 c 6.91444,3.35137 16.1929,7.97285 16.43983,8.18452 0.0518,0.0518 -0.38653,0.90508 -0.99631,2.0066 a 211.60109,211.44409 0 0 0 1.71617,-3.11301 c -0.0832,0.1103 -0.15357,0.18915 -0.19069,0.18915 -0.42333,0 -22.19013,-10.68917 -22.64876,-11.1125 -0.52916,-0.4586 -0.0704,-1.69344 1.41129,-3.81011 l 0.70538,-0.95239 1.97559,1.094 c 8.46667,4.7625 19.43807,11.18301 20.10833,11.78274 0.0396,0.0316 -0.0122,0.21198 -0.10697,0.45424 a 211.60109,211.44409 0 0 0 2.84427,-5.62706 c -1.04365,1.97472 -2.17133,3.93774 -2.34921,3.93774 -0.42333,0 -21.13123,-11.85328 -21.73096,-12.45298 -0.35277,-0.3528 -0.24721,-0.84672 0.45836,-2.36368 0.4939,-1.05834 1.0587,-2.11638 1.23507,-2.32802 0.28224,-0.35277 0.77584,-0.28252 2.18694,0.21135 3.59834,1.23473 21.66075,8.6078 22.04879,8.99583 0.0127,0.0109 0.0114,0.0465 0.003,0.0956 a 211.60109,211.44409 0 0 0 0.82579,-1.81023 c -0.26051,0.41987 -0.51202,0.44458 -1.07487,0.30388 -0.84667,-0.21167 -17.95632,-7.02051 -21.44882,-8.53747 -0.84667,-0.35277 -1.51723,-0.81137 -1.51723,-1.05834 0,-0.24693 0.38839,-1.30521 0.84699,-2.39881 0.4939,-1.05834 1.05815,-1.94046 1.23454,-1.94046 0.35277,0 22.54261,10.75986 22.86011,11.07736 0.0664,0.0664 -0.12118,0.70081 -0.40772,1.45109 a 211.60109,211.44409 0 0 0 4.98885,-12.27059 c -0.0734,0.13097 -0.14415,0.22958 -0.20672,0.27131 -0.28223,0.14113 -4.0567,-1.02312 -21.09587,-6.59702 -2.01083,-0.635 -3.28093,-1.23433 -3.28093,-1.55183 0,-0.24694 0.31718,-1.37602 0.74051,-2.46962 0.70554,-1.83449 0.81148,-1.97578 1.69344,-1.79938 1.02304,0.21167 22.50731,8.85494 22.86011,9.20771 0.12694,0.11107 0.0349,0.71832 -0.13798,1.37459 a 211.60109,211.44409 0 0 0 4.27931,-13.16921 c -0.20206,0.46911 -0.44206,0.85151 -0.64905,0.92914 -0.35279,0.14113 -14.85169,-3.31618 -23.21253,-5.53868 -1.51693,-0.38807 -1.58744,-0.7056498 -0.81131,-3.4220298 0.35276,-1.0936 0.74083,-1.83451 1.05833,-1.83451 1.19943,0 23.31857,7.1615398 23.95357,7.7612898 0.0994,0.0903 0.11941,0.32052 0.0858,0.61495 a 211.60109,211.44409 0 0 0 3.20498,-12.9583898 c -0.16462,0.57683 -0.37031,1.08846 -0.53898,1.1958 -0.14111,0.0705 -5.78599,-0.84695 -12.59459,-2.04639 l -12.34705,-2.18695 0.0708,-1.62315 c 0.0706,-0.88195 0.2467,-2.01073 0.45837,-2.5399 0.1764,-0.49389 0.59962,-0.91726 0.95239,-0.91726 1.34057,-0.0353 24.09463,5.82074 24.23573,6.24407 0.0546,0.11825 0.0539,0.36555 0.018,0.66817 a 211.60109,211.44409 0 0 0 2.19004,-12.3589302 c -0.2684,0.19473 -1.06246,0.1813 -3.12486,0.0491 -3.59834,-0.24695 -19.50869,-1.86932 -21.41369,-2.22209 l -1.19941,-0.17673 0.21135,-2.29288 c 0.14111,-1.27 0.3179,-2.43431 0.42376,-2.6107 0.1411,-0.21167 0.28173,-0.35243 0.38756,-0.35243 0.59971,0 22.78954,3.95097 23.91844,4.26847 0.74877,0.20799 1.07897,0.31912 1.18184,0.58395 a 211.60109,211.44409 0 0 0 1.30276,-12.68915 c -0.0879,0.52396 -0.18421,0.94081 -0.26199,0.9927 -0.21167,0.21167 -23.7421,-0.52924 -24.8357,-0.77618 -0.70556,-0.14111 -0.81132,-0.38812 -0.81132,-1.83451 0,-0.91722 0.10605,-2.01101 0.21188,-2.46962 0.1764,-0.635 0.49363,-0.77566 1.5167,-0.77566 2.15193,0 22.71905,2.18712 23.63628,2.5399 0.38265,0.12754 0.58431,0.24856 0.66765,0.50798 a 211.60109,211.44409 0 0 0 0.42014,-11.902115 l -1.82883,0.1757 c -2.82223,0.28222 -23.24798,0.95271 -23.56548,0.74104 -0.45861,-0.28222 -0.7053,-2.2933 -0.45837,-3.77496 l 0.21135,-1.44643 9.38392,0.24702 c 5.15054,0.10584 10.93608,0.31726 12.84108,0.45837 l 3.41376,0.21135 a 211.60109,211.44409 0 0 0 -0.0284,-2.04173 c -0.0372,0.69986 -0.19122,0.83448 -0.52761,0.91364 -0.4939,0.10584 -22.22521,-0.49424 -25.08271,-0.7059 -0.3175,-0.0353 -0.45836,-0.84636 -0.45836,-2.85719 v -2.78691 l 1.16427,-0.21188 c 0.5997,-0.14112 6.06766,-0.74062 12.06489,-1.37562 6.0325,-0.67028 11.18309,-1.19977 11.50059,-1.23507 0.77613,-0.0353 0.95232,0.70556 1.23455,5.29167 0.0238,0.39119 0.0429,0.72866 0.06,1.04283 a 211.60109,211.44409 0 0 0 -0.35658,-7.74372 c -0.0668,0.25668 -0.181,0.43572 -0.33848,0.49196 -0.9525,0.3175 -25.04725,2.68129 -25.25892,2.46962 -0.1411,-0.10583 -0.28183,-1.30542 -0.35243,-2.61069 -0.17639,-2.96338 -0.45868,-2.82235 6.63216,-2.89285 2.8222,-0.0353 7.5847,-0.17618 10.58333,-0.31729 2.9986,-0.10583 6.06753,-0.24686 6.80836,-0.28216 1.1289,-0.0706 1.37607,0.0704 1.65831,0.84646 0.0532,0.13298 0.0967,0.26798 0.13694,0.40256 a 211.60109,211.44409 0 0 0 -7.50755,-42.375707 c 0.0866,0.45641 0.0879,0.84467 -0.0377,0.94516 -0.38806,0.423341 -7.86688,2.998891 -16.68632,5.750563 -8.11389,2.575247 -7.69085,2.574893 -8.39639,-0.03566 -0.1764,-0.77611 -0.42333,-1.69323 -0.52917,-2.01073 -0.21166,-0.740839 -0.59933,-0.599657 12.73567,-3.986323 5.64444,-1.44639 10.72425,-2.5752 11.28871,-2.5399 0.80304,0.0642 1.08019,0.25255 1.38957,1.05679 a 211.60109,211.44409 0 0 0 -9.61335,-26.49038 l 0.28628,0.6687 -11.50059,5.6441 c -6.35,3.06917 -11.60632,5.60947 -11.6768,5.60947 -0.3175,0 -2.29333,-4.62149 -2.04639,-4.86843 0.10583,-0.14113 5.4329,-2.3283 11.7476,-4.90358 6.35,-2.57527 11.67717,-4.62159 11.85355,-4.58628 0.13096,0.0524 0.41693,0.45685 0.70022,1.00717 a 211.60109,211.44409 0 0 0 -5.94374,-12.17038 c 0.076,0.21944 0.11409,0.42135 0.0925,0.57981 -0.0706,0.45861 -3.28094,2.505 -10.68928,6.80889 -5.82083,3.35139 -10.79489,6.13812 -11.00656,6.13812 -0.56446,0 -2.08132,-2.32823 -2.39882,-3.59823 -0.24693,-0.98778 -0.21198,-1.02329 10.79469,-6.42079 6.10306,-2.99861 11.25362,-5.46789 11.50059,-5.46789 0.31977,-0.0178 0.79991,0.43002 1.18493,0.97772 a 211.60109,211.44409 0 0 0 -14.55414,-23.38048 l -0.74208,0.74207 c -0.42333,0.38805 -4.97403,4.02191 -10.0893,8.0083 -7.62,5.96195 -9.38382,7.19629 -9.80716,6.84351 -0.9172,-0.77611 -2.61048,-3.45681 -2.39881,-3.80959 0.3175,-0.49389 5.85626,-4.40969 13.72319,-9.66607 3.66887,-2.43418 6.87869,-4.44521 7.12566,-4.44521 0.2314,0 0.77081,0.46868 1.24436,1.02061 a 211.60109,211.44409 0 0 0 -8.05582,-10.36681 l -3.13677,2.96106 c -4.69196,4.48028 -15.62817,14.14642 -15.98094,14.14642 -0.52917,0 -3.24517,-3.24594 -3.13933,-3.73982 0.0706,-0.24695 4.48018,-3.88052 9.80715,-8.07858 5.32693,-4.16277 9.8775,-7.58455 10.12444,-7.58455 0.21166,0 0.81184,0.52889 1.34101,1.12861 l 0.75808,0.89401 a 211.60109,211.44409 0 0 0 -10.12444,-11.33006 c 0.21847,0.26721 0.37,0.50142 0.37,0.6289 0,0.17639 -1.23431,1.62278 -2.75125,3.175 -1.48166,1.5875 -5.46838,5.68007 -8.78448,9.17257 l -6.06785,6.2792 -1.79885,-1.69344 c -0.98777,-0.91721 -1.72873,-1.86958 -1.69344,-2.1518 0.0706,-0.24695 4.23328,-4.19799 9.27799,-8.74882 5.04473,-4.55083 9.31346,-8.29045 9.48986,-8.29045 0.19635,0 0.65075,0.33511 1.10691,0.74827 a 211.60109,211.44409 0 0 0 -2.77243,-2.80086 c 0.81311,0.85662 0.86841,1.17401 0.64233,1.52342 -0.77611,1.05833 -18.52073,16.75712 -18.94406,16.75712 -0.635,0 -3.91608,-3.35136 -3.77497,-3.84525 0.0706,-0.21166 3.7752,-4.7625 8.22018,-10.05416 l 8.11371,-9.70122 2.64583,2.43396 c 0.92604,0.82903 1.6469,1.48149 2.20142,2.0035 a 211.60109,211.44409 0 0 0 -6.28902,-5.91644 c 0.33959,0.33237 0.59531,0.62711 0.59531,0.73794 0,0.35278 -6.5972,8.50188 -12.24163,15.09882 -4.4803,5.18584 -4.16285,5.08027 -6.59702,2.57556 l -1.37562,-1.41129 1.37562,-1.55236 c 0.74084,-0.84667 4.72702,-4.97399 8.78396,-9.17205 4.09223,-4.19805 7.51424,-7.65534 7.65535,-7.65534 0.14449,0 0.5738,0.30554 1.02938,0.68367 a 211.60109,211.44409 0 0 0 -10.4453,-8.74954 c 0.30682,0.30658 0.52555,0.6077 0.52555,0.7984 0,0.3175 -13.58199,19.43806 -14.67559,20.6375 -0.1764,0.21167 -2.39901,-1.27011 -3.28094,-2.22261 -0.45861,-0.49388 -0.74041,-1.09354 -0.63458,-1.34048 0.1411,-0.42334 9.52479,-11.67682 14.07562,-16.96848 0.9525,-1.09361 1.94048,-2.01073 2.18747,-2.01073 0.19177,0 0.46604,0.11929 0.75758,0.29249 a 211.60109,211.44409 0 0 0 -14.595,-10.34355 c 0.36193,0.28431 0.6005,0.6052 0.57259,0.77256 -0.17637,0.74084 -14.42858,20.24961 -14.95774,20.46128 -0.56444,0.21167 -3.1749,-1.23454 -4.1274,-2.29288 -0.59973,-0.67027 -0.49403,-0.95244 4.79764,-10.86549 2.99863,-5.60916 5.71521,-10.72465 6.03271,-11.32437 l 0.56224,-1.16013 a 211.60109,211.44409 0 0 0 -14.7624,-7.96955 c 0.53946,0.30055 1.00613,0.60567 1.00613,0.69815 0,0.52916 -10.30097,23.00129 -10.61847,23.10712 -0.21167,0.0706 -1.34072,-0.31768 -2.46962,-0.88212 -1.65806,-0.77611 -2.04602,-1.09347 -1.86965,-1.62264 0.21166,-0.70556 10.44204,-20.03799 11.28871,-21.37854 0.38806,-0.59975 0.74091,-0.74069 1.30535,-0.5643 0.0456,0.0144 0.10594,0.0397 0.1602,0.0605 a 211.60109,211.44409 0 0 0 -12.53413,-5.54798 c 0.50065,0.25936 0.8826,0.60224 0.909,0.86609 0.1764,0.84667 -8.07857,23.4949 -8.60774,23.70657 -0.24699,0.10583 -1.41139,-0.2465 -2.57556,-0.77567 l -2.08153,-0.95291 1.34102,-3.21014 c 1.76387,-4.26861 5.1503,-11.85329 7.33753,-16.54524 l 1.76371,-3.77445 1.21388,0.40411 a 211.60109,211.44409 0 0 0 -27.00869,-8.76019 c 0.57617,0.25647 0.81856,0.55669 0.81856,1.01803 0,1.12889 -4.93916,24.0243 -5.22139,24.30652 -0.3175,0.3175 -4.30389,-0.63486 -4.7625,-1.09347 -0.35277,-0.35278 3.45702,-14.21725 6.13813,-22.54281 0.48803,-1.4419 0.73951,-2.03188 1.30586,-2.11408 a 211.60109,211.44409 0 0 0 -12.54962,-2.64739 c 0.15502,0.0554 0.28787,0.11491 0.37827,0.17519 0.52917,0.42333 0.52924,0.88239 -0.28215,6.63267 -1.09361,7.97278 -2.68118,18.09739 -2.89285,18.41489 -0.45861,0.74084 -5.04465,-0.10573 -5.04465,-0.95239 0,-0.52917 4.83322,-23.38962 5.11545,-24.09517 0.0698,-0.20951 0.65836,-0.41795 1.32033,-0.4222 a 211.60109,211.44409 0 0 0 -13.02039,-1.83245 l 0.6935,0.17364 -0.24702,4.44469 c -0.28223,5.11528 -1.16406,16.61576 -1.48156,19.33215 -0.21167,1.79913 -0.24739,1.87017 -1.341,1.87017 -1.86972,0 -3.70414,-0.42351 -3.84525,-0.88212 -0.10584,-0.21167 0.59986,-5.78576 1.55236,-12.3827 0.91722,-6.56167 1.69328,-12.1709 1.72858,-12.41785 0,-0.19224 0.25659,-0.31782 0.64595,-0.37569 a 211.60109,211.44409 0 0 0 -8.72556,-0.67541 c 0.74397,0.0494 1.77649,0.1397 3.28197,0.27544 1.905,0.14112 3.59819,0.42305 3.73931,0.59944 0.14111,0.14111 -0.56458,5.92677 -1.55236,12.80594 l -1.79886,12.52378 -2.46962,-0.0708 c -1.34055,-0.0705 -2.68117,-0.17632 -2.89284,-0.28215 -0.35277,-0.10583 -0.45837,-2.99872 -0.45837,-12.80594 0,-6.94973 0.1059,-12.77038 0.24701,-12.87621 0.15777,-0.1775 0.44064,-0.24093 1.38855,-0.19792 a 211.60109,211.44409 0 0 0 -11.44789,-0.30955 211.60109,211.44409 0 0 0 -0.42064,5.2e-4 z m 11.86853,0.30903 a 211.60109,211.44409 0 0 1 0.50281,0.0279 c -0.18934,-0.0125 -0.35124,-0.021 -0.50281,-0.0279 z m 9.24077,0.70383 a 211.60109,211.44409 0 0 1 2.29444,0.23771 l -0.15348,-0.0382 c -0.79911,-0.22538 -1.60145,-0.27966 -2.14096,-0.19947 z m 15.31483,2.07016 a 211.60109,211.44409 0 0 1 1.4056,0.24701 c -0.3894,-0.13912 -0.93126,-0.24804 -1.38544,-0.24804 -0.007,0 -0.0133,9.8e-4 -0.0202,0.001 z m 13.95522,2.8944 a 211.60109,211.44409 0 0 1 1.72134,0.42581 c -0.0847,-0.0377 -0.17596,-0.0744 -0.27543,-0.11059 -0.66783,-0.2357 -1.11159,-0.36375 -1.44591,-0.31522 z m 28.73003,9.186 a 211.60109,211.44409 0 0 1 0.69969,0.28164 c -0.16872,-0.0874 -0.35068,-0.16513 -0.53742,-0.22738 z m 13.23382,5.82962 a 211.60109,211.44409 0 0 1 1.19735,0.58187 c -0.41942,-0.23365 -0.87246,-0.45734 -1.19735,-0.58187 z m 15.95975,8.55142 a 211.60109,211.44409 0 0 1 0.17052,0.10128 l -0.16846,-0.10542 z m 0.17052,0.10128 2.75953,1.72909 c 1.4651,0.91162 3.00974,1.88529 3.68919,2.2562 a 211.60109,211.44409 0 0 0 -6.44872,-3.98529 z m 6.44872,3.98529 a 211.60109,211.44409 0 0 1 0.50072,0.32246 c -0.0958,-0.0753 -0.19825,-0.14852 -0.309,-0.21498 -0.0435,-0.0218 -0.13497,-0.0765 -0.19172,-0.10748 z m 15.09572,10.66601 a 211.60109,211.44409 0 0 1 1.04489,0.81391 c -0.30099,-0.30077 -0.68468,-0.5999 -1.04489,-0.81391 z m 11.48972,9.56324 a 211.60109,211.44409 0 0 1 0.77465,0.69505 c -0.23485,-0.22985 -0.50607,-0.47214 -0.77465,-0.69505 z m 7.06366,6.61148 a 211.60109,211.44409 0 0 1 0.89556,0.88264 c -0.23363,-0.24611 -0.52427,-0.53313 -0.89556,-0.88264 z m 3.668,3.6835 a 211.60109,211.44409 0 0 1 0.85111,0.88057 c -0.23101,-0.28253 -0.53795,-0.59694 -0.85111,-0.88057 z m 10.97555,12.21063 a 211.60109,211.44409 0 0 1 0.22635,0.27285 l 0.003,-0.003 z m 8.28217,10.63966 a 211.60109,211.44409 0 0 1 0.94414,1.30638 l 0.0341,-0.0341 -0.8816,-1.16427 c -0.0311,-0.0378 -0.0648,-0.0709 -0.0966,-0.108 z m 15.49829,24.68686 a 211.60109,211.44409 0 0 1 0.52194,0.98237 c -0.10877,-0.31411 -0.29848,-0.66449 -0.52194,-0.98237 z m 6.46525,13.15269 a 211.60109,211.44409 0 0 1 0.63614,1.42885 l -0.34883,-0.81339 c -0.0909,-0.21806 -0.18904,-0.42457 -0.28731,-0.61546 z m 10.24948,27.91922 a 211.60109,211.44409 0 0 1 0.23567,0.82011 c -0.035,-0.18449 -0.0827,-0.3786 -0.14367,-0.57154 -0.0316,-0.0915 -0.0616,-0.16956 -0.092,-0.24857 z m 7.74322,43.195817 a 211.60109,211.44409 0 0 1 0.13073,1.89239 c 0.12017,-0.46162 0.0837,-1.17583 -0.13073,-1.89239 z m 0.48731,9.6361 a 211.60109,211.44409 0 0 1 0.0444,1.92444 c 0.0217,-0.40809 0.005,-1.00707 -0.0444,-1.92444 z m 0.0729,3.96617 a 211.60109,211.44409 0 0 1 0.008,1.69395 v -1.69343 z m 0.003,3.38791 0.006,-5.3e-4 v -1.50637 a 211.60109,211.44409 0 0 1 -0.006,1.50689 z m -0.42013,11.902105 a 211.60109,211.44409 0 0 1 -0.12351,1.8154 c 0.0317,-0.18887 0.0629,-0.38916 0.091,-0.5948 0.0853,-0.61404 0.11057,-0.97776 0.0326,-1.2206 z m -1.42627,14.50454 a 211.60109,211.44409 0 0 1 -0.38499,2.75332 c 0,0 0,-5.2e-4 0,-5.2e-4 0.0893,-0.065 0.11988,-0.15304 0.11988,-0.26769 0,-0.3175 0.10605,-1.02292 0.21188,-1.62264 0.0869,-0.41988 0.12433,-0.67812 0.0527,-0.86248 z m -2.57503,15.1122602 a 211.60109,211.44409 0 0 1 -0.25476,1.20561 c 0.11649,-0.40813 0.21209,-0.84469 0.25476,-1.20561 z m -3.45974,14.1639998 a 211.60109,211.44409 0 0 1 -0.42479,1.48984 c 0.20788,-0.48263 0.37523,-1.05606 0.42479,-1.48984 z m -4.70411,14.65905 a 211.60109,211.44409 0 0 1 -0.57256,1.56424 c 0.19987,-0.35642 0.41791,-0.97726 0.57256,-1.56424 z m -5.56141,13.83482 a 211.60109,211.44409 0 0 1 -0.49299,1.10276 c 0.13136,-0.21169 0.26498,-0.51697 0.44235,-0.96634 0.0188,-0.0477 0.0328,-0.0896 0.0506,-0.13642 z m -1.31879,2.91299 a 211.60109,211.44409 0 0 1 -1.85105,3.90416 c 0.91911,-1.73905 1.77089,-3.48292 1.85105,-3.90416 z m -4.69532,9.53121 a 211.60109,211.44409 0 0 1 -1.25418,2.35488 c 0.34568,-0.4585 0.99029,-1.67992 1.25418,-2.35488 z m -2.97034,5.46788 a 211.60109,211.44409 0 0 1 -1.04336,1.83349 c 0.36748,-0.63241 0.72734,-1.26265 1.04336,-1.83349 z m -4.4168,7.48792 a 211.60109,211.44409 0 0 1 -1.1834,1.89341 c 0.18883,-0.16906 0.3869,-0.42111 0.59894,-0.76946 0.23463,-0.40529 0.44579,-0.80986 0.58446,-1.12395 z m -4.07313,6.33759 a 211.60109,211.44409 0 0 1 -2.50166,3.65922 c 0.63188,-0.78137 1.63087,-2.2646 2.50166,-3.65922 z m -4.38631,6.31175 a 211.60109,211.44409 0 0 1 -1.38906,1.90169 l 0.12713,0.0848 0.91726,-1.41129 c 0.12866,-0.19301 0.24431,-0.38796 0.34467,-0.57517 z m -3.9796,5.33146 a 211.60109,211.44409 0 0 1 -2.12907,2.71457 c 0.6922,-0.83275 1.4747,-1.83026 2.12907,-2.71457 z m -4.60229,5.75781 a 211.60109,211.44409 0 0 1 -1.74358,2.0779 c 0.0135,0.003 0.0257,0.004 0.0326,0.003 0.28223,-0.10584 0.81121,-0.67009 1.23454,-1.23455 0.24083,-0.352 0.45821,-0.56637 0.47647,-0.84542 z m -4.5465,5.30767 a 211.60109,211.44409 0 0 1 -4.29535,4.705138 l 0.005,0.005 1.05834,-1.0232 c 0.89058,-0.834938 2.20157,-2.365158 3.23236,-3.686598 z m -5.15215,5.609988 a 211.60109,211.44409 0 0 1 -2.10063,2.17559 c 0.0254,0.0119 0.0564,0.0289 0.0692,0.0289 0.30681,0 1.67846,-1.54591 2.03139,-2.20453 z m -3.65609,3.74705 a 211.60109,211.44409 0 0 1 -4.62402,4.48347 l 1.98025,-1.82832 c 1.11559,-1.02635 2.08706,-2.00798 2.64377,-2.65515 z m -9.21494,8.67598 c 0.50975,-0.11613 2.14006,-1.59044 2.35075,-2.11563 a 211.60109,211.44409 0 0 1 -2.35075,2.11563 z m -2.04173,1.78644 a 211.60109,211.44409 0 0 1 -4.08916,3.44424 c 1.29547,-0.92993 2.96978,-2.31346 4.08916,-3.44424 z m -6.54328,5.42758 a 211.60109,211.44409 0 0 1 -2.7554,2.15646 l 0.13126,0.13126 1.30535,-1.12913 1.34101,-1.12861 z m -5.23327,4.03437 a 211.60109,211.44409 0 0 1 -4.6209,3.35224 l 0.80976,-0.54827 c 1.43655,-0.97684 2.8266,-2.00723 3.81114,-2.80397 z m -7.07502,5.05656 a 211.60109,211.44409 0 0 1 -2.1637,1.4614 c 0.67894,-0.19619 1.65576,-0.76346 2.1115,-1.31517 0.0296,-0.0355 0.0443,-0.0867 0.0522,-0.14623 z m -4.33411,2.88819 a 211.60109,211.44409 0 0 1 -5.79654,3.6282 c 0.4568,-0.22156 1.07971,-0.58002 1.96474,-1.11363 1.5522,-0.91723 3.24527,-2.04628 3.77444,-2.46962 z m -8.23256,5.07669 a 211.60109,211.44409 0 0 1 -2.38384,1.37459 c 0.5643,-0.0606 1.87997,-0.83883 2.38384,-1.37459 z m -4.39148,2.50113 a 211.60109,211.44409 0 0 1 -5.16556,2.76831 c 0.4119,-0.18674 0.8781,-0.40986 1.39888,-0.67024 1.98916,-1.02113 3.20479,-1.54363 3.76668,-2.09807 z m -8.15506,4.2876 a 211.60109,211.44409 0 0 1 -2.76003,1.3503 c 0.0401,0.0378 0.0715,0.0584 0.0925,0.0584 0.24696,0 0.95263,-0.31732 1.55236,-0.70538 l 1.12914,-0.67024 z m -5.39864,2.5952 a 211.60109,211.44409 0 0 1 -6.0606,2.69441 c 0.19325,-0.0521 0.41471,-0.12139 0.678,-0.21188 1.59398,-0.56259 3.95933,-1.67823 5.3826,-2.48253 z m -8.26408,3.61836 a 211.60109,211.44409 0 0 1 -2.6784,1.08365 c 0.0565,0.0697 0.10028,0.10906 0.12713,0.10906 0.21167,0 0.91708,-0.28247 1.62264,-0.59997 0.47699,-0.22148 0.76991,-0.4019 0.92863,-0.59274 z m -3.99719,1.60197 a 211.60109,211.44409 0 0 1 -6.89673,2.54662 c 2.29314,-0.63821 6.3342,-2.07325 6.89673,-2.54662 z m -9.91256,3.575 a 211.60109,211.44409 0 0 1 -2.81739,0.91569 c 0.2722,0.0348 0.92967,-0.0804 1.61695,-0.34933 0.63196,-0.21066 1.00131,-0.36927 1.20044,-0.56636 z m -4.70461,1.50482 a 211.60109,211.44409 0 0 1 -7.41299,2.12957 c 1.5258,-0.28601 5.43338,-1.33815 7.03678,-1.93942 0.13404,-0.0536 0.26091,-0.11851 0.37621,-0.19015 z m -9.45111,2.6639 a 211.60109,211.44409 0 0 1 -2.36575,0.59378 c 0.004,0 0.007,0.003 0.0104,0.003 0.42333,0.0706 1.23506,-0.0352 1.76423,-0.28215 0.26722,-0.10456 0.4555,-0.20301 0.59118,-0.31369 z m -4.95991,1.21129 a 211.60109,211.44409 0 0 1 -7.01249,1.4981 c 0.8036,0.17645 2.01664,-0.27292 4.04316,-0.70279 1.1854,-0.23707 2.27397,-0.53917 2.96933,-0.79531 z m -9.26351,1.92651 a 211.60109,211.44409 0 0 1 -3.21273,0.56793 l 0.0527,0.20619 1.44643,-0.21188 c 0.81138,-0.1411 1.55181,-0.35293 1.69292,-0.49403 0.009,-0.009 0.0156,-0.0346 0.0207,-0.0682 z m -4.78886,0.82836 a 211.60109,211.44409 0 0 1 -7.1453,1.02735 c 0.85048,-0.052 2.0309,-0.16984 3.30574,-0.34108 2.14531,-0.28458 3.28321,-0.47384 3.83956,-0.68627 z m -9.67176,1.33067 a 211.60109,211.44409 0 0 1 -3.00654,0.32144 c 0.30896,0.0718 0.76829,0.0829 1.39527,0.0222 l 1.62264,-0.10594 z m -4.74803,0.48783 a 211.60109,211.44409 0 0 1 -6.93963,0.51936 c 0.6379,0.006 1.47042,-0.0156 2.59778,-0.0641 2.09568,-0.0982 3.94559,-0.28752 4.34185,-0.45527 z m -9.98647,0.6749 a 211.60109,211.44409 0 0 1 -3.29437,0.11885 l 0.0134,0.12042 1.65829,-0.10594 1.62264,-0.10594 z m -6.04261,0.17881 a 211.60109,211.44409 0 0 1 -3.13314,0.0254 H 366.5 c 1.35897,0 2.28029,-0.003 2.9533,-0.0254 z m -7.53959,-0.0185 v 0.0439 h 4.29896 a 211.60109,211.44409 0 0 1 -4.29896,-0.0439 z m -1.0852,-0.0249 a 211.60109,211.44409 0 0 1 -3.50056,-0.11782 v 0.18656 h 1.72857 1.76372 z m -7.12515,-0.30128 a 211.60109,211.44409 0 0 1 -5.43326,-0.39169 c 0.85035,0.12554 2.2031,0.23556 3.66024,0.30281 z m -8.23929,-0.64905 a 211.60109,211.44409 0 0 1 -2.29753,-0.23927 l 0.47335,0.1292 c 0.77697,0.20844 1.38937,0.24225 1.82418,0.11007 z m -4.68137,-0.51367 a 211.60109,211.44409 0 0 1 -6.58306,-0.90125 c 1.88152,0.44622 5.10774,0.90186 6.58306,0.90125 z m -9.61801,-1.38803 a 211.60109,211.44409 0 0 1 -2.69596,-0.47024 c 0.12059,0.0717 0.26826,0.13912 0.46043,0.21601 0.98,0.37023 1.74383,0.45696 2.23553,0.25423 z m -4.59714,-0.82372 a 211.60109,211.44409 0 0 1 -7.4073,-1.54977 c 0.62239,0.20576 1.54481,0.43616 2.81895,0.70797 2.08139,0.42333 3.98653,0.84669 4.19819,0.91726 0.11644,0.0332 0.25625,0.003 0.39016,-0.0755 z m -10.64999,-2.31561 a 211.60109,211.44409 0 0 1 -1.79731,-0.44805 c 0.0299,0.0322 0.0626,0.0607 0.0982,0.0873 0.29671,0.23075 1.05398,0.39712 1.69913,0.36071 z m -3.19154,-0.80669 a 211.60109,211.44409 0 0 1 -7.66982,-2.15749 c 2.25528,0.77084 7.56022,2.3636 7.64501,2.25052 0.003,-0.004 0.0185,-0.0717 0.0248,-0.093 z m -10.51926,-3.03908 a 211.60109,211.44409 0 0 1 -2.11046,-0.68109 c 0.071,0.0715 0.15273,0.14076 0.25786,0.21497 0.53659,0.39749 1.26333,0.54864 1.8526,0.46612 z m -4.95422,-1.63814 a 211.60109,211.44409 0 0 1 -6.0203,-2.17609 c 1.62283,0.71948 4.38859,1.71915 6.0203,2.17609 z m -8.59275,-3.16931 a 211.60109,211.44409 0 0 1 -2.47944,-0.99426 c 0.21769,0.15547 0.54275,0.321 1.01493,0.53796 0.58603,0.24415 1.13326,0.41751 1.46451,0.4563 z m -4.81573,-1.96422 a 211.60109,211.44409 0 0 1 -5.40277,-2.37093 c 1.77417,0.91866 4.28846,2.04674 5.40277,2.37093 z m -9.0072,-4.05402 a 211.60109,211.44409 0 0 1 -2.17248,-1.05421 c 0.5222,0.38677 1.50741,0.8668 2.17248,1.05421 z m -4.57285,-2.25568 a 211.60109,211.44409 0 0 1 -4.12171,-2.15284 c 1.39824,0.82159 3.02982,1.68117 4.12171,2.15284 z m -8.65218,-4.6545 a 211.60109,211.44409 0 0 1 -1.50947,-0.86609 c 0.42668,0.38751 1.0174,0.73576 1.50947,0.86609 z m -4.35943,-2.54661 a 211.60109,211.44409 0 0 1 -4.55011,-2.81017 c 1.45862,1.00116 3.4226,2.2238 4.55011,2.81017 z m -7.99331,-5.04362 a 211.60109,211.44409 0 0 1 -2.04587,-1.37356 c 0.242,0.23148 0.60213,0.51956 1.00046,0.79841 0.46748,0.31165 0.79245,0.49305 1.04541,0.57515 z m -4.0659,-2.76366 a 211.60109,211.44409 0 0 1 -6.52467,-4.73252 c 0.003,0.0177 0.009,0.0322 0.0202,0.0419 0.14112,0.1411 1.79917,1.37594 3.70417,2.75177 1.42874,1.05532 2.26333,1.65074 2.80035,1.93889 z m -7.9623,-5.82755 a 211.60109,211.44409 0 0 1 -2.05776,-1.60144 l 0.76378,0.69194 c 0.45185,0.3987 0.96338,0.75689 1.29398,0.9095 z m -11.51558,-9.51312 a 211.60109,211.44409 0 0 1 -1.43247,-1.28259 c 0.19975,0.24799 0.47944,0.53035 0.78858,0.78496 0.26107,0.2209 0.467,0.38127 0.64389,0.49763 z m -10.23452,-9.70947 a 211.60109,211.44409 0 0 1 -2.4846,-2.56315 l -0.0605,0.0625 1.2702,1.27022 1.2697,1.23454 z m -10.8536,-11.879888 a 211.60109,211.44409 0 0 1 -1.05833,-1.26093 c 0.14154,0.37399 0.57763,0.86564 1.05833,1.26093 z m -9.31984,-11.84683 a 211.60109,211.44409 0 0 1 -0.92294,-1.27331 c 0.11734,0.29208 0.50238,0.80249 0.92294,1.27331 z m -8.4097,-12.41112 c 0.13292,0.23617 0.27619,0.47099 0.42788,0.67953 a 211.60109,211.44409 0 0 1 -0.42788,-0.67953 z m -7.2378,-12.46952 a 211.60109,211.44409 0 0 1 -0.54622,-1.02629 c 0.0928,0.21556 0.22594,0.47696 0.41393,0.81338 0.0441,0.0746 0.0879,0.14073 0.13229,0.21291 z M 159.43473,1.4708722 a 211.60109,211.44409 0 0 1 -0.19379,-0.90123 c 0.0399,0.30527 0.10248,0.61567 0.19379,0.90123 z M 259.97898,-226.2837 a 211.60109,211.44409 0 0 1 0.85731,-0.49506 c -0.253,0.11169 -0.52295,0.26023 -0.76998,0.4346 -0.0308,0.0205 -0.0571,0.04 -0.0873,0.0605 z m 13.10411,-6.99853 a 211.60109,211.44409 0 0 1 0.92397,-0.45011 c -0.19774,0.0777 -0.42864,0.18593 -0.71158,0.33228 -0.0728,0.0381 -0.14277,0.078 -0.21239,0.11783 z m 27.07431,-11.0138 a 211.60109,211.44409 0 0 1 1.12552,-0.36587 c -0.27554,0.0252 -0.58752,0.12661 -0.96429,0.29042 -0.0536,0.0223 -0.10731,0.0501 -0.16123,0.0755 z m 14.60118,-4.2199 a 211.60109,211.44409 0 0 1 0.45992,-0.1142 c -0.0517,0.01 -0.10247,0.0139 -0.154,0.0253 -0.10343,0.0272 -0.20418,0.0587 -0.30592,0.0889 z m 13.83533,-2.97811 a 211.60109,211.44409 0 0 1 1.75958,-0.31006 c -0.10759,0.009 -0.22547,0.0243 -0.36638,0.0243 -0.43916,0 -0.99023,0.11418 -1.3932,0.28577 z m 14.54123,-2.10685 a 211.60109,211.44409 0 0 1 1.92237,-0.20206 c -0.47598,-0.1139 -1.22016,-0.0464 -1.92237,0.20206 z m 7.64398,-0.69815 a 211.60109,211.44409 0 0 1 2.14044,-0.14573 c -0.6612,0.0255 -1.40506,0.0754 -2.14044,0.14573 z m 8.00778,-0.29404 c 0.86871,0 1.71514,0.0441 1.71514,0.13229 0,0.0706 0.38823,5.71517 0.88212,12.52379 0.49388,6.84388 0.81121,12.55861 0.70538,12.77028 -0.14111,0.17639 -1.30528,0.31781 -2.64583,0.31781 h -2.4691 l -0.0708,-12.73566 c -0.0705,-6.985 -0.0349,-12.80562 0.0357,-12.87622 0.0894,-0.0881 0.97939,-0.13229 1.84743,-0.13229 z m 13.92008,0.0424 c 0.21332,-0.005 0.45985,0.001 0.74207,0.0191 l 1.69344,0.10594 0.10594,12.80593 0.0708,12.80594 -2.54041,-0.10594 -2.57504,-0.10593 -0.10593,-1.93994 c -0.14111,-1.83444 1.23486,-22.26055 1.55236,-23.21305 0.0794,-0.23811 0.41682,-0.35719 1.05678,-0.37207 z m 19.36884,1.36013 c 1.55222,0 7.33771,1.02284 7.69049,1.37562 0.24694,0.24694 -4.76239,24.55343 -5.18573,24.97677 -0.24694,0.24694 -5.0801,-0.42354 -5.3976,-0.74104 -0.17638,-0.17639 1.09389,-20.00264 1.51722,-23.77736 0.21167,-1.79915 0.24673,-1.83399 1.37562,-1.83399 z m -52.20766,0.0403 c 0.9911,-0.0171 1.2886,0.21941 1.40766,0.73535 0.0706,0.45861 0.52945,6.20899 0.98806,12.80594 0.56444,8.255 0.70545,12.06524 0.42323,12.24163 -0.17639,0.10583 -1.41135,0.31726 -2.71663,0.45837 -2.29305,0.24694 -2.39862,0.2118 -2.71612,-0.56431 -0.42334,-1.16417 -4.97437,-22.68341 -4.97437,-23.60063 0,-0.88194 0.28246,-0.98778 3.77496,-1.5875 1.85209,-0.30867 3.04235,-0.47559 3.81321,-0.48885 z m 65.966,2.07635 c 0.59971,0 8.39621,1.72841 8.5726,1.9048 0.10583,0.14111 -3.88035,14.5695 -6.13813,22.01313 l -0.88212,2.9285 -1.30534,-0.24702 c -0.70556,-0.10583 -1.90513,-0.35277 -2.61069,-0.52916 -1.26995,-0.3175 -1.34049,-0.4233 -1.34049,-1.72858 0,-1.12889 2.15183,-17.28656 3.06906,-23.03684 0.10583,-0.70556 0.38816,-1.30483 0.63511,-1.30483 z m -80.01269,0.35916 c 1.05482,-0.0444 1.01286,0.49175 2.40192,10.40039 0.67028,4.83306 1.41098,10.16011 1.62264,11.74761 0.35276,2.43417 0.35292,2.99834 -0.0351,3.24528 -0.59972,0.35278 -4.90379,1.19971 -5.11545,0.98805 -0.35278,-0.3175 -6.91473,-23.70656 -6.80889,-24.23573 0.0705,-0.38805 0.98805,-0.81184 3.10472,-1.341 1.65806,-0.42334 3.59806,-0.77567 4.30362,-0.77567 0.20284,-0.004 0.37589,-0.0226 0.52658,-0.0289 z m 94.46761,3.22667 c 0.23979,-0.0145 0.56896,0.0165 1.03198,0.0827 2.25777,0.35278 7.26726,2.01114 7.26726,2.43448 0,0.38805 -8.39594,23.60083 -8.64288,23.8125 -0.1764,0.17639 -3.13966,-0.49388 -4.51549,-1.05833 -1.09361,-0.42333 -1.12878,0.035 0.10594,-5.75056 2.36362,-11.1125 3.95063,-18.44989 4.09173,-19.01434 0.11026,-0.33073 0.26184,-0.48231 0.66146,-0.50643 z m -108.9458,0.0336 c 0.10088,5.6e-4 0.2022,0.005 0.29921,0.014 0.59972,0.0706 0.84656,0.63489 1.48156,3.59823 1.69333,7.51416 4.33927,20.39073 4.33927,20.99045 0,0.45862 -0.56416,0.77594 -2.18694,1.23455 -1.19944,0.3175 -2.36375,0.67034 -2.6107,0.77618 -0.49388,0.17639 -0.84645,-0.67014 -5.60895,-13.79347 -2.75168,-7.65528 -3.59857,-10.30139 -3.2458,-10.51305 0.21167,-0.17639 1.76395,-0.70552 3.42201,-1.19941 1.65805,-0.49389 3.17483,-0.98738 3.35122,-1.02268 0.15874,-0.0529 0.4565,-0.0864 0.75912,-0.0848 z m 118.70594,2.49391 c 0.11575,0.009 0.25,0.0427 0.40875,0.0956 1.905,0.59972 2.36368,0.88145 2.36368,1.4459 0,0.49389 -5.18551,19.05021 -6.56135,23.49521 -0.17639,0.52921 -0.42349,0.63528 -1.41128,0.45889 -1.94027,-0.38805 -3.66903,-1.2348 -3.66903,-1.83452 0,-0.45861 2.89285,-8.57256 8.18451,-23.00118 0.15875,-0.5027 0.33745,-0.68802 0.68472,-0.6599 z m 4.3248,1.64744 c 0.52916,0 5.99736,1.83449 7.37319,2.50476 0.52917,0.24695 0.91689,0.52913 0.8816,0.67024 -1.62277,3.98639 -10.05396,22.54246 -10.37146,22.89524 -0.38804,0.42333 -0.81116,0.3883 -2.96312,-0.45837 -1.34054,-0.52917 -2.46962,-1.05842 -2.46962,-1.16427 0,-0.24694 5.89108,-20.70791 6.56135,-22.7893 0.3175,-0.91722 0.74112,-1.6583 0.98806,-1.6583 z m -136.85005,0.0729 c 0.47501,-0.0208 0.67108,0.20723 0.88935,0.70332 0.52917,1.19945 4.09257,13.51128 5.46841,18.94406 1.16416,4.51556 1.2343,4.8332 0.63458,5.25653 -1.02306,0.74083 -4.30378,1.65826 -4.65656,1.2702 -0.42333,-0.42333 -10.26552,-22.47202 -10.26552,-23.00118 0,-0.3175 1.69298,-1.0582 6.17326,-2.68097 0.84887,-0.30868 1.38703,-0.47574 1.75648,-0.49196 z m -9.46867,3.55741 c 0.0494,-0.002 0.0924,-8e-4 0.12764,0.004 0.635,0.10584 10.68934,22.40104 10.40712,23.1066 -0.21166,0.56444 -2.89285,1.79921 -3.95118,1.83451 -0.88194,0 -0.49404,0.91733 -5.7857,-13.6524 -1.905,-5.29166 -3.49229,-9.7717 -3.49229,-9.98337 0,-0.21167 0.52875,-0.59989 1.16375,-0.88211 0.52476,-0.24695 1.18484,-0.41287 1.53066,-0.42685 z m -4.21163,1.66139 c 0.24695,0 0.59979,0.28233 0.77618,0.63511 0.42334,0.81139 8.50181,22.96607 8.50181,23.35413 0,0.3175 -4.93878,2.57483 -5.18573,2.36316 -0.28222,-0.3175 -12.06522,-22.61277 -11.99462,-22.68337 0.0706,-0.0706 1.76413,-0.91715 3.77496,-1.86965 2.04611,-0.98778 3.88046,-1.79938 4.1274,-1.79938 z m 164.15639,0.0837 c 0.23812,-0.0132 0.53782,0.004 0.83767,0.0574 1.37583,0.28222 7.26726,3.06925 7.26726,3.42202 0,0.45862 -11.28858,21.59028 -11.85302,22.15472 -0.38806,0.42333 -0.81161,0.35239 -2.85771,-0.56483 -1.48167,-0.67028 -2.3635,-1.26961 -2.29288,-1.55184 0.10583,-0.59972 8.21933,-22.96594 8.431,-23.38927 0.0529,-0.0705 0.22955,-0.11492 0.46768,-0.12816 z m 13.4674,5.91385 c 0.84666,0 7.69048,3.88015 7.69048,4.33876 0,0.35278 -12.5589,20.60257 -13.22917,21.3434 -0.3175,0.35278 -0.84679,0.21132 -2.61069,-0.7059 -1.23471,-0.635 -2.29299,-1.34019 -2.39882,-1.55185 -0.10583,-0.3175 6.98476,-16.68663 9.4542,-21.76663 0.4586,-0.91723 0.95289,-1.65778 1.094,-1.65778 z m -190.74702,0.14108 c 0.45861,0.10584 10.75986,23.17743 10.54819,23.56549 -0.24694,0.35278 -4.23361,2.39882 -4.69222,2.39882 -0.28222,0 -12.06482,-18.52073 -13.40538,-21.06073 -0.35277,-0.70555 -0.24725,-0.8467 1.79886,-1.97559 1.23472,-0.67028 2.92816,-1.62278 3.8101,-2.11667 0.88195,-0.49389 1.76406,-0.84662 1.94045,-0.81132 z m 199.49583,4.44469 1.41076,0.7059 c 0.77613,0.38805 1.41129,0.91694 1.41129,1.12861 0,0.59972 -9.17226,18.0623 -11.50059,21.94285 -0.35277,0.59972 -0.45847,0.59965 -2.1518,-0.24701 -3.10447,-1.5875 -3.28089,-0.9523 2.92798,-10.90063 3.0339,-4.90361 6.06796,-9.77216 6.70296,-10.79521 z m -212.62423,2.8391 c 0.27224,-0.0182 0.40618,0.14211 0.60462,0.4067 1.48166,2.01083 11.64167,21.30781 11.64167,22.08392 0,0.35278 -3.77446,2.89285 -4.30362,2.89285 -0.59973,0 -15.20493,-20.28494 -15.02854,-20.84938 0.0706,-0.21166 1.69362,-1.37596 3.63389,-2.61069 2.16077,-1.36701 2.99827,-1.89308 3.45198,-1.9234 z m 225.2891,4.92219 c 0.2822,0 2.85718,1.72841 2.85718,1.90479 0,0.38806 -13.47626,21.73149 -13.7232,21.73149 -0.59973,0 -4.09215,-2.75181 -3.98631,-3.13986 0.0353,-0.24695 3.38679,-4.97407 7.37319,-10.4774 4.02167,-5.50333 7.3733,-10.01902 7.47914,-10.01902 z m -233.7506,0.35294 c 0.35278,0 6.52619,8.25466 14.07563,18.87327 l 1.34049,1.86965 -2.18695,1.41129 c -1.19945,0.81139 -2.29299,1.37594 -2.39882,1.30535 -0.14111,-0.0706 -3.24556,-4.9391 -6.87916,-10.79521 l -6.66782,-10.61848 1.12913,-1.02319 c 0.635,-0.56445 1.34056,-1.02268 1.5875,-1.02268 z m 237.74208,2.358 c 0.0122,-0.002 0.0222,-2.6e-4 0.03,0.005 1.27,0.70556 6.94944,4.90378 6.94944,5.11545 0,0.59972 -15.2046,18.76781 -16.29823,19.43809 -0.4586,0.3175 -0.98766,0.0707 -2.53989,-1.09347 -1.0936,-0.84667 -1.97559,-1.65813 -1.97559,-1.83451 0,-0.21168 3.03392,-5.18585 6.73809,-11.1125 4.20357,-6.76672 6.71859,-10.45472 7.09621,-10.51823 z m -241.30517,0.1819 c 0.14111,0.0706 3.28095,4.93896 6.98511,10.83035 6.45584,10.37166 6.66705,10.75951 6.06733,11.42979 -1.19944,1.34055 -3.66865,2.82226 -4.16254,2.50476 -0.35277,-0.24695 -13.51164,-15.83976 -15.94579,-18.90893 -0.42335,-0.52915 -0.0704,-0.88204 3.13985,-3.28093 1.97557,-1.44639 3.73965,-2.61034 3.91604,-2.57504 z m -8.33902,6.18412 c 0.15544,0.0124 0.29114,0.082 0.43667,0.20102 0.98778,0.81139 15.94579,18.87345 15.94579,19.22622 0,0.59973 -3.88069,3.3867 -4.19819,3.03392 -0.17639,-0.17639 -3.56302,-4.83298 -7.54941,-10.33632 -5.08,-6.94972 -7.19678,-10.15976 -6.98511,-10.51253 0.14111,-0.28223 0.70576,-0.81149 1.27021,-1.16427 0.50712,-0.33073 0.82097,-0.46871 1.08004,-0.44804 z m 261.24503,2.5647 c 0.49389,0 4.33956,3.06906 5.8565,4.65656 l 1.1286,1.16428 -8.81909,9.10177 c -4.86833,4.97415 -9.03158,9.06611 -9.27851,9.06611 -0.24694,0 -1.26969,-0.77622 -2.32802,-1.69344 l -1.90532,-1.69292 5.60949,-7.76128 c 3.10443,-4.23334 6.45554,-8.89007 7.4786,-10.30118 1.05834,-1.37583 2.08135,-2.5399 2.25775,-2.5399 z m -264.66705,0.17053 c 0.0215,-0.003 0.0376,-0.001 0.0486,0.006 0.3175,0.21167 13.29965,17.99184 14.56965,19.93212 0.59973,0.91722 0.56466,0.91698 -1.37562,2.57504 -1.09361,0.91722 -2.11688,1.6583 -2.32854,1.6583 -0.17639,0 -2.89247,-2.64595 -6.03219,-5.92678 -3.13973,-3.24556 -7.12615,-7.33774 -8.85476,-9.13691 -1.69334,-1.76389 -2.99868,-3.38656 -2.89285,-3.59823 0.14111,-0.17639 1.65813,-1.55225 3.42202,-3.03392 1.65364,-1.35599 3.12138,-2.43318 3.44371,-2.4753 z m -7.99485,6.53242 c 0.3175,0 3.70444,3.42191 15.27555,15.48691 l 2.82205,2.92799 -1.90479,1.69343 c -1.02307,0.9525 -2.04646,1.62245 -2.29341,1.55185 -0.3175,-0.14111 -12.77034,-14.85156 -15.66312,-18.48518 l -0.77618,-0.98805 1.09347,-1.09348 c 0.59972,-0.59972 1.23475,-1.09347 1.44643,-1.09347 z m -3.13935,3.24528 c 0.49389,0.17639 16.43915,19.01475 16.47445,19.43809 0,0.38805 -3.52785,3.77496 -3.95118,3.77496 -0.35278,0 -11.85327,-10.23079 -16.15715,-14.35829 l -2.99827,-2.92799 3.1042,-3.03392 c 1.69333,-1.65806 3.281,-2.96345 3.52795,-2.89285 z m -7.47913,6.98511 c 0.42333,0 19.01486,16.6512 19.01486,17.03927 0,0.17637 -0.77621,1.09323 -1.69344,2.081 l -1.69343,1.76424 -8.8899,-9.06663 c -4.90361,-4.97417 -8.8899,-9.17188 -8.8899,-9.34827 0,-0.17638 0.42337,-0.77642 0.91726,-1.37614 0.49388,-0.59972 1.05816,-1.09347 1.23455,-1.09347 z m 304.83513,2.82204 c 0.38807,0 5.92678,6.13841 5.92678,6.59702 0,0.45861 -7.44358,6.49101 -15.48691,12.59406 l -4.72737,3.56309 -1.72857,-1.93993 c -0.9525,-1.05833 -1.65793,-2.11674 -1.62264,-2.36368 0.0705,-0.21167 3.98632,-4.48018 8.74882,-9.41907 4.7625,-4.93888 8.74879,-8.99619 8.88989,-9.03149 z m -307.86905,0.24702 8.39638,8.60774 c 4.62139,4.72723 8.64268,8.96059 8.96018,9.38392 0.49388,0.74084 0.42375,0.88205 -1.16375,2.75178 -0.9525,1.0936 -1.905,1.90495 -2.11667,1.86965 -0.88194,-0.21167 -19.72035,-15.20463 -19.82618,-15.76907 -0.0353,-0.3175 1.164,-1.94027 2.82205,-3.70416 z m -6.80837,7.86722 c 0.21166,0 4.58581,3.28073 9.73635,7.30239 5.15057,4.05695 9.59559,7.51397 9.91309,7.72563 0.42334,0.35278 0.42326,0.56445 -0.24701,1.5875 -0.38806,0.67028 -1.16412,1.62264 -1.72858,2.15181 l -0.98753,0.91725 -9.34878,-8.39586 c -5.15057,-4.65668 -9.38361,-8.57244 -9.45421,-8.74883 -0.0353,-0.17639 0.31743,-0.8467 0.81132,-1.44642 0.52917,-0.59972 1.09368,-1.09347 1.30535,-1.09347 z m 324.37917,3.175 c 0.56443,0 5.82075,6.63204 5.57381,7.05538 -0.17639,0.24694 -19.26172,13.26458 -20.88451,14.25236 -0.49387,0.28222 -3.70422,-3.59872 -3.56309,-4.26899 0.0705,-0.24695 4.23328,-4.16271 9.27798,-8.74882 5.04473,-4.55084 9.34887,-8.25463 9.59581,-8.28993 z m -327.27202,0.35243 c 0.42333,0 15.80441,13.72298 18.13274,16.15715 l 0.98754,1.09399 -1.65778,2.15181 -1.6583,2.15181 -0.91725,-0.59945 c -3.63361,-2.32834 -20.17858,-13.61732 -20.31969,-13.86427 -0.17639,-0.28222 2.71646,-4.33931 4.48034,-6.31486 0.38806,-0.42333 0.81129,-0.77618 0.9524,-0.77618 z m -6.24406,8.11423 c 0.49389,0 1.8341,0.88156 13.05243,8.43101 4.40972,2.96333 8.0083,5.57403 8.0083,5.7857 0,0.52917 -2.82236,4.19822 -3.13986,4.05711 -0.45861,-0.17639 -19.33219,-15.06382 -19.72024,-15.5577 -0.28223,-0.3175 -0.14098,-0.74084 0.49402,-1.5875 0.49389,-0.635 1.09369,-1.12862 1.30535,-1.12862 z m 342.47624,3.175 c 0.1411,0 1.41108,1.62268 2.78691,3.59823 2.01081,2.89278 2.39919,3.66868 2.04639,4.02146 -0.42333,0.38805 -18.66182,11.04191 -21.06072,12.31191 -0.98777,0.49389 -0.98809,0.45861 -2.43449,-1.5875 -0.81137,-1.12889 -1.48156,-2.22229 -1.48156,-2.43396 0,-0.38805 6.42083,-5.64444 14.21723,-11.64166 3.10443,-2.32834 5.74984,-4.26848 5.92624,-4.26848 z m -345.0983,0.4222 c 0.0323,-0.008 0.0596,-0.008 0.0817,0.001 0.635,0.21167 19.82613,15.27494 19.96725,15.69827 0.10583,0.21167 -0.49358,1.37624 -1.26969,2.54041 l -1.48156,2.15181 -2.01125,-1.12913 c -7.79639,-4.30389 -20.10789,-11.50012 -20.35483,-11.88816 -0.14111,-0.24696 2.08095,-3.77487 3.95067,-6.31486 0.43215,-0.55563 0.89156,-1.00345 1.11776,-1.05937 z m 350.884,8.14989 c 0.52917,0.17639 1.97538,2.39913 1.76371,2.71663 -0.3175,0.52916 -20.63726,14.11129 -21.09586,14.11129 -0.45863,0 -2.71664,-3.42198 -2.71664,-4.09226 0,-0.17638 4.86841,-3.17507 10.83035,-6.59701 5.96196,-3.45722 11.00677,-6.20925 11.21844,-6.13865 z m -356.83454,0.24702 c 0.59973,0 20.91969,11.64184 21.8369,12.52378 0.42333,0.42334 0.31768,0.7759 -0.70538,2.43396 -0.635,1.09361 -1.3762,1.97559 -1.62316,1.97559 -0.38804,0 -16.7568,-10.83 -20.14347,-13.29945 l -1.12861,-0.84698 0.77566,-1.41076 c 0.42333,-0.74083 0.84694,-1.37614 0.98806,-1.37614 z m 358.95121,3.52795 c 0.635,0 5.15056,7.47903 4.7625,7.90235 -0.28221,0.24696 -21.73089,10.68921 -22.54229,10.97143 -0.56444,0.17639 -0.91726,-0.21209 -1.97559,-2.01125 -0.84667,-1.44639 -1.1996,-2.36347 -1.0232,-2.68097 0.1764,-0.24694 4.83336,-3.52768 10.37198,-7.3024 5.53861,-3.77473 10.23022,-6.84387 10.4066,-6.87916 z m -360.84412,0.52038 c 0.0214,-8e-4 0.0408,0.002 0.0584,0.009 0.52917,0.17638 18.87385,12.52341 20.17913,13.54645 l 0.8816,0.7059 -0.81132,1.51671 c -0.42333,0.84667 -1.09364,1.90521 -1.44642,2.32854 l -0.63511,0.84646 -5.78517,-2.71611 c -6.70278,-3.175 -15.27566,-7.40841 -16.43983,-8.18452 l -0.77617,-0.52916 0.7059,-1.44643 c 0.42332,-0.81139 1.41083,-2.54035 2.18694,-3.8809 0.82683,-1.35599 1.56102,-2.18463 1.88206,-2.19573 z m -5.16041,8.74365 c 0.038,-0.004 0.0725,7.9e-4 0.10335,0.0139 2.68111,1.02306 22.26062,10.79486 22.40173,11.14764 0.21167,0.59972 -1.62316,4.26899 -2.15232,4.26899 -0.635,0 -16.2983,-8.81961 -21.30774,-11.99461 -0.98778,-0.63501 -0.98736,-0.91716 -0.10542,-2.39883 0.37042,-0.58649 0.79465,-1.0111 1.0604,-1.03714 z m 373.23665,3.47111 c 0.56443,-0.10585 4.51543,7.93754 4.12739,8.32558 -0.1764,0.14111 -23.53003,9.63094 -23.7417,9.63094 -0.0705,0 -0.67058,-1.09341 -1.37615,-2.43396 -1.0936,-2.2225 -1.16427,-2.46951 -0.6351,-2.89285 0.3175,-0.28222 5.25682,-3.21048 11.00709,-6.56187 5.75029,-3.31611 10.51263,-6.06784 10.61847,-6.06784 z m -375.39104,0.67024 c 0.56445,0 14.95805,8.18451 20.03805,11.35951 l 2.22261,1.37615 -1.27021,2.50424 c -0.70555,1.44638 -1.41136,2.39923 -1.6583,2.2934 -7.72584,-3.06917 -22.78947,-9.17226 -23.14225,-9.38393 -0.35277,-0.24694 -0.17612,-0.91729 0.98805,-3.42201 0.81139,-1.72862 1.72851,-3.49256 2.01073,-3.95118 0.28223,-0.42333 0.67021,-0.77618 0.81132,-0.77618 z m -4.40955,9.17257 c 0.74083,0 22.89511,8.85476 23.45955,9.38392 0.21167,0.21167 -1.41091,3.95108 -1.90479,4.37441 -0.56445,0.45861 -23.10712,-10.44246 -23.10712,-11.1833 0,-0.28222 0.24694,-0.95226 0.52917,-1.5167 0.3175,-0.59972 0.77625,-1.05833 1.02319,-1.05833 z m 386.18572,3.52743 c 0.24694,0 2.50503,4.9035 3.10473,6.77323 0.24696,0.74083 0.35232,1.48191 0.24649,1.6583 -0.14113,0.17639 -1.19925,0.67027 -2.43396,1.05833 -1.19946,0.38805 -6.38532,2.04611 -11.50059,3.70417 -5.11527,1.65805 -9.5603,3.03392 -9.91309,3.03392 -0.42333,0 -0.91707,-0.70538 -1.62264,-2.29288 -0.84666,-2.01085 -0.88222,-2.39923 -0.45889,-2.82257 0.2822,-0.24694 5.43309,-2.85713 11.43032,-5.78518 6.0325,-2.92806 11.0418,-5.32732 11.14763,-5.32732 z m -388.26725,0.35295 c 0.45861,0 22.26042,10.68903 22.71903,11.14764 0.45861,0.42333 0.38802,0.77597 -0.38809,2.68097 -0.635,1.55222 -1.12889,2.25804 -1.5875,2.32854 -0.81139,0.10584 -23.2832,-7.09091 -23.84764,-7.65534 -0.21167,-0.21168 0.10559,-1.44615 0.98754,-3.63337 0.70555,-1.79917 1.44625,-3.63365 1.62264,-4.09226 0.17639,-0.42333 0.38819,-0.77618 0.49402,-0.77618 z m 391.90115,9.27798 c 0.70556,0.0706 1.86952,2.64612 1.37562,3.10473 -0.35277,0.28221 -22.9661,9.48934 -23.35414,9.48934 -0.38806,0 -1.79885,-3.31611 -1.79885,-4.23334 0,-0.88194 -1.09363,-0.45832 12.17084,-4.83277 6.0325,-1.97555 11.25376,-3.56326 11.60653,-3.52796 z m -395.5185,0.43977 c 1.02216,0.008 3.8995,0.98909 12.89534,3.8995 l 11.35951,3.70417 -0.21135,0.9524 c -0.14111,0.52917 -0.52934,1.62295 -0.88212,2.46962 -0.77611,1.83444 0.17642,2.0109 -9.66608,-1.86966 -15.16944,-6.0325 -15.20486,-6.06782 -14.25236,-8.32559 0.19844,-0.48948 0.14377,-0.83519 0.75706,-0.83044 z m 397.03519,3.72329 c 0.635,-0.0353 3.56323,8.25472 2.99879,8.53694 -1.19943,0.67028 -23.10715,6.244072 -24.55354,6.244072 -0.21167,0 -0.81122,-1.128783 -1.23455,-2.539902 -0.70554,-2.11666 -0.74102,-2.61076 -0.35295,-2.85771 0.28223,-0.17638 5.50346,-2.36334 11.60653,-4.83277 6.10303,-2.50472 11.28876,-4.55063 11.53572,-4.55063 z m -398.30591,0.48059 c 0.0716,0.004 0.14772,0.0221 0.23151,0.0486 1.65805,0.49389 22.68382,9.06604 22.96604,9.34826 0.21167,0.21167 0.035,1.23468 -0.45889,2.78691 -0.67028,2.081392 -0.91736,2.469626 -1.55236,2.469626 -0.77611,0 -24.20014,-5.820766 -24.44708,-6.102996 -0.0706,-0.0706 0.52872,-2.04632 1.30483,-4.4452 1.17299,-3.45723 1.45482,-4.13219 1.95595,-4.10518 z m -3.11971,9.71465 c 0.84666,0 23.4598,5.644286 24.05952,5.997057 0.74084,0.458608 -0.52934,4.938715 -1.41129,4.938715 -0.35278,0 -5.04462,-1.446249 -10.47739,-3.210139 -5.3975,-1.72861 -10.58361,-3.421806 -11.57139,-3.739306 -0.9525,-0.3175 -1.86962,-0.600062 -2.01073,-0.7059 -0.14111,-0.07055 -2.1e-4,-0.846257 0.31729,-1.692927 0.3175,-1.02305 0.74121,-1.5875 1.09399,-1.5875 z m 405.80003,3.91553 c 0.45861,-0.03527 0.81169,0.846807 1.51723,3.669027 1.09363,4.33917 1.12869,5.009587 0.31729,5.256525 -0.35277,0.105841 -5.64454,1.058198 -11.74761,2.151809 -6.10304,1.093607 -11.46521,2.081114 -11.92382,2.186945 -0.635,0.14111 -0.88217,-0.03504 -1.27021,-0.987536 -0.28223,-0.67028 -0.59941,-1.940111 -0.74051,-2.822051 l -0.24702,-1.658298 1.55236,-0.564306 c 0.8114,-0.3175 6.13791,-2.081598 11.74708,-3.916039 5.64444,-1.79917 10.47771,-3.316076 10.79521,-3.316076 z m -407.21131,0.31781 c 0.24694,0 24.16541,7.760731 24.30652,7.901842 0.14111,0.14111 -0.98798,4.621572 -1.2702,5.115451 -0.24695,0.388059 -2.50462,0.07059 -12.59406,-1.728576 -6.77334,-1.199441 -12.41768,-2.29285 -12.59407,-2.43396 -0.28222,-0.282231 0.52896,-4.586417 1.37563,-7.196979 0.3175,-0.917218 0.67034,-1.657778 0.77618,-1.657778 z m 409.1869,9.560139 c 0.88194,-0.03528 1.16393,0.282249 1.5167,1.975591 0.24694,1.05833 0.2118,1.234482 -0.5643,1.516702 -0.9525,0.388059 -23.52998,5.997567 -24.02385,5.997567 -0.45863,0 -1.48204,-4.90365 -1.094,-5.15059 0.1764,-0.105829 5.50354,-1.128853 11.85354,-2.257743 6.35,-1.12889 11.88858,-2.081527 12.31191,-2.081527 z m -411.65652,0.317293 c 0.635,0 24.58875,4.304096 24.8357,4.445207 0.3175,0.211669 0.21189,1.164026 -0.45837,3.739306 -0.24696,0.91722 -0.52945,1.340487 -0.98806,1.340487 -0.74083,0 -9.98377,-2.257845 -18.34461,-4.480345 l -6.10299,-1.622642 0.21187,-1.411283 c 0.14111,-0.77612 0.3174,-1.552186 0.42323,-1.728575 0.10583,-0.141111 0.28212,-0.282155 0.42323,-0.282155 z m 412.53864,4.268992 c 1.1289,-0.03527 1.41111,0.740391 2.11667,5.538163 0.35274,2.398889 0.35237,2.998996 -0.0357,3.210655 -0.77613,0.49389 -19.8613,2.504757 -23.70657,2.504757 -1.83446,0 -1.83427,-7.4e-5 -2.29287,-3.422012 l -0.21188,-1.799376 1.34048,-0.423227 c 0.7761,-0.211672 5.99737,-1.552395 11.60653,-2.998785 5.64446,-1.41111 10.65414,-2.610175 11.1833,-2.610175 z m -413.52617,0.317293 c 0.81139,-2e-6 18.69733,4.339368 22.8601,5.50354 1.76385,0.529159 1.83451,0.599546 1.83451,1.763715 0,1.763879 -0.70603,4.374412 -1.19992,4.374412 -1.62277,0.03528 -24.8001,-2.610393 -25.04705,-2.822051 -0.24694,-0.246949 0.38792,-4.903708 1.09347,-8.043437 0.10584,-0.423331 0.31778,-0.776179 0.45889,-0.776179 z m 414.9018,9.560139 c 1.44639,-0.03528 1.72857,0.352743 1.72857,2.257743 v 1.16427 l -4.65656,0.882118 c -8.5372,1.658048 -20.3907,3.56302 -20.60236,3.31608 -0.14113,-0.10584 -0.3174,-1.340804 -0.42323,-2.716635 -0.1764,-2.39889 -0.14115,-2.469457 0.67024,-2.504757 0.45861,0 5.60896,-0.529141 11.42979,-1.19941 5.82083,-0.634999 11.14798,-1.164111 11.85355,-1.199409 z m -415.79787,0.441317 c 0.28773,0.01103 0.65801,0.04375 1.14308,0.08785 1.12889,0.105828 6.80836,0.705485 12.6292,1.340485 l 10.58334,1.093991 -0.0351,1.5875 c -0.0353,2.71639 -0.38795,3.527438 -1.48156,3.527438 -0.91722,0 -22.54264,-3.704201 -23.77736,-4.092262 -0.70556,-0.21167 -0.81132,-1.375413 -0.28215,-2.751252 0.23812,-0.661455 0.35739,-0.826825 1.2206,-0.79375 z m 417.0226,4.140314 c 0.70852,0.01302 0.81266,0.224832 0.99787,1.274342 0.10584,0.740831 0.31726,2.787268 0.45837,4.551138 l 0.21187,3.21014 -4.55062,0.21188 c -2.5047,0.14111 -8.29064,0.35254 -12.87674,0.45837 l -8.36073,0.24701 -0.21187,-1.02319 c -0.28224,-1.5875 -0.38765,-4.33883 -0.10541,-4.58577 0.10583,-0.14111 5.36183,-1.16413 11.606,-2.257741 6.27946,-1.12889 11.88894,-2.081528 12.48865,-2.081528 0.12787,-0.0044 0.2414,-0.0065 0.34261,-0.0047 z m -418.34914,0.321945 c 0.14111,0 5.89163,0.988023 12.7708,2.187464 l 12.45298,2.186941 -0.21187,2.43448 c -0.10583,1.34056 -0.31726,2.61039 -0.45837,2.82205 -0.21167,0.35278 -15.02868,0.14094 -22.40173,-0.35295 -3.06917,-0.17639 -3.45715,-0.28188 -3.45715,-0.8816 0,-1.02305 0.70572,-7.443985 0.88211,-7.973155 0.0706,-0.211658 0.28212,-0.42323 0.42323,-0.42323 z m 0.54364,10.299625 c 3.48919,-0.0314 11.19487,0.1603 18.68258,0.53072 l 4.86844,0.21188 0.17673,1.09347 c 0.35277,1.79916 -0.24719,3.88035 -1.12913,4.02146 -0.38806,0.0706 -6.03243,-0.45834 -12.45299,-1.12862 -6.45583,-0.70554 -11.88864,-1.2702 -12.02975,-1.2702 -0.38808,0 -0.4232,-2.96317 -0.0351,-3.35122 0.0617,-0.0617 0.75619,-0.097 1.91926,-0.10749 z m -2.096,4.51704 h 1.44643 c 1.30528,0 18.66207,1.7641 22.71902,2.32854 l 1.48157,0.17622 v 2.61069 c 0,2.15194 -0.10556,2.68105 -0.59945,2.92799 -0.35277,0.17639 -4.51549,0.42319 -9.27799,0.5643 -4.7625,0.10583 -10.33645,0.31792 -12.41784,0.42375 l -3.81011,0.2465 v -2.4691 c 0,-1.37583 0.10552,-3.45712 0.21136,-4.65656 z m 25.32972,9.17257 -0.10593,2.5399 -0.10594,2.57503 -4.0566,-0.0351 c -2.2225,-0.0353 -7.9025,-0.17618 -12.62972,-0.31729 l -8.5726,-0.24701 -0.35244,-0.88212 c -0.45861,-1.19944 -0.0356,-2.5401 0.8816,-2.75177 0.38805,-0.0705 4.3041,-0.28198 8.67854,-0.45837 4.37444,-0.17639 9.80698,-0.35295 12.10004,-0.35295 z m 391.98174,5.07462 c 0.37098,-7.9e-4 0.6994,8e-4 0.97722,0.005 l 4.05712,0.0351 -0.10594,4.233335 c -0.0706,2.32833 -0.24686,4.37436 -0.42323,4.51548 -0.3528,0.38805 -23.31887,-1.83438 -24.94164,-2.39882 -0.3175,-0.10584 -0.45836,-0.98774 -0.45836,-2.78691 0,-2.469435 0.0705,-2.680795 0.81132,-2.857185 0.42333,-0.0705 4.44489,-0.28249 8.88989,-0.45888 3.92025,-0.15434 8.59687,-0.28155 11.19362,-0.28732 z m -415.78132,0.31833 c 1.00983,-0.004 2.3683,0.022 3.83233,0.0749 2.89278,0.10583 8.53701,0.35292 12.48812,0.49403 5.3975,0.24695 7.26746,0.4234 7.47913,0.77618 0.17638,0.28222 0.3173,1.552045 0.3173,2.822045 v 2.36368 l -2.89285,0.38809 c -4.7625,0.635 -19.86121,2.15181 -21.34288,2.15181 h -1.41129 l -0.21135,-2.39882 c -0.3175,-3.175 -0.3175,-6.244375 0,-6.561875 0.0706,-0.0706 0.73167,-0.10566 1.74149,-0.11007 z m 24.08174,7.659475 0.21187,1.90531 c 0.42333,3.175 0.42316,3.17507 -2.99878,3.42202 -1.65805,0.14111 -7.33791,0.35239 -12.66486,0.4935 -8.00805,0.21167 -9.70129,0.17671 -9.94823,-0.21135 -0.45861,-0.74083 -0.3881,-2.78726 0.14107,-2.96365 0.24694,-0.10583 5.18573,-0.70535 11.00657,-1.37562 5.82083,-0.67028 11.39479,-1.19925 12.41784,-1.23455 z m 370.48693,5.53868 4.65709,0.21188 c 2.57527,0.14111 7.90229,0.31738 11.88868,0.42323 3.98638,0.1411 7.61998,0.28225 8.07858,0.38808 0.84667,0.17639 0.84624,0.21157 0.63458,3.59823 -0.28221,4.33917 -0.63477,5.57373 -1.5167,5.46789 -0.35277,0 -6.03253,-0.95212 -12.55893,-2.08101 l -11.92381,-2.04639 v -2.01073 c 0,-1.12889 0.17605,-2.46962 0.35242,-2.99878 z m -369.85183,0.81132 0.24701,1.62316 c 0.10584,0.91723 0.21136,2.15191 0.21136,2.78691 v 1.12861 l -4.30361,0.77618 c -22.68361,4.05694 -21.02581,3.84511 -21.23747,2.82205 -0.35278,-1.48167 -0.95257,-8.14921 -0.77618,-8.32559 0.0706,-0.10584 3.21039,-0.28212 6.98511,-0.42323 3.73944,-0.14111 9.52496,-0.31729 12.84107,-0.31729 z m -0.46561,6.7629 c 0.67735,-0.0127 0.96584,0.081 1.06506,0.25734 0.14111,0.17639 0.31739,1.27031 0.42323,2.43448 0.21166,1.86972 0.14121,2.11636 -0.42323,2.32802 -0.81139,0.24696 -24.8708,2.75181 -25.01191,2.6107 -0.0353,-0.0706 -0.21147,-0.8465 -0.3173,-1.76372 -0.3175,-2.01083 -1.72858,-1.55215 12.02976,-3.98632 7.37305,-1.30969 10.74423,-1.85265 12.23439,-1.8805 z m 369.99603,5.59759 c 0.95692,0.0132 2.33235,0.12784 4.13152,0.33951 4.0922,0.49389 19.19126,2.11667 19.54403,2.11667 0.14113,0 0.24701,0.52941 0.24701,1.12913 0,1.4463902 -1.02338,7.0552502 -1.37615,7.6196902 -0.21166,0.3175 -3.28065,-0.28226 -12.34704,-2.50476 -6.63223,-1.65806 -12.24148,-3.13968 -12.41785,-3.31607 -0.3528,-0.35278 0.17663,-4.3741102 0.59997,-5.1149402 0.12348,-0.194 0.66159,-0.28247 1.61851,-0.26923 z m -369.07205,0.48059 1.23507,0.0357 0.42322,2.4691 c 0.24698,1.3405602 0.31734,2.5755202 0.17622,2.7166302 -0.77611,0.77612 -24.30614,6.52609 -24.80003,6.0322 -0.17639,-0.17639 -0.635,-2.1164 -1.05834,-4.30362 -0.74083,-4.1980602 -0.70586,-4.5508202 0.74053,-4.6214202 0.28222,-0.0353 5.36257,-0.56441 11.28923,-1.19941 5.92667,-0.67028 11.32382,-1.16443 11.9941,-1.12913 z m 365.58389,12.2064902 c 0.9172,0 24.69443,4.19788 24.87083,4.40955 0.1411,0.14111 -0.56441,3.31631 -1.72858,7.6202198 -0.3175,1.23467 -0.38846,1.30489 -1.48209,1.02266 -2.39887,-0.56443 -22.93053,-7.3728498 -23.28333,-7.7256298 -0.21167,-0.21165 -0.14078,-1.16399 0.31782,-2.82204 0.4939,-2.04611 0.77618,-2.50476 1.30535,-2.50476 z m -362.62025,0.45832 c 0.70556,0.0706 1.30511,1.37579 1.76372,3.84524 0.24695,1.27 0.17624,1.34048 -1.02319,1.86965 -1.83446,0.74083 -17.88556,6.0677998 -20.70778,6.8791698 -2.25778,0.635 -2.39913,0.63537 -2.71663,0.0357 -0.42333,-0.74083 -1.69327,-5.8208798 -1.86966,-7.2672698 l -0.10593,-1.05833 11.99461,-2.18747 c 6.59694,-1.19944 12.31209,-2.15196 12.66486,-2.11666 z m 1.51671,6.63215 c 0.635,-0.0353 0.88187,0.28242 1.34048,1.79937 0.84667,2.8575098 0.77604,2.9985098 -1.30535,3.5982398 -3.175,0.91723 -22.01299,5.50355 -22.57743,5.50355 -0.59973,0 -1.5526,-2.75167 -1.09399,-3.175 0.14111,-0.1764 5.3625,-1.94072 11.57139,-3.9868498 6.20889,-2.04612 11.64155,-3.73931 12.0649,-3.73931 z m 357.45414,5.3583198 c 0.0926,-0.009 0.19182,0.004 0.29765,0.0393 0.3175,0.0706 5.85634,1.44642 12.24164,3.03392 6.42054,1.5875 11.78242,3.03374 11.99409,3.21014 0.3175,0.3175 -2.04586,8.25511 -2.57503,8.57261 -0.24696,0.1411 -21.51959,-8.32565 -23.2482,-9.24285 -0.74083,-0.42333 -0.77618,-0.45858 -0.24701,-2.25774 0.3175,-0.98777 0.70572,-2.18721 0.88212,-2.64584 0.15875,-0.44976 0.37693,-0.68141 0.65474,-0.70953 z m -355.24498,0.68471 c 0.13581,0.004 0.22076,0.0246 0.26045,0.06 0.74084,0.67027 1.83424,4.72749 1.37563,5.08032 -0.88195,0.70551 -23.28341,9.59519 -23.53035,9.34825 -0.45861,-0.4586 -2.85736,-7.86696 -2.68097,-8.32559 0.0705,-0.21166 5.57399,-1.76381 12.27677,-3.45715 7.90222,-1.97556 11.34783,-2.73568 12.29847,-2.70579 z m 1.84795,6.30455 c 0.38806,-0.0353 0.81146,0.56422 1.30535,1.90479 0.42333,1.0936 0.74052,2.18739 0.74052,2.46962 0,0.35277 -3.70396,1.69315 -11.95896,4.40954 -6.56167,2.11667 -12.02986,3.88038 -12.13569,3.88038 -0.35278,0 -1.30535,-2.01094 -1.30535,-2.75177 0,-0.52917 2.08133,-1.51693 11.39466,-5.29167 6.24417,-2.54 11.64197,-4.62089 11.95947,-4.62089 z m 349.07326,5.256 c 0.38806,0 23.1775,7.47892 23.8125,7.79642 0.56446,0.3175 0.56478,0.49419 -0.21135,2.57556 -0.4586,1.19947 -1.27034,3.10407 -1.76424,4.19767 l -0.9524,1.97559 -4.65656,-2.22207 c -2.57529,-1.23474 -7.79653,-3.77489 -11.60653,-5.64463 l -6.98457,-3.42201 0.88159,-2.29288 c 0.45863,-1.27 0.9525,-2.43417 1.05833,-2.64583 0.14113,-0.17637 0.3174,-0.31782 0.42323,-0.31782 z m -346.53336,0.49403 c 0.21167,0.0353 0.81132,1.16419 1.34049,2.50476 0.77611,1.8697 0.8818,2.50444 0.5643,2.7161 -0.635,0.42334 -16.0158,8.00812 -19.79052,9.77202 -1.69334,0.7761 -3.13996,1.2704 -3.2458,1.094 -0.77611,-1.27 -3.28086,-7.97322 -3.03392,-8.22018 0.14111,-0.1411 5.57379,-2.01036 12.0649,-4.09173 6.49112,-2.11667 11.92416,-3.81027 12.10055,-3.77497 z m 2.39882,6.20892 c 0.38806,0 2.04639,3.49224 2.04639,4.30361 0,0.635 -5.3e-4,0.6354 -13.89993,6.24459 -4.83306,1.97554 -9.06591,3.56309 -9.38341,3.56309 -0.84667,0 -1.86978,-2.46946 -1.30534,-3.03392 0.24694,-0.21167 5.32662,-2.8225 11.32385,-5.75056 6.0325,-2.92807 11.07733,-5.32681 11.21844,-5.32681 z m 2.82205,5.64462 c 0.28223,0 2.39934,4.30361 2.39934,4.83278 0,0.38804 -21.37851,12.80594 -22.04879,12.80594 -0.42333,0 -4.05711,-6.84395 -4.05711,-7.65535 0,-0.49387 2.57561,-1.62256 13.93506,-6.13812 5.25639,-2.11667 9.63039,-3.84525 9.7715,-3.84525 z m 5.64462,11.67681 c 0.70555,-0.0353 3.35146,4.44494 2.89284,4.90357 -0.49388,0.42334 -20.39038,13.82895 -20.81371,14.00535 -0.635,0.24691 -4.9393,-6.87948 -4.65708,-7.72615 0.0706,-0.21167 5.04499,-2.7867 11.04222,-5.75003 6.0325,-2.96336 11.21823,-5.43274 11.53573,-5.43274 z m 7.19646,10.90062 c 0.0353,0 0.74097,1.02341 1.55236,2.29341 l 1.48156,2.25774 -1.19941,1.02267 c -3.45722,3.0339 -19.05007,14.88765 -19.29701,14.71125 -0.49388,-0.28223 -5.11511,-7.19682 -4.93872,-7.37319 0.59972,-0.56446 14.67569,-8.74882 19.54402,-11.39465 1.55224,-0.8114 2.8572,-1.51723 2.8572,-1.51723 z m 7.26725,10.58333 c 0.24694,0 3.45767,4.02164 3.45767,4.37441 0,0.35277 -18.83868,17.14521 -19.22673,17.14521 -0.49389,-0.0353 -5.53871,-6.63244 -5.3976,-7.09104 0.0706,-0.21167 4.79805,-3.52737 10.51305,-7.37267 5.715,-3.88054 10.51249,-7.02061 10.65361,-7.05591 z m 8.25531,10.23091 c 0.24694,0 1.19945,0.88159 2.11667,1.93993 l 1.65778,1.94045 -2.08101,2.22261 c -8.18445,8.67833 -15.52222,16.122008 -15.875,16.122008 -0.45861,0 -5.22111,-4.974248 -5.82083,-6.067848 -0.28224,-0.4939 1.34027,-1.90542 9.59527,-8.36125 5.46807,-4.3039 10.16017,-7.7959 10.40712,-7.7959 z m 8.9607,9.17205 c 0.10582,0 1.05795,0.84645 2.081,1.90478 1.34056,1.37584 1.79917,2.04603 1.5875,2.39882 -0.17638,0.28221 -3.88049,4.76256 -8.21965,9.913088 -6.91445,8.21973 -7.97288,9.349 -8.5726,9.0315 -1.02306,-0.56446 -5.92625,-5.39787 -5.92625,-5.8565 0,-0.24693 4.23322,-4.23322 9.41906,-8.889888 5.18583,-4.69194 9.52511,-8.5018 9.63094,-8.5018 z m 9.41906,8.81962 c 0.10583,0 1.12886,0.81108 2.25774,1.79885 l 2.08153,1.799368 -1.12913,1.62264 c -1.37583,2.01083 -12.1357,16.82734 -13.19403,18.16788 -0.42334,0.52917 -0.88157,0.95292 -1.02267,0.95292 -0.38806,0 -4.41,-3.28125 -5.75056,-4.65709 l -1.12861,-1.19941 8.85424,-9.24284 c 4.86833,-5.08 8.92565,-9.242318 9.03149,-9.242318 z"
       style="opacity:0.998;fill:#1e88e5;fill-opacity:1;stroke:none;stroke-width:10.7035;stroke-linecap:round"
       id="path3675-0" />
  </g>
</svg>
