<?xml version="1.0" encoding="UTF-8" standalone="no"?>
<svg
   xmlns:dc="http://purl.org/dc/elements/1.1/"
   xmlns:cc="http://creativecommons.org/ns#"
   xmlns:rdf="http://www.w3.org/1999/02/22-rdf-syntax-ns#"
   xmlns:svg="http://www.w3.org/2000/svg"
   xmlns="http://www.w3.org/2000/svg"
   xmlns:sodipodi="http://sodipodi.sourceforge.net/DTD/sodipodi-0.dtd"
   xmlns:inkscape="http://www.inkscape.org/namespaces/inkscape"
   width="95.052818mm"
   height="95.21801mm"
   viewBox="0 0 95.052818 95.21801"
   version="1.1"
   id="svg17736"
   inkscape:version="1.0 (4035a4fb49, 2020-05-01)"
   sodipodi:docname="ring-1.svg">
  <defs
     id="defs17730" />
  <sodipodi:namedview
     id="base"
     pagecolor="#ffffff"
     bordercolor="#666666"
     borderopacity="1.0"
     inkscape:pageopacity="0.0"
     inkscape:pageshadow="2"
     inkscape:zoom="0.7"
     inkscape:cx="435.55859"
     inkscape:cy="255.64077"
     inkscape:document-units="mm"
     inkscape:current-layer="layer1"
     inkscape:document-rotation="0"
     showgrid="false"
     inkscape:snap-global="false"
     inkscape:window-width="1920"
     inkscape:window-height="1044"
     inkscape:window-x="0"
     inkscape:window-y="36"
     inkscape:window-maximized="1" />
  <metadata
     id="metadata17733">
    <rdf:RDF>
      <cc:Work
         rdf:about="">
        <dc:format>image/svg+xml</dc:format>
        <dc:type
           rdf:resource="http://purl.org/dc/dcmitype/StillImage" />
        <dc:title />
      </cc:Work>
    </rdf:RDF>
  </metadata>
  <g
     inkscape:label="Layer 1"
     inkscape:groupmode="layer"
     id="layer1"
     transform="translate(31.65141,-53.688615)">
    <path
       id="path14747"
       d="m 10.611348,54.111949 c -0.211666,0.246944 -0.8113874,2.434166 -1.3405534,4.833055 l -0.9525,4.339167 1.6933334,2.434166 c 2.54,3.704166 2.398887,3.704166 4.056943,0.141111 l 1.411111,-3.104444 -1.799167,-4.092222 c -2.04611,-4.550833 -2.50472,-5.256389 -3.069167,-4.550833 z"
       style="stroke-width:0.0352777;fill:#81d4fa;fill-opacity:1" />
    <path
       id="path14749"
       d="m 12.622182,54.006115 c 0,0.493889 2.681113,6.385278 3.104446,6.808611 0.246943,0.246945 0.529167,0.07055 0.881943,-0.635 0.846667,-1.622777 2.363611,-5.503333 2.363611,-6.0325 0,-0.352777 -0.776111,-0.458611 -3.175,-0.458611 -1.728611,0 -3.175,0.141111 -3.175,0.3175 z"
       style="stroke-width:0.0352777;fill:#81d4fa;fill-opacity:1" />
    <path
       id="path14753"
       d="m 18.654682,57.639726 c -0.9525,2.010834 -1.799167,3.986389 -1.940277,4.409722 -0.246944,0.811389 1.12889,4.656667 2.187223,6.0325 l 0.635,0.811389 1.834443,-2.575278 c 1.023054,-1.411111 1.834444,-2.8575 1.834444,-3.210277 0,-0.670278 -1.27,-7.267222 -1.622777,-8.466667 -0.423333,-1.375833 -1.305277,-0.493889 -2.928056,2.998611 z"
       style="stroke-width:0.0352777;fill:#81d4fa;fill-opacity:1" />
    <path
       id="path14755"
       d="m 5.2844046,54.88806 c -1.023057,0.282222 -1.940277,0.564444 -2.08139,0.670278 -0.28222,0.3175 1.375833,2.998611 2.998613,4.833055 l 1.41111,1.5875 0.564444,-1.940278 c 0.3175,-1.058333 0.670279,-2.786944 0.811389,-3.81 l 0.211667,-1.834444 -1.023056,0.03528 c -0.564444,0 -1.869721,0.211666 -2.892777,0.458611 z"
       style="stroke-width:0.0352777;fill:#81d4fa;fill-opacity:1" />
    <path
       id="path14757"
       d="m 22.499959,54.641115 c 0.03528,0.635 1.411112,6.879167 1.622779,7.196667 0.176387,0.3175 1.975554,-1.869722 4.303887,-5.185833 l 0.776113,-1.128889 -2.504723,-0.564445 c -2.71639,-0.599722 -4.198056,-0.705555 -4.198056,-0.3175 z"
       style="stroke-width:0.0352777;fill:#81d4fa;fill-opacity:1" />
    <path
       id="path14759"
       d="m 0.83940458,56.052226 c -0.105834,0.141112 -0.211667,2.328334 -0.211667,4.903611 0,5.221111 -0.14111,4.868333 3.13972302,7.725833 1.023054,0.917222 2.010834,1.516944 2.151944,1.340556 0.17639,-0.141112 0.564443,-1.5875 0.881943,-3.175 0.67028,-3.351389 0.776113,-3.069167 -2.54,-7.549444 -2.116666,-2.928056 -2.963333,-3.704167 -3.42194302,-3.245556 z"
       style="stroke-width:0.0352777;fill:#81d4fa;fill-opacity:1" />
    <path
       id="path14761"
       d="m 30.049405,56.087504 c -0.881946,0.564445 -5.43278,7.337778 -5.43278,8.078611 0,1.305277 1.12889,6.103055 1.44639,6.103055 0.17639,0 1.41111,-1.058333 2.786944,-2.398889 l 2.469446,-2.363611 v -4.26861 c 0,-4.233334 -0.388057,-5.750278 -1.27,-5.150556 z"
       style="stroke-width:0.0352777;fill:#81d4fa;fill-opacity:1" />
    <path
       id="path14763"
       d="m -3.4644854,57.886671 c -1.199444,0.564444 -2.257777,1.164166 -2.398888,1.375833 -0.211666,0.352778 3.774721,4.303889 5.08000098,5.009444 0.670277,0.352778 0.705554,0.282222 0.705554,-3.527777 0,-4.515556 0.07056,-4.445 -3.38666698,-2.8575 z"
       style="stroke-width:0.0352777;fill:#81d4fa;fill-opacity:1" />
    <path
       id="path14765"
       d="m 32.024959,60.532504 c 0,2.046111 0.141112,3.774722 0.282223,3.880555 0.388056,0.211667 5.679723,-4.444999 5.573889,-4.903611 -0.07056,-0.423333 -3.457223,-2.081388 -4.868333,-2.434166 l -0.987779,-0.211667 z"
       style="stroke-width:0.0352777;fill:#81d4fa;fill-opacity:1" />
    <path
       id="path14769"
       d="m -8.1917064,60.814726 c 0.03528,1.481667 1.693333,8.396111 2.151944,8.960555 0.423334,0.493889 4.092223,2.681111 5.36222298,3.139722 0.529167,0.246945 0.599721,-0.03528 0.599721,-3.033889 V 66.565003 L -3.4997624,63.284171 c -3.4925,-3.280834 -4.691944,-3.951111 -4.691944,-2.469445 z"
       style="stroke-width:0.0352777;fill:#81d4fa;fill-opacity:1" />
    <path
       id="path14771"
       d="m 35.905515,62.719726 c -1.658056,1.446389 -3.210277,2.892778 -3.421944,3.210278 -0.529166,0.670277 -0.635,6.667499 -0.176389,6.949722 0.176389,0.105833 1.552223,-0.564445 3.104443,-1.481667 l 2.786946,-1.658056 0.9525,-4.409722 c 1.411111,-6.385277 1.199444,-6.561666 -3.245556,-2.610555 z"
       style="stroke-width:0.0352777;fill:#81d4fa;fill-opacity:1" />
    <path
       id="path14773"
       d="m -11.190317,62.296393 c -0.987778,0.635 -2.081389,1.552222 -2.469444,1.975555 l -0.705556,0.776111 0.846667,0.599722 c 1.164166,0.776111 5.8208326,3.175 5.9619436,3.069167 0.141111,-0.176389 -1.375833,-7.055555 -1.658056,-7.337777 -0.141111,-0.141111 -1.0230546,0.246944 -1.9755546,0.917222 z"
       style="stroke-width:0.0352777;fill:#81d4fa;fill-opacity:1" />
    <path
       id="path14775"
       d="m 40.844405,61.23806 c 0,0.07056 -0.3175,1.693333 -0.705557,3.563055 -0.388056,1.905 -0.635,3.563055 -0.493889,3.668888 0.282223,0.282223 5.221112,-2.328333 5.961946,-3.139722 0.352777,-0.388055 0.564443,-0.776111 0.493887,-0.846666 -1.905,-1.658056 -5.256387,-3.704167 -5.256387,-3.245555 z"
       style="stroke-width:0.0352777;fill:#81d4fa;fill-opacity:1" />
    <path
       id="path14777"
       d="m 14.562461,66.847226 c -0.670279,1.446389 -1.234723,2.8575 -1.234723,3.104444 0,0.352778 2.36361,3.845278 2.610557,3.845278 0.07055,0 0.670276,-0.846667 1.41111,-1.905 l 1.305277,-1.905 -1.093611,-2.610556 c -0.635,-1.411111 -1.27,-2.716388 -1.446389,-2.892777 -0.176387,-0.211667 -0.811387,0.776111 -1.552221,2.363611 z"
       style="stroke-width:0.0352777;fill:#81d4fa;fill-opacity:1" />
    <path
       id="path14779"
       d="m 7.5069046,67.552781 c -0.3175,1.375834 -0.635,2.822222 -0.705557,3.139722 -0.105833,0.599723 2.610557,3.457222 3.3161134,3.457222 0.3175,0 1.799167,-3.174999 1.799167,-3.915833 0,-0.423333 -2.9633334,-4.727222 -3.4925004,-5.044722 -0.17639,-0.105833 -0.564446,0.9525 -0.917223,2.363611 z"
       style="stroke-width:0.0352777;fill:#81d4fa;fill-opacity:1" />
    <path
       id="path14781"
       d="m 21.512182,67.588059 -1.834444,2.575278 0.917223,2.010833 c 0.493887,1.093611 1.023054,1.975555 1.128887,1.975555 0.141111,0 0.9525,-0.635 1.834444,-1.375833 l 1.5875,-1.375833 -0.599721,-2.928056 c -0.352779,-1.5875 -0.740833,-3.033888 -0.881946,-3.174999 -0.14111,-0.141112 -1.128887,0.881944 -2.151943,2.293055 z"
       style="stroke-width:0.0352777;fill:#81d4fa;fill-opacity:1" />
    <path
       id="path14785"
       d="m -16.05865,66.14167 c -0.07056,0.211667 0.670277,2.328333 1.693333,4.656667 l 1.869722,4.233333 2.6105556,0.9525 c 3.139722,1.128889 4.268611,1.234722 4.021666,0.352778 -0.07055,-0.3175 -0.352778,-1.552223 -0.564444,-2.716389 -0.211667,-1.164167 -0.493889,-2.398889 -0.564445,-2.716389 -0.176389,-0.564444 -7.7611106,-5.221111 -8.5372216,-5.221111 -0.176389,0 -0.423333,0.211667 -0.529166,0.458611 z"
       style="stroke-width:0.0352777;fill:#81d4fa;fill-opacity:1" />
    <path
       id="path14787"
       d="m 43.313848,67.835003 c -2.04611,1.164167 -3.880556,2.293056 -4.092223,2.469445 -0.45861,0.388055 -1.693333,6.279444 -1.375833,6.596944 0.282223,0.282222 6.0325,-1.622778 6.455833,-2.151944 0.599723,-0.776111 3.598334,-7.761111 3.598334,-8.431389 0,-0.352778 -0.211667,-0.635 -0.458611,-0.635 -0.211666,0 -2.081389,0.9525 -4.1275,2.151944 z"
       style="stroke-width:0.0352777;fill:#81d4fa;fill-opacity:1" />
    <path
       id="path14789"
       d="m -18.669188,68.611115 c -1.552222,1.658055 -2.751667,3.386666 -2.54,3.563055 0.493889,0.423333 6.879149,2.257778 7.090815,2.046111 0.246945,-0.246944 -2.257777,-6.279444 -2.857482,-6.879166 -0.141111,-0.141112 -0.917222,0.423333 -1.693333,1.27 z"
       style="stroke-width:0.0352777;fill:#81d4fa;fill-opacity:1" />
    <path
       id="path14791"
       d="m 47.123848,70.692503 c -0.881943,2.010834 -1.481666,3.668889 -1.305277,3.739445 0.423334,0.176389 6.949721,-2.010834 7.196667,-2.398889 0.176387,-0.282222 -3.457223,-4.656667 -4.021667,-4.868333 -0.141112,-0.03528 -0.987779,1.552222 -1.869723,3.527777 z"
       style="stroke-width:0.0352777;fill:#81d4fa;fill-opacity:1" />
    <path
       id="path14793"
       d="m 0.62773758,70.763059 c 0,1.940278 0.14111,3.069166 0.45861002,3.280833 0.9525,0.740833 3.421947,1.975556 3.598334,1.799167 0.105833,-0.105834 0.388056,-1.093611 0.635,-2.2225 l 0.423333,-2.046111 -2.116667,-1.869722 c -1.164166,-1.058334 -2.328333,-1.905 -2.54,-1.905 -0.35277702,0 -0.45861002,0.811389 -0.45861002,2.963333 z"
       style="stroke-width:0.0352777;fill:#81d4fa;fill-opacity:1" />
    <path
       id="path14795"
       d="m 28.214959,69.704726 c -2.081388,1.975555 -2.081388,1.975555 -1.799167,3.457222 0.3175,1.799166 0.670279,2.751666 0.987779,2.751666 0.105834,0 1.058334,-0.493889 2.081388,-1.093611 l 1.869723,-1.058333 -0.105834,-2.8575 c -0.07056,-1.763889 -0.246943,-2.928055 -0.493889,-2.998611 -0.246944,-0.07056 -1.375834,0.740833 -2.54,1.799167 z"
       style="stroke-width:0.0352777;fill:#81d4fa;fill-opacity:1" />
    <path
       id="path14797"
       d="m 11.951905,72.703337 c -0.9525,1.869722 -0.846667,2.751666 0.423333,3.704166 l 0.987777,0.740834 1.023056,-1.234723 c 1.093611,-1.340555 1.058334,-1.516944 -0.635,-3.527777 l -1.023056,-1.199445 z"
       style="stroke-width:0.0352777;fill:#81d4fa;fill-opacity:1" />
    <path
       id="path14799"
       d="m 17.631628,72.915003 c -1.234723,1.693334 -1.199446,2.187222 0.246943,3.4925 0.740834,0.670278 0.776111,0.670278 1.799167,-0.3175 0.599723,-0.564444 1.058333,-1.128889 1.058333,-1.305278 0,-0.493888 -1.481666,-3.457222 -1.72861,-3.457222 -0.105833,0.03528 -0.740833,0.740834 -1.375833,1.5875 z"
       style="stroke-width:0.0352777;fill:#81d4fa;fill-opacity:1" />
    <path
       id="path14801"
       d="m 34.670792,72.844448 -2.469444,1.481666 -0.105833,2.2225 c -0.105833,2.504723 0.03528,2.610556 2.822223,1.658056 l 1.5875,-0.564445 0.599721,-2.645833 c 0.635,-2.928055 0.705556,-3.668889 0.282223,-3.668889 -0.141111,0 -1.375834,0.670278 -2.71639,1.516945 z"
       style="stroke-width:0.0352777;fill:#81d4fa;fill-opacity:1" />
    <path
       id="path14803"
       d="m -5.5105954,74.043892 c 0.740833,3.563056 0.740833,3.527778 2.645833,4.162778 2.50472298,0.846667 2.85749998,0.599722 2.71638998,-1.799167 l -0.105833,-1.975555 -2.25777998,-1.375834 c -1.27,-0.776111 -2.54,-1.375833 -2.892777,-1.375833 -0.529166,0 -0.529166,0.176389 -0.105833,2.363611 z"
       style="stroke-width:0.0352777;fill:#81d4fa;fill-opacity:1" />
    <path
       id="path14805"
       d="m 5.9899606,74.573059 c -0.388056,2.081389 -0.246946,2.434166 1.375834,3.104444 1.199443,0.529167 1.199443,0.529167 1.86972,-1.128889 l 0.529167,-1.27 -1.375834,-1.27 c -0.77611,-0.705555 -1.55222,-1.27 -1.72861,-1.27 -0.14111,0 -0.45861,0.846667 -0.670277,1.834445 z"
       style="stroke-width:0.0352777;fill:#81d4fa;fill-opacity:1" />
    <path
       id="path14807"
       d="m 23.452459,73.938059 c -1.481667,1.375833 -1.481667,1.27 -0.811388,2.8575 0.599721,1.411111 0.917221,1.481666 2.363611,0.635 1.058333,-0.635 1.27,-1.658056 0.705556,-3.598334 -0.352779,-1.269999 -0.776113,-1.234722 -2.257779,0.105834 z"
       style="stroke-width:0.0352777;fill:#81d4fa;fill-opacity:1" />
    <path
       id="path14809"
       d="m -22.655577,73.620559 c 0,0.282222 1.199444,2.187222 2.681111,4.233333 2.892778,3.98639 2.54,3.774723 6.914427,4.233333 1.128889,0.14111 2.187222,0.14111 2.363611,0.03528 0.176389,-0.14111 -0.246945,-1.5875 -0.987778,-3.280832 l -1.305278,-3.033892 -4.233315,-1.340556 c -4.656667,-1.516944 -5.432778,-1.622777 -5.432778,-0.846666 z"
       style="stroke-width:0.0352777;fill:#81d4fa;fill-opacity:1" />
    <path
       id="path14811"
       d="m 48.993571,74.431948 -4.021666,1.27 -1.164167,2.504722 c -1.76389,3.880555 -1.799167,3.845278 0.987777,3.739445 3.915833,-0.141113 4.056944,-0.211667 7.090833,-4.268612 1.481667,-2.010833 2.71639,-3.845278 2.71639,-4.1275 0,-0.705555 -1.199446,-0.529166 -5.609167,0.881945 z"
       style="stroke-width:0.0352777;fill:#81d4fa;fill-opacity:1" />
    <path
       id="path14813"
       d="m -24.137244,75.631392 c -0.9525,1.446389 -2.434166,4.58611 -2.293055,4.7625 0.246944,0.211667 4.444999,0.81139 5.997222,0.81139 0.705556,0 1.305278,-0.141113 1.305278,-0.282223 0,-0.49389 -2.751667,-4.480278 -3.668889,-5.326945 l -0.811389,-0.776111 z"
       style="stroke-width:0.0352777;fill:#81d4fa;fill-opacity:1" />
    <path
       id="path14815"
       d="m 53.368015,77.042503 c -0.917223,1.199445 -1.869723,2.645834 -2.151944,3.174999 l -0.529166,0.98778 h 1.72861 c 1.975556,0 5.36222,-0.564447 5.785554,-0.98778 0.282223,-0.282221 -2.504721,-5.362221 -2.928054,-5.362221 -0.14111,0 -0.987777,0.987778 -1.905,2.187222 z"
       style="stroke-width:0.0352777;fill:#81d4fa;fill-opacity:1" />
    <path
       id="path14817"
       d="m 0.83940458,75.455003 c -0.388057,0.423334 -0.211667,3.563056 0.24694302,3.915834 0.211667,0.211666 0.881947,0.493888 1.44639,0.635 1.199444,0.282222 1.622777,-0.211667 1.622777,-2.010834 0,-1.128889 -0.14111,-1.305278 -1.55222,-1.975555 C 1.7566276,75.596114 0.94523758,75.34917 0.83940458,75.455003 Z"
       style="stroke-width:0.0352777;fill:#81d4fa;fill-opacity:1" />
    <path
       id="path14819"
       d="m 28.955792,76.125281 c -1.5875,0.9525 -1.658054,1.128889 -1.305277,2.928056 0.246944,1.269998 0.987777,1.411111 2.610556,0.564444 0.917221,-0.458611 1.058334,-0.740833 1.058334,-1.905 0,-1.481667 -0.282223,-2.504722 -0.67028,-2.504722 -0.105833,0.03528 -0.881943,0.423333 -1.693333,0.917222 z"
       style="stroke-width:0.0352777;fill:#81d4fa;fill-opacity:1" />
    <path
       id="path14821"
       d="m 14.985795,76.583892 c -0.776113,1.340556 -0.776113,2.257778 0.07055,2.998611 0.529167,0.493889 0.846667,0.529167 1.411113,0.246945 1.128887,-0.635 1.305277,-1.940278 0.388054,-3.210278 -0.91722,-1.305278 -1.09361,-1.305278 -1.86972,-0.03528 z"
       style="stroke-width:0.0352777;fill:#81d4fa;fill-opacity:1" />
    <path
       id="path14823"
       d="m 9.7999606,77.501114 c -0.352779,1.058334 -0.3175,1.411111 0.14111,2.116667 1.0230574,1.552221 2.6811114,0.811388 2.6811114,-1.164167 0,-0.705555 -1.375834,-2.187222 -2.010834,-2.187222 -0.211666,0 -0.59972,0.564445 -0.8113874,1.234722 z"
       style="stroke-width:0.0352777;fill:#81d4fa;fill-opacity:1" />
    <path
       id="path14825"
       d="m 20.101071,77.077781 c -1.375833,1.446389 -0.705556,3.774721 0.917224,3.280834 1.128887,-0.352778 1.587497,-1.834445 0.952497,-3.03389 -0.670277,-1.27 -0.881944,-1.305277 -1.869721,-0.246944 z"
       style="stroke-width:0.0352777;fill:#81d4fa;fill-opacity:1" />
    <path
       id="path14827"
       d="m 40.421071,77.289448 c -1.481666,0.493889 -2.892779,1.093611 -3.069166,1.27 -0.211667,0.211666 -0.458613,1.27 -0.599723,2.363611 l -0.246944,1.975556 1.552221,-0.141113 c 2.998612,-0.352777 2.963333,-0.3175 4.198056,-3.104443 0.599723,-1.446389 1.09361,-2.786945 1.023056,-2.963334 -0.07056,-0.176388 -1.375833,0.105834 -2.8575,0.599723 z"
       style="stroke-width:0.0352777;fill:#81d4fa;fill-opacity:1" />
    <path
       id="path14829"
       d="m -11.331428,77.57167 c 0.176389,0.564444 0.776111,1.869722 1.305278,2.928055 l 0.9524996,1.940277 2.222499,0.105833 c 2.081389,0.105834 2.187222,0.07056 2.151946,-0.705553 0,-0.458613 -0.211667,-1.44639 -0.423334,-2.187223 -0.388056,-1.305278 -0.564445,-1.446389 -2.892778,-2.2225 -3.3161106,-1.093611 -3.7747216,-1.093611 -3.3161106,0.141111 z"
       style="stroke-width:0.0352777;fill:#81d4fa;fill-opacity:1" />
    <path
       id="path14831"
       d="m 25.110515,78.347781 c -1.234723,0.740833 -1.5875,1.622778 -1.164167,2.786944 0.635,1.72861 3.35139,0.246944 2.928057,-1.622777 -0.423334,-1.763889 -0.599723,-1.869723 -1.76389,-1.164167 z"
       style="stroke-width:0.0352777;fill:#81d4fa;fill-opacity:1" />
    <path
       id="path14833"
       d="m 5.0021816,79.265003 c -0.246944,1.375832 0.529166,2.645832 1.622779,2.645832 1.552221,0 1.975554,-2.36361 0.529167,-3.31611 -1.340557,-0.881944 -1.869723,-0.705555 -2.151946,0.670278 z"
       style="stroke-width:0.0352777;fill:#81d4fa;fill-opacity:1" />
    <path
       id="path14835"
       d="m -4.1347624,79.088614 c -0.105833,0.176389 0,1.093611 0.211667,2.046111 0.352777,1.693334 0.423333,1.799167 1.72861,2.010834 0.776113,0.14111 1.51694598,0.14111 1.69333298,0.03528 0.17639,-0.105833 0.3175,-0.846666 0.282223,-1.658053 -0.03528,-1.44639 -0.07056,-1.481668 -1.86972298,-2.116668 -1.023053,-0.352777 -1.940277,-0.493889 -2.04611,-0.3175 z"
       style="stroke-width:0.0352777;fill:#81d4fa;fill-opacity:1" />
    <path
       id="path14837"
       d="m 33.965238,79.370837 c -1.658056,0.564444 -1.76389,0.670277 -1.869723,1.975555 -0.14111,1.76389 0.246944,2.116667 1.975556,1.799167 1.446388,-0.246944 1.446388,-0.246944 1.693334,-2.151944 0.105833,-1.058334 0.176387,-2.010834 0.105833,-2.08139 -0.07056,-0.07056 -0.917223,0.141112 -1.905,0.458612 z"
       style="stroke-width:0.0352777;fill:#81d4fa;fill-opacity:1" />
    <path
       id="path14841"
       d="m 17.455238,80.182225 c -0.49389,0.282223 -0.564443,0.49389 -0.211667,0.881944 0.49389,0.599723 1.234724,0.635 1.5875,0.105833 0.388057,-0.635 -0.635,-1.375832 -1.375833,-0.987777 z"
       style="stroke-width:0.0352777;fill:#81d4fa;fill-opacity:1" />
    <path
       id="path14843"
       d="m 13.010238,80.640835 c -0.352777,0.423334 -0.282223,0.564447 0.352777,0.740834 0.458613,0.17639 0.881946,0.07056 1.058333,-0.211667 0.599723,-0.987777 -0.670277,-1.446388 -1.41111,-0.529167 z"
       style="stroke-width:0.0352777;fill:#81d4fa;fill-opacity:1" />
    <path
       id="path14845"
       d="m 0.87468158,80.711392 c -0.493887,0.49389 -0.246944,2.257777 0.45861302,2.963333 0.740833,0.740834 1.023053,0.81139 1.905,0.49389 0.670276,-0.246946 0.77611,-2.363613 0.105833,-2.89278 -0.599723,-0.529166 -2.151946,-0.881943 -2.46944602,-0.564443 z"
       style="stroke-width:0.0352777;fill:#81d4fa;fill-opacity:1" />
    <path
       id="path14847"
       d="m 29.308571,80.852502 c -1.693333,0.67028 -1.834446,3.52778 -0.176389,3.52778 0.77611,0 2.187223,-1.411113 2.187223,-2.187223 0,-1.552224 -0.529167,-1.940277 -2.010834,-1.340557 z"
       style="stroke-width:0.0352777;fill:#81d4fa;fill-opacity:1" />
    <path
       id="path14849"
       d="m 8.7769046,81.346392 c -0.3175,0.352777 -0.282223,0.564443 0.14111,0.917223 0.458613,0.388054 0.67028,0.352777 1.1641674,-0.141113 0.529166,-0.529167 0.529166,-0.635 0.07056,-0.91722 -0.7055564,-0.458613 -0.9172234,-0.423334 -1.3758334,0.14111 z"
       style="stroke-width:0.0352777;fill:#81d4fa;fill-opacity:1" />
    <path
       id="path14851"
       d="m 21.582738,81.240559 c -0.3175,0.529166 0.635,1.41111 1.199444,1.058333 0.529166,-0.3175 0.176389,-1.44639 -0.458611,-1.44639 -0.282223,0 -0.599723,0.17639 -0.740833,0.388057 z"
       style="stroke-width:0.0352777;fill:#81d4fa;fill-opacity:1" />
    <path
       id="path14853"
       d="m -27.594466,82.051948 c 0,0.529167 6.0325,6.244167 6.914445,6.561667 0.635,0.246944 5.926648,-0.17639 6.455815,-0.529167 0.458611,-0.282223 -2.998593,-5.362223 -3.809982,-5.644446 -0.811389,-0.246943 -6.702778,-0.881943 -8.219723,-0.881943 -0.917222,0 -1.340555,0.14111 -1.340555,0.493889 z"
       style="stroke-width:0.0352777;fill:#81d4fa;fill-opacity:1" />
    <path
       id="path14855"
       d="m 15.514961,81.875559 c 0.07055,0.246943 0.246944,0.423333 0.388054,0.423333 0.423333,-0.03528 0.3175,-0.529167 -0.105833,-0.705557 -0.246944,-0.07055 -0.388054,0.07056 -0.282221,0.282224 z"
       style="stroke-width:0.0352777;fill:#81d4fa;fill-opacity:1" />
    <path
       id="path14857"
       d="m 53.403292,81.946115 c -1.340554,0.14111 -2.786944,0.352777 -3.210277,0.45861 -0.987777,0.246944 -4.833056,5.25639 -4.339167,5.679723 0.388057,0.3175 5.89139,0.740834 6.561667,0.458611 1.09361,-0.388057 7.12611,-5.926667 7.12611,-6.52639 0,-0.529167 -2.116666,-0.564444 -6.138333,-0.07055 z"
       style="stroke-width:0.0352777;fill:#81d4fa;fill-opacity:1" />
    <path
       id="path14859"
       d="m 11.387461,82.228335 c -0.246946,0.423334 0.423334,0.846667 0.881944,0.564447 0.388056,-0.246947 0.14111,-0.881947 -0.352777,-0.881947 -0.17639,0 -0.388057,0.141113 -0.529167,0.3175 z"
       style="stroke-width:0.0352777;fill:#81d4fa;fill-opacity:1" />
    <path
       id="path14861"
       d="m 19.395515,82.228335 c -0.388054,0.246947 -0.352777,0.35278 0.105833,0.529167 0.81139,0.3175 0.881947,0.282223 0.881947,-0.3175 0,-0.59972 -0.3175,-0.670277 -0.98778,-0.211667 z"
       style="stroke-width:0.0352777;fill:#81d4fa;fill-opacity:1" />
    <path
       id="path14863"
       d="m -16.129206,83.004448 c 0.176389,0.282221 1.023056,1.481667 1.905,2.681111 l 1.5875,2.2225 h 1.763889 c 2.6811106,0 2.9280546,-0.282224 2.1872216,-2.257777 -0.811389,-2.116667 -1.4111106,-2.681113 -2.7869436,-2.681113 -0.635,0 -1.975556,-0.105834 -3.033889,-0.246944 -1.5875,-0.17639 -1.869722,-0.14111 -1.622778,0.282223 z"
       style="stroke-width:0.0352777;fill:#81d4fa;fill-opacity:1" />
    <path
       id="path14865"
       d="m 5.1080146,82.863335 c -0.352777,0.35278 -0.28222,1.516947 0.07056,1.516947 0.529167,0 1.481667,-1.093613 1.27,-1.44639 -0.246943,-0.388057 -1.023056,-0.423333 -1.340556,-0.07056 z"
       style="stroke-width:0.0352777;fill:#81d4fa;fill-opacity:1" />
    <path
       id="path14867"
       d="m 25.322182,83.110282 c 0,0.246943 0.246943,0.670277 0.529166,0.91722 0.670277,0.564446 1.44639,-0.03528 1.12889,-0.846667 -0.282223,-0.705553 -1.658056,-0.740833 -1.658056,-0.07055 z"
       style="stroke-width:0.0352777;fill:#81d4fa;fill-opacity:1" />
    <path
       id="path14869"
       d="m 43.701905,82.969169 c -2.187223,0.3175 -2.25778,0.352779 -3.175,2.575279 l -0.740834,1.693334 0.917221,0.3175 c 0.49389,0.211666 1.552223,0.352777 2.363613,0.352777 1.41111,-0.03528 1.55222,-0.141111 2.99861,-2.151944 2.116667,-2.963333 2.151944,-3.139723 0.740833,-3.104446 -0.670277,0.03528 -2.04611,0.17639 -3.104443,0.3175 z"
       style="stroke-width:0.0352777;fill:#81d4fa;fill-opacity:1" />
    <path
       id="path14871"
       d="m 7.6832946,83.498335 c -0.599724,0.740834 -0.282224,0.98778 0.529166,0.388057 0.388054,-0.282223 0.493887,-0.529167 0.282221,-0.670277 -0.211667,-0.141113 -0.564444,0 -0.811387,0.28222 z"
       style="stroke-width:0.0352777;fill:#81d4fa;fill-opacity:1" />
    <path
       id="path14873"
       d="m 23.205515,83.463059 c 0,0.3175 0.246944,0.564443 0.564444,0.564443 0.599723,0 0.493889,-0.77611 -0.141111,-0.987777 -0.246943,-0.07056 -0.423333,0.105834 -0.423333,0.423334 z"
       style="stroke-width:0.0352777;fill:#81d4fa;fill-opacity:1" />
    <path
       id="path14875"
       d="m -8.1564284,83.674725 c -0.3175,0.17639 -0.211667,0.670277 0.388055,1.905 0.776111,1.658057 0.811389,1.658057 2.398889,1.552223 1.587499,-0.105833 1.587499,-0.105833 1.481666,-1.340556 -0.070554,-0.670277 -0.3175,-1.41111 -0.529167,-1.622777 -0.529167,-0.49389 -3.174999,-0.846667 -3.739443,-0.49389 z"
       style="stroke-width:0.0352777;fill:#81d4fa;fill-opacity:1" />
    <path
       id="path14877"
       d="m 37.528292,83.639448 c -1.234721,0.176387 -1.446387,0.352777 -1.72861,1.411111 -0.423334,1.763889 -0.141111,2.151943 1.658056,2.151943 1.516944,0 1.5875,-0.03528 2.151944,-1.55222 0.352777,-0.881947 0.493889,-1.728613 0.352777,-1.94028 -0.246944,-0.423333 -0.282221,-0.423333 -2.434167,-0.07055 z"
       style="stroke-width:0.0352777;fill:#81d4fa;fill-opacity:1" />
    <path
       id="path14879"
       d="m -28.405855,83.921669 c -0.246944,0.423333 -1.658056,5.08 -1.658056,5.503333 0,0.211667 1.093612,0.282223 3.351389,0.105833 3.421945,-0.246943 4.515556,-0.45861 4.339167,-0.91722 -0.176389,-0.388056 -5.326944,-4.93889 -5.609167,-4.93889 -0.141111,0 -0.352777,0.105834 -0.423333,0.246944 z"
       style="stroke-width:0.0352777;fill:#81d4fa;fill-opacity:1" />
    <path
       id="path14881"
       d="m 56.719402,86.108892 c -1.446387,1.340556 -2.539997,2.575277 -2.36361,2.71639 0.3175,0.352777 3.421943,0.77611 5.785556,0.811387 l 1.799167,0.03528 -0.529167,-2.010833 c -0.564446,-2.187223 -1.375833,-3.98639 -1.799166,-3.98639 -0.141113,0.03528 -1.44639,1.12889 -2.89278,2.434166 z"
       style="stroke-width:0.0352777;fill:#81d4fa;fill-opacity:1" />
    <path
       id="path14883"
       d="m -3.1117054,84.486115 c -0.49389,1.375833 1.305276,3.31611 2.68110998,2.892777 0.917223,-0.282223 0.9525,-1.975557 0.07056,-2.751667 -0.77611298,-0.705556 -2.50472298,-0.77611 -2.75166598,-0.14111 z"
       style="stroke-width:0.0352777;fill:#81d4fa;fill-opacity:1" />
    <path
       id="path14885"
       d="m 32.024959,84.803615 c -0.9525,1.023054 -0.881944,1.975554 0.176389,2.469444 1.305277,0.599723 2.645834,-0.423334 2.645834,-2.010834 0,-1.12889 -0.07056,-1.234723 -1.058334,-1.234723 -0.599723,0 -1.340556,0.3175 -1.763889,0.776113 z"
       style="stroke-width:0.0352777;fill:#81d4fa;fill-opacity:1" />
    <path
       id="path14887"
       d="m 1.7919046,85.332782 c -0.599723,0.211666 -0.564444,1.516943 0.03528,1.516943 0.635,0 1.375833,-0.9525 1.093613,-1.41111 -0.246947,-0.388056 -0.458613,-0.388056 -1.12889,-0.105833 z"
       style="stroke-width:0.0352777;fill:#81d4fa;fill-opacity:1" />
    <path
       id="path14889"
       d="m 4.3319046,85.473892 c -0.352777,0.529167 0.105833,0.881943 0.564443,0.423333 0.246947,-0.246943 0.246947,-0.45861 0.03528,-0.599723 -0.211667,-0.105833 -0.49389,-0.03528 -0.599723,0.17639 z"
       style="stroke-width:0.0352777;fill:#81d4fa;fill-opacity:1" />
    <path
       id="path14893"
       d="m 26.733292,85.579725 c 0,0.3175 0.246946,0.564444 0.564446,0.564444 0.3175,0 0.493887,-0.176387 0.423333,-0.423334 -0.211666,-0.635 -0.987779,-0.740833 -0.987779,-0.14111 z"
       style="stroke-width:0.0352777;fill:#81d4fa;fill-opacity:1" />
    <path
       id="path14895"
       d="m 28.849959,85.791392 c 0,0.81139 0.917223,1.340556 1.446389,0.81139 0.49389,-0.49389 0,-1.516947 -0.77611,-1.516947 -0.423333,0 -0.670279,0.246947 -0.670279,0.705557 z"
       style="stroke-width:0.0352777;fill:#81d4fa;fill-opacity:1" />
    <path
       id="path14897"
       d="m 1.1569046,88.296115 c -0.42333402,0.670277 0.17639,0.811387 0.77611,0.211667 0.564446,-0.564447 0.564446,-0.599723 0.03528,-0.599723 -0.3175,0 -0.705557,0.176389 -0.81139,0.388056 z"
       style="stroke-width:0.0352777;fill:#81d4fa;fill-opacity:1" />
    <path
       id="path14899"
       d="m 29.626071,88.331392 c 0.211667,0.635 0.987777,0.740833 0.987777,0.14111 0,-0.3175 -0.246943,-0.564443 -0.564443,-0.564443 -0.3175,0 -0.49389,0.176389 -0.423334,0.423333 z"
       style="stroke-width:0.0352777;fill:#81d4fa;fill-opacity:1" />
    <path
       id="path14901"
       d="m -6.1808734,88.472502 c -0.282222,0.3175 0.846667,2.54 1.411111,2.786946 0.282223,0.105834 0.881944,0.07055 1.375833,-0.03528 0.635,-0.176387 0.846667,-0.45861 0.846667,-1.164167 0,-0.529167 -0.17639,-1.128887 -0.423333,-1.375833 -0.423334,-0.423334 -2.822222,-0.599721 -3.210278,-0.211666 z"
       style="stroke-width:0.0352777;fill:#81d4fa;fill-opacity:1" />
    <path
       id="path14903"
       d="m -1.2419854,88.507782 c -0.14111,0.105833 -0.246944,0.529166 -0.246944,0.881943 0,0.987777 1.19944398,0.670277 1.34055698,-0.352777 0.105833,-0.740833 -0.564446,-1.093613 -1.09361298,-0.529166 z"
       style="stroke-width:0.0352777;fill:#81d4fa;fill-opacity:1" />
    <path
       id="path14905"
       d="m 31.813292,88.648892 c -0.352777,0.599723 0.81139,1.622777 1.305279,1.12889 0.246944,-0.246947 0.3175,-0.67028 0.211667,-0.9525 -0.246946,-0.635 -1.164167,-0.740834 -1.516946,-0.17639 z"
       style="stroke-width:0.0352777;fill:#81d4fa;fill-opacity:1" />
    <path
       id="path14907"
       d="m 34.706071,88.825282 c -1.058333,1.023053 -0.352779,2.610553 1.199444,2.610553 0.670277,0 2.116667,-1.693333 2.116667,-2.469443 0,-0.599723 -0.211667,-0.705557 -1.375834,-0.705557 -0.811389,0 -1.622777,0.246947 -1.940277,0.564447 z"
       style="stroke-width:0.0352777;fill:#81d4fa;fill-opacity:1" />
    <path
       id="path14909"
       d="m -11.29615,88.895835 c -0.3175,0.211667 -0.176389,0.635 0.599722,1.728613 1.3405546,1.869721 1.4463886,1.905 2.9986106,1.446387 1.234722,-0.388053 1.305278,-0.493887 1.128889,-1.446387 -0.105834,-0.599723 -0.388056,-1.27 -0.599723,-1.552223 -0.423333,-0.49389 -3.3866656,-0.635 -4.1274986,-0.17639 z"
       style="stroke-width:0.0352777;fill:#81d4fa;fill-opacity:1" />
    <path
       id="path14911"
       d="m 38.798292,89.566115 c -0.705554,1.763887 -0.635,1.940277 0.776113,2.434167 0.740833,0.28222 1.481666,0.423333 1.5875,0.3175 0.14111,-0.07056 0.740833,-0.81139 1.27,-1.5875 1.199443,-1.728613 0.91722,-2.116667 -1.62278,-2.116667 -1.481666,0 -1.693333,0.105833 -2.010833,0.9525 z"
       style="stroke-width:0.0352777;fill:#81d4fa;fill-opacity:1" />
    <path
       id="path14913"
       d="m -15.600039,89.213335 c -2.363594,0.211667 -3.52776,0.49389 -3.52776,0.81139 0,0.14111 0.987777,1.164167 2.2225,2.257777 l 2.222482,1.94028 1.658056,-0.49389 c 2.892777,-0.846667 2.892777,-0.846667 1.446388,-2.928057 -0.917222,-1.305276 -1.516944,-1.834443 -2.046111,-1.763887 -0.423333,0 -1.305277,0.105834 -1.975555,0.176387 z"
       style="stroke-width:0.0352777;fill:#81d4fa;fill-opacity:1" />
    <path
       id="path14915"
       d="m 43.560792,90.589169 c -0.599721,0.881946 -1.128887,1.76389 -1.128887,1.975556 0,0.388057 3.598333,1.799167 4.09222,1.622777 0.141113,-0.07055 1.27,-1.058333 2.469446,-2.2225 2.469444,-2.398887 2.54,-2.328333 -1.905,-2.786943 l -2.363612,-0.246944 z"
       style="stroke-width:0.0352777;fill:#81d4fa;fill-opacity:1" />
    <path
       id="path14917"
       d="m -27.559188,90.518615 c -1.728611,0.211667 -3.033889,0.564444 -3.104445,0.811387 -0.176389,0.458613 1.905,1.869723 5.961945,4.127516 l 2.398888,1.340554 2.892779,-0.9525 c 1.622777,-0.52918 3.033871,-1.093624 3.21026,-1.199457 0.141111,-0.141113 -0.776094,-1.234723 -2.010816,-2.434167 l -2.257778,-2.187223 -2.081389,0.03528 c -1.128889,0.03528 -3.386667,0.246946 -5.009444,0.458613 z"
       style="stroke-width:0.0352777;fill:#81d4fa;fill-opacity:1" />
    <path
       id="path14919"
       d="m 50.193015,92.000282 c -1.27,1.128887 -2.257777,2.18722 -2.187223,2.398887 0.07056,0.211666 1.481667,0.846666 3.175,1.375849 l 3.03389,0.987777 4.056943,-2.328347 c 2.257777,-1.305279 4.162777,-2.469446 4.26861,-2.645833 0.35278,-0.599723 -0.811387,-0.98778 -3.880553,-1.375833 -5.644444,-0.67028 -5.820834,-0.67028 -8.466667,1.5875 z"
       style="stroke-width:0.0352777;fill:#81d4fa;fill-opacity:1" />
    <path
       id="path14921"
       d="m -1.1361524,91.823892 c 0,0.635 0.07056,0.670277 0.52916698,0.3175 0.529167,-0.423333 0.423333,-1.058333 -0.211667,-1.058333 -0.176387,0 -0.31749998,0.352776 -0.31749998,0.740833 z"
       style="stroke-width:0.0352777;fill:#81d4fa;fill-opacity:1" />
    <path
       id="path14923"
       d="m 32.236625,91.365282 c -0.105833,0.211666 -0.03528,0.493887 0.17639,0.59972 0.529167,0.35278 0.881944,-0.105833 0.423333,-0.564443 -0.246943,-0.246944 -0.45861,-0.246944 -0.599723,-0.03528 z"
       style="stroke-width:0.0352777;fill:#81d4fa;fill-opacity:1" />
    <path
       id="path14925"
       d="m -3.4644854,92.670559 c -0.105833,0.282223 -0.105833,0.670276 0,0.846666 0.35278,0.564444 1.27,0.03528 1.27,-0.705556 0,-0.77611 -0.987777,-0.917221 -1.27,-0.14111 z"
       style="stroke-width:0.0352777;fill:#81d4fa;fill-opacity:1" />
    <path
       id="path14927"
       d="m 34.141625,92.811669 c 0,0.846666 0.917223,1.234723 1.199446,0.49389 0.282221,-0.670277 -0.03528,-1.164167 -0.705556,-1.164167 -0.282223,0 -0.49389,0.3175 -0.49389,0.670277 z"
       style="stroke-width:0.0352777;fill:#81d4fa;fill-opacity:1" />
    <path
       id="path14929"
       d="m -7.6625394,92.917502 c -0.388056,0.211667 -0.776112,0.423333 -0.811389,0.49389 -0.07056,0.03528 0.211666,0.564443 0.670277,1.164167 0.529167,0.740833 1.093612,1.093626 1.728612,1.093626 1.763887,0 2.398887,-1.65807 0.987777,-2.61057 -0.917222,-0.67028 -1.5875,-0.705556 -2.575277,-0.141113 z"
       style="stroke-width:0.0352777;fill:#81d4fa;fill-opacity:1" />
    <path
       id="path14931"
       d="m 36.893292,92.917502 c -0.846667,0.705557 -0.987777,1.5875 -0.3175,2.187223 1.023056,0.917237 2.257779,0.70557 2.998613,-0.564443 0.635,-1.058334 0.635,-1.12889 0.03528,-1.5875 -0.81139,-0.564447 -1.975557,-0.599723 -2.71639,-0.03528 z"
       style="stroke-width:0.0352777;fill:#81d4fa;fill-opacity:1" />
    <path
       id="path14933"
       d="m -31.263355,95.034169 c -0.105833,1.023069 -0.211667,2.469459 -0.211667,3.210293 0,1.27 0.03528,1.305276 0.987778,1.09361 1.834445,-0.45861 5.820833,-1.869721 6.138333,-2.187221 0.3175,-0.3175 -5.468055,-3.951126 -6.279444,-3.951126 -0.211667,0 -0.493889,0.846667 -0.635,1.834444 z"
       style="stroke-width:0.0352777;fill:#81d4fa;fill-opacity:1" />
    <path
       id="path14935"
       d="m 59.188848,94.893059 c -1.622779,0.952513 -2.99861,1.869736 -3.104443,2.116679 -0.105834,0.3175 6.067777,2.54 7.09083,2.54 0.17639,0 0.211667,-1.128887 0.07056,-2.575276 -0.246944,-2.857514 -0.45861,-3.774737 -0.846667,-3.774737 -0.14111,0 -1.5875,0.77611 -3.210277,1.693334 z"
       style="stroke-width:0.0352777;fill:#81d4fa;fill-opacity:1" />
    <path
       id="path14937"
       d="m -11.543095,94.116948 c -0.776111,0.282221 -1.516944,0.635 -1.658055,0.776111 -0.141111,0.14111 0.352777,0.881959 1.093611,1.622792 1.340555,1.305277 1.446389,1.340554 2.4694436,0.917221 1.834444,-0.740834 2.010833,-1.234721 0.9525,-2.645847 -1.058333,-1.375833 -0.9525,-1.375833 -2.8574996,-0.670277 z"
       style="stroke-width:0.0352777;fill:#81d4fa;fill-opacity:1" />
    <path
       id="path14939"
       d="m 40.526905,94.822502 c -0.423334,0.529167 -0.740834,1.093626 -0.740834,1.234736 0,0.35278 2.081388,1.728613 2.575277,1.728613 0.141111,0 0.9525,-0.635 1.76389,-1.375833 l 1.481667,-1.411126 -1.30528,-0.529167 c -1.905,-0.81139 -2.928054,-0.705556 -3.77472,0.352777 z"
       style="stroke-width:0.0352777;fill:#81d4fa;fill-opacity:1" />
    <path
       id="path14941"
       d="m -2.7589294,95.104725 c -0.14111,0.317513 -0.14111,0.70557 0,0.811403 0.105834,0.14111 0.423334,0.03528 0.635,-0.17639 0.3175,-0.3175 0.3175,-0.529179 0,-0.846679 -0.3175,-0.3175 -0.45861,-0.246944 -0.635,0.211666 z"
       style="stroke-width:0.0352777;fill:#81d4fa;fill-opacity:1" />
    <path
       id="path14943"
       d="m 33.859405,95.351669 c 0.07055,0.211682 0.28222,0.352793 0.45861,0.352793 0.17639,0 0.388056,-0.141111 0.45861,-0.352793 0.07056,-0.211667 -0.14111,-0.388054 -0.45861,-0.388054 -0.3175,0 -0.529167,0.176387 -0.45861,0.388054 z"
       style="stroke-width:0.0352777;fill:#81d4fa;fill-opacity:1" />
    <path
       id="path14945"
       d="m -18.140022,96.268905 c -1.516944,0.49389 -2.751666,1.023057 -2.751666,1.164167 0,0.105833 1.199444,0.917223 2.645833,1.76389 l 2.681094,1.516948 1.375833,-0.635 c 0.776111,-0.352782 1.658055,-0.917225 1.975555,-1.270005 0.564445,-0.635 0.529167,-0.740833 -0.9525,-2.04611 -0.846666,-0.77611 -1.693333,-1.411126 -1.905,-1.411126 -0.176388,0 -1.587499,0.388069 -3.069149,0.917236 z"
       style="stroke-width:0.0352777;fill:#81d4fa;fill-opacity:1" />
    <path
       id="path14947"
       d="m 44.901348,96.798072 -1.658056,1.44639 0.846667,0.635 c 0.423333,0.352776 1.375833,0.881943 2.081389,1.234728 l 1.305277,0.56444 2.504723,-1.446392 c 1.375834,-0.811387 2.504723,-1.622776 2.504723,-1.799166 0,-0.246944 -5.115279,-2.11668 -5.785556,-2.11668 -0.07056,0 -0.881944,0.670293 -1.799167,1.48168 z"
       style="stroke-width:0.0352777;fill:#81d4fa;fill-opacity:1" />
    <path
       id="path14949"
       d="m -4.5580954,96.268905 c -0.246944,0.07056 -0.45861,0.49389 -0.45861,0.881946 0,0.987777 1.199443,0.670277 1.340553,-0.352779 0.105834,-0.77611 -0.07055,-0.881944 -0.881943,-0.529167 z"
       style="stroke-width:0.0352777;fill:#81d4fa;fill-opacity:1" />
    <path
       id="path14951"
       d="m 35.446905,96.515851 c -0.105834,0.282221 0,0.776111 0.246943,1.128887 0.458611,0.599724 0.49389,0.599724 0.846667,-0.105833 0.282223,-0.493887 0.282223,-0.811387 0,-1.09361 -0.564444,-0.564444 -0.881944,-0.529167 -1.09361,0.07056 z"
       style="stroke-width:0.0352777;fill:#81d4fa;fill-opacity:1" />
    <path
       id="path14953"
       d="m -8.5444844,97.821128 -1.128889,0.705557 0.811389,0.881943 c 1.411111,1.516942 4.339166,0.49389 3.280833,-1.164166 -0.635,-1.023057 -1.728611,-1.164167 -2.963333,-0.423334 z"
       style="stroke-width:0.0352777;fill:#81d4fa;fill-opacity:1" />
    <path
       id="path14955"
       d="m 38.128015,97.503628 c -0.45861,0.211667 -0.881944,0.670277 -1.023056,1.058334 -0.529167,1.728608 2.293056,2.363608 3.704166,0.846666 l 0.81139,-0.881943 -1.164167,-0.705557 c -1.340556,-0.846666 -1.27,-0.81139 -2.328333,-0.3175 z"
       style="stroke-width:0.0352777;fill:#81d4fa;fill-opacity:1" />
    <path
       id="path14957"
       d="m -27.418077,99.302795 c -2.751667,0.952505 -4.233333,1.658055 -4.233333,1.975555 0,0.59972 7.090833,3.13972 8.784166,3.175 0.9525,0.0353 6.208872,-2.68111 6.208872,-3.21028 0,-0.3175 -5.538594,-3.457219 -6.067761,-3.421942 -0.246944,0 -2.363611,0.670277 -4.691944,1.481667 z"
       style="stroke-width:0.0352777;fill:#81d4fa;fill-opacity:1" />
    <path
       id="path14959"
       d="m 51.357182,99.408628 c -1.516944,0.846672 -2.751667,1.693332 -2.751667,1.869722 0,0.52917 4.974167,3.21028 5.926667,3.21028 0.529166,0 2.716387,-0.59972 4.90361,-1.30528 5.362223,-1.76389 5.326943,-2.08139 -0.352777,-3.951112 -2.363613,-0.811387 -4.480277,-1.446387 -4.656667,-1.446387 -0.211666,0 -1.5875,0.740834 -3.069166,1.622777 z"
       style="stroke-width:0.0352777;fill:#81d4fa;fill-opacity:1" />
    <path
       id="path14961"
       d="m 34.670792,98.844185 c -0.14111,0.211666 -0.105833,0.564443 0.105833,0.77611 0.211667,0.211667 0.423334,0.211667 0.599723,-0.07056 0.141111,-0.211666 0.105834,-0.564443 -0.105833,-0.77611 -0.211667,-0.211666 -0.423333,-0.211666 -0.599723,0.07056 z"
       style="stroke-width:0.0352777;fill:#81d4fa;fill-opacity:1" />
    <path
       id="path14963"
       d="m -3.6055954,99.373351 c 0,0.282221 0.17639,0.529167 0.352777,0.529167 0.211666,0 0.352779,-0.246946 0.352779,-0.529167 0,-0.282223 -0.141113,-0.529166 -0.352779,-0.529166 -0.176387,0 -0.352777,0.246943 -0.352777,0.529166 z"
       style="stroke-width:0.0352777;fill:#81d4fa;fill-opacity:1" />
    <path
       id="path14965"
       d="m -11.895873,99.690851 c -0.564444,0.246944 -1.340555,0.776109 -1.693333,1.164169 -0.599722,0.67028 -0.564444,0.74083 1.199445,1.65805 l 1.799166,0.98778 1.0230556,-0.98778 c 1.27,-1.19944 1.27,-1.37583 0.07056,-2.43416 -1.1641656,-0.987782 -1.0583326,-0.987782 -2.3988886,-0.388059 z"
       style="stroke-width:0.0352777;fill:#81d4fa;fill-opacity:1" />
    <path
       id="path14967"
       d="m 41.408848,99.937795 c -1.199443,0.952505 -1.164166,1.763895 0.141111,2.751665 l 1.058333,0.77611 1.76389,-0.98777 c 1.940277,-1.09361 1.905,-1.44639 -0.388057,-2.610562 -1.622777,-0.811387 -1.446387,-0.811387 -2.575277,0.07056 z"
       style="stroke-width:0.0352777;fill:#81d4fa;fill-opacity:1" />
    <path
       id="path14969"
       d="m -5.3342064,100.74919 c -0.388056,0.45861 -0.352778,0.67027 0.141111,1.12888 0.49389,0.52917 0.635,0.52917 0.917223,0.10584 0.705554,-1.12889 -0.246946,-2.222505 -1.058334,-1.23472 z"
       style="stroke-width:0.0352777;fill:#81d4fa;fill-opacity:1" />
    <path
       id="path14971"
       d="m 36.046625,100.71391 c -0.105833,0.3175 -0.105833,0.88194 0,1.19944 0.211667,0.52917 0.282223,0.52917 0.846667,0 0.529167,-0.56444 0.529167,-0.635 0,-1.19944 -0.564444,-0.52917 -0.635,-0.52917 -0.846667,0 z"
       style="stroke-width:0.0352777;fill:#81d4fa;fill-opacity:1" />
    <path
       id="path14973"
       d="m -17.716688,103.1128 c -1.940278,1.05833 -3.633611,2.43416 -2.998611,2.43416 0.211666,0 1.5875,0.38806 3.104444,0.88195 l 2.786927,0.84666 1.552222,-1.44638 c 0.846667,-0.77612 1.552222,-1.55223 1.552222,-1.69334 0,-0.35278 -3.104444,-2.11666 -3.668889,-2.11666 -0.211666,0 -1.269999,0.49388 -2.328315,1.09361 z"
       style="stroke-width:0.0352777;fill:#81d4fa;fill-opacity:1" />
    <path
       id="path14975"
       d="m -8.6855954,103.04224 -0.9525,0.98778 1.128889,0.74083 c 1.058333,0.67028 1.234722,0.67028 2.151944,0.21167 1.164167,-0.59972 1.340557,-2.04611 0.3175,-2.61056 -1.093611,-0.56444 -1.5875,-0.42333 -2.645833,0.67028 z"
       style="stroke-width:0.0352777;fill:#81d4fa;fill-opacity:1" />
    <path
       id="path14977"
       d="m 37.669405,102.65419 c -0.705557,0.56444 -0.740834,0.74083 -0.388057,1.44638 0.670277,1.23473 1.76389,1.44639 3.139723,0.635 l 1.164167,-0.70555 -0.9525,-0.98778 c -1.12889,-1.19944 -1.869723,-1.27 -2.963333,-0.38805 z"
       style="stroke-width:0.0352777;fill:#81d4fa;fill-opacity:1" />
    <path
       id="path14979"
       d="m 45.183571,102.93641 c -0.846666,0.49389 -1.516946,1.12889 -1.516946,1.37583 0,0.24695 0.740834,0.98778 1.62278,1.69333 1.23472,0.98778 1.799166,1.19945 2.36361,0.98778 0.423333,-0.14111 1.693333,-0.56444 2.822223,-0.91722 1.128887,-0.35278 1.975554,-0.77611 1.905,-0.98778 -0.141113,-0.49389 -4.515556,-3.06916 -5.150556,-3.06916 -0.3175,0.0353 -1.234723,0.42333 -2.046111,0.91722 z"
       style="stroke-width:0.0352777;fill:#81d4fa;fill-opacity:1" />
    <path
       id="path14983"
       d="m -3.6055954,103.25391 c 0,0.28222 0.17639,0.52916 0.352777,0.52916 0.211666,0 0.352779,-0.24694 0.352779,-0.52916 0,-0.28222 -0.141113,-0.52917 -0.352779,-0.52917 -0.176387,0 -0.352777,0.24695 -0.352777,0.52917 z"
       style="stroke-width:0.0352777;fill:#81d4fa;fill-opacity:1" />
    <path
       id="path14985"
       d="m 34.494405,103.21863 c 0,0.28222 0.14111,0.59972 0.3175,0.70556 0.352777,0.24694 0.811387,-0.67028 0.493887,-0.98778 -0.388054,-0.38806 -0.811387,-0.21167 -0.811387,0.28222 z"
       style="stroke-width:0.0352777;fill:#81d4fa;fill-opacity:1" />
    <path
       id="path14987"
       d="m -31.369188,105.89974 c 0.141111,1.5875 0.3175,2.99861 0.423333,3.21028 0.246945,0.35278 4.268611,-1.62278 5.820833,-2.8575 0.740834,-0.59972 0.811389,-0.74083 0.352778,-1.05833 -0.564444,-0.35278 -4.1275,-1.55223 -5.785555,-1.94028 l -1.023056,-0.21167 z"
       style="stroke-width:0.0352777;fill:#81d4fa;fill-opacity:1" />
    <path
       id="path14989"
       d="m 59.118292,104.20641 c -1.72861,0.59972 -3.104444,1.19944 -3.104444,1.34055 0,0.24695 5.08,3.28084 6.067777,3.63361 0.599723,0.21167 0.740834,-0.21166 1.199444,-4.09222 0.282223,-2.43416 0.246946,-2.43416 -4.162777,-0.88194 z"
       style="stroke-width:0.0352777;fill:#81d4fa;fill-opacity:1" />
    <path
       id="path14991"
       d="m -4.8403184,105.22946 c -0.176387,0.49389 -0.07055,0.88195 0.211666,1.05834 0.81139,0.52916 1.058334,0.35277 0.9525,-0.635 -0.14111,-1.16417 -0.846666,-1.44639 -1.164166,-0.42334 z"
       style="stroke-width:0.0352777;fill:#81d4fa;fill-opacity:1" />
    <path
       id="path14993"
       d="m 35.588015,104.94724 c -0.388056,0.52917 -0.211667,1.65806 0.3175,1.65806 0.14111,0 0.45861,-0.24695 0.705556,-0.56445 0.388054,-0.42333 0.388054,-0.635 -0.07056,-1.05833 -0.45861,-0.45861 -0.564444,-0.45861 -0.9525,-0.0353 z"
       style="stroke-width:0.0352777;fill:#81d4fa;fill-opacity:1" />
    <path
       id="path14995"
       d="m -12.24865,106.07613 c -0.776111,0.74083 -1.199445,1.37583 -1.023056,1.55222 0.423333,0.38806 2.575278,1.09361 3.3513886,1.09361 0.529167,0 2.363611,-2.32833 2.046111,-2.61055 -0.3175,-0.28222 -2.4341666,-1.27 -2.7163886,-1.27 -0.141111,0 -0.881944,0.56444 -1.658055,1.23472 z"
       style="stroke-width:0.0352777;fill:#81d4fa;fill-opacity:1" />
    <path
       id="path14997"
       d="m 40.597459,105.68807 -0.9525,0.84667 0.9525,1.23472 0.9525,1.27 1.516946,-0.52916 c 0.811387,-0.28223 1.693333,-0.59973 1.975554,-0.70556 0.670279,-0.21167 -1.940277,-2.96333 -2.822221,-2.96333 -0.352779,0 -1.058333,0.38805 -1.622779,0.84666 z"
       style="stroke-width:0.0352777;fill:#81d4fa;fill-opacity:1" />
    <path
       id="path14999"
       d="m -26.218633,107.94585 c -1.869722,1.09361 -3.668889,2.2225 -3.986389,2.50472 -1.093611,0.91723 0.07056,1.37584 4.797778,1.83445 l 4.515556,0.42333 2.328333,-2.08139 c 1.305278,-1.12889 2.363594,-2.25778 2.398871,-2.43416 0.03528,-0.38806 -4.868315,-2.25778 -5.961927,-2.25778 -0.388055,0 -2.2225,0.91722 -4.092222,2.01083 z"
       style="stroke-width:0.0352777;fill:#81d4fa;fill-opacity:1" />
    <path
       id="path15001"
       d="m 50.898571,106.81696 c -1.340556,0.45861 -2.575279,0.98778 -2.751666,1.16417 -0.17639,0.17639 0.45861,1.02305 1.516943,2.01083 3.104444,2.89278 2.681111,2.78695 7.725834,2.29306 4.58611,-0.45861 5.644443,-0.81139 4.938887,-1.65806 -0.564444,-0.67028 -7.866944,-4.72722 -8.466664,-4.69194 -0.282223,0 -1.5875,0.38805 -2.963334,0.88194 z"
       style="stroke-width:0.0352777;fill:#81d4fa;fill-opacity:1" />
    <path
       id="path15003"
       d="m -2.6883724,106.85224 c -0.388057,0.38806 -0.211667,0.81139 0.3175,0.81139 0.28222,0 0.529167,-0.14111 0.529167,-0.3175 0,-0.45861 -0.564447,-0.77611 -0.846667,-0.49389 z"
       style="stroke-width:0.0352777;fill:#81d4fa;fill-opacity:1" />
    <path
       id="path15005"
       d="m 33.788848,107.16974 c 0,0.3175 0.17639,0.49389 0.423334,0.42333 0.635,-0.21166 0.740833,-0.98777 0.14111,-0.98777 -0.3175,0 -0.564444,0.24694 -0.564444,0.56444 z"
       style="stroke-width:0.0352777;fill:#81d4fa;fill-opacity:1" />
    <path
       id="path15007"
       d="m -7.8036514,107.98113 c -0.811388,1.09361 -0.599722,1.48167 0.9525,1.97555 0.987778,0.28223 2.539999,-0.635 2.539999,-1.51694 0,-1.72861 -2.36361,-2.04611 -3.492499,-0.45861 z"
       style="stroke-width:0.0352777;fill:#81d4fa;fill-opacity:1" />
    <path
       id="path15009"
       d="m 36.505238,107.20502 c -0.529167,0.49389 -0.211667,1.86972 0.564444,2.36361 0.881943,0.56444 2.68111,0.38805 2.963333,-0.35278 0.07056,-0.24694 -0.105833,-0.84667 -0.423333,-1.34055 -0.458611,-0.67028 -0.917223,-0.91723 -1.728611,-0.91723 -0.635,0 -1.27,0.10584 -1.375833,0.24695 z"
       style="stroke-width:0.0352777;fill:#81d4fa;fill-opacity:1" />
    <path
       id="path15011"
       d="m -17.011133,110.38002 c -1.340555,1.23472 -2.010833,2.11666 -1.834444,2.29305 0.211667,0.21167 1.622778,0.42334 3.139704,0.52917 l 2.822223,0.21167 1.305277,-1.69334 c 0.705556,-0.9525 1.164167,-1.83444 1.023056,-1.94027 -0.282222,-0.28223 -3.563056,-1.41112 -4.021667,-1.41112 -0.141111,0 -1.234722,0.88195 -2.434149,2.01084 z"
       style="stroke-width:0.0352777;fill:#81d4fa;fill-opacity:1" />
    <path
       id="path15013"
       d="m 44.301625,108.93363 c -0.91722,0.28222 -1.763887,0.67028 -1.86972,0.84667 -0.141113,0.21166 0.352777,1.16416 1.09361,2.15194 1.09361,1.51694 1.41111,1.72861 2.2225,1.5875 0.49389,-0.10583 1.905,-0.28222 3.139723,-0.38806 1.199444,-0.14111 2.187221,-0.38805 2.187221,-0.52916 0,-0.38806 -4.409721,-4.23334 -4.797777,-4.19806 -0.17639,0 -1.058334,0.24695 -1.975557,0.52917 z"
       style="stroke-width:0.0352777;fill:#81d4fa;fill-opacity:1" />
    <path
       id="path15015"
       d="m -3.7114294,109.39224 c -0.14111,0.635 0.352777,1.09361 1.199444,1.09361 0.564446,0 0.35278,-1.34055 -0.246944,-1.55222 -0.740833,-0.28222 -0.740833,-0.28222 -0.9525,0.45861 z"
       style="stroke-width:0.0352777;fill:#81d4fa;fill-opacity:1" />
    <path
       id="path15017"
       d="m 34.141625,109.25113 c -0.352777,0.38805 -0.352777,0.67028 -0.07055,0.9525 0.529167,0.52917 1.552221,0.0705 1.411111,-0.67028 -0.141111,-0.81139 -0.776111,-0.9525 -1.340557,-0.28222 z"
       style="stroke-width:0.0352777;fill:#81d4fa;fill-opacity:1" />
    <path
       id="path15019"
       d="m -10.590595,111.75585 c -0.670278,0.88195 -1.093611,1.69333 -0.987778,1.79917 0.105834,0.14111 1.058334,0.28222 2.1166666,0.38805 1.834444,0.14111 1.940278,0.10584 2.469444,-0.91722 0.846667,-1.65805 0.705556,-2.11667 -0.740833,-2.50472 -0.740833,-0.21167 -1.411111,-0.38806 -1.516944,-0.38806 -0.105834,0.0353 -0.705556,0.74084 -1.3405556,1.62278 z"
       style="stroke-width:0.0352777;fill:#81d4fa;fill-opacity:1" />
    <path
       id="path15021"
       d="m -1.1361524,110.59168 c 0,0.67028 0.56444698,1.09362 0.84666698,0.635 0.105833,-0.17638 -0.03528,-0.49388 -0.3175,-0.74083 -0.42333298,-0.35278 -0.52916698,-0.35278 -0.52916698,0.10583 z"
       style="stroke-width:0.0352777;fill:#81d4fa;fill-opacity:1" />
    <path
       id="path15023"
       d="m 32.271905,110.62696 c -0.105834,0.28222 -0.07056,0.635 0.105833,0.74084 0.45861,0.28222 0.846667,-0.52917 0.423333,-0.9525 -0.211666,-0.21167 -0.388056,-0.14112 -0.529166,0.21166 z"
       style="stroke-width:0.0352777;fill:#81d4fa;fill-opacity:1" />
    <path
       id="path15025"
       d="m 39.186348,110.66224 c -1.375833,0.56444 -1.340556,0.49389 -0.564443,2.15194 0.635,1.27 0.635,1.27 2.469443,1.12889 1.023057,-0.10583 1.975557,-0.28222 2.116667,-0.38805 0.3175,-0.35278 -1.72861,-3.21028 -2.36361,-3.31611 -0.282223,-0.0353 -1.058334,0.14111 -1.658057,0.42333 z"
       style="stroke-width:0.0352777;fill:#81d4fa;fill-opacity:1" />
    <path
       id="path15027"
       d="m -5.0519854,111.61474 c -0.670277,0.56444 -1.41111,2.25778 -1.128888,2.54 0.388056,0.38806 2.822221,0.21167 3.175001,-0.24694 0.670277,-0.84667 0.77611,-1.65806 0.246943,-2.18723 -0.670276,-0.635 -1.5875,-0.67027 -2.293056,-0.10583 z"
       style="stroke-width:0.0352777;fill:#81d4fa;fill-opacity:1" />
    <path
       id="path15029"
       d="m 34.564959,111.61474 c -1.128888,1.12889 0.141112,2.75167 2.151946,2.75167 0.9525,0 1.305277,-0.14111 1.305277,-0.56445 0,-0.67028 -0.670277,-1.97555 -1.199444,-2.32833 -0.599723,-0.42333 -1.799167,-0.3175 -2.257779,0.14111 z"
       style="stroke-width:0.0352777;fill:#81d4fa;fill-opacity:1" />
    <path
       id="path15031"
       d="m -1.4889294,113.13168 c 0,0.49389 0.07056,0.88195 0.141111,0.88195 0.07056,0 0.38805598,0.10583 0.70555598,0.21167 0.846667,0.3175 0.705557,-1.16417 -0.14111,-1.62278 -0.63499998,-0.3175 -0.70555698,-0.28222 -0.70555698,0.52916 z"
       style="stroke-width:0.0352777;fill:#81d4fa;fill-opacity:1" />
    <path
       id="path15033"
       d="m 32.271905,112.88474 c -0.67028,0.74083 -0.282223,1.62278 0.564443,1.27 0.635,-0.21167 0.81139,-1.37583 0.282223,-1.69333 -0.141112,-0.10584 -0.529166,0.0706 -0.846666,0.42333 z"
       style="stroke-width:0.0352777;fill:#81d4fa;fill-opacity:1" />
    <path
       id="path15035"
       d="m -29.852244,112.92002 c -0.141111,0.21166 0.141111,1.65805 0.670278,3.21028 0.811389,2.39888 1.023056,2.75166 1.516944,2.50472 1.058334,-0.56445 5.362222,-4.69195 5.185834,-4.97417 -0.07056,-0.14111 -1.164167,-0.35278 -2.363611,-0.49389 -1.234723,-0.14111 -2.786945,-0.35278 -3.4925,-0.45861 -0.776112,-0.10583 -1.375834,-0.0353 -1.516945,0.21167 z"
       style="stroke-width:0.0352777;fill:#81d4fa;fill-opacity:1" />
    <path
       id="path15037"
       d="m 57.424959,113.02585 c -1.658054,0.17639 -3.069167,0.42333 -3.139721,0.49389 -0.211667,0.21167 2.539997,3.03389 4.26861,4.445 l 1.340554,1.05833 0.705557,-1.69333 c 0.423333,-0.91722 0.846666,-2.36361 0.9525,-3.21028 0.246943,-1.72861 0.635,-1.62278 -4.1275,-1.09361 z"
       style="stroke-width:0.0352777;fill:#81d4fa;fill-opacity:1" />
    <path
       id="path15039"
       d="m -24.066688,116.69474 c -4.797778,4.33917 -4.727222,4.62139 0.987777,4.05694 5.609167,-0.59972 5.326945,-0.45861 7.443594,-3.42194 1.023056,-1.44639 1.799167,-2.71639 1.728611,-2.78694 -0.176389,-0.21167 -4.974149,-0.84667 -6.103038,-0.84667 -0.388055,0 -2.2225,1.34055 -4.056944,2.99861 z"
       style="stroke-width:0.0352777;fill:#81d4fa;fill-opacity:1" />
    <path
       id="path15041"
       d="m 1.1569046,114.01363 c -0.28222302,0.45861 0.529166,0.84667 0.9525,0.42333 0.211666,-0.21166 0.14111,-0.38805 -0.211667,-0.52916 -0.282223,-0.10584 -0.635,-0.0706 -0.740833,0.10583 z"
       style="stroke-width:0.0352777;fill:#81d4fa;fill-opacity:1" />
    <path
       id="path15043"
       d="m 29.802459,113.87252 c -0.282221,0.28222 0.03528,0.84666 0.493889,0.84666 0.17639,0 0.3175,-0.24694 0.3175,-0.52916 0,-0.52917 -0.423333,-0.70556 -0.811389,-0.3175 z"
       style="stroke-width:0.0352777;fill:#81d4fa;fill-opacity:1" />
    <path
       id="path15045"
       d="m 49.663848,113.87252 c -0.282223,0.0353 -1.27,0.21166 -2.187223,0.3175 -0.9525,0.10583 -1.693333,0.35278 -1.693333,0.49389 0,0.17639 0.846667,1.48166 1.905,2.92805 l 1.940279,2.61056 4.621388,0.45861 c 6.49111,0.59972 6.561666,0.45861 1.905,-3.70417 -3.739444,-3.38666 -4.198054,-3.59833 -6.491111,-3.10444 z"
       style="stroke-width:0.0352777;fill:#81d4fa;fill-opacity:1" />
    <path
       id="path15047"
       d="m -14.224206,116.80057 c -0.9525,1.27 -1.728611,2.50473 -1.728611,2.75167 0,0.52917 4.303889,0.24694 5.644444,-0.38806 0.9877776,-0.45861 2.4694446,-3.56305 1.9049996,-4.05694 -0.176389,-0.17639 -1.164166,-0.38806 -2.2224996,-0.45861 l -1.869722,-0.17639 z"
       style="stroke-width:0.0352777;fill:#81d4fa;fill-opacity:1" />
    <path
       id="path15049"
       d="m 42.008571,114.68391 c -0.987779,0.14111 -1.905,0.3175 -1.975556,0.38805 -0.105833,0.10584 0.17639,1.05834 0.599723,2.11667 0.77611,1.86972 0.811387,1.94028 2.504721,2.2225 0.917223,0.14111 2.398889,0.24694 3.245556,0.17639 l 1.552223,-0.10584 -1.799167,-2.57527 c -0.987779,-1.37584 -1.905,-2.50473 -2.046112,-2.50473 -0.141111,0.0353 -1.058334,0.17639 -2.081388,0.28223 z"
       style="stroke-width:0.0352777;fill:#81d4fa;fill-opacity:1" />
    <path
       id="path15051"
       d="m -7.0275394,115.4953 c -0.493889,0.635 -1.516945,3.35138 -1.340556,3.52777 0.352778,0.35278 3.774723,-0.35277 4.092223,-0.81139 0.176387,-0.28222 0.3175,-0.98777 0.3175,-1.5875 0,-0.84666 -0.17639,-1.16416 -0.776113,-1.34055 -1.234721,-0.3175 -1.940277,-0.24695 -2.293054,0.21167 z"
       style="stroke-width:0.0352777;fill:#81d4fa;fill-opacity:1" />
    <path
       id="path15053"
       d="m -2.3355954,115.74224 c -0.3175,0.35278 -0.635,1.09361 -0.670277,1.65806 -0.07056,0.9525 0,1.02305 1.128887,0.91722 1.55222298,-0.10584 2.15194598,-0.635 2.15194598,-1.83445 0,-1.48166 -1.55222298,-1.905 -2.61055598,-0.74083 z"
       style="stroke-width:0.0352777;fill:#81d4fa;fill-opacity:1" />
    <path
       id="path15055"
       d="m 31.742738,115.4953 c -1.093613,1.09361 0,2.71638 1.905,2.8575 1.340554,0.0705 1.375833,0.0353 1.27,-0.98778 -0.17639,-1.76389 -2.116667,-2.92806 -3.175,-1.86972 z"
       style="stroke-width:0.0352777;fill:#81d4fa;fill-opacity:1" />
    <path
       id="path15057"
       d="m 36.117182,115.53057 c -0.49389,0.35278 -0.599723,0.70556 -0.388057,1.5875 0.282223,1.37584 1.058334,1.83445 3.139723,1.83445 h 1.622777 l -0.811387,-1.86972 c -0.705556,-1.55223 -0.987779,-1.83445 -1.869723,-1.94028 -0.564444,-0.0706 -1.305277,0.10583 -1.693333,0.38805 z"
       style="stroke-width:0.0352777;fill:#81d4fa;fill-opacity:1" />
    <path
       id="path15059"
       d="m 1.3332946,116.48307 c 0,0.49389 0.246943,0.70556 0.846666,0.70556 0.670277,0 0.811387,-0.14111 0.670277,-0.70556 -0.105833,-0.38805 -0.49389,-0.70555 -0.846667,-0.70555 -0.423333,0 -0.670276,0.24694 -0.670276,0.70555 z"
       style="stroke-width:0.0352777;fill:#81d4fa;fill-opacity:1" />
    <path
       id="path15061"
       d="m 29.096905,116.02446 c -0.49389,0.45861 -0.211667,1.16417 0.45861,1.16417 0.45861,0 0.705556,-0.24695 0.705556,-0.70556 0,-0.67027 -0.705556,-0.9525 -1.164166,-0.45861 z"
       style="stroke-width:0.0352777;fill:#81d4fa;fill-opacity:1" />
    <path
       id="path15063"
       d="m 26.909682,116.48307 c -0.141111,0.21167 -0.105834,0.56445 0.105833,0.77611 0.211667,0.21167 0.423333,0.21167 0.599723,-0.0705 0.14111,-0.21166 0.105833,-0.56444 -0.105833,-0.77611 -0.211667,-0.21167 -0.423334,-0.21167 -0.599723,0.0706 z"
       style="stroke-width:0.0352777;fill:#81d4fa;fill-opacity:1" />
    <path
       id="path15065"
       d="m 4.1555146,116.83585 c 0,0.17639 0.246946,0.35278 0.564446,0.35278 0.282221,0 0.423334,-0.17639 0.3175,-0.35278 -0.105833,-0.21167 -0.352779,-0.35278 -0.564446,-0.35278 -0.176387,0 -0.3175,0.14111 -0.3175,0.35278 z"
       style="stroke-width:0.0352777;fill:#81d4fa;fill-opacity:1" />
    <path
       id="path15067"
       d="m 1.2274606,118.88196 c -0.63500002,0.70556 -0.81139002,2.71639 -0.28222302,3.03389 0.17639002,0.10583 0.81139002,0.0353 1.41111002,-0.17639 1.093613,-0.38805 1.62278,-1.37583 1.375834,-2.68111 -0.176387,-0.88194 -1.763887,-1.02305 -2.504721,-0.17639 z"
       style="stroke-width:0.0352777;fill:#81d4fa;fill-opacity:1" />
    <path
       id="path15069"
       d="m 5.0021816,118.77613 c -0.211667,0.52917 0.07056,1.23472 0.493889,1.23472 0.141111,0 0.458611,-0.14111 0.740834,-0.3175 0.423333,-0.28222 0.423333,-0.42333 0.07056,-0.88194 -0.599723,-0.70556 -1.058333,-0.70556 -1.305279,-0.0353 z"
       style="stroke-width:0.0352777;fill:#81d4fa;fill-opacity:1" />
    <path
       id="path15071"
       d="m 7.5069046,118.56446 c -0.246944,0.42334 0.423333,0.84667 0.881943,0.56445 0.388057,-0.24695 0.141113,-0.88195 -0.352777,-0.88195 -0.176389,0 -0.388056,0.14111 -0.529166,0.3175 z"
       style="stroke-width:0.0352777;fill:#81d4fa;fill-opacity:1" />
    <path
       id="path15073"
       d="m 23.452459,118.49391 c -0.423334,0.38805 -0.282221,0.81139 0.282223,0.81139 0.282223,0 0.529166,-0.24695 0.529166,-0.52917 0,-0.56445 -0.423333,-0.70556 -0.811389,-0.28222 z"
       style="stroke-width:0.0352777;fill:#81d4fa;fill-opacity:1" />
    <path
       id="path15075"
       d="m 25.428015,118.81141 c -0.105833,0.28222 -0.03528,0.70555 0.17639,0.91722 0.564443,0.56444 1.481666,0.0706 1.481666,-0.77611 0,-0.84667 -1.340556,-0.98778 -1.658056,-0.14111 z"
       style="stroke-width:0.0352777;fill:#81d4fa;fill-opacity:1" />
    <path
       id="path15077"
       d="m 28.144405,118.77613 c -0.740834,0.88194 -0.105834,2.29305 1.305277,2.8575 0.881943,0.38805 1.340556,0.42333 1.516943,0.17639 0.35278,-0.56445 0.141113,-2.46945 -0.352777,-3.03389 -0.564443,-0.67028 -1.905,-0.67028 -2.469443,0 z"
       style="stroke-width:0.0352777;fill:#81d4fa;fill-opacity:1" />
    <path
       id="path15079"
       d="m -3.1117054,119.55224 c -0.423334,0.28222 -1.199447,2.64583 -1.199447,3.59833 0,0.635 2.187223,0.3175 3.42194698,-0.49389 0.705553,-0.45861 0.846666,-0.81138 0.740833,-1.86972 -0.105833,-1.19944 -0.17639,-1.30528 -1.34055698,-1.41111 -0.670276,-0.0353 -1.41111,0.0353 -1.622776,0.17639 z"
       style="stroke-width:0.0352777;fill:#81d4fa;fill-opacity:1" />
    <path
       id="path15081"
       d="m 32.166071,119.76391 c -0.105833,0.28222 -0.141112,1.05833 -0.07056,1.69333 0.105833,1.02306 0.282223,1.19944 2.010833,1.76389 l 1.905,0.67028 -0.211666,-1.97556 c -0.105834,-1.09361 -0.282223,-2.04611 -0.388057,-2.15194 -0.07055,-0.10584 -0.811387,-0.24695 -1.5875,-0.35278 -1.09361,-0.14111 -1.481666,-0.0706 -1.658054,0.35278 z"
       style="stroke-width:0.0352777;fill:#81d4fa;fill-opacity:1" />
    <path
       id="path15083"
       d="m -7.8742064,119.90502 c -1.199444,0.14111 -1.375833,0.3175 -2.1872216,2.15194 -1.516945,3.38667 -1.693334,3.95111 -1.199445,3.95111 0.211667,0 1.6580556,-0.42333 3.1397216,-0.91722 l 2.716389,-0.88194 0.352777,-1.76389 c 0.67028,-3.03389 0.776113,-2.92806 -2.822221,-2.54 z"
       style="stroke-width:0.0352777;fill:#81d4fa;fill-opacity:1" />
    <path
       id="path15085"
       d="m 11.281628,120.08141 c 0.176387,0.52916 0.987777,0.635 1.023054,0.10583 0,-0.21167 -0.246944,-0.42333 -0.599721,-0.45861 -0.352779,-0.10583 -0.529166,0.0353 -0.423333,0.35278 z"
       style="stroke-width:0.0352777;fill:#81d4fa;fill-opacity:1" />
    <path
       id="path15087"
       d="m 19.395515,120.04613 c 0.07056,0.21167 0.282223,0.35278 0.458613,0.35278 0.176387,0 0.388054,-0.14111 0.45861,-0.35278 0.07056,-0.21167 -0.14111,-0.38806 -0.45861,-0.38806 -0.3175,0 -0.529167,0.17639 -0.458613,0.38806 z"
       style="stroke-width:0.0352777;fill:#81d4fa;fill-opacity:1" />
    <path
       id="path15089"
       d="m 36.716905,121.35141 c 0.3175,2.71639 0.59972,3.03389 3.63361,3.91583 1.481667,0.42333 2.786944,0.70556 2.892777,0.59972 0.211667,-0.21166 -1.516944,-4.445 -2.151944,-5.25639 -0.246943,-0.3175 -1.305277,-0.67027 -2.504723,-0.81139 l -2.081387,-0.24694 z"
       style="stroke-width:0.0352777;fill:#81d4fa;fill-opacity:1" />
    <path
       id="path15091"
       d="m 8.8827376,120.54002 c -0.211667,0.52916 0.07056,1.23472 0.49389,1.23472 0.14111,0 0.45861,-0.14111 0.7408334,-0.3175 0.423334,-0.28222 0.423334,-0.42333 0.07055,-0.88194 -0.5997204,-0.70556 -1.0583334,-0.70556 -1.3052774,-0.0353 z"
       style="stroke-width:0.0352777;fill:#81d4fa;fill-opacity:1" />
    <path
       id="path15093"
       d="m 15.303295,120.32835 c -0.105834,0.17639 0.03528,0.38806 0.3175,0.52917 0.529166,0.21166 1.023053,-0.24695 0.635,-0.635 -0.3175,-0.3175 -0.740834,-0.28222 -0.9525,0.10583 z"
       style="stroke-width:0.0352777;fill:#81d4fa;fill-opacity:1" />
    <path
       id="path15095"
       d="m 21.476905,120.50474 c -0.352777,0.42333 -0.282223,0.59972 0.352777,0.91722 0.599723,0.35278 0.811389,0.3175 1.058333,-0.0353 0.670277,-1.05833 -0.599723,-1.86972 -1.41111,-0.88194 z"
       style="stroke-width:0.0352777;fill:#81d4fa;fill-opacity:1" />
    <path
       id="path15097"
       d="m -14.718095,120.61057 c -2.363593,0.28223 -2.645815,0.49389 -5.256371,4.1275 -2.716389,3.70417 -3.210278,4.83306 -2.046111,4.7625 0.3175,0 2.434167,-0.59972 4.656667,-1.30527 l 4.056926,-1.30528 1.305278,-2.64584 c 1.763889,-3.52777 1.763889,-3.88055 -0.141111,-3.84527 -0.846667,0.0353 -1.975556,0.14111 -2.575278,0.21166 z"
       style="stroke-width:0.0352777;fill:#81d4fa;fill-opacity:1" />
    <path
       id="path15099"
       d="m 42.467182,121.13974 c 0.529166,1.65806 2.187223,5.08 2.645833,5.43278 0.282223,0.21166 2.36361,1.02305 4.62139,1.76389 5.291666,1.72861 5.67972,1.51694 3.351387,-1.86973 -0.917221,-1.34055 -2.257777,-3.06916 -2.963333,-3.91583 -1.199444,-1.34055 -1.5875,-1.55222 -3.457221,-1.83444 -1.164167,-0.21167 -2.645833,-0.35278 -3.280833,-0.35278 -1.058334,0 -1.164167,0.0705 -0.917223,0.77611 z"
       style="stroke-width:0.0352777;fill:#81d4fa;fill-opacity:1" />
    <path
       id="path15101"
       d="m 5.4255146,121.38668 c -0.45861,0.49389 -0.564444,0.98778 -0.388054,1.94028 0.282221,1.44639 0.529167,1.51695 1.975554,0.67028 1.023056,-0.59972 1.27,-1.51694 0.81139,-2.71639 -0.282223,-0.77611 -1.658057,-0.70555 -2.39889,0.10583 z"
       style="stroke-width:0.0352777;fill:#81d4fa;fill-opacity:1" />
    <path
       id="path15103"
       d="m 23.946348,121.35141 c -0.529166,0.98777 -0.07056,2.15194 1.058334,2.71639 1.41111,0.74083 1.622777,0.67027 1.834443,-0.77612 0.17639,-0.9525 0.07056,-1.48166 -0.352777,-1.94027 -0.740833,-0.81139 -2.116666,-0.81139 -2.54,0 z"
       style="stroke-width:0.0352777;fill:#81d4fa;fill-opacity:1" />
    <path
       id="path15105"
       d="m -23.078911,121.56307 c -1.869722,0.21167 -3.492499,0.45861 -3.563055,0.56445 -0.105833,0.10583 0.529167,1.41111 1.411111,2.92805 1.834444,3.175 1.728611,3.21028 4.374445,-0.59972 1.5875,-2.25778 2.116666,-3.45722 1.481666,-3.35139 -0.176389,0.0353 -1.834444,0.21167 -3.704167,0.45861 z"
       style="stroke-width:0.0352777;fill:#81d4fa;fill-opacity:1" />
    <path
       id="path15107"
       d="m 12.833848,121.35141 c -0.3175,0.49389 0.740834,1.23472 1.411113,0.98777 0.282221,-0.10583 0.493887,-0.42333 0.423334,-0.67027 -0.211667,-0.52917 -1.552224,-0.77611 -1.834447,-0.3175 z"
       style="stroke-width:0.0352777;fill:#81d4fa;fill-opacity:1" />
    <path
       id="path15109"
       d="m 17.384682,121.42196 c -0.141111,0.24695 -0.105834,0.56445 0.105833,0.77611 0.49389,0.49389 1.5875,0.0706 1.411113,-0.52916 -0.211667,-0.56445 -1.199446,-0.74084 -1.516946,-0.24695 z"
       style="stroke-width:0.0352777;fill:#81d4fa;fill-opacity:1" />
    <path
       id="path15111"
       d="m 51.110238,122.1628 c 0.599721,1.19944 3.915833,5.60916 4.162777,5.60916 0.282223,0 3.210277,-5.08 3.210277,-5.53861 0,-0.38805 -3.210277,-0.81139 -6.067777,-0.81139 -1.622777,0 -1.693333,0.0353 -1.305277,0.74084 z"
       style="stroke-width:0.0352777;fill:#81d4fa;fill-opacity:1" />
    <path
       id="path15113"
       d="m 9.9410706,123.00946 c -0.493889,0.74084 -0.493889,1.05834 -0.14111,1.94028 0.5997214,1.44639 0.8113874,1.51694 1.9050004,0.67028 0.599721,-0.45861 0.917221,-1.05834 0.917221,-1.69334 0,-1.86972 -1.693334,-2.43416 -2.6811114,-0.91722 z"
       style="stroke-width:0.0352777;fill:#81d4fa;fill-opacity:1" />
    <path
       id="path15115"
       d="m 19.536628,122.65668 c -0.423333,1.12889 -0.211667,2.18723 0.635,2.96334 0.987777,0.9525 1.41111,0.81139 1.904997,-0.635 0.246946,-0.70556 0.246946,-1.23472 -0.07055,-1.83445 -0.493893,-1.02305 -2.11667,-1.34055 -2.469447,-0.49389 z"
       style="stroke-width:0.0352777;fill:#81d4fa;fill-opacity:1" />
    <path
       id="path15117"
       d="m 1.4391276,122.90363 c -0.70555702,0.3175 -0.81139002,0.67028 -0.81139002,2.2225 0,0.98778 0.105833,1.94028 0.211667,2.04611 0.14111,0.14111 1.02305602,-0.17639 1.97555602,-0.70556 1.693334,-0.91722 1.72861,-0.98777 1.516944,-2.18722 -0.14111,-0.70555 -0.3175,-1.37583 -0.388057,-1.51694 -0.246943,-0.38806 -1.5875,-0.3175 -2.50472,0.14111 z"
       style="stroke-width:0.0352777;fill:#81d4fa;fill-opacity:1" />
    <path
       id="path15119"
       d="m 14.950515,123.04474 c -0.705554,0.70556 -0.705554,1.86972 0,2.89278 0.67028,0.98778 1.093613,0.98778 1.94028,-0.0353 0.811387,-0.9525 0.846666,-1.62278 0.105833,-2.64584 -0.635,-0.91722 -1.30528,-0.98777 -2.046113,-0.21166 z"
       style="stroke-width:0.0352777;fill:#81d4fa;fill-opacity:1" />
    <path
       id="path15121"
       d="m 27.650515,123.25641 c -0.49389,1.86972 -0.282223,2.36361 1.552223,3.28083 l 1.763887,0.88194 0.211667,-0.81138 c 0.388056,-1.5875 -0.03528,-3.21028 -0.9525,-3.66889 -1.340554,-0.70556 -2.328333,-0.56445 -2.575277,0.3175 z"
       style="stroke-width:0.0352777;fill:#81d4fa;fill-opacity:1" />
    <path
       id="path15123"
       d="m 32.236625,123.78557 c -0.105833,0.14111 -0.211666,1.12889 -0.211666,2.25778 v 2.01083 l 1.693333,1.05834 c 2.116667,1.37583 3.527779,2.01083 3.81,1.72861 0.246946,-0.24695 -0.77611,-5.53861 -1.164167,-5.92667 -0.423333,-0.38805 -3.915833,-1.34055 -4.1275,-1.12889 z"
       style="stroke-width:0.0352777;fill:#81d4fa;fill-opacity:1" />
    <path
       id="path15125"
       d="m -3.2528184,124.3853 c -0.9525,0.35277 -1.340554,0.74083 -1.693334,1.83444 -0.564443,1.65806 -0.987776,4.72722 -0.634999,4.72722 0.493889,0 3.951112,-1.86972 4.72722198,-2.57528 0.599724,-0.56444 0.776111,-1.09361 0.776111,-2.61055 0,-1.79917 -0.03528,-1.86972 -0.95249998,-1.83445 -0.564444,0 -1.552221,0.21167 -2.2225,0.45862 z"
       style="stroke-width:0.0352777;fill:#81d4fa;fill-opacity:1" />
    <path
       id="path15127"
       d="m 6.9777376,125.0203 c -0.670277,0.42333 -1.27,0.77611 -1.340556,0.81138 -0.211667,0.14112 0.705556,3.70417 1.023056,3.88056 0.17639,0.10583 0.9525,-0.38806 1.76389,-1.16417 l 1.446387,-1.34055 -0.740833,-1.48167 c -0.423334,-0.81139 -0.776111,-1.48167 -0.846667,-1.48167 -0.03528,0 -0.635,0.35278 -1.305277,0.77612 z"
       style="stroke-width:0.0352777;fill:#81d4fa;fill-opacity:1" />
    <path
       id="path15129"
       d="m 22.605792,125.83168 -0.599721,1.23473 1.375834,1.41111 c 0.77611,0.77611 1.481666,1.41111 1.622777,1.41111 0.352777,0 1.023056,-2.08139 1.023056,-3.175 0,-0.635 -0.282223,-1.16417 -0.881946,-1.55222 -1.305277,-0.84667 -1.905,-0.70556 -2.54,0.67027 z"
       style="stroke-width:0.0352777;fill:#81d4fa;fill-opacity:1" />
    <path
       id="path15131"
       d="m -9.0736504,126.25502 c -1.5522226,0.45861 -2.9986116,1.05833 -3.2455556,1.27 -0.846667,0.84666 -4.056944,8.78416 -3.668889,9.17222 0.423334,0.42333 7.9727776,-3.73944 8.6783326,-4.83306 0.246945,-0.38805 0.635,-1.69333 0.846667,-2.8575 0.246944,-1.16416 0.493889,-2.46944 0.599722,-2.92805 0.176389,-0.91722 0.3175,-0.9525 -3.210277,0.17639 z"
       style="stroke-width:0.0352777;fill:#81d4fa;fill-opacity:1" />
    <path
       id="path15133"
       d="m 37.704682,125.93752 c 0,0.3175 0.282223,1.86972 0.599723,3.38666 l 0.59972,2.82223 4.056946,2.36361 c 2.2225,1.34055 4.198054,2.39889 4.339167,2.43416 0.846667,0.0353 0.493887,-1.55222 -1.164167,-5.29166 l -1.869723,-4.19806 -2.8575,-0.91722 c -1.552223,-0.52917 -3.069166,-0.98778 -3.280833,-1.05833 -0.246944,-0.10584 -0.45861,0.10583 -0.423333,0.45861 z"
       style="stroke-width:0.0352777;fill:#81d4fa;fill-opacity:1" />
    <path
       id="path15135"
       d="m 11.916628,126.53724 c -0.740833,0.77611 -0.776113,0.98778 -0.423333,2.2225 0.211666,0.70556 0.635,1.62278 0.881943,1.97556 0.45861,0.59972 0.564444,0.56444 1.5875,-0.88195 1.340557,-1.79917 1.375833,-2.04611 0.388057,-3.28083 -0.917224,-1.12889 -1.375834,-1.16417 -2.434167,-0.0353 z"
       style="stroke-width:0.0352777;fill:#81d4fa;fill-opacity:1" />
    <path
       id="path15137"
       d="m 17.243571,126.78418 c -0.670276,1.09362 -0.670276,1.23473 -0.14111,2.04612 0.3175,0.49388 0.881944,1.23472 1.27,1.69333 l 0.740834,0.81139 0.811387,-1.51695 c 1.023056,-1.97555 0.987779,-2.54 -0.105834,-3.42194 -1.27,-0.98778 -1.72861,-0.91722 -2.575277,0.38805 z"
       style="stroke-width:0.0352777;fill:#81d4fa;fill-opacity:1" />
    <path
       id="path15139"
       d="m 2.3210706,127.70141 -1.69333302,0.9525 v 2.89277 c 0,1.5875 0.17639,2.99862 0.352777,3.10445 0.52916702,0.3175 4.58611302,-3.35139 4.58611302,-4.1275 0,-1.27 -0.776113,-3.81 -1.199446,-3.81 -0.211667,0 -1.128887,0.45861 -2.046111,0.98778 z"
       style="stroke-width:0.0352777;fill:#81d4fa;fill-opacity:1" />
    <path
       id="path15141"
       d="m 26.909682,127.13696 c -0.105834,0.24695 -0.3175,1.23472 -0.49389,2.15195 l -0.3175,1.69333 2.328333,2.08139 c 1.27,1.12889 2.434167,2.01083 2.54,1.94028 0.3175,-0.21167 0.458613,-4.445 0.141113,-5.57389 -0.141113,-0.59972 -0.776113,-1.27 -1.728613,-1.83445 -1.72861,-0.98777 -2.2225,-1.09361 -2.469443,-0.45861 z"
       style="stroke-width:0.0352777;fill:#81d4fa;fill-opacity:1" />
    <path
       id="path15143"
       d="m -17.928355,129.1478 c -1.552222,0.52916 -3.033889,1.09361 -3.245555,1.23472 -0.282223,0.17639 0.282222,1.05833 1.763889,2.71639 1.199444,1.34055 2.328333,2.29305 2.469444,2.15194 0.246944,-0.24694 3.104427,-6.63222 3.104427,-6.985 0,-0.3175 -1.375834,-0.0353 -4.092205,0.88195 z"
       style="stroke-width:0.0352777;fill:#81d4fa;fill-opacity:1" />
    <path
       id="path15145"
       d="m 20.630238,130.31196 -0.9525,2.15195 1.693333,2.29305 c 0.917221,1.27 1.799167,2.29306 1.975554,2.32834 0.423334,0.0353 1.12889,-2.04612 1.44639,-4.23334 l 0.211667,-1.79916 -1.728611,-1.44639 -1.728612,-1.44639 z"
       style="stroke-width:0.0352777;fill:#81d4fa;fill-opacity:1" />
    <path
       id="path15147"
       d="m 45.783292,128.5128 c 0,0.59972 2.892779,6.6675 3.175,6.6675 0.352779,0 3.35139,-3.24556 3.845279,-4.16278 0.388054,-0.70556 0.246944,-0.77611 -2.963333,-1.83445 -3.704167,-1.16416 -4.056946,-1.23472 -4.056946,-0.67027 z"
       style="stroke-width:0.0352777;fill:#81d4fa;fill-opacity:1" />
    <path
       id="path15149"
       d="m 8.1771816,129.95918 c -1.411111,1.48167 -1.446387,1.55223 -1.128887,3.10445 0.564443,2.82222 1.023053,4.23333 1.27,4.23333 0.388053,0 3.5983334,-4.40972 3.5983334,-4.93889 0,-0.81139 -1.516946,-3.88055 -1.905,-3.88055 -0.2469464,0 -1.0583334,0.67028 -1.8344464,1.48166 z"
       style="stroke-width:0.0352777;fill:#81d4fa;fill-opacity:1" />
    <path
       id="path15151"
       d="m 14.386071,130.77057 -1.09361,1.62278 0.529167,1.65806 c 0.635,1.83444 1.799167,3.95111 2.2225,3.95111 0.176387,0 0.811387,-1.19945 1.41111,-2.68111 0.9525,-2.18723 1.09361,-2.78695 0.77611,-3.42195 -0.493887,-0.9525 -2.116666,-2.71639 -2.469443,-2.71639 -0.17639,0 -0.77611,0.70556 -1.375834,1.5875 z"
       style="stroke-width:0.0352777;fill:#81d4fa;fill-opacity:1" />
    <path
       id="path15153"
       d="m -3.4997624,131.01752 c -1.658056,0.9525 -2.645833,1.79916 -2.892777,2.36361 -0.423334,1.16417 -1.799167,7.58472 -1.799167,8.50194 0,1.27 0.9525,0.74084 4.550834,-2.50472 l 3.56305398,-3.175 v -3.35139 c 0,-2.43416 -0.105834,-3.31611 -0.423334,-3.31611 -0.246943,0 -1.58749998,0.67028 -2.99860998,1.48167 z"
       style="stroke-width:0.0352777;fill:#81d4fa;fill-opacity:1" />
    <path
       id="path15155"
       d="m 32.024959,132.81668 c 0,2.11667 0.141112,3.4925 0.458612,3.81 0.9525,1.16417 6.526388,5.96195 6.914444,5.96195 0.211667,0 0.49389,-0.21167 0.564444,-0.45861 0.176389,-0.42334 -1.693334,-9.31334 -1.975554,-9.525 -0.564446,-0.45861 -5.3975,-3.06917 -5.644446,-3.06917 -0.176388,0 -0.3175,1.48167 -0.3175,3.28083 z"
       style="stroke-width:0.0352777;fill:#81d4fa;fill-opacity:1" />
    <path
       id="path15157"
       d="m 2.9913476,134.58057 -2.36361002,2.18723 v 4.30388 c 0,6.73806 0.3175,6.87917 4.02166702,1.65806 2.575277,-3.59833 2.68111,-3.81 2.434166,-5.22111 -0.45861,-2.89278 -0.987776,-4.90361 -1.340556,-5.04472 -0.211667,-0.0706 -1.446387,0.88194 -2.751667,2.11666 z"
       style="stroke-width:0.0352777;fill:#81d4fa;fill-opacity:1" />
    <path
       id="path15159"
       d="m 25.216348,135.00391 c -0.352777,1.48166 -0.599723,3.03389 -0.599723,3.45722 0,0.74083 4.727223,7.62 5.609167,8.14916 0.740833,0.45862 1.093613,-1.27 1.093613,-5.32694 0,-2.82222 -0.141113,-4.37444 -0.423334,-4.7625 -0.740833,-0.88194 -4.515556,-4.16278 -4.833056,-4.16278 -0.14111,0 -0.529167,1.19945 -0.846667,2.64584 z"
       style="stroke-width:0.0352777;fill:#81d4fa;fill-opacity:1" />
    <path
       id="path15161"
       d="m 17.878571,136.4503 c -1.658056,3.59833 -1.72861,3.13972 0.9525,8.85472 1.516944,3.31611 2.39889,4.09222 2.786944,2.46944 0.987777,-4.30389 1.5875,-7.44361 1.5875,-8.18444 0,-0.49389 -0.846667,-2.01084 -1.940277,-3.56306 l -1.940277,-2.71639 z"
       style="stroke-width:0.0352777;fill:#81d4fa;fill-opacity:1" />
    <path
       id="path15163"
       d="m -11.437262,135.63891 c -1.728611,0.98777 -3.104444,1.86972 -3.104444,2.01083 0,0.45861 5.0799996,3.88056 5.3269436,3.63361 0.3175,-0.38805 1.375834,-5.29167 1.375834,-6.49111 0,-0.56444 -0.105834,-1.02306 -0.246945,-0.98778 -0.176389,0 -1.658055,0.84667 -3.3513886,1.83445 z"
       style="stroke-width:0.0352777;fill:#81d4fa;fill-opacity:1" />
    <path
       id="path15165"
       d="m 11.669682,134.5453 c -1.128887,1.27 -3.2808344,4.55083 -3.2808344,5.00944 0.03528,0.21167 0.458613,2.29306 0.98778,4.62139 0.7055544,2.99861 1.1288874,4.26861 1.5169434,4.33916 0.388057,0.0706 0.987777,-0.84666 2.010834,-2.99861 2.786943,-5.99722 2.71639,-5.36222 1.199443,-8.74888 -0.705553,-1.65806 -1.41111,-2.99862 -1.516943,-2.99862 -0.105834,0 -0.529167,0.35278 -0.917223,0.77612 z"
       style="stroke-width:0.0352777;fill:#81d4fa;fill-opacity:1" />
    <path
       id="path15167"
       d="m 39.433292,134.12196 c 0,0.81139 1.516946,7.40834 1.728613,7.40834 0.564443,-0.0353 5.009443,-3.59834 4.90361,-3.95112 -0.14111,-0.42333 -5.820833,-3.81 -6.35,-3.81 -0.14111,0 -0.282223,0.14112 -0.282223,0.35278 z"
       style="stroke-width:0.0352777;fill:#81d4fa;fill-opacity:1" />
    <path
       id="path15169"
       d="m -3.1469854,140.08391 c -2.04611,1.72861 -2.928054,2.75166 -2.928054,3.35138 0,0.28223 5.36222098,2.36362 5.57388698,2.15195 0.388057,-0.35278 0.529167,-5.89139 0.17639,-6.80861 -0.282223,-0.77611 -0.388056,-0.74083 -2.82222298,1.30528 z"
       style="stroke-width:0.0352777;fill:#81d4fa;fill-opacity:1" />
    <path
       id="path15171"
       d="m 32.024959,141.60085 c 0,1.79917 0.141112,3.4925 0.3175,3.77472 0.282223,0.42334 0.811389,0.24695 3.104446,-0.81139 l 2.751666,-1.34055 -2.54,-2.43417 c -1.411112,-1.34055 -2.822223,-2.43416 -3.104446,-2.43416 -0.423333,0 -0.529166,0.59972 -0.529166,3.24555 z"
       style="stroke-width:0.0352777;fill:#81d4fa;fill-opacity:1" />
    <path
       id="path15173"
       d="m 5.6019046,142.80029 c -2.010834,2.78695 -2.71639,3.95112 -2.434167,4.19806 0.282223,0.28222 5.25639,1.27 5.750277,1.16417 0.3175,-0.0706 0.246946,-0.98778 -0.28222,-3.63361 -0.35278,-1.94028 -0.81139,-3.66889 -0.9525,-3.84528 -0.17639,-0.14111 -1.093613,0.81139 -2.08139,2.11666 z"
       style="stroke-width:0.0352777;fill:#81d4fa;fill-opacity:1" />
    <path
       id="path15175"
       d="m 23.240792,144.21141 c -0.45861,2.04611 -0.705554,3.81 -0.635,3.91583 0.282223,0.24694 5.57389,-0.84667 5.997223,-1.27 0.282223,-0.28222 -3.845277,-6.38528 -4.339167,-6.38528 -0.14111,0 -0.599723,1.69333 -1.023056,3.73945 z"
       style="stroke-width:0.0352777;fill:#81d4fa;fill-opacity:1" />
    <path
       id="path15177"
       d="m 14.738848,143.68224 c -0.635,1.23472 -1.340553,2.82222 -1.5875,3.52778 -0.45861,1.23472 -0.423333,1.30527 0.282223,1.51694 1.023057,0.28222 4.515557,0.21167 5.25639,-0.0705 0.529167,-0.21167 0.45861,-0.59972 -0.81139,-3.42195 -0.77611,-1.76388 -1.552223,-3.31611 -1.72861,-3.49249 -0.17639,-0.17639 -0.776113,0.67027 -1.411113,1.94027 z"
       style="stroke-width:0.0352777;fill:#81d4fa;fill-opacity:1" />
  </g>
</svg>
